G04*
G04 #@! TF.GenerationSoftware,Altium Limited,Altium Designer,20.0.13 (296)*
G04*
G04 Layer_Color=8388736*
%FSLAX25Y25*%
%MOIN*%
G70*
G01*
G75*
%ADD15C,0.12611*%
%ADD16R,0.10642X0.10642*%
%ADD17C,0.08359*%
%ADD18C,0.06310*%
%ADD19R,0.06310X0.06310*%
%ADD20R,0.07800X0.07800*%
%ADD21C,0.07800*%
%ADD22C,0.05800*%
D15*
X302500Y420500D02*
D03*
X251000Y185500D02*
D03*
X623000Y309000D02*
D03*
X624000Y421000D02*
D03*
D16*
X251000Y249801D02*
D03*
X313000D02*
D03*
Y351801D02*
D03*
X251000D02*
D03*
D17*
X281000Y390000D02*
D03*
Y400000D02*
D03*
X261000D02*
D03*
Y390000D02*
D03*
X280500Y201000D02*
D03*
Y211000D02*
D03*
X260500D02*
D03*
Y201000D02*
D03*
D18*
X546500Y210000D02*
D03*
Y200000D02*
D03*
X536500Y210000D02*
D03*
Y200000D02*
D03*
X526500Y210000D02*
D03*
Y200000D02*
D03*
X516500Y210000D02*
D03*
Y200000D02*
D03*
X506500Y210000D02*
D03*
Y200000D02*
D03*
X496500Y210000D02*
D03*
Y200000D02*
D03*
X486500Y210000D02*
D03*
Y200000D02*
D03*
X476500Y210000D02*
D03*
Y200000D02*
D03*
X466500Y210000D02*
D03*
Y200000D02*
D03*
X456500Y210000D02*
D03*
Y200000D02*
D03*
X446500Y210000D02*
D03*
Y200000D02*
D03*
X436500Y210000D02*
D03*
Y200000D02*
D03*
X426500Y210000D02*
D03*
Y200000D02*
D03*
X416500Y210000D02*
D03*
Y200000D02*
D03*
X406500Y210000D02*
D03*
Y200000D02*
D03*
X396500Y210000D02*
D03*
Y200000D02*
D03*
X386500Y210000D02*
D03*
Y200000D02*
D03*
X376500Y210000D02*
D03*
Y200000D02*
D03*
X366500Y210000D02*
D03*
Y200000D02*
D03*
X356500Y210000D02*
D03*
Y200000D02*
D03*
X346500Y210000D02*
D03*
Y200000D02*
D03*
X336500Y210000D02*
D03*
Y200000D02*
D03*
X326500Y210000D02*
D03*
X546500Y400000D02*
D03*
Y390000D02*
D03*
X536500Y400000D02*
D03*
Y390000D02*
D03*
X526500Y400000D02*
D03*
Y390000D02*
D03*
X516500Y400000D02*
D03*
Y390000D02*
D03*
X506500Y400000D02*
D03*
Y390000D02*
D03*
X496500Y400000D02*
D03*
Y390000D02*
D03*
X486500Y400000D02*
D03*
Y390000D02*
D03*
X476500Y400000D02*
D03*
Y390000D02*
D03*
X466500Y400000D02*
D03*
Y390000D02*
D03*
X456500Y400000D02*
D03*
Y390000D02*
D03*
X446500Y400000D02*
D03*
Y390000D02*
D03*
X436500Y400000D02*
D03*
Y390000D02*
D03*
X426500Y400000D02*
D03*
Y390000D02*
D03*
X416500Y400000D02*
D03*
Y390000D02*
D03*
X406500Y400000D02*
D03*
Y390000D02*
D03*
X396500Y400000D02*
D03*
Y390000D02*
D03*
X386500Y400000D02*
D03*
Y390000D02*
D03*
X376500Y400000D02*
D03*
Y390000D02*
D03*
X366500Y400000D02*
D03*
Y390000D02*
D03*
X356500Y400000D02*
D03*
Y390000D02*
D03*
X346500Y400000D02*
D03*
Y390000D02*
D03*
X336500Y400000D02*
D03*
Y390000D02*
D03*
X326500Y400000D02*
D03*
D19*
Y200000D02*
D03*
Y390000D02*
D03*
D20*
X601000Y203500D02*
D03*
D21*
X611000D02*
D03*
X601000Y213500D02*
D03*
X611000D02*
D03*
X601000Y223500D02*
D03*
X611000D02*
D03*
X601000Y233500D02*
D03*
X611000D02*
D03*
X601000Y243500D02*
D03*
X611000D02*
D03*
X601000Y253500D02*
D03*
X611000D02*
D03*
X601000Y263500D02*
D03*
X611000D02*
D03*
X601000Y273500D02*
D03*
X611000D02*
D03*
X601000Y283500D02*
D03*
X611000D02*
D03*
X601000Y293500D02*
D03*
X611000D02*
D03*
X601000Y303500D02*
D03*
X611000D02*
D03*
X601000Y313500D02*
D03*
X611000D02*
D03*
X601000Y323500D02*
D03*
X611000D02*
D03*
X601000Y333500D02*
D03*
X611000D02*
D03*
X601000Y343500D02*
D03*
X611000D02*
D03*
X601000Y353500D02*
D03*
X611000D02*
D03*
X601000Y363500D02*
D03*
X611000D02*
D03*
X601000Y373500D02*
D03*
X611000D02*
D03*
Y383500D02*
D03*
X601000D02*
D03*
X611000Y393500D02*
D03*
X601000D02*
D03*
D22*
X561000Y293500D02*
D03*
X576170Y407900D02*
D03*
X617000Y348000D02*
D03*
X587900Y357200D02*
D03*
X439500Y409300D02*
D03*
X320800Y374000D02*
D03*
X589500Y212900D02*
D03*
X584500Y393200D02*
D03*
X472200Y412700D02*
D03*
X588500Y199700D02*
D03*
X363500Y233500D02*
D03*
X354800Y333500D02*
D03*
X448600Y224600D02*
D03*
X547100Y379700D02*
D03*
X554600Y380100D02*
D03*
X466500Y223500D02*
D03*
X437600Y348900D02*
D03*
X595000D02*
D03*
X516500Y313500D02*
D03*
M02*
