M48
;Layer_Color=9474304
;FILE_FORMAT=2:4
INCH,TZ
;TYPE=PLATED
T1F00S00C0.0280
T2F00S00C0.0394
T3F00S00C0.0400
T4F00S00C0.0441
T5F00S00C0.0591
T6F00S00C0.0984
%
T01
X58850Y19970
X58950Y21290
X56100Y29350
X46650Y22350
X44860Y22460
X36350Y23350
X35480Y33350
X32080Y37400
X43760Y34890
X43950Y40930
X47220Y41270
X54710Y37970
X55460Y38010
X58450Y39320
X57617Y40790
X58790Y35720
X59500Y34890
X61700Y34800
X51650Y31350
T02
X47650Y20000
X48650
X49650
X50650
X51650
X52650
X53650
X54650
Y21000
X53650
X52650
X51650
X50650
X49650
X48650
X47650
X46650
Y20000
X45650
Y21000
X44650
Y20000
X43650
Y21000
X42650
Y20000
X41650
Y21000
X40650
Y20000
X39650
Y21000
X38650
Y20000
X37650
Y21000
X36650
Y20000
X35650
Y21000
X34650
Y20000
X33650
Y21000
X32650
Y20000
Y39000
X33650
X34650
X35650
X36650
X37650
X38650
X39650
X40650
X41650
X42650
X43650
X44650
X45650
X46650
Y40000
X45650
X44650
X43650
X42650
X41650
X40650
X39650
X38650
X37650
X36650
X35650
X34650
X33650
X32650
X47650
X48650
X49650
X50650
X51650
X52650
X53650
X54650
Y39000
X53650
X52650
X51650
X50650
X49650
X48650
X47650
T03
X60100Y20350
X61100
Y21350
X60100
Y22350
X61100
Y23350
X60100
Y24350
X61100
Y25350
X60100
Y26350
X61100
Y27350
X60100
Y28350
X61100
Y29350
X60100
Y30350
X61100
Y31350
X60100
Y32350
X61100
Y33350
X60100
Y34350
X61100
Y35350
X60100
Y36350
X61100
Y37350
X60100
Y38350
X61100
Y39350
X60100
T04
X26050Y20100
Y21100
X28050
Y20100
X28100Y39000
Y40000
X26100
Y39000
T05
X31300Y24980
X25100
Y35180
X31300
T06
X62300Y30900
X25100Y18550
X30250Y42050
X62400Y42100
M30
