G04 ================== begin FILE IDENTIFICATION RECORD ==================*
G04 Layout Name:  R:/nHD EVM Rev2/LAYOUT/03-16-17/nHD EVM Rev2 031617.brd*
G04 Film Name:    111609-01_assyb*
G04 File Format:  Gerber RS274X*
G04 File Origin:  Cadence Allegro 16.6-2015-S082*
G04 Origin Date:  Thu Mar 16 08:39:41 2017*
G04 *
G04 Layer:  BOARD GEOMETRY/SILKSCREEN_BOTTOM*
G04 Layer:  REF DES/ASSEMBLY_BOTTOM*
G04 Layer:  PACKAGE GEOMETRY/SILKSCREEN_BOTTOM*
G04 Layer:  DRAWING FORMAT/TITLE_TOP*
G04 Layer:  BOARD GEOMETRY/OUTLINE*
G04 *
G04 Offset:    (0.000 0.000)*
G04 Mirror:    No*
G04 Mode:      Positive*
G04 Rotation:  0*
G04 FullContactRelief:  No*
G04 UndefLineWidth:     6.000*
G04 ================== end FILE IDENTIFICATION RECORD ====================*
%FSLAX25Y25*MOIN*%
%IR0*IPPOS*OFA0.00000B0.00000*MIA0B0*SFA1.00000B1.00000*%
%ADD10C,.004*%
%ADD11C,.005*%
%ADD12C,.006*%
%ADD13C,.007*%
%ADD14C,.01*%
G75*
%LPD*%
G75*
G54D10*
G01X25150Y58433D02*
X22650D01*
Y57767D01*
X22775Y57553D01*
X22942Y57420D01*
X23275Y57367D01*
X23608Y57420D01*
X23817Y57580D01*
X23942Y57767D01*
Y58433D01*
G01Y57767D02*
X25150Y57367D01*
G01Y55700D02*
X22650D01*
X23150Y56020D01*
G01X25150D02*
Y55380D01*
G01X23067Y54007D02*
X22817Y53847D01*
X22692Y53660D01*
X22650Y53447D01*
X22733Y53180D01*
X22942Y52993D01*
X23192Y52940D01*
X23442Y52967D01*
X23650Y53073D01*
X24067Y53607D01*
X24358Y53847D01*
X24775Y54007D01*
X25150Y54060D01*
Y52940D01*
G01Y50980D02*
X22650D01*
X24442Y51967D01*
Y50633D01*
G01X61943Y111762D02*
X62103Y111887D01*
X62290Y111970D01*
X62503D01*
X62743Y111845D01*
X62930Y111637D01*
X63063Y111387D01*
X63170Y110970D01*
X63197Y110595D01*
X63143Y110220D01*
X63063Y109970D01*
X62903Y109720D01*
X62717Y109553D01*
X62530Y109470D01*
X62343D01*
X62157Y109553D01*
X61997Y109678D01*
X61863Y109845D01*
G01X60330Y109470D02*
Y111970D01*
X60650Y111470D01*
G01Y109470D02*
X60010D01*
G01X58637Y111553D02*
X58477Y111803D01*
X58290Y111928D01*
X58077Y111970D01*
X57810Y111887D01*
X57623Y111678D01*
X57570Y111428D01*
X57597Y111178D01*
X57703Y110970D01*
X58237Y110553D01*
X58477Y110262D01*
X58637Y109845D01*
X58690Y109470D01*
X57570D01*
G01X56517Y109845D02*
X56357Y109637D01*
X56170Y109512D01*
X55930Y109470D01*
X55690Y109553D01*
X55503Y109720D01*
X55370Y110012D01*
X55343Y110345D01*
X55397Y110678D01*
X55530Y110887D01*
X55717Y111053D01*
X55903Y111095D01*
X56090Y111053D01*
X56330Y110887D01*
X56250Y111970D01*
X55530D01*
G01X45987Y106310D02*
Y103810D01*
X46653D01*
X46867Y103935D01*
X47000Y104102D01*
X47053Y104435D01*
X47000Y104768D01*
X46840Y104977D01*
X46653Y105102D01*
X45987D01*
G01X46653D02*
X47053Y106310D01*
G01X48720D02*
Y103810D01*
X48400Y104310D01*
G01Y106310D02*
X49040D01*
G01X50920D02*
Y103810D01*
X50600Y104310D01*
G01Y106310D02*
X51240D01*
G01X52533Y105810D02*
X52693Y106102D01*
X52907Y106268D01*
X53147Y106310D01*
X53360Y106268D01*
X53573Y106060D01*
X53707Y105810D01*
X53733Y105560D01*
X53680Y105268D01*
X53493Y105060D01*
X53307Y104977D01*
X53067D01*
G01X53307D02*
X53467Y104852D01*
X53600Y104643D01*
X53653Y104393D01*
X53600Y104143D01*
X53467Y103935D01*
X53227Y103810D01*
X52987Y103852D01*
X52747Y104018D01*
G01X45987Y109160D02*
Y106660D01*
X46653D01*
X46867Y106785D01*
X47000Y106952D01*
X47053Y107285D01*
X47000Y107618D01*
X46840Y107827D01*
X46653Y107952D01*
X45987D01*
G01X46653D02*
X47053Y109160D01*
G01X48720D02*
Y106660D01*
X48400Y107160D01*
G01Y109160D02*
X49040D01*
G01X50920Y106660D02*
X50707Y106743D01*
X50547Y106952D01*
X50440Y107202D01*
X50360Y107535D01*
X50333Y107910D01*
X50360Y108285D01*
X50440Y108618D01*
X50547Y108868D01*
X50707Y109077D01*
X50920Y109160D01*
X51133Y109077D01*
X51293Y108868D01*
X51400Y108618D01*
X51480Y108285D01*
X51507Y107910D01*
X51480Y107535D01*
X51400Y107202D01*
X51293Y106952D01*
X51133Y106743D01*
X50920Y106660D01*
G01X52613Y108118D02*
X52800Y107827D01*
X52960Y107660D01*
X53173Y107577D01*
X53360Y107660D01*
X53493Y107827D01*
X53600Y108077D01*
X53627Y108368D01*
X53600Y108618D01*
X53493Y108868D01*
X53333Y109077D01*
X53147Y109160D01*
X52933Y109077D01*
X52747Y108827D01*
X52640Y108452D01*
X52613Y108035D01*
X52667Y107493D01*
X52747Y107202D01*
X52880Y106910D01*
X53067Y106702D01*
X53253Y106660D01*
X53440Y106743D01*
X53573Y106952D01*
G01X45987Y112010D02*
Y109510D01*
X46653D01*
X46867Y109635D01*
X47000Y109802D01*
X47053Y110135D01*
X47000Y110468D01*
X46840Y110677D01*
X46653Y110802D01*
X45987D01*
G01X46653D02*
X47053Y112010D01*
G01X48720D02*
Y109510D01*
X48400Y110010D01*
G01Y112010D02*
X49040D01*
G01X50920Y109510D02*
X50707Y109593D01*
X50547Y109802D01*
X50440Y110052D01*
X50360Y110385D01*
X50333Y110760D01*
X50360Y111135D01*
X50440Y111468D01*
X50547Y111718D01*
X50707Y111927D01*
X50920Y112010D01*
X51133Y111927D01*
X51293Y111718D01*
X51400Y111468D01*
X51480Y111135D01*
X51507Y110760D01*
X51480Y110385D01*
X51400Y110052D01*
X51293Y109802D01*
X51133Y109593D01*
X50920Y109510D01*
G01X52533Y111635D02*
X52693Y111843D01*
X52880Y111968D01*
X53120Y112010D01*
X53360Y111927D01*
X53547Y111760D01*
X53680Y111468D01*
X53707Y111135D01*
X53653Y110802D01*
X53520Y110593D01*
X53333Y110427D01*
X53147Y110385D01*
X52960Y110427D01*
X52720Y110593D01*
X52800Y109510D01*
X53520D01*
G01X62103Y120192D02*
X62263Y120317D01*
X62450Y120400D01*
X62663D01*
X62903Y120275D01*
X63090Y120067D01*
X63223Y119817D01*
X63330Y119400D01*
X63357Y119025D01*
X63303Y118650D01*
X63223Y118400D01*
X63063Y118150D01*
X62877Y117983D01*
X62690Y117900D01*
X62503D01*
X62317Y117983D01*
X62157Y118108D01*
X62023Y118275D01*
G01X60490Y117900D02*
Y120400D01*
X60810Y119900D01*
G01Y117900D02*
X60170D01*
G01X58797Y119983D02*
X58637Y120233D01*
X58450Y120358D01*
X58237Y120400D01*
X57970Y120317D01*
X57783Y120108D01*
X57730Y119858D01*
X57757Y119608D01*
X57863Y119400D01*
X58397Y118983D01*
X58637Y118692D01*
X58797Y118275D01*
X58850Y117900D01*
X57730D01*
G01X55770D02*
Y120400D01*
X56757Y118608D01*
X55423D01*
G01X68933Y99732D02*
X69093Y99857D01*
X69280Y99940D01*
X69493D01*
X69733Y99815D01*
X69920Y99607D01*
X70053Y99357D01*
X70160Y98940D01*
X70187Y98565D01*
X70133Y98190D01*
X70053Y97940D01*
X69893Y97690D01*
X69707Y97523D01*
X69520Y97440D01*
X69333D01*
X69147Y97523D01*
X68987Y97648D01*
X68853Y97815D01*
G01X67320Y97440D02*
Y99940D01*
X67640Y99440D01*
G01Y97440D02*
X67000D01*
G01X65627Y99523D02*
X65467Y99773D01*
X65280Y99898D01*
X65067Y99940D01*
X64800Y99857D01*
X64613Y99648D01*
X64560Y99398D01*
X64587Y99148D01*
X64693Y98940D01*
X65227Y98523D01*
X65467Y98232D01*
X65627Y97815D01*
X65680Y97440D01*
X64560D01*
G01X62920D02*
X62733Y97482D01*
X62520Y97607D01*
X62387Y97815D01*
X62333Y98107D01*
X62387Y98398D01*
X62547Y98648D01*
X62787Y98773D01*
X63053D01*
X63213Y98857D01*
X63347Y99065D01*
X63400Y99357D01*
X63320Y99648D01*
X63133Y99857D01*
X62920Y99940D01*
X62707Y99857D01*
X62520Y99648D01*
X62440Y99357D01*
X62493Y99065D01*
X62627Y98857D01*
X62787Y98773D01*
X63053D01*
X63293Y98648D01*
X63453Y98398D01*
X63507Y98107D01*
X63453Y97815D01*
X63320Y97607D01*
X63107Y97482D01*
X62920Y97440D01*
G01X71317Y119958D02*
X71157Y119833D01*
X70970Y119750D01*
X70757D01*
X70517Y119875D01*
X70330Y120083D01*
X70197Y120333D01*
X70090Y120750D01*
X70063Y121125D01*
X70117Y121500D01*
X70197Y121750D01*
X70357Y122000D01*
X70543Y122167D01*
X70730Y122250D01*
X70917D01*
X71103Y122167D01*
X71263Y122042D01*
X71397Y121875D01*
G01X72930Y122250D02*
Y119750D01*
X72610Y120250D01*
G01Y122250D02*
X73250D01*
G01X74623Y120167D02*
X74783Y119917D01*
X74970Y119792D01*
X75183Y119750D01*
X75450Y119833D01*
X75637Y120042D01*
X75690Y120292D01*
X75663Y120542D01*
X75557Y120750D01*
X75023Y121167D01*
X74783Y121458D01*
X74623Y121875D01*
X74570Y122250D01*
X75690D01*
G01X77277D02*
X77330Y121708D01*
X77410Y121250D01*
X77517Y120833D01*
X77650Y120375D01*
X77863Y119750D01*
X76797D01*
G01X67167Y132450D02*
Y129950D01*
X67833D01*
X68047Y130075D01*
X68180Y130242D01*
X68233Y130575D01*
X68180Y130908D01*
X68020Y131117D01*
X67833Y131242D01*
X67167D01*
G01X67833D02*
X68233Y132450D01*
G01X69900D02*
Y129950D01*
X69580Y130450D01*
G01Y132450D02*
X70220D01*
G01X72100Y129950D02*
X71887Y130033D01*
X71727Y130242D01*
X71620Y130492D01*
X71540Y130825D01*
X71513Y131200D01*
X71540Y131575D01*
X71620Y131908D01*
X71727Y132158D01*
X71887Y132367D01*
X72100Y132450D01*
X72313Y132367D01*
X72473Y132158D01*
X72580Y131908D01*
X72660Y131575D01*
X72687Y131200D01*
X72660Y130825D01*
X72580Y130492D01*
X72473Y130242D01*
X72313Y130033D01*
X72100Y129950D01*
G01X73847Y132158D02*
X74033Y132367D01*
X74247Y132450D01*
X74460Y132367D01*
X74647Y132117D01*
X74780Y131742D01*
X74833Y131367D01*
Y130908D01*
X74780Y130533D01*
X74647Y130200D01*
X74487Y130033D01*
X74300Y129950D01*
X74087Y130033D01*
X73927Y130200D01*
X73820Y130450D01*
X73767Y130783D01*
X73820Y131075D01*
X73953Y131367D01*
X74113Y131533D01*
X74300Y131575D01*
X74513Y131492D01*
X74673Y131283D01*
X74833Y130908D01*
G01X69172Y150937D02*
X69297Y150777D01*
X69380Y150590D01*
Y150377D01*
X69255Y150137D01*
X69047Y149950D01*
X68797Y149817D01*
X68380Y149710D01*
X68005Y149683D01*
X67630Y149737D01*
X67380Y149817D01*
X67130Y149977D01*
X66963Y150163D01*
X66880Y150350D01*
Y150537D01*
X66963Y150723D01*
X67088Y150883D01*
X67255Y151017D01*
G01X66880Y152550D02*
X69380D01*
X68880Y152230D01*
G01X66880D02*
Y152870D01*
G01X68963Y154243D02*
X69213Y154403D01*
X69338Y154590D01*
X69380Y154803D01*
X69297Y155070D01*
X69088Y155257D01*
X68838Y155310D01*
X68588Y155283D01*
X68380Y155177D01*
X67963Y154643D01*
X67672Y154403D01*
X67255Y154243D01*
X66880Y154190D01*
Y155310D01*
G01X68963Y156443D02*
X69213Y156603D01*
X69338Y156790D01*
X69380Y157003D01*
X69297Y157270D01*
X69088Y157457D01*
X68838Y157510D01*
X68588Y157483D01*
X68380Y157377D01*
X67963Y156843D01*
X67672Y156603D01*
X67255Y156443D01*
X66880Y156390D01*
Y157510D01*
G01X67810Y142947D02*
X70310D01*
Y143613D01*
X70185Y143827D01*
X70018Y143960D01*
X69685Y144013D01*
X69352Y143960D01*
X69143Y143800D01*
X69018Y143613D01*
Y142947D01*
G01Y143613D02*
X67810Y144013D01*
G01Y145680D02*
X70310D01*
X69810Y145360D01*
G01X67810D02*
Y146000D01*
G01X70310Y147880D02*
X70227Y147667D01*
X70018Y147507D01*
X69768Y147400D01*
X69435Y147320D01*
X69060Y147293D01*
X68685Y147320D01*
X68352Y147400D01*
X68102Y147507D01*
X67893Y147667D01*
X67810Y147880D01*
X67893Y148093D01*
X68102Y148253D01*
X68352Y148360D01*
X68685Y148440D01*
X69060Y148467D01*
X69435Y148440D01*
X69768Y148360D01*
X70018Y148253D01*
X70227Y148093D01*
X70310Y147880D01*
G01X69893Y149573D02*
X70143Y149733D01*
X70268Y149920D01*
X70310Y150133D01*
X70227Y150400D01*
X70018Y150587D01*
X69768Y150640D01*
X69518Y150613D01*
X69310Y150507D01*
X68893Y149973D01*
X68602Y149733D01*
X68185Y149573D01*
X67810Y149520D01*
Y150640D01*
G01X80687Y112590D02*
Y110090D01*
X81353D01*
X81567Y110215D01*
X81700Y110382D01*
X81753Y110715D01*
X81700Y111048D01*
X81540Y111257D01*
X81353Y111382D01*
X80687D01*
G01X81353D02*
X81753Y112590D01*
G01X83420D02*
Y110090D01*
X83100Y110590D01*
G01Y112590D02*
X83740D01*
G01X85620D02*
Y110090D01*
X85300Y110590D01*
G01Y112590D02*
X85940D01*
G01X88140D02*
Y110090D01*
X87153Y111882D01*
X88487D01*
G01X79817Y110290D02*
Y107790D01*
X80483D01*
X80697Y107915D01*
X80830Y108082D01*
X80883Y108415D01*
X80830Y108748D01*
X80670Y108957D01*
X80483Y109082D01*
X79817D01*
G01X80483D02*
X80883Y110290D01*
G01X82550D02*
Y107790D01*
X82230Y108290D01*
G01Y110290D02*
X82870D01*
G01X84750D02*
Y107790D01*
X84430Y108290D01*
G01Y110290D02*
X85070D01*
G01X86363Y109915D02*
X86523Y110123D01*
X86710Y110248D01*
X86950Y110290D01*
X87190Y110207D01*
X87377Y110040D01*
X87510Y109748D01*
X87537Y109415D01*
X87483Y109082D01*
X87350Y108873D01*
X87163Y108707D01*
X86977Y108665D01*
X86790Y108707D01*
X86550Y108873D01*
X86630Y107790D01*
X87350D01*
G01X73220Y121697D02*
X75720D01*
Y122363D01*
X75595Y122577D01*
X75428Y122710D01*
X75095Y122763D01*
X74762Y122710D01*
X74553Y122550D01*
X74428Y122363D01*
Y121697D01*
G01Y122363D02*
X73220Y122763D01*
G01Y124430D02*
X75720D01*
X75220Y124110D01*
G01X73220D02*
Y124750D01*
G01X75720Y126630D02*
X75637Y126417D01*
X75428Y126257D01*
X75178Y126150D01*
X74845Y126070D01*
X74470Y126043D01*
X74095Y126070D01*
X73762Y126150D01*
X73512Y126257D01*
X73303Y126417D01*
X73220Y126630D01*
X73303Y126843D01*
X73512Y127003D01*
X73762Y127110D01*
X74095Y127190D01*
X74470Y127217D01*
X74845Y127190D01*
X75178Y127110D01*
X75428Y127003D01*
X75637Y126843D01*
X75720Y126630D01*
G01X73220Y128830D02*
X73262Y129017D01*
X73387Y129230D01*
X73595Y129363D01*
X73887Y129417D01*
X74178Y129363D01*
X74428Y129203D01*
X74553Y128963D01*
Y128697D01*
X74637Y128537D01*
X74845Y128403D01*
X75137Y128350D01*
X75428Y128430D01*
X75637Y128617D01*
X75720Y128830D01*
X75637Y129043D01*
X75428Y129230D01*
X75137Y129310D01*
X74845Y129257D01*
X74637Y129123D01*
X74553Y128963D01*
Y128697D01*
X74428Y128457D01*
X74178Y128297D01*
X73887Y128243D01*
X73595Y128297D01*
X73387Y128430D01*
X73262Y128643D01*
X73220Y128830D01*
G01X73213Y145983D02*
X74387Y144150D01*
G01X73800Y143817D02*
Y146317D01*
G01X74387Y145983D02*
X73213Y144150D01*
G01X73000Y145067D02*
X74600D01*
G01X85830Y160920D02*
X84710Y163420D01*
G01X85830D02*
X84710Y160920D01*
G01X83657D02*
Y163420D01*
X83123D01*
X82910Y163295D01*
X82750Y163128D01*
X82617Y162878D01*
X82510Y162587D01*
X82483Y162170D01*
X82510Y161753D01*
X82617Y161462D01*
X82750Y161212D01*
X82910Y161045D01*
X83123Y160920D01*
X83657D01*
G01X80870D02*
Y163420D01*
X81190Y162920D01*
G01Y160920D02*
X80550D01*
G01X78670Y163420D02*
X78883Y163337D01*
X79043Y163128D01*
X79150Y162878D01*
X79230Y162545D01*
X79257Y162170D01*
X79230Y161795D01*
X79150Y161462D01*
X79043Y161212D01*
X78883Y161003D01*
X78670Y160920D01*
X78457Y161003D01*
X78297Y161212D01*
X78190Y161462D01*
X78110Y161795D01*
X78083Y162170D01*
X78110Y162545D01*
X78190Y162878D01*
X78297Y163128D01*
X78457Y163337D01*
X78670Y163420D01*
G01X76470D02*
X76683Y163337D01*
X76843Y163128D01*
X76950Y162878D01*
X77030Y162545D01*
X77057Y162170D01*
X77030Y161795D01*
X76950Y161462D01*
X76843Y161212D01*
X76683Y161003D01*
X76470Y160920D01*
X76257Y161003D01*
X76097Y161212D01*
X75990Y161462D01*
X75910Y161795D01*
X75883Y162170D01*
X75910Y162545D01*
X75990Y162878D01*
X76097Y163128D01*
X76257Y163337D01*
X76470Y163420D01*
G01X88300Y52537D02*
X90800D01*
Y53203D01*
X90675Y53417D01*
X90508Y53550D01*
X90175Y53603D01*
X89842Y53550D01*
X89633Y53390D01*
X89508Y53203D01*
Y52537D01*
G01Y53203D02*
X88300Y53603D01*
G01Y55270D02*
X90800D01*
X90300Y54950D01*
G01X88300D02*
Y55590D01*
G01X90383Y56963D02*
X90633Y57123D01*
X90758Y57310D01*
X90800Y57523D01*
X90717Y57790D01*
X90508Y57977D01*
X90258Y58030D01*
X90008Y58003D01*
X89800Y57897D01*
X89383Y57363D01*
X89092Y57123D01*
X88675Y56963D01*
X88300Y56910D01*
Y58030D01*
G01X88800Y59083D02*
X88508Y59243D01*
X88342Y59457D01*
X88300Y59697D01*
X88342Y59910D01*
X88550Y60123D01*
X88800Y60257D01*
X89050Y60283D01*
X89342Y60230D01*
X89550Y60043D01*
X89633Y59857D01*
Y59617D01*
G01Y59857D02*
X89758Y60017D01*
X89967Y60150D01*
X90217Y60203D01*
X90467Y60150D01*
X90675Y60017D01*
X90800Y59777D01*
X90758Y59537D01*
X90592Y59297D01*
G01X93300Y52537D02*
X95800D01*
Y53203D01*
X95675Y53417D01*
X95508Y53550D01*
X95175Y53603D01*
X94842Y53550D01*
X94633Y53390D01*
X94508Y53203D01*
Y52537D01*
G01Y53203D02*
X93300Y53603D01*
G01Y55270D02*
X95800D01*
X95300Y54950D01*
G01X93300D02*
Y55590D01*
G01X95383Y56963D02*
X95633Y57123D01*
X95758Y57310D01*
X95800Y57523D01*
X95717Y57790D01*
X95508Y57977D01*
X95258Y58030D01*
X95008Y58003D01*
X94800Y57897D01*
X94383Y57363D01*
X94092Y57123D01*
X93675Y56963D01*
X93300Y56910D01*
Y58030D01*
G01X95383Y59163D02*
X95633Y59323D01*
X95758Y59510D01*
X95800Y59723D01*
X95717Y59990D01*
X95508Y60177D01*
X95258Y60230D01*
X95008Y60203D01*
X94800Y60097D01*
X94383Y59563D01*
X94092Y59323D01*
X93675Y59163D01*
X93300Y59110D01*
Y60230D01*
G01Y88847D02*
X95800D01*
Y89513D01*
X95675Y89727D01*
X95508Y89860D01*
X95175Y89913D01*
X94842Y89860D01*
X94633Y89700D01*
X94508Y89513D01*
Y88847D01*
G01Y89513D02*
X93300Y89913D01*
G01Y91580D02*
X95800D01*
X95300Y91260D01*
G01X93300D02*
Y91900D01*
G01X95383Y93273D02*
X95633Y93433D01*
X95758Y93620D01*
X95800Y93833D01*
X95717Y94100D01*
X95508Y94287D01*
X95258Y94340D01*
X95008Y94313D01*
X94800Y94207D01*
X94383Y93673D01*
X94092Y93433D01*
X93675Y93273D01*
X93300Y93220D01*
Y94340D01*
G01X95800Y95980D02*
X95717Y95767D01*
X95508Y95607D01*
X95258Y95500D01*
X94925Y95420D01*
X94550Y95393D01*
X94175Y95420D01*
X93842Y95500D01*
X93592Y95607D01*
X93383Y95767D01*
X93300Y95980D01*
X93383Y96193D01*
X93592Y96353D01*
X93842Y96460D01*
X94175Y96540D01*
X94550Y96567D01*
X94925Y96540D01*
X95258Y96460D01*
X95508Y96353D01*
X95717Y96193D01*
X95800Y95980D01*
G01X90802Y90227D02*
X90927Y90067D01*
X91010Y89880D01*
Y89667D01*
X90885Y89427D01*
X90677Y89240D01*
X90427Y89107D01*
X90010Y89000D01*
X89635Y88973D01*
X89260Y89027D01*
X89010Y89107D01*
X88760Y89267D01*
X88593Y89453D01*
X88510Y89640D01*
Y89827D01*
X88593Y90013D01*
X88718Y90173D01*
X88885Y90307D01*
G01X88510Y91840D02*
X91010D01*
X90510Y91520D01*
G01X88510D02*
Y92160D01*
G01X89010Y93453D02*
X88718Y93613D01*
X88552Y93827D01*
X88510Y94067D01*
X88552Y94280D01*
X88760Y94493D01*
X89010Y94627D01*
X89260Y94653D01*
X89552Y94600D01*
X89760Y94413D01*
X89843Y94227D01*
Y93987D01*
G01Y94227D02*
X89968Y94387D01*
X90177Y94520D01*
X90427Y94573D01*
X90677Y94520D01*
X90885Y94387D01*
X91010Y94147D01*
X90968Y93907D01*
X90802Y93667D01*
G01X88510Y96240D02*
X91010D01*
X90510Y95920D01*
G01X88510D02*
Y96560D01*
G01X101817Y139010D02*
Y141510D01*
X100803D01*
G01X101177Y140302D02*
X101817D01*
G01X99110Y139010D02*
Y141510D01*
X99430Y141010D01*
G01Y139010D02*
X98790D01*
G01X96910Y141510D02*
X97123Y141427D01*
X97283Y141218D01*
X97390Y140968D01*
X97470Y140635D01*
X97497Y140260D01*
X97470Y139885D01*
X97390Y139552D01*
X97283Y139302D01*
X97123Y139093D01*
X96910Y139010D01*
X96697Y139093D01*
X96537Y139302D01*
X96430Y139552D01*
X96350Y139885D01*
X96323Y140260D01*
X96350Y140635D01*
X96430Y140968D01*
X96537Y141218D01*
X96697Y141427D01*
X96910Y141510D01*
G01X94710Y139010D02*
Y141510D01*
X95030Y141010D01*
G01Y139010D02*
X94390D01*
G01X92592Y152747D02*
X92717Y152587D01*
X92800Y152400D01*
Y152187D01*
X92675Y151947D01*
X92467Y151760D01*
X92217Y151627D01*
X91800Y151520D01*
X91425Y151493D01*
X91050Y151547D01*
X90800Y151627D01*
X90550Y151787D01*
X90383Y151973D01*
X90300Y152160D01*
Y152347D01*
X90383Y152533D01*
X90508Y152693D01*
X90675Y152827D01*
G01X90300Y154360D02*
X92800D01*
X92300Y154040D01*
G01X90300D02*
Y154680D01*
G01Y156560D02*
X92800D01*
X92300Y156240D01*
G01X90300D02*
Y156880D01*
G01Y158760D02*
X92800D01*
X92300Y158440D01*
G01X90300D02*
Y159080D01*
G01X94587Y148550D02*
Y151050D01*
X93573D01*
G01X93947Y149842D02*
X94587D01*
G01X91880Y148550D02*
Y151050D01*
X92200Y150550D01*
G01Y148550D02*
X91560D01*
G01X89680Y151050D02*
X89893Y150967D01*
X90053Y150758D01*
X90160Y150508D01*
X90240Y150175D01*
X90267Y149800D01*
X90240Y149425D01*
X90160Y149092D01*
X90053Y148842D01*
X89893Y148633D01*
X89680Y148550D01*
X89467Y148633D01*
X89307Y148842D01*
X89200Y149092D01*
X89120Y149425D01*
X89093Y149800D01*
X89120Y150175D01*
X89200Y150508D01*
X89307Y150758D01*
X89467Y150967D01*
X89680Y151050D01*
G01X87480D02*
X87693Y150967D01*
X87853Y150758D01*
X87960Y150508D01*
X88040Y150175D01*
X88067Y149800D01*
X88040Y149425D01*
X87960Y149092D01*
X87853Y148842D01*
X87693Y148633D01*
X87480Y148550D01*
X87267Y148633D01*
X87107Y148842D01*
X87000Y149092D01*
X86920Y149425D01*
X86893Y149800D01*
X86920Y150175D01*
X87000Y150508D01*
X87107Y150758D01*
X87267Y150967D01*
X87480Y151050D01*
G01X91540Y153277D02*
X94040D01*
Y153943D01*
X93915Y154157D01*
X93748Y154290D01*
X93415Y154343D01*
X93082Y154290D01*
X92873Y154130D01*
X92748Y153943D01*
Y153277D01*
G01Y153943D02*
X91540Y154343D01*
G01Y156010D02*
X94040D01*
X93540Y155690D01*
G01X91540D02*
Y156330D01*
G01X94040Y158210D02*
X93957Y157997D01*
X93748Y157837D01*
X93498Y157730D01*
X93165Y157650D01*
X92790Y157623D01*
X92415Y157650D01*
X92082Y157730D01*
X91832Y157837D01*
X91623Y157997D01*
X91540Y158210D01*
X91623Y158423D01*
X91832Y158583D01*
X92082Y158690D01*
X92415Y158770D01*
X92790Y158797D01*
X93165Y158770D01*
X93498Y158690D01*
X93748Y158583D01*
X93957Y158423D01*
X94040Y158210D01*
G01X91540Y160410D02*
X94040D01*
X93540Y160090D01*
G01X91540D02*
Y160730D01*
G01X98300Y52537D02*
X100800D01*
Y53203D01*
X100675Y53417D01*
X100508Y53550D01*
X100175Y53603D01*
X99842Y53550D01*
X99633Y53390D01*
X99508Y53203D01*
Y52537D01*
G01Y53203D02*
X98300Y53603D01*
G01Y55270D02*
X100800D01*
X100300Y54950D01*
G01X98300D02*
Y55590D01*
G01X100383Y56963D02*
X100633Y57123D01*
X100758Y57310D01*
X100800Y57523D01*
X100717Y57790D01*
X100508Y57977D01*
X100258Y58030D01*
X100008Y58003D01*
X99800Y57897D01*
X99383Y57363D01*
X99092Y57123D01*
X98675Y56963D01*
X98300Y56910D01*
Y58030D01*
G01Y59670D02*
X100800D01*
X100300Y59350D01*
G01X98300D02*
Y59990D01*
G01Y88847D02*
X100800D01*
Y89513D01*
X100675Y89727D01*
X100508Y89860D01*
X100175Y89913D01*
X99842Y89860D01*
X99633Y89700D01*
X99508Y89513D01*
Y88847D01*
G01Y89513D02*
X98300Y89913D01*
G01Y91580D02*
X100800D01*
X100300Y91260D01*
G01X98300D02*
Y91900D01*
G01Y93780D02*
X100800D01*
X100300Y93460D01*
G01X98300D02*
Y94100D01*
G01X98592Y95527D02*
X98383Y95713D01*
X98300Y95927D01*
X98383Y96140D01*
X98633Y96327D01*
X99008Y96460D01*
X99383Y96513D01*
X99842D01*
X100217Y96460D01*
X100550Y96327D01*
X100717Y96167D01*
X100800Y95980D01*
X100717Y95767D01*
X100550Y95607D01*
X100300Y95500D01*
X99967Y95447D01*
X99675Y95500D01*
X99383Y95633D01*
X99217Y95793D01*
X99175Y95980D01*
X99258Y96193D01*
X99467Y96353D01*
X99842Y96513D01*
G01X103300Y88847D02*
X105800D01*
Y89513D01*
X105675Y89727D01*
X105508Y89860D01*
X105175Y89913D01*
X104842Y89860D01*
X104633Y89700D01*
X104508Y89513D01*
Y88847D01*
G01Y89513D02*
X103300Y89913D01*
G01Y91580D02*
X105800D01*
X105300Y91260D01*
G01X103300D02*
Y91900D01*
G01Y93780D02*
X105800D01*
X105300Y93460D01*
G01X103300D02*
Y94100D01*
G01Y95980D02*
X103342Y96167D01*
X103467Y96380D01*
X103675Y96513D01*
X103967Y96567D01*
X104258Y96513D01*
X104508Y96353D01*
X104633Y96113D01*
Y95847D01*
X104717Y95687D01*
X104925Y95553D01*
X105217Y95500D01*
X105508Y95580D01*
X105717Y95767D01*
X105800Y95980D01*
X105717Y96193D01*
X105508Y96380D01*
X105217Y96460D01*
X104925Y96407D01*
X104717Y96273D01*
X104633Y96113D01*
Y95847D01*
X104508Y95607D01*
X104258Y95447D01*
X103967Y95393D01*
X103675Y95447D01*
X103467Y95580D01*
X103342Y95793D01*
X103300Y95980D01*
G01X111952Y131657D02*
X112077Y131497D01*
X112160Y131310D01*
Y131097D01*
X112035Y130857D01*
X111827Y130670D01*
X111577Y130537D01*
X111160Y130430D01*
X110785Y130403D01*
X110410Y130457D01*
X110160Y130537D01*
X109910Y130697D01*
X109743Y130883D01*
X109660Y131070D01*
Y131257D01*
X109743Y131443D01*
X109868Y131603D01*
X110035Y131737D01*
G01X109660Y133270D02*
X112160D01*
X111660Y132950D01*
G01X109660D02*
Y133590D01*
G01Y135470D02*
X112160D01*
X111660Y135150D01*
G01X109660D02*
Y135790D01*
G01X109952Y137217D02*
X109743Y137403D01*
X109660Y137617D01*
X109743Y137830D01*
X109993Y138017D01*
X110368Y138150D01*
X110743Y138203D01*
X111202D01*
X111577Y138150D01*
X111910Y138017D01*
X112077Y137857D01*
X112160Y137670D01*
X112077Y137457D01*
X111910Y137297D01*
X111660Y137190D01*
X111327Y137137D01*
X111035Y137190D01*
X110743Y137323D01*
X110577Y137483D01*
X110535Y137670D01*
X110618Y137883D01*
X110827Y138043D01*
X111202Y138203D01*
G01X108753Y155692D02*
X108913Y155817D01*
X109100Y155900D01*
X109313D01*
X109553Y155775D01*
X109740Y155567D01*
X109873Y155317D01*
X109980Y154900D01*
X110007Y154525D01*
X109953Y154150D01*
X109873Y153900D01*
X109713Y153650D01*
X109527Y153483D01*
X109340Y153400D01*
X109153D01*
X108967Y153483D01*
X108807Y153608D01*
X108673Y153775D01*
G01X107140Y153400D02*
Y155900D01*
X107460Y155400D01*
G01Y153400D02*
X106820D01*
G01X105447Y155483D02*
X105287Y155733D01*
X105100Y155858D01*
X104887Y155900D01*
X104620Y155817D01*
X104433Y155608D01*
X104380Y155358D01*
X104407Y155108D01*
X104513Y154900D01*
X105047Y154483D01*
X105287Y154192D01*
X105447Y153775D01*
X105500Y153400D01*
X104380D01*
G01X102740D02*
Y155900D01*
X103060Y155400D01*
G01Y153400D02*
X102420D01*
G01X104900Y156000D02*
X116400D01*
Y166200D01*
X104600D01*
Y156000D01*
X104900D01*
G01X104600Y166200D02*
X103600D01*
Y185700D01*
X117400D01*
Y175300D01*
X114800D01*
Y166200D01*
G01X105502Y178157D02*
X105627Y177997D01*
X105710Y177810D01*
Y177597D01*
X105585Y177357D01*
X105377Y177170D01*
X105127Y177037D01*
X104710Y176930D01*
X104335Y176903D01*
X103960Y176957D01*
X103710Y177037D01*
X103460Y177197D01*
X103293Y177383D01*
X103210Y177570D01*
Y177757D01*
X103293Y177943D01*
X103418Y178103D01*
X103585Y178237D01*
G01X103210Y179770D02*
X105710D01*
X105210Y179450D01*
G01X103210D02*
Y180090D01*
G01X105710Y181970D02*
X105627Y181757D01*
X105418Y181597D01*
X105168Y181490D01*
X104835Y181410D01*
X104460Y181383D01*
X104085Y181410D01*
X103752Y181490D01*
X103502Y181597D01*
X103293Y181757D01*
X103210Y181970D01*
X103293Y182183D01*
X103502Y182343D01*
X103752Y182450D01*
X104085Y182530D01*
X104460Y182557D01*
X104835Y182530D01*
X105168Y182450D01*
X105418Y182343D01*
X105627Y182183D01*
X105710Y181970D01*
G01X103502Y183717D02*
X103293Y183903D01*
X103210Y184117D01*
X103293Y184330D01*
X103543Y184517D01*
X103918Y184650D01*
X104293Y184703D01*
X104752D01*
X105127Y184650D01*
X105460Y184517D01*
X105627Y184357D01*
X105710Y184170D01*
X105627Y183957D01*
X105460Y183797D01*
X105210Y183690D01*
X104877Y183637D01*
X104585Y183690D01*
X104293Y183823D01*
X104127Y183983D01*
X104085Y184170D01*
X104168Y184383D01*
X104377Y184543D01*
X104752Y184703D01*
G01X108502Y178157D02*
X108627Y177997D01*
X108710Y177810D01*
Y177597D01*
X108585Y177357D01*
X108377Y177170D01*
X108127Y177037D01*
X107710Y176930D01*
X107335Y176903D01*
X106960Y176957D01*
X106710Y177037D01*
X106460Y177197D01*
X106293Y177383D01*
X106210Y177570D01*
Y177757D01*
X106293Y177943D01*
X106418Y178103D01*
X106585Y178237D01*
G01X106210Y179770D02*
X108710D01*
X108210Y179450D01*
G01X106210D02*
Y180090D01*
G01X108710Y181970D02*
X108627Y181757D01*
X108418Y181597D01*
X108168Y181490D01*
X107835Y181410D01*
X107460Y181383D01*
X107085Y181410D01*
X106752Y181490D01*
X106502Y181597D01*
X106293Y181757D01*
X106210Y181970D01*
X106293Y182183D01*
X106502Y182343D01*
X106752Y182450D01*
X107085Y182530D01*
X107460Y182557D01*
X107835Y182530D01*
X108168Y182450D01*
X108418Y182343D01*
X108627Y182183D01*
X108710Y181970D01*
G01X106210Y184117D02*
X106752Y184170D01*
X107210Y184250D01*
X107627Y184357D01*
X108085Y184490D01*
X108710Y184703D01*
Y183637D01*
G01X105432Y168637D02*
X105557Y168477D01*
X105640Y168290D01*
Y168077D01*
X105515Y167837D01*
X105307Y167650D01*
X105057Y167517D01*
X104640Y167410D01*
X104265Y167383D01*
X103890Y167437D01*
X103640Y167517D01*
X103390Y167677D01*
X103223Y167863D01*
X103140Y168050D01*
Y168237D01*
X103223Y168423D01*
X103348Y168583D01*
X103515Y168717D01*
G01X103140Y170250D02*
X105640D01*
X105140Y169930D01*
G01X103140D02*
Y170570D01*
G01Y172450D02*
X105640D01*
X105140Y172130D01*
G01X103140D02*
Y172770D01*
G01X105640Y174650D02*
X105557Y174437D01*
X105348Y174277D01*
X105098Y174170D01*
X104765Y174090D01*
X104390Y174063D01*
X104015Y174090D01*
X103682Y174170D01*
X103432Y174277D01*
X103223Y174437D01*
X103140Y174650D01*
X103223Y174863D01*
X103432Y175023D01*
X103682Y175130D01*
X104015Y175210D01*
X104390Y175237D01*
X104765Y175210D01*
X105098Y175130D01*
X105348Y175023D01*
X105557Y174863D01*
X105640Y174650D01*
G01X108432Y168637D02*
X108557Y168477D01*
X108640Y168290D01*
Y168077D01*
X108515Y167837D01*
X108307Y167650D01*
X108057Y167517D01*
X107640Y167410D01*
X107265Y167383D01*
X106890Y167437D01*
X106640Y167517D01*
X106390Y167677D01*
X106223Y167863D01*
X106140Y168050D01*
Y168237D01*
X106223Y168423D01*
X106348Y168583D01*
X106515Y168717D01*
G01X106140Y170250D02*
X108640D01*
X108140Y169930D01*
G01X106140D02*
Y170570D01*
G01X108640Y172450D02*
X108557Y172237D01*
X108348Y172077D01*
X108098Y171970D01*
X107765Y171890D01*
X107390Y171863D01*
X107015Y171890D01*
X106682Y171970D01*
X106432Y172077D01*
X106223Y172237D01*
X106140Y172450D01*
X106223Y172663D01*
X106432Y172823D01*
X106682Y172930D01*
X107015Y173010D01*
X107390Y173037D01*
X107765Y173010D01*
X108098Y172930D01*
X108348Y172823D01*
X108557Y172663D01*
X108640Y172450D01*
G01X106140Y174650D02*
X106182Y174837D01*
X106307Y175050D01*
X106515Y175183D01*
X106807Y175237D01*
X107098Y175183D01*
X107348Y175023D01*
X107473Y174783D01*
Y174517D01*
X107557Y174357D01*
X107765Y174223D01*
X108057Y174170D01*
X108348Y174250D01*
X108557Y174437D01*
X108640Y174650D01*
X108557Y174863D01*
X108348Y175050D01*
X108057Y175130D01*
X107765Y175077D01*
X107557Y174943D01*
X107473Y174783D01*
Y174517D01*
X107348Y174277D01*
X107098Y174117D01*
X106807Y174063D01*
X106515Y174117D01*
X106307Y174250D01*
X106182Y174463D01*
X106140Y174650D01*
G01X111432Y168637D02*
X111557Y168477D01*
X111640Y168290D01*
Y168077D01*
X111515Y167837D01*
X111307Y167650D01*
X111057Y167517D01*
X110640Y167410D01*
X110265Y167383D01*
X109890Y167437D01*
X109640Y167517D01*
X109390Y167677D01*
X109223Y167863D01*
X109140Y168050D01*
Y168237D01*
X109223Y168423D01*
X109348Y168583D01*
X109515Y168717D01*
G01X109140Y170250D02*
X111640D01*
X111140Y169930D01*
G01X109140D02*
Y170570D01*
G01X111640Y172450D02*
X111557Y172237D01*
X111348Y172077D01*
X111098Y171970D01*
X110765Y171890D01*
X110390Y171863D01*
X110015Y171890D01*
X109682Y171970D01*
X109432Y172077D01*
X109223Y172237D01*
X109140Y172450D01*
X109223Y172663D01*
X109432Y172823D01*
X109682Y172930D01*
X110015Y173010D01*
X110390Y173037D01*
X110765Y173010D01*
X111098Y172930D01*
X111348Y172823D01*
X111557Y172663D01*
X111640Y172450D01*
G01X110182Y174143D02*
X110473Y174330D01*
X110640Y174490D01*
X110723Y174703D01*
X110640Y174890D01*
X110473Y175023D01*
X110223Y175130D01*
X109932Y175157D01*
X109682Y175130D01*
X109432Y175023D01*
X109223Y174863D01*
X109140Y174677D01*
X109223Y174463D01*
X109473Y174277D01*
X109848Y174170D01*
X110265Y174143D01*
X110807Y174197D01*
X111098Y174277D01*
X111390Y174410D01*
X111598Y174597D01*
X111640Y174783D01*
X111557Y174970D01*
X111348Y175103D01*
G01X111502Y178157D02*
X111627Y177997D01*
X111710Y177810D01*
Y177597D01*
X111585Y177357D01*
X111377Y177170D01*
X111127Y177037D01*
X110710Y176930D01*
X110335Y176903D01*
X109960Y176957D01*
X109710Y177037D01*
X109460Y177197D01*
X109293Y177383D01*
X109210Y177570D01*
Y177757D01*
X109293Y177943D01*
X109418Y178103D01*
X109585Y178237D01*
G01X109210Y179770D02*
X111710D01*
X111210Y179450D01*
G01X109210D02*
Y180090D01*
G01X111710Y181970D02*
X111627Y181757D01*
X111418Y181597D01*
X111168Y181490D01*
X110835Y181410D01*
X110460Y181383D01*
X110085Y181410D01*
X109752Y181490D01*
X109502Y181597D01*
X109293Y181757D01*
X109210Y181970D01*
X109293Y182183D01*
X109502Y182343D01*
X109752Y182450D01*
X110085Y182530D01*
X110460Y182557D01*
X110835Y182530D01*
X111168Y182450D01*
X111418Y182343D01*
X111627Y182183D01*
X111710Y181970D01*
G01X109585Y183583D02*
X109377Y183743D01*
X109252Y183930D01*
X109210Y184170D01*
X109293Y184410D01*
X109460Y184597D01*
X109752Y184730D01*
X110085Y184757D01*
X110418Y184703D01*
X110627Y184570D01*
X110793Y184383D01*
X110835Y184197D01*
X110793Y184010D01*
X110627Y183770D01*
X111710Y183850D01*
Y184570D01*
G01X118162Y132607D02*
X118287Y132447D01*
X118370Y132260D01*
Y132047D01*
X118245Y131807D01*
X118037Y131620D01*
X117787Y131487D01*
X117370Y131380D01*
X116995Y131353D01*
X116620Y131407D01*
X116370Y131487D01*
X116120Y131647D01*
X115953Y131833D01*
X115870Y132020D01*
Y132207D01*
X115953Y132393D01*
X116078Y132553D01*
X116245Y132687D01*
G01X115870Y134220D02*
X118370D01*
X117870Y133900D01*
G01X115870D02*
Y134540D01*
G01Y136420D02*
X118370D01*
X117870Y136100D01*
G01X115870D02*
Y136740D01*
G01Y138620D02*
X115912Y138807D01*
X116037Y139020D01*
X116245Y139153D01*
X116537Y139207D01*
X116828Y139153D01*
X117078Y138993D01*
X117203Y138753D01*
Y138487D01*
X117287Y138327D01*
X117495Y138193D01*
X117787Y138140D01*
X118078Y138220D01*
X118287Y138407D01*
X118370Y138620D01*
X118287Y138833D01*
X118078Y139020D01*
X117787Y139100D01*
X117495Y139047D01*
X117287Y138913D01*
X117203Y138753D01*
Y138487D01*
X117078Y138247D01*
X116828Y138087D01*
X116537Y138033D01*
X116245Y138087D01*
X116037Y138220D01*
X115912Y138433D01*
X115870Y138620D01*
G01X120200Y158700D02*
X130900D01*
Y145600D01*
X119300D01*
Y158700D01*
X120200D01*
G01X114662Y145567D02*
X114787Y145407D01*
X114870Y145220D01*
Y145007D01*
X114745Y144767D01*
X114537Y144580D01*
X114287Y144447D01*
X113870Y144340D01*
X113495Y144313D01*
X113120Y144367D01*
X112870Y144447D01*
X112620Y144607D01*
X112453Y144793D01*
X112370Y144980D01*
Y145167D01*
X112453Y145353D01*
X112578Y145513D01*
X112745Y145647D01*
G01X112370Y147180D02*
X114870D01*
X114370Y146860D01*
G01X112370D02*
Y147500D01*
G01X114453Y148873D02*
X114703Y149033D01*
X114828Y149220D01*
X114870Y149433D01*
X114787Y149700D01*
X114578Y149887D01*
X114328Y149940D01*
X114078Y149913D01*
X113870Y149807D01*
X113453Y149273D01*
X113162Y149033D01*
X112745Y148873D01*
X112370Y148820D01*
Y149940D01*
G01X114870Y151580D02*
X114787Y151367D01*
X114578Y151207D01*
X114328Y151100D01*
X113995Y151020D01*
X113620Y150993D01*
X113245Y151020D01*
X112912Y151100D01*
X112662Y151207D01*
X112453Y151367D01*
X112370Y151580D01*
X112453Y151793D01*
X112662Y151953D01*
X112912Y152060D01*
X113245Y152140D01*
X113620Y152167D01*
X113995Y152140D01*
X114328Y152060D01*
X114578Y151953D01*
X114787Y151793D01*
X114870Y151580D01*
G01X125643Y168652D02*
X125803Y168777D01*
X125990Y168860D01*
X126203D01*
X126443Y168735D01*
X126630Y168527D01*
X126763Y168277D01*
X126870Y167860D01*
X126897Y167485D01*
X126843Y167110D01*
X126763Y166860D01*
X126603Y166610D01*
X126417Y166443D01*
X126230Y166360D01*
X126043D01*
X125857Y166443D01*
X125697Y166568D01*
X125563Y166735D01*
G01X124030Y166360D02*
Y168860D01*
X124350Y168360D01*
G01Y166360D02*
X123710D01*
G01X121830D02*
Y168860D01*
X122150Y168360D01*
G01Y166360D02*
X121510D01*
G01X120217Y166735D02*
X120057Y166527D01*
X119870Y166402D01*
X119630Y166360D01*
X119390Y166443D01*
X119203Y166610D01*
X119070Y166902D01*
X119043Y167235D01*
X119097Y167568D01*
X119230Y167777D01*
X119417Y167943D01*
X119603Y167985D01*
X119790Y167943D01*
X120030Y167777D01*
X119950Y168860D01*
X119230D01*
G01X125603Y161972D02*
X125763Y162097D01*
X125950Y162180D01*
X126163D01*
X126403Y162055D01*
X126590Y161847D01*
X126723Y161597D01*
X126830Y161180D01*
X126857Y160805D01*
X126803Y160430D01*
X126723Y160180D01*
X126563Y159930D01*
X126377Y159763D01*
X126190Y159680D01*
X126003D01*
X125817Y159763D01*
X125657Y159888D01*
X125523Y160055D01*
G01X123990Y159680D02*
Y162180D01*
X124310Y161680D01*
G01Y159680D02*
X123670D01*
G01X121790D02*
Y162180D01*
X122110Y161680D01*
G01Y159680D02*
X121470D01*
G01X119643D02*
X119590Y160222D01*
X119510Y160680D01*
X119403Y161097D01*
X119270Y161555D01*
X119057Y162180D01*
X120123D01*
G01X125543Y165312D02*
X125703Y165437D01*
X125890Y165520D01*
X126103D01*
X126343Y165395D01*
X126530Y165187D01*
X126663Y164937D01*
X126770Y164520D01*
X126797Y164145D01*
X126743Y163770D01*
X126663Y163520D01*
X126503Y163270D01*
X126317Y163103D01*
X126130Y163020D01*
X125943D01*
X125757Y163103D01*
X125597Y163228D01*
X125463Y163395D01*
G01X123930Y163020D02*
Y165520D01*
X124250Y165020D01*
G01Y163020D02*
X123610D01*
G01X121730D02*
Y165520D01*
X122050Y165020D01*
G01Y163020D02*
X121410D01*
G01X120037Y164062D02*
X119850Y164353D01*
X119690Y164520D01*
X119477Y164603D01*
X119290Y164520D01*
X119157Y164353D01*
X119050Y164103D01*
X119023Y163812D01*
X119050Y163562D01*
X119157Y163312D01*
X119317Y163103D01*
X119503Y163020D01*
X119717Y163103D01*
X119903Y163353D01*
X120010Y163728D01*
X120037Y164145D01*
X119983Y164687D01*
X119903Y164978D01*
X119770Y165270D01*
X119583Y165478D01*
X119397Y165520D01*
X119210Y165437D01*
X119077Y165228D01*
G01X125643Y172032D02*
X125803Y172157D01*
X125990Y172240D01*
X126203D01*
X126443Y172115D01*
X126630Y171907D01*
X126763Y171657D01*
X126870Y171240D01*
X126897Y170865D01*
X126843Y170490D01*
X126763Y170240D01*
X126603Y169990D01*
X126417Y169823D01*
X126230Y169740D01*
X126043D01*
X125857Y169823D01*
X125697Y169948D01*
X125563Y170115D01*
G01X124030Y169740D02*
Y172240D01*
X124350Y171740D01*
G01Y169740D02*
X123710D01*
G01X121830Y172240D02*
X122043Y172157D01*
X122203Y171948D01*
X122310Y171698D01*
X122390Y171365D01*
X122417Y170990D01*
X122390Y170615D01*
X122310Y170282D01*
X122203Y170032D01*
X122043Y169823D01*
X121830Y169740D01*
X121617Y169823D01*
X121457Y170032D01*
X121350Y170282D01*
X121270Y170615D01*
X121243Y170990D01*
X121270Y171365D01*
X121350Y171698D01*
X121457Y171948D01*
X121617Y172157D01*
X121830Y172240D01*
G01X120217Y170240D02*
X120057Y169948D01*
X119843Y169782D01*
X119603Y169740D01*
X119390Y169782D01*
X119177Y169990D01*
X119043Y170240D01*
X119017Y170490D01*
X119070Y170782D01*
X119257Y170990D01*
X119443Y171073D01*
X119683D01*
G01X119443D02*
X119283Y171198D01*
X119150Y171407D01*
X119097Y171657D01*
X119150Y171907D01*
X119283Y172115D01*
X119523Y172240D01*
X119763Y172198D01*
X120003Y172032D01*
G01X114502Y178157D02*
X114627Y177997D01*
X114710Y177810D01*
Y177597D01*
X114585Y177357D01*
X114377Y177170D01*
X114127Y177037D01*
X113710Y176930D01*
X113335Y176903D01*
X112960Y176957D01*
X112710Y177037D01*
X112460Y177197D01*
X112293Y177383D01*
X112210Y177570D01*
Y177757D01*
X112293Y177943D01*
X112418Y178103D01*
X112585Y178237D01*
G01X112210Y179770D02*
X114710D01*
X114210Y179450D01*
G01X112210D02*
Y180090D01*
G01X114710Y181970D02*
X114627Y181757D01*
X114418Y181597D01*
X114168Y181490D01*
X113835Y181410D01*
X113460Y181383D01*
X113085Y181410D01*
X112752Y181490D01*
X112502Y181597D01*
X112293Y181757D01*
X112210Y181970D01*
X112293Y182183D01*
X112502Y182343D01*
X112752Y182450D01*
X113085Y182530D01*
X113460Y182557D01*
X113835Y182530D01*
X114168Y182450D01*
X114418Y182343D01*
X114627Y182183D01*
X114710Y181970D01*
G01X112210Y184490D02*
X114710D01*
X112918Y183503D01*
Y184837D01*
G01X125643Y175372D02*
X125803Y175497D01*
X125990Y175580D01*
X126203D01*
X126443Y175455D01*
X126630Y175247D01*
X126763Y174997D01*
X126870Y174580D01*
X126897Y174205D01*
X126843Y173830D01*
X126763Y173580D01*
X126603Y173330D01*
X126417Y173163D01*
X126230Y173080D01*
X126043D01*
X125857Y173163D01*
X125697Y173288D01*
X125563Y173455D01*
G01X124030Y173080D02*
Y175580D01*
X124350Y175080D01*
G01Y173080D02*
X123710D01*
G01X121830Y175580D02*
X122043Y175497D01*
X122203Y175288D01*
X122310Y175038D01*
X122390Y174705D01*
X122417Y174330D01*
X122390Y173955D01*
X122310Y173622D01*
X122203Y173372D01*
X122043Y173163D01*
X121830Y173080D01*
X121617Y173163D01*
X121457Y173372D01*
X121350Y173622D01*
X121270Y173955D01*
X121243Y174330D01*
X121270Y174705D01*
X121350Y175038D01*
X121457Y175288D01*
X121617Y175497D01*
X121830Y175580D01*
G01X120137Y175163D02*
X119977Y175413D01*
X119790Y175538D01*
X119577Y175580D01*
X119310Y175497D01*
X119123Y175288D01*
X119070Y175038D01*
X119097Y174788D01*
X119203Y174580D01*
X119737Y174163D01*
X119977Y173872D01*
X120137Y173455D01*
X120190Y173080D01*
X119070D01*
G01X126360Y29877D02*
X128860D01*
Y30543D01*
X128735Y30757D01*
X128568Y30890D01*
X128235Y30943D01*
X127902Y30890D01*
X127693Y30730D01*
X127568Y30543D01*
Y29877D01*
G01Y30543D02*
X126360Y30943D01*
G01Y32610D02*
X128860D01*
X128360Y32290D01*
G01X126360D02*
Y32930D01*
G01X128443Y34303D02*
X128693Y34463D01*
X128818Y34650D01*
X128860Y34863D01*
X128777Y35130D01*
X128568Y35317D01*
X128318Y35370D01*
X128068Y35343D01*
X127860Y35237D01*
X127443Y34703D01*
X127152Y34463D01*
X126735Y34303D01*
X126360Y34250D01*
Y35370D01*
G01X126652Y36557D02*
X126443Y36743D01*
X126360Y36957D01*
X126443Y37170D01*
X126693Y37357D01*
X127068Y37490D01*
X127443Y37543D01*
X127902D01*
X128277Y37490D01*
X128610Y37357D01*
X128777Y37197D01*
X128860Y37010D01*
X128777Y36797D01*
X128610Y36637D01*
X128360Y36530D01*
X128027Y36477D01*
X127735Y36530D01*
X127443Y36663D01*
X127277Y36823D01*
X127235Y37010D01*
X127318Y37223D01*
X127527Y37383D01*
X127902Y37543D01*
G01X131210Y41487D02*
X133710D01*
Y42153D01*
X133585Y42367D01*
X133418Y42500D01*
X133085Y42553D01*
X132752Y42500D01*
X132543Y42340D01*
X132418Y42153D01*
Y41487D01*
G01Y42153D02*
X131210Y42553D01*
G01Y44220D02*
X133710D01*
X133210Y43900D01*
G01X131210D02*
Y44540D01*
G01X133293Y45913D02*
X133543Y46073D01*
X133668Y46260D01*
X133710Y46473D01*
X133627Y46740D01*
X133418Y46927D01*
X133168Y46980D01*
X132918Y46953D01*
X132710Y46847D01*
X132293Y46313D01*
X132002Y46073D01*
X131585Y45913D01*
X131210Y45860D01*
Y46980D01*
G01X132252Y48113D02*
X132543Y48300D01*
X132710Y48460D01*
X132793Y48673D01*
X132710Y48860D01*
X132543Y48993D01*
X132293Y49100D01*
X132002Y49127D01*
X131752Y49100D01*
X131502Y48993D01*
X131293Y48833D01*
X131210Y48647D01*
X131293Y48433D01*
X131543Y48247D01*
X131918Y48140D01*
X132335Y48113D01*
X132877Y48167D01*
X133168Y48247D01*
X133460Y48380D01*
X133668Y48567D01*
X133710Y48753D01*
X133627Y48940D01*
X133418Y49073D01*
G01X130900Y158700D02*
Y160500D01*
X152700D01*
Y143500D01*
X130900D01*
Y145600D01*
G01X134913Y168732D02*
X135073Y168857D01*
X135260Y168940D01*
X135473D01*
X135713Y168815D01*
X135900Y168607D01*
X136033Y168357D01*
X136140Y167940D01*
X136167Y167565D01*
X136113Y167190D01*
X136033Y166940D01*
X135873Y166690D01*
X135687Y166523D01*
X135500Y166440D01*
X135313D01*
X135127Y166523D01*
X134967Y166648D01*
X134833Y166815D01*
G01X133300Y166440D02*
Y168940D01*
X133620Y168440D01*
G01Y166440D02*
X132980D01*
G01X131100D02*
Y168940D01*
X131420Y168440D01*
G01Y166440D02*
X130780D01*
G01X129407Y168523D02*
X129247Y168773D01*
X129060Y168898D01*
X128847Y168940D01*
X128580Y168857D01*
X128393Y168648D01*
X128340Y168398D01*
X128367Y168148D01*
X128473Y167940D01*
X129007Y167523D01*
X129247Y167232D01*
X129407Y166815D01*
X129460Y166440D01*
X128340D01*
G01X134803Y165312D02*
X134963Y165437D01*
X135150Y165520D01*
X135363D01*
X135603Y165395D01*
X135790Y165187D01*
X135923Y164937D01*
X136030Y164520D01*
X136057Y164145D01*
X136003Y163770D01*
X135923Y163520D01*
X135763Y163270D01*
X135577Y163103D01*
X135390Y163020D01*
X135203D01*
X135017Y163103D01*
X134857Y163228D01*
X134723Y163395D01*
G01X133190Y163020D02*
Y165520D01*
X133510Y165020D01*
G01Y163020D02*
X132870D01*
G01X130990D02*
Y165520D01*
X131310Y165020D01*
G01Y163020D02*
X130670D01*
G01X129377Y163520D02*
X129217Y163228D01*
X129003Y163062D01*
X128763Y163020D01*
X128550Y163062D01*
X128337Y163270D01*
X128203Y163520D01*
X128177Y163770D01*
X128230Y164062D01*
X128417Y164270D01*
X128603Y164353D01*
X128843D01*
G01X128603D02*
X128443Y164478D01*
X128310Y164687D01*
X128257Y164937D01*
X128310Y165187D01*
X128443Y165395D01*
X128683Y165520D01*
X128923Y165478D01*
X129163Y165312D01*
G01X134753Y162012D02*
X134913Y162137D01*
X135100Y162220D01*
X135313D01*
X135553Y162095D01*
X135740Y161887D01*
X135873Y161637D01*
X135980Y161220D01*
X136007Y160845D01*
X135953Y160470D01*
X135873Y160220D01*
X135713Y159970D01*
X135527Y159803D01*
X135340Y159720D01*
X135153D01*
X134967Y159803D01*
X134807Y159928D01*
X134673Y160095D01*
G01X133140Y159720D02*
Y162220D01*
X133460Y161720D01*
G01Y159720D02*
X132820D01*
G01X130940D02*
Y162220D01*
X131260Y161720D01*
G01Y159720D02*
X130620D01*
G01X128420D02*
Y162220D01*
X129407Y160428D01*
X128073D01*
G01X134993Y172152D02*
X135153Y172277D01*
X135340Y172360D01*
X135553D01*
X135793Y172235D01*
X135980Y172027D01*
X136113Y171777D01*
X136220Y171360D01*
X136247Y170985D01*
X136193Y170610D01*
X136113Y170360D01*
X135953Y170110D01*
X135767Y169943D01*
X135580Y169860D01*
X135393D01*
X135207Y169943D01*
X135047Y170068D01*
X134913Y170235D01*
G01X133380Y169860D02*
Y172360D01*
X133700Y171860D01*
G01Y169860D02*
X133060D01*
G01X131180Y172360D02*
X131393Y172277D01*
X131553Y172068D01*
X131660Y171818D01*
X131740Y171485D01*
X131767Y171110D01*
X131740Y170735D01*
X131660Y170402D01*
X131553Y170152D01*
X131393Y169943D01*
X131180Y169860D01*
X130967Y169943D01*
X130807Y170152D01*
X130700Y170402D01*
X130620Y170735D01*
X130593Y171110D01*
X130620Y171485D01*
X130700Y171818D01*
X130807Y172068D01*
X130967Y172277D01*
X131180Y172360D01*
G01X128980Y169860D02*
Y172360D01*
X129300Y171860D01*
G01Y169860D02*
X128660D01*
G01X135183Y175532D02*
X135343Y175657D01*
X135530Y175740D01*
X135743D01*
X135983Y175615D01*
X136170Y175407D01*
X136303Y175157D01*
X136410Y174740D01*
X136437Y174365D01*
X136383Y173990D01*
X136303Y173740D01*
X136143Y173490D01*
X135957Y173323D01*
X135770Y173240D01*
X135583D01*
X135397Y173323D01*
X135237Y173448D01*
X135103Y173615D01*
G01X133570Y173240D02*
Y175740D01*
X133890Y175240D01*
G01Y173240D02*
X133250D01*
G01X131370Y175740D02*
X131583Y175657D01*
X131743Y175448D01*
X131850Y175198D01*
X131930Y174865D01*
X131957Y174490D01*
X131930Y174115D01*
X131850Y173782D01*
X131743Y173532D01*
X131583Y173323D01*
X131370Y173240D01*
X131157Y173323D01*
X130997Y173532D01*
X130890Y173782D01*
X130810Y174115D01*
X130783Y174490D01*
X130810Y174865D01*
X130890Y175198D01*
X130997Y175448D01*
X131157Y175657D01*
X131370Y175740D01*
G01X129170D02*
X129383Y175657D01*
X129543Y175448D01*
X129650Y175198D01*
X129730Y174865D01*
X129757Y174490D01*
X129730Y174115D01*
X129650Y173782D01*
X129543Y173532D01*
X129383Y173323D01*
X129170Y173240D01*
X128957Y173323D01*
X128797Y173532D01*
X128690Y173782D01*
X128610Y174115D01*
X128583Y174490D01*
X128610Y174865D01*
X128690Y175198D01*
X128797Y175448D01*
X128957Y175657D01*
X129170Y175740D01*
G01X154153Y40962D02*
X154313Y41087D01*
X154500Y41170D01*
X154713D01*
X154953Y41045D01*
X155140Y40837D01*
X155273Y40587D01*
X155380Y40170D01*
X155407Y39795D01*
X155353Y39420D01*
X155273Y39170D01*
X155113Y38920D01*
X154927Y38753D01*
X154740Y38670D01*
X154553D01*
X154367Y38753D01*
X154207Y38878D01*
X154073Y39045D01*
G01X152540Y38670D02*
Y41170D01*
X152860Y40670D01*
G01Y38670D02*
X152220D01*
G01X150927Y39170D02*
X150767Y38878D01*
X150553Y38712D01*
X150313Y38670D01*
X150100Y38712D01*
X149887Y38920D01*
X149753Y39170D01*
X149727Y39420D01*
X149780Y39712D01*
X149967Y39920D01*
X150153Y40003D01*
X150393D01*
G01X150153D02*
X149993Y40128D01*
X149860Y40337D01*
X149807Y40587D01*
X149860Y40837D01*
X149993Y41045D01*
X150233Y41170D01*
X150473Y41128D01*
X150713Y40962D01*
G01X147820Y38670D02*
Y41170D01*
X148807Y39378D01*
X147473D01*
G01X177533Y26190D02*
Y28690D01*
X176867D01*
X176653Y28565D01*
X176520Y28398D01*
X176467Y28065D01*
X176520Y27732D01*
X176680Y27523D01*
X176867Y27398D01*
X177533D01*
G01X176867D02*
X176467Y26190D01*
G01X174800D02*
Y28690D01*
X175120Y28190D01*
G01Y26190D02*
X174480D01*
G01X173107Y28273D02*
X172947Y28523D01*
X172760Y28648D01*
X172547Y28690D01*
X172280Y28607D01*
X172093Y28398D01*
X172040Y28148D01*
X172067Y27898D01*
X172173Y27690D01*
X172707Y27273D01*
X172947Y26982D01*
X173107Y26565D01*
X173160Y26190D01*
X172040D01*
G01X170400D02*
X170213Y26232D01*
X170000Y26357D01*
X169867Y26565D01*
X169813Y26857D01*
X169867Y27148D01*
X170027Y27398D01*
X170267Y27523D01*
X170533D01*
X170693Y27607D01*
X170827Y27815D01*
X170880Y28107D01*
X170800Y28398D01*
X170613Y28607D01*
X170400Y28690D01*
X170187Y28607D01*
X170000Y28398D01*
X169920Y28107D01*
X169973Y27815D01*
X170107Y27607D01*
X170267Y27523D01*
X170533D01*
X170773Y27398D01*
X170933Y27148D01*
X170987Y26857D01*
X170933Y26565D01*
X170800Y26357D01*
X170587Y26232D01*
X170400Y26190D01*
G01X177213Y40722D02*
X177373Y40847D01*
X177560Y40930D01*
X177773D01*
X178013Y40805D01*
X178200Y40597D01*
X178333Y40347D01*
X178440Y39930D01*
X178467Y39555D01*
X178413Y39180D01*
X178333Y38930D01*
X178173Y38680D01*
X177987Y38513D01*
X177800Y38430D01*
X177613D01*
X177427Y38513D01*
X177267Y38638D01*
X177133Y38805D01*
G01X175600Y38430D02*
Y40930D01*
X175920Y40430D01*
G01Y38430D02*
X175280D01*
G01X173987Y38930D02*
X173827Y38638D01*
X173613Y38472D01*
X173373Y38430D01*
X173160Y38472D01*
X172947Y38680D01*
X172813Y38930D01*
X172787Y39180D01*
X172840Y39472D01*
X173027Y39680D01*
X173213Y39763D01*
X173453D01*
G01X173213D02*
X173053Y39888D01*
X172920Y40097D01*
X172867Y40347D01*
X172920Y40597D01*
X173053Y40805D01*
X173293Y40930D01*
X173533Y40888D01*
X173773Y40722D01*
G01X171787Y38930D02*
X171627Y38638D01*
X171413Y38472D01*
X171173Y38430D01*
X170960Y38472D01*
X170747Y38680D01*
X170613Y38930D01*
X170587Y39180D01*
X170640Y39472D01*
X170827Y39680D01*
X171013Y39763D01*
X171253D01*
G01X171013D02*
X170853Y39888D01*
X170720Y40097D01*
X170667Y40347D01*
X170720Y40597D01*
X170853Y40805D01*
X171093Y40930D01*
X171333Y40888D01*
X171573Y40722D01*
G01X182543Y111900D02*
Y114400D01*
X181877D01*
X181663Y114275D01*
X181530Y114108D01*
X181477Y113775D01*
X181530Y113442D01*
X181690Y113233D01*
X181877Y113108D01*
X182543D01*
G01X181877D02*
X181477Y111900D01*
G01X179810D02*
Y114400D01*
X180130Y113900D01*
G01Y111900D02*
X179490D01*
G01X177610Y114400D02*
X177823Y114317D01*
X177983Y114108D01*
X178090Y113858D01*
X178170Y113525D01*
X178197Y113150D01*
X178170Y112775D01*
X178090Y112442D01*
X177983Y112192D01*
X177823Y111983D01*
X177610Y111900D01*
X177397Y111983D01*
X177237Y112192D01*
X177130Y112442D01*
X177050Y112775D01*
X177023Y113150D01*
X177050Y113525D01*
X177130Y113858D01*
X177237Y114108D01*
X177397Y114317D01*
X177610Y114400D01*
G01X175090Y111900D02*
Y114400D01*
X176077Y112608D01*
X174743D01*
G01X193193Y45492D02*
X193353Y45617D01*
X193540Y45700D01*
X193753D01*
X193993Y45575D01*
X194180Y45367D01*
X194313Y45117D01*
X194420Y44700D01*
X194447Y44325D01*
X194393Y43950D01*
X194313Y43700D01*
X194153Y43450D01*
X193967Y43283D01*
X193780Y43200D01*
X193593D01*
X193407Y43283D01*
X193247Y43408D01*
X193113Y43575D01*
G01X191580Y43200D02*
Y45700D01*
X191900Y45200D01*
G01Y43200D02*
X191260D01*
G01X189967Y43700D02*
X189807Y43408D01*
X189593Y43242D01*
X189353Y43200D01*
X189140Y43242D01*
X188927Y43450D01*
X188793Y43700D01*
X188767Y43950D01*
X188820Y44242D01*
X189007Y44450D01*
X189193Y44533D01*
X189433D01*
G01X189193D02*
X189033Y44658D01*
X188900Y44867D01*
X188847Y45117D01*
X188900Y45367D01*
X189033Y45575D01*
X189273Y45700D01*
X189513Y45658D01*
X189753Y45492D01*
G01X187687Y45283D02*
X187527Y45533D01*
X187340Y45658D01*
X187127Y45700D01*
X186860Y45617D01*
X186673Y45408D01*
X186620Y45158D01*
X186647Y44908D01*
X186753Y44700D01*
X187287Y44283D01*
X187527Y43992D01*
X187687Y43575D01*
X187740Y43200D01*
X186620D01*
G01X183467Y112630D02*
Y110130D01*
X184133D01*
X184347Y110255D01*
X184480Y110422D01*
X184533Y110755D01*
X184480Y111088D01*
X184320Y111297D01*
X184133Y111422D01*
X183467D01*
G01X184133D02*
X184533Y112630D01*
G01X186200D02*
Y110130D01*
X185880Y110630D01*
G01Y112630D02*
X186520D01*
G01X188400D02*
Y110130D01*
X188080Y110630D01*
G01Y112630D02*
X188720D01*
G01X190093Y110547D02*
X190253Y110297D01*
X190440Y110172D01*
X190653Y110130D01*
X190920Y110213D01*
X191107Y110422D01*
X191160Y110672D01*
X191133Y110922D01*
X191027Y111130D01*
X190493Y111547D01*
X190253Y111838D01*
X190093Y112255D01*
X190040Y112630D01*
X191160D01*
G01X207673Y32630D02*
Y35130D01*
X207007D01*
X206793Y35005D01*
X206660Y34838D01*
X206607Y34505D01*
X206660Y34172D01*
X206820Y33963D01*
X207007Y33838D01*
X207673D01*
G01X207007D02*
X206607Y32630D01*
G01X204940D02*
Y35130D01*
X205260Y34630D01*
G01Y32630D02*
X204620D01*
G01X203247Y34713D02*
X203087Y34963D01*
X202900Y35088D01*
X202687Y35130D01*
X202420Y35047D01*
X202233Y34838D01*
X202180Y34588D01*
X202207Y34338D01*
X202313Y34130D01*
X202847Y33713D01*
X203087Y33422D01*
X203247Y33005D01*
X203300Y32630D01*
X202180D01*
G01X201127Y33005D02*
X200967Y32797D01*
X200780Y32672D01*
X200540Y32630D01*
X200300Y32713D01*
X200113Y32880D01*
X199980Y33172D01*
X199953Y33505D01*
X200007Y33838D01*
X200140Y34047D01*
X200327Y34213D01*
X200513Y34255D01*
X200700Y34213D01*
X200940Y34047D01*
X200860Y35130D01*
X200140D01*
G01X200353Y105220D02*
Y107720D01*
X199687D01*
X199473Y107595D01*
X199340Y107428D01*
X199287Y107095D01*
X199340Y106762D01*
X199500Y106553D01*
X199687Y106428D01*
X200353D01*
G01X199687D02*
X199287Y105220D01*
G01X197620D02*
Y107720D01*
X197940Y107220D01*
G01Y105220D02*
X197300D01*
G01X195420D02*
Y107720D01*
X195740Y107220D01*
G01Y105220D02*
X195100D01*
G01X193220D02*
Y107720D01*
X193540Y107220D01*
G01Y105220D02*
X192900D01*
G01X208063Y114192D02*
X208223Y114317D01*
X208410Y114400D01*
X208623D01*
X208863Y114275D01*
X209050Y114067D01*
X209183Y113817D01*
X209290Y113400D01*
X209317Y113025D01*
X209263Y112650D01*
X209183Y112400D01*
X209023Y112150D01*
X208837Y111983D01*
X208650Y111900D01*
X208463D01*
X208277Y111983D01*
X208117Y112108D01*
X207983Y112275D01*
G01X206450Y111900D02*
Y114400D01*
X206770Y113900D01*
G01Y111900D02*
X206130D01*
G01X204757Y113983D02*
X204597Y114233D01*
X204410Y114358D01*
X204197Y114400D01*
X203930Y114317D01*
X203743Y114108D01*
X203690Y113858D01*
X203717Y113608D01*
X203823Y113400D01*
X204357Y112983D01*
X204597Y112692D01*
X204757Y112275D01*
X204810Y111900D01*
X203690D01*
G01X202637Y112400D02*
X202477Y112108D01*
X202263Y111942D01*
X202023Y111900D01*
X201810Y111942D01*
X201597Y112150D01*
X201463Y112400D01*
X201437Y112650D01*
X201490Y112942D01*
X201677Y113150D01*
X201863Y113233D01*
X202103D01*
G01X201863D02*
X201703Y113358D01*
X201570Y113567D01*
X201517Y113817D01*
X201570Y114067D01*
X201703Y114275D01*
X201943Y114400D01*
X202183Y114358D01*
X202423Y114192D01*
G01X209263Y125020D02*
Y127520D01*
X208597D01*
X208383Y127395D01*
X208250Y127228D01*
X208197Y126895D01*
X208250Y126562D01*
X208410Y126353D01*
X208597Y126228D01*
X209263D01*
G01X208597D02*
X208197Y125020D01*
G01X206530D02*
Y127520D01*
X206850Y127020D01*
G01Y125020D02*
X206210D01*
G01X204330Y127520D02*
X204543Y127437D01*
X204703Y127228D01*
X204810Y126978D01*
X204890Y126645D01*
X204917Y126270D01*
X204890Y125895D01*
X204810Y125562D01*
X204703Y125312D01*
X204543Y125103D01*
X204330Y125020D01*
X204117Y125103D01*
X203957Y125312D01*
X203850Y125562D01*
X203770Y125895D01*
X203743Y126270D01*
X203770Y126645D01*
X203850Y126978D01*
X203957Y127228D01*
X204117Y127437D01*
X204330Y127520D01*
G01X202717Y125520D02*
X202557Y125228D01*
X202343Y125062D01*
X202103Y125020D01*
X201890Y125062D01*
X201677Y125270D01*
X201543Y125520D01*
X201517Y125770D01*
X201570Y126062D01*
X201757Y126270D01*
X201943Y126353D01*
X202183D01*
G01X201943D02*
X201783Y126478D01*
X201650Y126687D01*
X201597Y126937D01*
X201650Y127187D01*
X201783Y127395D01*
X202023Y127520D01*
X202263Y127478D01*
X202503Y127312D01*
G01X217390Y105567D02*
X219890D01*
Y106233D01*
X219765Y106447D01*
X219598Y106580D01*
X219265Y106633D01*
X218932Y106580D01*
X218723Y106420D01*
X218598Y106233D01*
Y105567D01*
G01Y106233D02*
X217390Y106633D01*
G01Y108300D02*
X219890D01*
X219390Y107980D01*
G01X217390D02*
Y108620D01*
G01Y110500D02*
X219890D01*
X219390Y110180D01*
G01X217390D02*
Y110820D01*
G01X219890Y112700D02*
X219807Y112487D01*
X219598Y112327D01*
X219348Y112220D01*
X219015Y112140D01*
X218640Y112113D01*
X218265Y112140D01*
X217932Y112220D01*
X217682Y112327D01*
X217473Y112487D01*
X217390Y112700D01*
X217473Y112913D01*
X217682Y113073D01*
X217932Y113180D01*
X218265Y113260D01*
X218640Y113287D01*
X219015Y113260D01*
X219348Y113180D01*
X219598Y113073D01*
X219807Y112913D01*
X219890Y112700D01*
G01X212203Y161040D02*
Y163540D01*
X211537D01*
X211323Y163415D01*
X211190Y163248D01*
X211137Y162915D01*
X211190Y162582D01*
X211350Y162373D01*
X211537Y162248D01*
X212203D01*
G01X211537D02*
X211137Y161040D01*
G01X209470D02*
Y163540D01*
X209790Y163040D01*
G01Y161040D02*
X209150D01*
G01X207270Y163540D02*
X207483Y163457D01*
X207643Y163248D01*
X207750Y162998D01*
X207830Y162665D01*
X207857Y162290D01*
X207830Y161915D01*
X207750Y161582D01*
X207643Y161332D01*
X207483Y161123D01*
X207270Y161040D01*
X207057Y161123D01*
X206897Y161332D01*
X206790Y161582D01*
X206710Y161915D01*
X206683Y162290D01*
X206710Y162665D01*
X206790Y162998D01*
X206897Y163248D01*
X207057Y163457D01*
X207270Y163540D01*
G01X205070D02*
X205283Y163457D01*
X205443Y163248D01*
X205550Y162998D01*
X205630Y162665D01*
X205657Y162290D01*
X205630Y161915D01*
X205550Y161582D01*
X205443Y161332D01*
X205283Y161123D01*
X205070Y161040D01*
X204857Y161123D01*
X204697Y161332D01*
X204590Y161582D01*
X204510Y161915D01*
X204483Y162290D01*
X204510Y162665D01*
X204590Y162998D01*
X204697Y163248D01*
X204857Y163457D01*
X205070Y163540D01*
G01X231843Y77550D02*
Y80050D01*
X231177D01*
X230963Y79925D01*
X230830Y79758D01*
X230777Y79425D01*
X230830Y79092D01*
X230990Y78883D01*
X231177Y78758D01*
X231843D01*
G01X231177D02*
X230777Y77550D01*
G01X229110D02*
Y80050D01*
X229430Y79550D01*
G01Y77550D02*
X228790D01*
G01X226910D02*
Y80050D01*
X227230Y79550D01*
G01Y77550D02*
X226590D01*
G01X224763D02*
X224710Y78092D01*
X224630Y78550D01*
X224523Y78967D01*
X224390Y79425D01*
X224177Y80050D01*
X225243D01*
G01X265143Y73802D02*
X265303Y73927D01*
X265490Y74010D01*
X265703D01*
X265943Y73885D01*
X266130Y73677D01*
X266263Y73427D01*
X266370Y73010D01*
X266397Y72635D01*
X266343Y72260D01*
X266263Y72010D01*
X266103Y71760D01*
X265917Y71593D01*
X265730Y71510D01*
X265543D01*
X265357Y71593D01*
X265197Y71718D01*
X265063Y71885D01*
G01X263530Y71510D02*
Y74010D01*
X263850Y73510D01*
G01Y71510D02*
X263210D01*
G01X261917Y72010D02*
X261757Y71718D01*
X261543Y71552D01*
X261303Y71510D01*
X261090Y71552D01*
X260877Y71760D01*
X260743Y72010D01*
X260717Y72260D01*
X260770Y72552D01*
X260957Y72760D01*
X261143Y72843D01*
X261383D01*
G01X261143D02*
X260983Y72968D01*
X260850Y73177D01*
X260797Y73427D01*
X260850Y73677D01*
X260983Y73885D01*
X261223Y74010D01*
X261463Y73968D01*
X261703Y73802D01*
G01X259130Y74010D02*
X259343Y73927D01*
X259503Y73718D01*
X259610Y73468D01*
X259690Y73135D01*
X259717Y72760D01*
X259690Y72385D01*
X259610Y72052D01*
X259503Y71802D01*
X259343Y71593D01*
X259130Y71510D01*
X258917Y71593D01*
X258757Y71802D01*
X258650Y72052D01*
X258570Y72385D01*
X258543Y72760D01*
X258570Y73135D01*
X258650Y73468D01*
X258757Y73718D01*
X258917Y73927D01*
X259130Y74010D01*
G01X273823Y79060D02*
Y81560D01*
X273157D01*
X272943Y81435D01*
X272810Y81268D01*
X272757Y80935D01*
X272810Y80602D01*
X272970Y80393D01*
X273157Y80268D01*
X273823D01*
G01X273157D02*
X272757Y79060D01*
G01X271090D02*
Y81560D01*
X271410Y81060D01*
G01Y79060D02*
X270770D01*
G01X268890D02*
Y81560D01*
X269210Y81060D01*
G01Y79060D02*
X268570D01*
G01X267197Y80102D02*
X267010Y80393D01*
X266850Y80560D01*
X266637Y80643D01*
X266450Y80560D01*
X266317Y80393D01*
X266210Y80143D01*
X266183Y79852D01*
X266210Y79602D01*
X266317Y79352D01*
X266477Y79143D01*
X266663Y79060D01*
X266877Y79143D01*
X267063Y79393D01*
X267170Y79768D01*
X267197Y80185D01*
X267143Y80727D01*
X267063Y81018D01*
X266930Y81310D01*
X266743Y81518D01*
X266557Y81560D01*
X266370Y81477D01*
X266237Y81268D01*
G01X267533Y90892D02*
X267693Y91017D01*
X267880Y91100D01*
X268093D01*
X268333Y90975D01*
X268520Y90767D01*
X268653Y90517D01*
X268760Y90100D01*
X268787Y89725D01*
X268733Y89350D01*
X268653Y89100D01*
X268493Y88850D01*
X268307Y88683D01*
X268120Y88600D01*
X267933D01*
X267747Y88683D01*
X267587Y88808D01*
X267453Y88975D01*
G01X265920Y88600D02*
Y91100D01*
X266240Y90600D01*
G01Y88600D02*
X265600D01*
G01X264227Y90683D02*
X264067Y90933D01*
X263880Y91058D01*
X263667Y91100D01*
X263400Y91017D01*
X263213Y90808D01*
X263160Y90558D01*
X263187Y90308D01*
X263293Y90100D01*
X263827Y89683D01*
X264067Y89392D01*
X264227Y88975D01*
X264280Y88600D01*
X263160D01*
G01X261973Y88892D02*
X261787Y88683D01*
X261573Y88600D01*
X261360Y88683D01*
X261173Y88933D01*
X261040Y89308D01*
X260987Y89683D01*
Y90142D01*
X261040Y90517D01*
X261173Y90850D01*
X261333Y91017D01*
X261520Y91100D01*
X261733Y91017D01*
X261893Y90850D01*
X262000Y90600D01*
X262053Y90267D01*
X262000Y89975D01*
X261867Y89683D01*
X261707Y89517D01*
X261520Y89475D01*
X261307Y89558D01*
X261147Y89767D01*
X260987Y90142D01*
G54D11*
G01X-40600Y-174200D02*
X-37500D01*
X-36900Y-173500D01*
Y-172300D01*
X-37500Y-171700D01*
X-36900Y-171100D01*
Y-169800D01*
X-37500Y-169200D01*
X-40600D01*
Y-174200D01*
G01Y-171700D02*
X-37500D01*
G01X-40600D02*
X-37500D01*
G01X-40600Y-174200D02*
X-37500D01*
X-36900Y-173500D01*
Y-172300D01*
X-37500Y-171700D01*
X-36900Y-171100D01*
Y-169800D01*
X-37500Y-169200D01*
X-40600D01*
Y-174200D01*
G01X-37500Y-146700D02*
X-40600D01*
G01Y-149200D02*
X-37500D01*
X-36900Y-148500D01*
Y-147300D01*
X-37500Y-146700D01*
X-36900Y-146100D01*
Y-144800D01*
X-37500Y-144200D01*
X-40600D01*
Y-149200D01*
G01D02*
X-37500D01*
X-36900Y-148500D01*
Y-147300D01*
X-37500Y-146700D01*
X-36900Y-146100D01*
Y-144800D01*
X-37500Y-144200D01*
X-40600D01*
Y-149200D01*
G01X-37500Y-146700D02*
X-40600D01*
G01Y-123500D02*
X-40000Y-124200D01*
X-37500D01*
X-36900Y-123500D01*
Y-122900D01*
G01Y-120400D02*
Y-119800D01*
X-37500Y-119200D01*
X-40000D01*
X-40600Y-119800D01*
Y-123500D01*
G01X-36900Y-120400D02*
Y-119800D01*
X-37500Y-119200D01*
X-40000D01*
X-40600Y-119800D01*
Y-123500D01*
G01D02*
X-40000Y-124200D01*
X-37500D01*
X-36900Y-123500D01*
Y-122900D01*
G01X-30600Y-174200D02*
Y-170400D01*
X-29300Y-169200D01*
X-28100D01*
X-26900Y-170400D01*
Y-174200D01*
G01X-25600D02*
Y-169200D01*
X-22500D01*
X-21900Y-169800D01*
Y-171100D01*
X-22500Y-171700D01*
X-25600D01*
G01X-24300D02*
X-21900Y-174200D01*
G01X-26900Y-172300D02*
X-30600D01*
G01X-35600Y-173500D02*
X-35000Y-174200D01*
X-32500D01*
X-31900Y-173500D01*
Y-169800D01*
X-32500Y-169200D01*
X-35000D01*
X-35600Y-169800D01*
Y-173500D01*
G01D02*
X-35000Y-174200D01*
X-32500D01*
X-31900Y-173500D01*
Y-169800D01*
X-32500Y-169200D01*
X-35000D01*
X-35600Y-169800D01*
Y-173500D01*
G01X-26900Y-172300D02*
X-30600D01*
G01X-24300Y-171700D02*
X-21900Y-174200D01*
G01X-25600D02*
Y-169200D01*
X-22500D01*
X-21900Y-169800D01*
Y-171100D01*
X-22500Y-171700D01*
X-25600D01*
G01X-30600Y-174200D02*
Y-170400D01*
X-29300Y-169200D01*
X-28100D01*
X-26900Y-170400D01*
Y-174200D01*
G01X-21900Y-149200D02*
X-24300Y-146700D01*
G01X-25600D02*
X-22500D01*
X-21900Y-146100D01*
Y-144800D01*
X-22500Y-144200D01*
X-25600D01*
Y-149200D01*
G01X-26900D02*
Y-145400D01*
X-28100Y-144200D01*
X-29300D01*
X-30600Y-145400D01*
Y-149200D01*
G01Y-147300D02*
X-26900D01*
G01X-35600Y-148500D02*
X-35000Y-149200D01*
X-32500D01*
X-31900Y-148500D01*
Y-144800D01*
X-32500Y-144200D01*
X-35000D01*
X-35600Y-144800D01*
Y-148500D01*
G01D02*
X-35000Y-149200D01*
X-32500D01*
X-31900Y-148500D01*
Y-144800D01*
X-32500Y-144200D01*
X-35000D01*
X-35600Y-144800D01*
Y-148500D01*
G01X-30600Y-147300D02*
X-26900D01*
G01Y-149200D02*
Y-145400D01*
X-28100Y-144200D01*
X-29300D01*
X-30600Y-145400D01*
Y-149200D01*
G01X-25600Y-146700D02*
X-22500D01*
X-21900Y-146100D01*
Y-144800D01*
X-22500Y-144200D01*
X-25600D01*
Y-149200D01*
G01X-21900D02*
X-24300Y-146700D01*
G01X-30600Y-123500D02*
X-30000Y-124200D01*
X-27500D01*
X-26900Y-123500D01*
Y-122300D01*
X-27500Y-121700D01*
X-30000D01*
X-30600Y-121100D01*
Y-119800D01*
X-30000Y-119200D01*
X-27500D01*
X-26900Y-119800D01*
G01X-25500Y-119200D02*
X-23600D01*
Y-124400D01*
G01X-21700Y-119200D02*
X-23600D01*
G01X-35600D02*
Y-122900D01*
X-34300Y-124200D01*
X-33100D01*
X-31900Y-122900D01*
Y-119200D01*
G01X-35600D02*
Y-122900D01*
X-34300Y-124200D01*
X-33100D01*
X-31900Y-122900D01*
Y-119200D01*
G01X-21700D02*
X-23600D01*
G01X-25500D02*
X-23600D01*
Y-124400D01*
G01X-30600Y-123500D02*
X-30000Y-124200D01*
X-27500D01*
X-26900Y-123500D01*
Y-122300D01*
X-27500Y-121700D01*
X-30000D01*
X-30600Y-121100D01*
Y-119800D01*
X-30000Y-119200D01*
X-27500D01*
X-26900Y-119800D01*
G01X-10600Y-174200D02*
Y-169200D01*
G01Y-169800D02*
X-6900Y-173500D01*
G01X-20600Y-174200D02*
X-18100D01*
X-16900Y-172900D01*
Y-170400D01*
X-18100Y-169200D01*
X-20600D01*
Y-174200D01*
G01D02*
X-18100D01*
X-16900Y-172900D01*
Y-170400D01*
X-18100Y-169200D01*
X-20600D01*
Y-174200D01*
G01X-10600Y-169800D02*
X-6900Y-173500D01*
G01X-10600Y-174200D02*
Y-169200D01*
G01X-6900Y-148500D02*
X-10600Y-144800D01*
G01Y-144200D02*
Y-149200D01*
G01X-20600D02*
X-18100D01*
X-16900Y-147900D01*
Y-145400D01*
X-18100Y-144200D01*
X-20600D01*
Y-149200D01*
G01D02*
X-18100D01*
X-16900Y-147900D01*
Y-145400D01*
X-18100Y-144200D01*
X-20600D01*
Y-149200D01*
G01X-10600Y-144200D02*
Y-149200D01*
G01X-6900Y-148500D02*
X-10600Y-144800D01*
G01Y-121700D02*
X-8100D01*
G01X-6900Y-124200D02*
X-10600D01*
Y-119200D01*
X-6900D01*
G01X-20600Y-123500D02*
X-20000Y-124200D01*
X-17500D01*
X-16900Y-123500D01*
Y-119800D01*
X-17500Y-119200D01*
X-20000D01*
X-20600Y-119800D01*
Y-123500D01*
G01X-15600Y-124200D02*
Y-119200D01*
X-13700Y-121700D01*
X-11900Y-119200D01*
Y-124200D01*
G01X-15600D02*
Y-119200D01*
X-13700Y-121700D01*
X-11900Y-119200D01*
Y-124200D01*
G01X-20600Y-123500D02*
X-20000Y-124200D01*
X-17500D01*
X-16900Y-123500D01*
Y-119800D01*
X-17500Y-119200D01*
X-20000D01*
X-20600Y-119800D01*
Y-123500D01*
G01X-6900Y-124200D02*
X-10600D01*
Y-119200D01*
X-6900D01*
G01X-10600Y-121700D02*
X-8100D01*
G01X1300Y-174200D02*
X1900D01*
Y-173500D01*
X1300D01*
Y-174200D01*
G01X-6900D02*
Y-169200D01*
G01X-5600Y-173500D02*
X-5000Y-174200D01*
X-2500D01*
X-1900Y-173500D01*
Y-169800D01*
X-2500Y-169200D01*
X-5000D01*
X-5600Y-169800D01*
Y-173500D01*
G01D02*
X-5000Y-174200D01*
X-2500D01*
X-1900Y-173500D01*
Y-169800D01*
X-2500Y-169200D01*
X-5000D01*
X-5600Y-169800D01*
Y-173500D01*
G01X-6900Y-174200D02*
Y-169200D01*
G01X1300Y-174200D02*
X1900D01*
Y-173500D01*
X1300D01*
Y-174200D01*
G01X3100Y-149200D02*
Y-144200D01*
X1300Y-146700D01*
X-600Y-144200D01*
Y-149200D01*
G01X-1900D02*
Y-145400D01*
X-3100Y-144200D01*
X-4300D01*
X-5600Y-145400D01*
Y-149200D01*
G01X-6900D02*
Y-144200D01*
G01X-5600Y-147300D02*
X-1900D01*
G01X-5600D02*
X-1900D01*
G01X-6900Y-149200D02*
Y-144200D01*
G01X-1900Y-149200D02*
Y-145400D01*
X-3100Y-144200D01*
X-4300D01*
X-5600Y-145400D01*
Y-149200D01*
G01X3100D02*
Y-144200D01*
X1300Y-146700D01*
X-600Y-144200D01*
Y-149200D01*
G01X-5600Y-121700D02*
X-2500D01*
X-1900Y-121100D01*
Y-119800D01*
X-2500Y-119200D01*
X-5600D01*
Y-124200D01*
G01X-4300Y-121700D02*
X-1900Y-124200D01*
G01X-4300Y-121700D02*
X-1900Y-124200D01*
G01X-5600Y-121700D02*
X-2500D01*
X-1900Y-121100D01*
Y-119800D01*
X-2500Y-119200D01*
X-5600D01*
Y-124200D01*
G01X8100Y-144200D02*
X4400D01*
Y-149200D01*
X8100D01*
G01X6900Y-146700D02*
X4400D01*
G01X6900D02*
X4400D01*
G01X8100Y-144200D02*
X4400D01*
Y-149200D01*
X8100D01*
G01X4400Y-124200D02*
Y-119200D01*
G01Y-119800D02*
X8100Y-123500D01*
G01Y-124200D02*
Y-119200D01*
G01X9400Y-122300D02*
X13100D01*
G01Y-124200D02*
Y-120400D01*
X11900Y-119200D01*
X10700D01*
X9400Y-120400D01*
Y-124200D01*
G01X14400D02*
Y-119200D01*
X16300Y-121700D01*
X18100Y-119200D01*
Y-124200D01*
G01X14400D02*
Y-119200D01*
X16300Y-121700D01*
X18100Y-119200D01*
Y-124200D01*
G01X13100D02*
Y-120400D01*
X11900Y-119200D01*
X10700D01*
X9400Y-120400D01*
Y-124200D01*
G01Y-122300D02*
X13100D01*
G01X8100Y-124200D02*
Y-119200D01*
G01X4400Y-119800D02*
X8100Y-123500D01*
G01X4400Y-124200D02*
Y-119200D01*
G01X19400Y-121700D02*
X21900D01*
G01X23100Y-124200D02*
X19400D01*
Y-119200D01*
X23100D01*
G01Y-124200D02*
X19400D01*
Y-119200D01*
X23100D01*
G01X19400Y-121700D02*
X21900D01*
G01X108000Y-171700D02*
X110400Y-174200D01*
G01X106700Y-171700D02*
X109800D01*
X110400Y-171100D01*
Y-169800D01*
X109800Y-169200D01*
X106700D01*
Y-174200D01*
G01Y-171700D02*
X109800D01*
X110400Y-171100D01*
Y-169800D01*
X109800Y-169200D01*
X106700D01*
Y-174200D01*
G01X108000Y-171700D02*
X110400Y-174200D01*
G01X115400D02*
X111700D01*
Y-169200D01*
X115400D01*
G01X111700Y-171700D02*
X114200D01*
G01X116700Y-169200D02*
Y-172300D01*
X118600Y-174200D01*
X120400Y-172300D01*
Y-169200D01*
G01X116700D02*
Y-172300D01*
X118600Y-174200D01*
X120400Y-172300D01*
Y-169200D01*
G01X111700Y-171700D02*
X114200D01*
G01X115400Y-174200D02*
X111700D01*
Y-169200D01*
X115400D01*
G01X146800Y-174200D02*
X149300D01*
X150500Y-172900D01*
Y-170400D01*
X149300Y-169200D01*
X146800D01*
Y-174200D01*
G01D02*
X149300D01*
X150500Y-172900D01*
Y-170400D01*
X149300Y-169200D01*
X146800D01*
Y-174200D01*
G01X160300Y-169200D02*
X158400D01*
G01X165500Y-174200D02*
X161800D01*
Y-169200D01*
X165500D01*
G01X161800Y-171700D02*
X164300D01*
G01X156500Y-169200D02*
X158400D01*
Y-174200D01*
G01X155500Y-172300D02*
X151800D01*
G01Y-174200D02*
Y-170400D01*
X153100Y-169200D01*
X154300D01*
X155500Y-170400D01*
Y-174200D01*
G01X151800D02*
Y-170400D01*
X153100Y-169200D01*
X154300D01*
X155500Y-170400D01*
Y-174200D01*
G01Y-172300D02*
X151800D01*
G01X156500Y-169200D02*
X158400D01*
Y-174200D01*
G01X161800Y-171700D02*
X164300D01*
G01X165500Y-174200D02*
X161800D01*
Y-169200D01*
X165500D01*
G01X160300D02*
X158400D01*
G01X184400Y-149200D02*
X186900D01*
X188100Y-147900D01*
Y-145400D01*
X186900Y-144200D01*
X184400D01*
Y-149200D01*
G01X189400Y-146700D02*
X191900D01*
G01X193100Y-149200D02*
X189400D01*
Y-144200D01*
X193100D01*
G01Y-149200D02*
X189400D01*
Y-144200D01*
X193100D01*
G01X189400Y-146700D02*
X191900D01*
G01X184400Y-149200D02*
X186900D01*
X188100Y-147900D01*
Y-145400D01*
X186900Y-144200D01*
X184400D01*
Y-149200D01*
G01X194400Y-148500D02*
X195000Y-149200D01*
X197500D01*
X198100Y-148500D01*
Y-147300D01*
X197500Y-146700D01*
X195000D01*
X194400Y-146100D01*
Y-144800D01*
X195000Y-144200D01*
X197500D01*
X198100Y-144800D01*
G01X203100Y-145400D02*
Y-144800D01*
X202500Y-144200D01*
X200000D01*
X199400Y-144800D01*
Y-148500D01*
X200000Y-149200D01*
X202500D01*
X203100Y-148500D01*
Y-147900D01*
G01Y-145400D02*
Y-144800D01*
X202500Y-144200D01*
X200000D01*
X199400Y-144800D01*
Y-148500D01*
X200000Y-149200D01*
X202500D01*
X203100Y-148500D01*
Y-147900D01*
G01X194400Y-148500D02*
X195000Y-149200D01*
X197500D01*
X198100Y-148500D01*
Y-147300D01*
X197500Y-146700D01*
X195000D01*
X194400Y-146100D01*
Y-144800D01*
X195000Y-144200D01*
X197500D01*
X198100Y-144800D01*
G01X209400Y-149200D02*
X213100D01*
G01X214400D02*
Y-144200D01*
X217500D01*
X218100Y-144800D01*
Y-146100D01*
X217500Y-146700D01*
X214400D01*
G01X213100Y-144200D02*
X209400D01*
G01X211300D02*
Y-149200D01*
G01X204400Y-146700D02*
X207500D01*
X208100Y-146100D01*
Y-144800D01*
X207500Y-144200D01*
X204400D01*
Y-149200D01*
G01X205700Y-146700D02*
X208100Y-149200D01*
G01X205700Y-146700D02*
X208100Y-149200D01*
G01X204400Y-146700D02*
X207500D01*
X208100Y-146100D01*
Y-144800D01*
X207500Y-144200D01*
X204400D01*
Y-149200D01*
G01X211300Y-144200D02*
Y-149200D01*
G01X213100Y-144200D02*
X209400D01*
G01X214400Y-149200D02*
Y-144200D01*
X217500D01*
X218100Y-144800D01*
Y-146100D01*
X217500Y-146700D01*
X214400D01*
G01X209400Y-149200D02*
X213100D01*
G01X225889Y-174285D02*
Y-169285D01*
X228989D01*
X229589Y-169885D01*
Y-171185D01*
X228989Y-171785D01*
X225889D01*
G01Y-174285D02*
Y-169285D01*
X228989D01*
X229589Y-169885D01*
Y-171185D01*
X228989Y-171785D01*
X225889D01*
G01X219400Y-144200D02*
X221300D01*
Y-149200D01*
G01X224400D02*
X228100D01*
G01X229400Y-148500D02*
X230000Y-149200D01*
X232500D01*
X233100Y-148500D01*
Y-144800D01*
X232500Y-144200D01*
X230000D01*
X229400Y-144800D01*
Y-148500D01*
G01X226300Y-149200D02*
Y-144200D01*
G01X228100D02*
X224400D01*
G01X223200D02*
X221300D01*
G01X223200D02*
X221300D01*
G01X228100D02*
X224400D01*
G01X226300Y-149200D02*
Y-144200D01*
G01X229400Y-148500D02*
X230000Y-149200D01*
X232500D01*
X233100Y-148500D01*
Y-144800D01*
X232500Y-144200D01*
X230000D01*
X229400Y-144800D01*
Y-148500D01*
G01X224400Y-149200D02*
X228100D01*
G01X219400Y-144200D02*
X221300D01*
Y-149200D01*
G01X231400Y-171800D02*
X234500D01*
X235100Y-171200D01*
Y-169900D01*
X234500Y-169300D01*
X231400D01*
Y-174300D01*
G01X232700Y-171800D02*
X235100Y-174300D01*
G01X245500Y-172800D02*
X241700D01*
G01X245500Y-170900D02*
X241700D01*
G01X243000Y-170000D02*
Y-173800D01*
G01X240200Y-169300D02*
Y-173000D01*
X239000Y-174300D01*
X237700D01*
X236500Y-173000D01*
G01X240200Y-169300D02*
Y-173000D01*
X239000Y-174300D01*
X237700D01*
X236500Y-173000D01*
G01X243000Y-170000D02*
Y-173800D01*
G01X245500Y-170900D02*
X241700D01*
G01X245500Y-172800D02*
X241700D01*
G01X232700Y-171800D02*
X235100Y-174300D01*
G01X231400Y-171800D02*
X234500D01*
X235100Y-171200D01*
Y-169900D01*
X234500Y-169300D01*
X231400D01*
Y-174300D01*
G01X238100Y-149200D02*
Y-144200D01*
G01X234400D02*
Y-149200D01*
G01Y-144800D02*
X238100Y-148500D01*
G01X234400Y-144800D02*
X238100Y-148500D01*
G01X234400Y-144200D02*
Y-149200D01*
G01X238100D02*
Y-144200D01*
G01X244200Y-170000D02*
Y-173800D01*
G01Y-170000D02*
Y-173800D01*
G01X329400Y-169200D02*
Y-174200D01*
G01Y-171700D02*
X333100D01*
G01Y-174200D02*
Y-169200D01*
G01X324400Y-173500D02*
X325000Y-174200D01*
X327500D01*
X328100Y-173500D01*
Y-172300D01*
X327500Y-171700D01*
X325000D01*
X324400Y-171100D01*
Y-169800D01*
X325000Y-169200D01*
X327500D01*
X328100Y-169800D01*
G01X324400Y-173500D02*
X325000Y-174200D01*
X327500D01*
X328100Y-173500D01*
Y-172300D01*
X327500Y-171700D01*
X325000D01*
X324400Y-171100D01*
Y-169800D01*
X325000Y-169200D01*
X327500D01*
X328100Y-169800D01*
G01X333100Y-174200D02*
Y-169200D01*
G01X329400Y-171700D02*
X333100D01*
G01X329400Y-169200D02*
Y-174200D01*
G01X369400D02*
Y-169200D01*
X373100D01*
G01X371900Y-171700D02*
X369400D01*
G01X364400Y-173500D02*
X365000Y-174200D01*
X367500D01*
X368100Y-173500D01*
Y-169800D01*
X367500Y-169200D01*
X365000D01*
X364400Y-169800D01*
Y-173500D01*
G01D02*
X365000Y-174200D01*
X367500D01*
X368100Y-173500D01*
Y-169800D01*
X367500Y-169200D01*
X365000D01*
X364400Y-169800D01*
Y-173500D01*
G01X371900Y-171700D02*
X369400D01*
G01Y-174200D02*
Y-169200D01*
X373100D01*
G54D12*
G01X26650Y49700D02*
Y47700D01*
G01X31650Y49700D02*
Y47700D01*
G01X67250Y104100D02*
X65850D01*
G01X67250Y101100D02*
X65850D01*
G01X105000Y148200D02*
Y146800D01*
G01X108000Y148200D02*
Y146800D01*
G01X195400Y68000D02*
Y71500D01*
X194200D01*
X193800Y71325D01*
X193500Y70917D01*
X193400Y70450D01*
X193500Y69983D01*
X193750Y69633D01*
X194200Y69458D01*
X195400D01*
G01X189700Y71208D02*
X190000Y71383D01*
X190350Y71500D01*
X190750D01*
X191200Y71325D01*
X191550Y71033D01*
X191800Y70683D01*
X192000Y70100D01*
X192050Y69575D01*
X191950Y69050D01*
X191800Y68700D01*
X191500Y68350D01*
X191150Y68117D01*
X190800Y68000D01*
X190450D01*
X190100Y68117D01*
X189800Y68292D01*
X189550Y68525D01*
G01X186800Y69867D02*
X186600Y70042D01*
X186450Y70333D01*
X186350Y70742D01*
X186450Y71092D01*
X186650Y71325D01*
X187000Y71500D01*
X188350D01*
Y68000D01*
X186700D01*
X186350Y68233D01*
X186150Y68583D01*
X186050Y68992D01*
X186150Y69400D01*
X186450Y69750D01*
X186800Y69867D01*
X188350D01*
G01X180950Y70917D02*
X180650Y71267D01*
X180300Y71442D01*
X179900Y71500D01*
X179400Y71383D01*
X179050Y71092D01*
X178950Y70742D01*
X179000Y70392D01*
X179200Y70100D01*
X180200Y69517D01*
X180650Y69108D01*
X180950Y68525D01*
X181050Y68000D01*
X178950D01*
G01X177500Y68525D02*
X177200Y68233D01*
X176850Y68058D01*
X176400Y68000D01*
X175950Y68117D01*
X175600Y68350D01*
X175350Y68758D01*
X175300Y69225D01*
X175400Y69692D01*
X175650Y69983D01*
X176000Y70217D01*
X176350Y70275D01*
X176700Y70217D01*
X177150Y69983D01*
X177000Y71500D01*
X175650D01*
G01X172800Y68000D02*
Y71500D01*
X173400Y70800D01*
G01Y68000D02*
X172200D01*
G01X170300Y68525D02*
X170000Y68233D01*
X169650Y68058D01*
X169200Y68000D01*
X168750Y68117D01*
X168400Y68350D01*
X168150Y68758D01*
X168100Y69225D01*
X168200Y69692D01*
X168450Y69983D01*
X168800Y70217D01*
X169150Y70275D01*
X169500Y70217D01*
X169950Y69983D01*
X169800Y71500D01*
X168450D01*
G01X166550Y70917D02*
X166250Y71267D01*
X165900Y71442D01*
X165500Y71500D01*
X165000Y71383D01*
X164650Y71092D01*
X164550Y70742D01*
X164600Y70392D01*
X164800Y70100D01*
X165800Y69517D01*
X166250Y69108D01*
X166550Y68525D01*
X166650Y68000D01*
X164550D01*
G01X162000D02*
Y71500D01*
X162600Y70800D01*
G01Y68000D02*
X161400D01*
G01X158400Y71500D02*
X158800Y71383D01*
X159100Y71092D01*
X159300Y70742D01*
X159450Y70275D01*
X159500Y69750D01*
X159450Y69225D01*
X159300Y68758D01*
X159100Y68408D01*
X158800Y68117D01*
X158400Y68000D01*
X158000Y68117D01*
X157700Y68408D01*
X157500Y68758D01*
X157350Y69225D01*
X157300Y69750D01*
X157350Y70275D01*
X157500Y70742D01*
X157700Y71092D01*
X158000Y71383D01*
X158400Y71500D01*
G01X152200Y68000D02*
Y71500D01*
X150950D01*
X150550Y71325D01*
X150300Y71092D01*
X150200Y70625D01*
X150300Y70158D01*
X150600Y69867D01*
X150950Y69692D01*
X152200D01*
G01X150950D02*
X150200Y68000D01*
G01X146600D02*
X148600D01*
Y71500D01*
X146600D01*
G01X147400Y69808D02*
X148600D01*
G01X145250Y71500D02*
X144000Y68000D01*
X142750Y71500D01*
G01X138050Y68000D02*
X136800Y71500D01*
X135550Y68000D01*
G01X136000Y69225D02*
X137600D01*
G01X195100Y85500D02*
Y82000D01*
G01X196250Y85500D02*
X193950D01*
G01X190500Y82000D02*
X192500D01*
Y85500D01*
X190500D01*
G01X191300Y83808D02*
X192500D01*
G01X188950Y82000D02*
X186850Y85500D01*
G01X188950D02*
X186850Y82000D01*
G01X185550D02*
X184300Y85500D01*
X183050Y82000D01*
G01X183500Y83225D02*
X185100D01*
G01X181750Y82467D02*
X181350Y82175D01*
X180900Y82000D01*
X180500D01*
X180100Y82175D01*
X179800Y82467D01*
X179650Y82875D01*
X179750Y83283D01*
X180000Y83633D01*
X180450Y83867D01*
X181050Y83983D01*
X181400Y84217D01*
X181550Y84625D01*
X181450Y85033D01*
X181200Y85325D01*
X180850Y85500D01*
X180500D01*
X180150Y85383D01*
X179850Y85092D01*
G01X174100Y85500D02*
X172900D01*
G01X173500D02*
Y82000D01*
G01X174100D02*
X172900D01*
G01X171050D02*
Y85500D01*
X168750Y82000D01*
Y85500D01*
G01X167350Y82467D02*
X166950Y82175D01*
X166500Y82000D01*
X166100D01*
X165700Y82175D01*
X165400Y82467D01*
X165250Y82875D01*
X165350Y83283D01*
X165600Y83633D01*
X166050Y83867D01*
X166650Y83983D01*
X167000Y84217D01*
X167150Y84625D01*
X167050Y85033D01*
X166800Y85325D01*
X166450Y85500D01*
X166100D01*
X165750Y85383D01*
X165450Y85092D01*
G01X162700Y85500D02*
Y82000D01*
G01X163850Y85500D02*
X161550D01*
G01X160100Y82000D02*
Y85500D01*
X158850D01*
X158450Y85325D01*
X158200Y85092D01*
X158100Y84625D01*
X158200Y84158D01*
X158500Y83867D01*
X158850Y83692D01*
X160100D01*
G01X158850D02*
X158100Y82000D01*
G01X156600Y85500D02*
Y82992D01*
X156400Y82467D01*
X156000Y82117D01*
X155500Y82000D01*
X155000Y82117D01*
X154600Y82467D01*
X154400Y82992D01*
Y85500D01*
G01X153200Y82000D02*
Y85500D01*
X151900Y82583D01*
X150600Y85500D01*
Y82000D01*
G01X147300D02*
X149300D01*
Y85500D01*
X147300D01*
G01X148100Y83808D02*
X149300D01*
G01X145850Y82000D02*
Y85500D01*
X143550Y82000D01*
Y85500D01*
G01X141100D02*
Y82000D01*
G01X142250Y85500D02*
X139950D01*
G01X138550Y82467D02*
X138150Y82175D01*
X137700Y82000D01*
X137300D01*
X136900Y82175D01*
X136600Y82467D01*
X136450Y82875D01*
X136550Y83283D01*
X136800Y83633D01*
X137250Y83867D01*
X137850Y83983D01*
X138200Y84217D01*
X138350Y84625D01*
X138250Y85033D01*
X138000Y85325D01*
X137650Y85500D01*
X137300D01*
X136950Y85383D01*
X136650Y85092D01*
G01X193400Y74100D02*
X195400D01*
Y77600D01*
X193400D01*
G01X194200Y75908D02*
X195400D01*
G01X191850Y74567D02*
X191450Y74275D01*
X191000Y74100D01*
X190600D01*
X190200Y74275D01*
X189900Y74567D01*
X189750Y74975D01*
X189850Y75383D01*
X190100Y75733D01*
X190550Y75967D01*
X191150Y76083D01*
X191500Y76317D01*
X191650Y76725D01*
X191550Y77133D01*
X191300Y77425D01*
X190950Y77600D01*
X190600D01*
X190250Y77483D01*
X189950Y77192D01*
G01X188300Y74100D02*
Y77600D01*
X187300D01*
X186900Y77425D01*
X186600Y77192D01*
X186350Y76842D01*
X186150Y76433D01*
X186100Y75850D01*
X186150Y75267D01*
X186350Y74858D01*
X186600Y74508D01*
X186900Y74275D01*
X187300Y74100D01*
X188300D01*
G01X180950Y77017D02*
X180650Y77367D01*
X180300Y77542D01*
X179900Y77600D01*
X179400Y77483D01*
X179050Y77192D01*
X178950Y76842D01*
X179000Y76492D01*
X179200Y76200D01*
X180200Y75617D01*
X180650Y75208D01*
X180950Y74625D01*
X181050Y74100D01*
X178950D01*
G01X177500Y74625D02*
X177200Y74333D01*
X176850Y74158D01*
X176400Y74100D01*
X175950Y74217D01*
X175600Y74450D01*
X175350Y74858D01*
X175300Y75325D01*
X175400Y75792D01*
X175650Y76083D01*
X176000Y76317D01*
X176350Y76375D01*
X176700Y76317D01*
X177150Y76083D01*
X177000Y77600D01*
X175650D01*
G01X172800Y74100D02*
Y77600D01*
X173400Y76900D01*
G01Y74100D02*
X172200D01*
G01X170300Y74625D02*
X170000Y74333D01*
X169650Y74158D01*
X169200Y74100D01*
X168750Y74217D01*
X168400Y74450D01*
X168150Y74858D01*
X168100Y75325D01*
X168200Y75792D01*
X168450Y76083D01*
X168800Y76317D01*
X169150Y76375D01*
X169500Y76317D01*
X169950Y76083D01*
X169800Y77600D01*
X168450D01*
G01X166550Y77017D02*
X166250Y77367D01*
X165900Y77542D01*
X165500Y77600D01*
X165000Y77483D01*
X164650Y77192D01*
X164550Y76842D01*
X164600Y76492D01*
X164800Y76200D01*
X165800Y75617D01*
X166250Y75208D01*
X166550Y74625D01*
X166650Y74100D01*
X164550D01*
G01X162000Y77600D02*
X162400Y77483D01*
X162700Y77192D01*
X162900Y76842D01*
X163050Y76375D01*
X163100Y75850D01*
X163050Y75325D01*
X162900Y74858D01*
X162700Y74508D01*
X162400Y74217D01*
X162000Y74100D01*
X161600Y74217D01*
X161300Y74508D01*
X161100Y74858D01*
X160950Y75325D01*
X160900Y75850D01*
X160950Y76375D01*
X161100Y76842D01*
X161300Y77192D01*
X161600Y77483D01*
X162000Y77600D01*
G01X159250Y74508D02*
X158900Y74217D01*
X158500Y74100D01*
X158100Y74217D01*
X157750Y74567D01*
X157500Y75092D01*
X157400Y75617D01*
Y76258D01*
X157500Y76783D01*
X157750Y77250D01*
X158050Y77483D01*
X158400Y77600D01*
X158800Y77483D01*
X159100Y77250D01*
X159300Y76900D01*
X159400Y76433D01*
X159300Y76025D01*
X159050Y75617D01*
X158750Y75383D01*
X158400Y75325D01*
X158000Y75442D01*
X157700Y75733D01*
X157400Y76258D01*
G01X193100Y65608D02*
X193400Y65783D01*
X193750Y65900D01*
X194150D01*
X194600Y65725D01*
X194950Y65433D01*
X195200Y65083D01*
X195400Y64500D01*
X195450Y63975D01*
X195350Y63450D01*
X195200Y63100D01*
X194900Y62750D01*
X194550Y62517D01*
X194200Y62400D01*
X193850D01*
X193500Y62517D01*
X193200Y62692D01*
X192950Y62925D01*
G01X189500Y65608D02*
X189800Y65783D01*
X190150Y65900D01*
X190550D01*
X191000Y65725D01*
X191350Y65433D01*
X191600Y65083D01*
X191800Y64500D01*
X191850Y63975D01*
X191750Y63450D01*
X191600Y63100D01*
X191300Y62750D01*
X190950Y62517D01*
X190600Y62400D01*
X190250D01*
X189900Y62517D01*
X189600Y62692D01*
X189350Y62925D01*
G01X188250Y62400D02*
X187000Y65900D01*
X185750Y62400D01*
G01X186200Y63625D02*
X187800D01*
G01X180750Y65317D02*
X180450Y65667D01*
X180100Y65842D01*
X179700Y65900D01*
X179200Y65783D01*
X178850Y65492D01*
X178750Y65142D01*
X178800Y64792D01*
X179000Y64500D01*
X180000Y63917D01*
X180450Y63508D01*
X180750Y62925D01*
X180850Y62400D01*
X178750D01*
G01X177300Y62925D02*
X177000Y62633D01*
X176650Y62458D01*
X176200Y62400D01*
X175750Y62517D01*
X175400Y62750D01*
X175150Y63158D01*
X175100Y63625D01*
X175200Y64092D01*
X175450Y64383D01*
X175800Y64617D01*
X176150Y64675D01*
X176500Y64617D01*
X176950Y64383D01*
X176800Y65900D01*
X175450D01*
G01X172600Y62400D02*
Y65900D01*
X173200Y65200D01*
G01Y62400D02*
X172000D01*
G01X170100Y62925D02*
X169800Y62633D01*
X169450Y62458D01*
X169000Y62400D01*
X168550Y62517D01*
X168200Y62750D01*
X167950Y63158D01*
X167900Y63625D01*
X168000Y64092D01*
X168250Y64383D01*
X168600Y64617D01*
X168950Y64675D01*
X169300Y64617D01*
X169750Y64383D01*
X169600Y65900D01*
X168250D01*
G01X166350Y65317D02*
X166050Y65667D01*
X165700Y65842D01*
X165300Y65900D01*
X164800Y65783D01*
X164450Y65492D01*
X164350Y65142D01*
X164400Y64792D01*
X164600Y64500D01*
X165600Y63917D01*
X166050Y63508D01*
X166350Y62925D01*
X166450Y62400D01*
X164350D01*
G01X161800D02*
Y65900D01*
X162400Y65200D01*
G01Y62400D02*
X161200D01*
G01X158200D02*
Y65900D01*
X158800Y65200D01*
G01Y62400D02*
X157600D01*
G01X279100Y194950D02*
X275600D01*
Y193050D01*
G01X277292Y193750D02*
Y194950D01*
G01X279100Y190400D02*
X279042Y190800D01*
X278808Y191150D01*
X278458Y191450D01*
X278050Y191650D01*
X277583Y191750D01*
X277117D01*
X276650Y191650D01*
X276242Y191450D01*
X275892Y191150D01*
X275658Y190800D01*
X275600Y190400D01*
X275658Y190000D01*
X275892Y189650D01*
X276242Y189350D01*
X276650Y189150D01*
X277117Y189050D01*
X277583D01*
X278050Y189150D01*
X278458Y189350D01*
X278808Y189650D01*
X279042Y190000D01*
X279100Y190400D01*
G01Y187800D02*
X275600D01*
Y186550D01*
X275775Y186150D01*
X276008Y185900D01*
X276475Y185800D01*
X276942Y185900D01*
X277233Y186200D01*
X277408Y186550D01*
Y187800D01*
G01Y186550D02*
X279100Y185800D01*
G01Y178600D02*
Y180600D01*
X275600D01*
Y178600D01*
G01X277292Y179400D02*
Y180600D01*
G01X275600Y177250D02*
X279100Y176000D01*
X275600Y174750D01*
G01X279100Y173650D02*
X275600Y172400D01*
X279100Y171150D01*
G01X277875Y171600D02*
Y173200D01*
G01X275600Y169800D02*
X279100D01*
Y167800D01*
G01X275600Y166300D02*
X278108D01*
X278633Y166100D01*
X278983Y165700D01*
X279100Y165200D01*
X278983Y164700D01*
X278633Y164300D01*
X278108Y164100D01*
X275600D01*
G01X279100Y162850D02*
X275600Y161600D01*
X279100Y160350D01*
G01X277875Y160800D02*
Y162400D01*
G01X275600Y158000D02*
X279100D01*
G01X275600Y159150D02*
Y156850D01*
G01Y155000D02*
Y153800D01*
G01Y154400D02*
X279100D01*
G01Y155000D02*
Y153800D01*
G01Y150800D02*
X279042Y151200D01*
X278808Y151550D01*
X278458Y151850D01*
X278050Y152050D01*
X277583Y152150D01*
X277117D01*
X276650Y152050D01*
X276242Y151850D01*
X275892Y151550D01*
X275658Y151200D01*
X275600Y150800D01*
X275658Y150400D01*
X275892Y150050D01*
X276242Y149750D01*
X276650Y149550D01*
X277117Y149450D01*
X277583D01*
X278050Y149550D01*
X278458Y149750D01*
X278808Y150050D01*
X279042Y150400D01*
X279100Y150800D01*
G01Y148350D02*
X275600D01*
X279100Y146050D01*
X275600D01*
G01X279100Y140000D02*
X279042Y140400D01*
X278808Y140750D01*
X278458Y141050D01*
X278050Y141250D01*
X277583Y141350D01*
X277117D01*
X276650Y141250D01*
X276242Y141050D01*
X275892Y140750D01*
X275658Y140400D01*
X275600Y140000D01*
X275658Y139600D01*
X275892Y139250D01*
X276242Y138950D01*
X276650Y138750D01*
X277117Y138650D01*
X277583D01*
X278050Y138750D01*
X278458Y138950D01*
X278808Y139250D01*
X279042Y139600D01*
X279100Y140000D01*
G01Y137550D02*
X275600D01*
X279100Y135250D01*
X275600D01*
G01Y133800D02*
X279100D01*
Y131800D01*
G01Y129200D02*
X277525D01*
X275600Y130200D01*
G01Y128200D02*
X277525Y129200D01*
G01X279217Y122000D02*
X279158Y122100D01*
X279042D01*
X278983Y122000D01*
X279042Y121900D01*
X279158D01*
X279217Y122000D01*
G01X277642D02*
X277583Y122100D01*
X277467D01*
X277408Y122000D01*
X277467Y121900D01*
X277583D01*
X277642Y122000D01*
G01X279100Y115950D02*
X275600D01*
X279100Y113650D01*
X275600D01*
G01X279100Y111200D02*
X279042Y111600D01*
X278808Y111950D01*
X278458Y112250D01*
X278050Y112450D01*
X277583Y112550D01*
X277117D01*
X276650Y112450D01*
X276242Y112250D01*
X275892Y111950D01*
X275658Y111600D01*
X275600Y111200D01*
X275658Y110800D01*
X275892Y110450D01*
X276242Y110150D01*
X276650Y109950D01*
X277117Y109850D01*
X277583D01*
X278050Y109950D01*
X278458Y110150D01*
X278808Y110450D01*
X279042Y110800D01*
X279100Y111200D01*
G01X275600Y107600D02*
X279100D01*
G01X275600Y108750D02*
Y106450D01*
G01X279100Y101350D02*
X275600D01*
Y99450D01*
G01X277292Y100150D02*
Y101350D01*
G01X275892Y95700D02*
X275717Y96000D01*
X275600Y96350D01*
Y96750D01*
X275775Y97200D01*
X276067Y97550D01*
X276417Y97800D01*
X277000Y98000D01*
X277525Y98050D01*
X278050Y97950D01*
X278400Y97800D01*
X278750Y97500D01*
X278983Y97150D01*
X279100Y96800D01*
Y96450D01*
X278983Y96100D01*
X278808Y95800D01*
X278575Y95550D01*
G01X275892Y92100D02*
X275717Y92400D01*
X275600Y92750D01*
Y93150D01*
X275775Y93600D01*
X276067Y93950D01*
X276417Y94200D01*
X277000Y94400D01*
X277525Y94450D01*
X278050Y94350D01*
X278400Y94200D01*
X278750Y93900D01*
X278983Y93550D01*
X279100Y93200D01*
Y92850D01*
X278983Y92500D01*
X278808Y92200D01*
X278575Y91950D01*
G01X279100Y87250D02*
X275600Y86000D01*
X279100Y84750D01*
G01X277875Y85200D02*
Y86800D01*
G01X279100Y83400D02*
X275600D01*
Y82200D01*
X275775Y81800D01*
X276183Y81500D01*
X276650Y81400D01*
X277117Y81500D01*
X277467Y81750D01*
X277642Y82200D01*
Y83400D01*
G01X279100Y79800D02*
X275600D01*
Y78600D01*
X275775Y78200D01*
X276183Y77900D01*
X276650Y77800D01*
X277117Y77900D01*
X277467Y78150D01*
X277642Y78600D01*
Y79800D01*
G01X279100Y76200D02*
X275600D01*
Y74950D01*
X275775Y74550D01*
X276008Y74300D01*
X276475Y74200D01*
X276942Y74300D01*
X277233Y74600D01*
X277408Y74950D01*
Y76200D01*
G01Y74950D02*
X279100Y74200D01*
G01Y71600D02*
X279042Y72000D01*
X278808Y72350D01*
X278458Y72650D01*
X278050Y72850D01*
X277583Y72950D01*
X277117D01*
X276650Y72850D01*
X276242Y72650D01*
X275892Y72350D01*
X275658Y72000D01*
X275600Y71600D01*
X275658Y71200D01*
X275892Y70850D01*
X276242Y70550D01*
X276650Y70350D01*
X277117Y70250D01*
X277583D01*
X278050Y70350D01*
X278458Y70550D01*
X278808Y70850D01*
X279042Y71200D01*
X279100Y71600D01*
G01X275600Y69250D02*
X279100Y68000D01*
X275600Y66750D01*
G01X279100Y63400D02*
Y65400D01*
X275600D01*
Y63400D01*
G01X277292Y64200D02*
Y65400D01*
G01X279100Y61900D02*
X275600D01*
Y60900D01*
X275775Y60500D01*
X276008Y60200D01*
X276358Y59950D01*
X276767Y59750D01*
X277350Y59700D01*
X277933Y59750D01*
X278342Y59950D01*
X278692Y60200D01*
X278925Y60500D01*
X279100Y60900D01*
Y61900D01*
G01Y54550D02*
X275600D01*
Y52650D01*
G01X277292Y53350D02*
Y54550D01*
G01X279100Y50000D02*
X279042Y50400D01*
X278808Y50750D01*
X278458Y51050D01*
X278050Y51250D01*
X277583Y51350D01*
X277117D01*
X276650Y51250D01*
X276242Y51050D01*
X275892Y50750D01*
X275658Y50400D01*
X275600Y50000D01*
X275658Y49600D01*
X275892Y49250D01*
X276242Y48950D01*
X276650Y48750D01*
X277117Y48650D01*
X277583D01*
X278050Y48750D01*
X278458Y48950D01*
X278808Y49250D01*
X279042Y49600D01*
X279100Y50000D01*
G01Y47400D02*
X275600D01*
Y46150D01*
X275775Y45750D01*
X276008Y45500D01*
X276475Y45400D01*
X276942Y45500D01*
X277233Y45800D01*
X277408Y46150D01*
Y47400D01*
G01Y46150D02*
X279100Y45400D01*
G01Y40200D02*
X275600D01*
Y38950D01*
X275775Y38550D01*
X276008Y38300D01*
X276475Y38200D01*
X276942Y38300D01*
X277233Y38600D01*
X277408Y38950D01*
Y40200D01*
G01Y38950D02*
X279100Y38200D01*
G01Y34600D02*
Y36600D01*
X275600D01*
Y34600D01*
G01X277292Y35400D02*
Y36600D01*
G01X278633Y33050D02*
X278925Y32650D01*
X279100Y32200D01*
Y31800D01*
X278925Y31400D01*
X278633Y31100D01*
X278225Y30950D01*
X277817Y31050D01*
X277467Y31300D01*
X277233Y31750D01*
X277117Y32350D01*
X276883Y32700D01*
X276475Y32850D01*
X276067Y32750D01*
X275775Y32500D01*
X275600Y32150D01*
Y31800D01*
X275717Y31450D01*
X276008Y31150D01*
G01X279100Y29650D02*
X275600Y28400D01*
X279100Y27150D01*
G01X277875Y27600D02*
Y29200D01*
G01X275600Y25800D02*
X279100D01*
Y23800D01*
G01Y20200D02*
Y22200D01*
X275600D01*
Y20200D01*
G01X277292Y21000D02*
Y22200D01*
G01X241000Y215000D02*
X-9000D01*
Y156645D01*
X38244D01*
Y78255D01*
X0D01*
Y0D01*
X241000D01*
G03X291000Y50000I0J50000D01*
G01Y165000D01*
G03X241000Y215000I-50000J0D01*
G01X55400Y107550D02*
X60400D01*
G01X55400Y104550D02*
X60400D01*
G01X55400Y110400D02*
X60400D01*
G01X55400Y107400D02*
X60400D01*
G01X55400Y110250D02*
X60400D01*
G01X55400Y116300D02*
X60400D01*
G01X55400Y113300D02*
X60400D01*
G01X55400Y124200D02*
X60400D01*
G01X55400Y121200D02*
X60400D01*
G01X55400Y113250D02*
X60400D01*
G01X72600Y112350D02*
X77600D01*
G01X72600Y109350D02*
X77600D01*
G01X72600Y108400D02*
X77600D01*
G01X72600Y105400D02*
X77600D01*
G01Y117200D02*
X72600D01*
G01X77600Y120200D02*
X72600D01*
G01X77600Y123100D02*
X72600D01*
G01X77600Y126100D02*
X72600D01*
G01Y136000D02*
X77600D01*
G01X72600Y133000D02*
X77600D01*
G01X71400Y149800D02*
Y154800D01*
G01X74400Y149800D02*
Y154800D01*
G01X71400Y143600D02*
Y148600D01*
G01X74400Y143600D02*
Y148600D01*
G01X75582Y146004D02*
Y158996D01*
X85818D01*
Y146004D01*
X75582D01*
G01X88250Y61950D02*
Y66950D01*
G01X91250Y61950D02*
Y66950D01*
G01X93250Y61950D02*
Y66950D01*
G01X96250Y61950D02*
Y66950D01*
G01X93250Y81950D02*
Y86950D01*
G01X96250Y81950D02*
Y86950D01*
G01X91250D02*
Y81950D01*
G01X88250Y86950D02*
Y81950D01*
G01X86600Y152300D02*
Y157300D01*
G01X89600Y152300D02*
Y157300D01*
G01X95500Y158000D02*
Y153000D01*
G01X98250Y61950D02*
Y66950D01*
G01X101250Y61950D02*
Y66950D01*
G01X98250Y81950D02*
Y86950D01*
G01X101250Y81950D02*
Y86950D01*
G01X103250Y81950D02*
Y86950D01*
G01X106250Y81950D02*
Y86950D01*
G01X103000Y149000D02*
X98000D01*
G01X103000Y152000D02*
X98000D01*
G01Y146000D02*
X103000D01*
G01X98000Y143000D02*
X103000D01*
G01X109713Y146319D02*
X111287D01*
G01Y148681D02*
X109713D01*
G01D02*
Y146319D01*
G01X98500Y158000D02*
Y153000D01*
G01X105213Y162319D02*
X106787D01*
G01Y164681D02*
X105213D01*
G01X106787Y162319D02*
Y164681D01*
G01X105213D02*
Y162319D01*
G01X108213D02*
X109787D01*
G01Y164681D02*
X108213D01*
G01X109787Y162319D02*
Y164681D01*
G01X108213D02*
Y162319D01*
G01X106787Y159681D02*
X105213D01*
G01Y157319D02*
X106787D01*
G01X105213Y159681D02*
Y157319D01*
G01X106787D02*
Y159681D01*
G01X109787D02*
X108213D01*
G01Y157319D02*
X109787D01*
G01X108213Y159681D02*
Y157319D01*
G01X109787D02*
Y159681D01*
G01X122250Y30000D02*
Y35000D01*
G01X112431Y141713D02*
Y143287D01*
G01X110069D02*
Y141713D01*
G01X112431Y143287D02*
X110069D01*
G01Y141713D02*
X112431D01*
G01X111287Y146319D02*
Y148681D01*
G01X115069Y143287D02*
Y141713D01*
G01X117431D02*
Y143287D01*
G01X115069Y141713D02*
X117431D01*
G01Y143287D02*
X115069D01*
G01X123181Y151213D02*
Y152787D01*
G01X120819D02*
Y151213D01*
G01X123181Y152787D02*
X120819D01*
G01Y151213D02*
X123181D01*
G01Y146213D02*
Y147787D01*
G01X120819D02*
Y146213D01*
G01X123181Y147787D02*
X120819D01*
G01Y146213D02*
X123181D01*
G01Y148713D02*
Y150287D01*
G01X120819D02*
Y148713D01*
G01X123181Y150287D02*
X120819D01*
G01Y148713D02*
X123181D01*
G01Y153713D02*
Y155287D01*
G01X120819D02*
Y153713D01*
G01X123181Y155287D02*
X120819D01*
G01Y153713D02*
X123181D01*
G01X112787Y159681D02*
X111213D01*
G01Y157319D02*
X112787D01*
G01X111213Y159681D02*
Y157319D01*
G01X112787D02*
Y159681D01*
G01X111213Y162319D02*
X112787D01*
G01Y164681D02*
X111213D01*
G01X112787Y162319D02*
Y164681D01*
G01X111213D02*
Y162319D01*
G01X114213D02*
X115787D01*
G01Y164681D02*
X114213D01*
G01X115787Y162319D02*
Y164681D01*
G01X114213D02*
Y162319D01*
G01X123181Y156213D02*
Y157787D01*
G01X120819D02*
Y156213D01*
G01X123181Y157787D02*
X120819D01*
G01Y156213D02*
X123181D01*
G01X125250Y30000D02*
Y35000D01*
G01X134750Y47500D02*
Y42500D01*
G01X126819Y152787D02*
Y151213D01*
G01X129181D02*
Y152787D01*
G01X126819Y151213D02*
X129181D01*
G01Y152787D02*
X126819D01*
G01Y150287D02*
Y148713D01*
G01X129181D02*
Y150287D01*
G01X126819Y148713D02*
X129181D01*
G01Y150287D02*
X126819D01*
G01Y147787D02*
Y146213D01*
G01X129181D02*
Y147787D01*
G01X126819Y146213D02*
X129181D01*
G01Y147787D02*
X126819D01*
G01Y155287D02*
Y153713D01*
G01X129181D02*
Y155287D01*
G01X126819Y153713D02*
X129181D01*
G01Y155287D02*
X126819D01*
G01Y157787D02*
Y156213D01*
G01X129181D02*
Y157787D01*
G01X126819Y156213D02*
X129181D01*
G01Y157787D02*
X126819D01*
G01X137750Y47500D02*
Y42500D01*
G01X148200Y38000D02*
X153200D01*
G01X148200Y35000D02*
X153200D01*
G01X178750Y29750D02*
X173750D01*
G01X178750Y32750D02*
X173750D01*
G01X178750Y33500D02*
X173750D01*
G01X178750Y36500D02*
X173750D01*
G01X180700Y110000D02*
X175700D01*
G01Y118000D02*
X180700D01*
G01X175700Y115000D02*
X180700D01*
G01Y113000D02*
X175700D01*
G01X202750Y39550D02*
X207750D01*
G01X202750Y36550D02*
X207750D01*
G01X195200Y39000D02*
X190200D01*
G01X195200Y42000D02*
X190200D01*
G01X203200Y108000D02*
X208200D01*
G01X203200Y105000D02*
X208200D01*
G01X203200Y123000D02*
X208200D01*
G01X203200Y120000D02*
X208200D01*
G01Y115000D02*
X203200D01*
G01X208200Y118000D02*
X203200D01*
G01X208000Y159800D02*
X211000D01*
Y158200D01*
X208000D01*
Y159800D01*
G01X224000Y110000D02*
Y105000D01*
G01X221000Y110000D02*
Y105000D01*
G01X234450Y80500D02*
X239450D01*
G01X234450Y77500D02*
X239450D01*
G01X263200Y78750D02*
X258200D01*
G01X263200Y81750D02*
X258200D01*
G01Y78000D02*
X263200D01*
G01X258200Y75000D02*
X263200D01*
G01X259450Y84250D02*
X264450D01*
G01X259450Y87250D02*
X264450D01*
G54D13*
G01X14713Y-160300D02*
Y-155300D01*
G01Y-156550D02*
X15087Y-155925D01*
X15647Y-155425D01*
X16393Y-155300D01*
X17047Y-155425D01*
X17607Y-155925D01*
X17887Y-156800D01*
Y-160300D01*
G01X21840D02*
Y-152800D01*
G01X25760D02*
Y-160300D01*
G01Y-156550D02*
X21840D01*
G01X29247Y-160300D02*
Y-152800D01*
X31113D01*
X31860Y-153175D01*
X32420Y-153675D01*
X32887Y-154425D01*
X33260Y-155300D01*
X33353Y-156550D01*
X33260Y-157800D01*
X32887Y-158675D01*
X32420Y-159425D01*
X31860Y-159925D01*
X31113Y-160300D01*
X29247D01*
G01X48167D02*
X44433D01*
Y-152800D01*
X48167D01*
G01X46673Y-156425D02*
X44433D01*
G01X51467Y-152800D02*
X53800Y-160300D01*
X56133Y-152800D01*
G01X58873Y-160300D02*
Y-152800D01*
X61300Y-159050D01*
X63727Y-152800D01*
Y-160300D01*
G01X20900Y-175233D02*
X21500Y-174434D01*
X22200Y-174033D01*
X23000Y-173900D01*
X24000Y-174167D01*
X24700Y-174833D01*
X24900Y-175633D01*
X24800Y-176434D01*
X24400Y-177100D01*
X22400Y-178433D01*
X21500Y-179367D01*
X20900Y-180700D01*
X20700Y-181900D01*
X24900D01*
G01X28600Y-180700D02*
X29200Y-181367D01*
X29900Y-181767D01*
X30800Y-181900D01*
X31700Y-181633D01*
X32400Y-181100D01*
X32900Y-180167D01*
X33000Y-179100D01*
X32800Y-178033D01*
X32300Y-177367D01*
X31600Y-176833D01*
X30900Y-176700D01*
X30200Y-176833D01*
X29300Y-177367D01*
X29600Y-173900D01*
X32300D01*
G01X38800Y-181900D02*
Y-173900D01*
X37600Y-175500D01*
G01Y-181900D02*
X40000D01*
G01X44600Y-180700D02*
X45200Y-181367D01*
X45900Y-181767D01*
X46800Y-181900D01*
X47700Y-181633D01*
X48400Y-181100D01*
X48900Y-180167D01*
X49000Y-179100D01*
X48800Y-178033D01*
X48300Y-177367D01*
X47600Y-176833D01*
X46900Y-176700D01*
X46200Y-176833D01*
X45300Y-177367D01*
X45600Y-173900D01*
X48300D01*
G01X52900Y-175233D02*
X53500Y-174434D01*
X54200Y-174033D01*
X55000Y-173900D01*
X56000Y-174167D01*
X56700Y-174833D01*
X56900Y-175633D01*
X56800Y-176434D01*
X56400Y-177100D01*
X54400Y-178433D01*
X53500Y-179367D01*
X52900Y-180700D01*
X52700Y-181900D01*
X56900D01*
G01X62800D02*
Y-173900D01*
X61600Y-175500D01*
G01Y-181900D02*
X64000D01*
G01X70800Y-173900D02*
X70000Y-174167D01*
X69400Y-174833D01*
X69000Y-175633D01*
X68700Y-176700D01*
X68600Y-177900D01*
X68700Y-179100D01*
X69000Y-180167D01*
X69400Y-180967D01*
X70000Y-181633D01*
X70800Y-181900D01*
X71600Y-181633D01*
X72200Y-180967D01*
X72600Y-180167D01*
X72900Y-179100D01*
X73000Y-177900D01*
X72900Y-176700D01*
X72600Y-175633D01*
X72200Y-174833D01*
X71600Y-174167D01*
X70800Y-173900D01*
G01X83250Y-122500D02*
Y-131900D01*
G01X80605Y-122500D02*
X85895D01*
G01X94750Y-131900D02*
X90150D01*
Y-122500D01*
X94750D01*
G01X92910Y-127043D02*
X90150D01*
G01X99235Y-131900D02*
X104065Y-122500D01*
G01X99235D02*
X104065Y-131900D01*
G01X107975D02*
X110850Y-122500D01*
X113725Y-131900D01*
G01X112690Y-128610D02*
X109010D01*
G01X117635Y-130647D02*
X118555Y-131430D01*
X119590Y-131900D01*
X120510D01*
X121430Y-131430D01*
X122120Y-130647D01*
X122465Y-129550D01*
X122235Y-128454D01*
X121660Y-127513D01*
X120625Y-126887D01*
X119245Y-126573D01*
X118440Y-125947D01*
X118095Y-124850D01*
X118325Y-123753D01*
X118900Y-122970D01*
X119705Y-122500D01*
X120510D01*
X121315Y-122813D01*
X122005Y-123597D01*
G01X137070Y-122500D02*
X139830D01*
G01X138450D02*
Y-131900D01*
G01X137070D02*
X139830D01*
G01X145005D02*
Y-122500D01*
X150295Y-131900D01*
Y-122500D01*
G01X154435Y-130647D02*
X155355Y-131430D01*
X156390Y-131900D01*
X157310D01*
X158230Y-131430D01*
X158920Y-130647D01*
X159265Y-129550D01*
X159035Y-128454D01*
X158460Y-127513D01*
X157425Y-126887D01*
X156045Y-126573D01*
X155240Y-125947D01*
X154895Y-124850D01*
X155125Y-123753D01*
X155700Y-122970D01*
X156505Y-122500D01*
X157310D01*
X158115Y-122813D01*
X158805Y-123597D01*
G01X166050Y-122500D02*
Y-131900D01*
G01X163405Y-122500D02*
X168695D01*
G01X172950Y-131900D02*
Y-122500D01*
X175825D01*
X176745Y-122970D01*
X177320Y-123597D01*
X177550Y-124850D01*
X177320Y-126103D01*
X176630Y-126887D01*
X175825Y-127357D01*
X172950D01*
G01X175825D02*
X177550Y-131900D01*
G01X181920Y-122500D02*
Y-129237D01*
X182380Y-130647D01*
X183300Y-131587D01*
X184450Y-131900D01*
X185600Y-131587D01*
X186520Y-130647D01*
X186980Y-129237D01*
Y-122500D01*
G01X190660Y-131900D02*
Y-122500D01*
X193650Y-130333D01*
X196640Y-122500D01*
Y-131900D01*
G01X205150D02*
X200550D01*
Y-122500D01*
X205150D01*
G01X203310Y-127043D02*
X200550D01*
G01X209405Y-131900D02*
Y-122500D01*
X214695Y-131900D01*
Y-122500D01*
G01X221250D02*
Y-131900D01*
G01X218605Y-122500D02*
X223895D01*
G01X228035Y-130647D02*
X228955Y-131430D01*
X229990Y-131900D01*
X230910D01*
X231830Y-131430D01*
X232520Y-130647D01*
X232865Y-129550D01*
X232635Y-128454D01*
X232060Y-127513D01*
X231025Y-126887D01*
X229645Y-126573D01*
X228840Y-125947D01*
X228495Y-124850D01*
X228725Y-123753D01*
X229300Y-122970D01*
X230105Y-122500D01*
X230910D01*
X231715Y-122813D01*
X232405Y-123597D01*
G01X121200Y-185200D02*
X117200D01*
Y-177200D01*
X121200D01*
G01X119600Y-181067D02*
X117200D01*
G01X125300Y-178533D02*
X125900Y-177734D01*
X126600Y-177333D01*
X127400Y-177200D01*
X128400Y-177467D01*
X129100Y-178133D01*
X129300Y-178933D01*
X129200Y-179734D01*
X128800Y-180400D01*
X126800Y-181733D01*
X125900Y-182667D01*
X125300Y-184000D01*
X125100Y-185200D01*
X129300D01*
G01X148150Y-185400D02*
Y-179100D01*
X147210Y-180360D01*
G01Y-185400D02*
X149090D01*
G01X152962Y-182775D02*
X153510Y-182040D01*
X153980Y-181620D01*
X154607Y-181410D01*
X155155Y-181620D01*
X155547Y-182040D01*
X155860Y-182670D01*
X155938Y-183405D01*
X155860Y-184035D01*
X155547Y-184665D01*
X155077Y-185190D01*
X154528Y-185400D01*
X153902Y-185190D01*
X153353Y-184560D01*
X153040Y-183615D01*
X152962Y-182565D01*
X153118Y-181200D01*
X153353Y-180465D01*
X153745Y-179730D01*
X154293Y-179205D01*
X154842Y-179100D01*
X155390Y-179310D01*
X155782Y-179835D01*
G01X159732Y-183300D02*
X161768D01*
G01X165013Y-185400D02*
Y-179100D01*
X167050Y-184350D01*
X169087Y-179100D01*
Y-185400D01*
G01X171392D02*
X173350Y-179100D01*
X175308Y-185400D01*
G01X174603Y-183195D02*
X172097D01*
G01X178083Y-185400D02*
Y-179100D01*
X180042D01*
X180668Y-179415D01*
X181060Y-179835D01*
X181217Y-180675D01*
X181060Y-181515D01*
X180590Y-182040D01*
X180042Y-182355D01*
X178083D01*
G01X180042D02*
X181217Y-185400D01*
G01X184932Y-183300D02*
X186968D01*
G01X190762Y-180150D02*
X191232Y-179520D01*
X191780Y-179205D01*
X192407Y-179100D01*
X193190Y-179310D01*
X193738Y-179835D01*
X193895Y-180465D01*
X193817Y-181095D01*
X193503Y-181620D01*
X191937Y-182670D01*
X191232Y-183405D01*
X190762Y-184455D01*
X190605Y-185400D01*
X193895D01*
G01X198550Y-179100D02*
X197923Y-179310D01*
X197453Y-179835D01*
X197140Y-180465D01*
X196905Y-181305D01*
X196827Y-182250D01*
X196905Y-183195D01*
X197140Y-184035D01*
X197453Y-184665D01*
X197923Y-185190D01*
X198550Y-185400D01*
X199177Y-185190D01*
X199647Y-184665D01*
X199960Y-184035D01*
X200195Y-183195D01*
X200273Y-182250D01*
X200195Y-181305D01*
X199960Y-180465D01*
X199647Y-179835D01*
X199177Y-179310D01*
X198550Y-179100D01*
G01X204850Y-185400D02*
Y-179100D01*
X203910Y-180360D01*
G01Y-185400D02*
X205790D01*
G01X210993D02*
X211150Y-184035D01*
X211385Y-182880D01*
X211698Y-181830D01*
X212090Y-180675D01*
X212717Y-179100D01*
X209583D01*
G01X228650Y-177100D02*
Y-183400D01*
G01X226848Y-177100D02*
X230452D01*
G01X234010D02*
X235890D01*
G01X234950D02*
Y-183400D01*
G01X234010D02*
X235890D01*
G01X239527D02*
Y-177100D01*
X241093D01*
X241720Y-177415D01*
X242190Y-177835D01*
X242582Y-178465D01*
X242895Y-179200D01*
X242973Y-180250D01*
X242895Y-181300D01*
X242582Y-182035D01*
X242190Y-182665D01*
X241720Y-183085D01*
X241093Y-183400D01*
X239527D01*
G01X245983Y-177100D02*
Y-183400D01*
X249117D01*
G01X252283D02*
Y-177100D01*
X254163D01*
X254790Y-177415D01*
X255260Y-178150D01*
X255417Y-178990D01*
X255260Y-179830D01*
X254868Y-180460D01*
X254163Y-180775D01*
X252283D01*
G01X259132Y-181300D02*
X261168D01*
G01X266450Y-183400D02*
Y-177100D01*
X265510Y-178360D01*
G01Y-183400D02*
X267390D01*
G01X272750D02*
Y-177100D01*
X271810Y-178360D01*
G01Y-183400D02*
X273690D01*
G01X279050D02*
Y-177100D01*
X278110Y-178360D01*
G01Y-183400D02*
X279990D01*
G01X283862Y-180775D02*
X284410Y-180040D01*
X284880Y-179620D01*
X285507Y-179410D01*
X286055Y-179620D01*
X286447Y-180040D01*
X286760Y-180670D01*
X286838Y-181405D01*
X286760Y-182035D01*
X286447Y-182665D01*
X285977Y-183190D01*
X285428Y-183400D01*
X284802Y-183190D01*
X284253Y-182560D01*
X283940Y-181615D01*
X283862Y-180565D01*
X284018Y-179200D01*
X284253Y-178465D01*
X284645Y-177730D01*
X285193Y-177205D01*
X285742Y-177100D01*
X286290Y-177310D01*
X286682Y-177835D01*
G01X291650Y-177100D02*
X291023Y-177310D01*
X290553Y-177835D01*
X290240Y-178465D01*
X290005Y-179305D01*
X289927Y-180250D01*
X290005Y-181195D01*
X290240Y-182035D01*
X290553Y-182665D01*
X291023Y-183190D01*
X291650Y-183400D01*
X292277Y-183190D01*
X292747Y-182665D01*
X293060Y-182035D01*
X293295Y-181195D01*
X293373Y-180250D01*
X293295Y-179305D01*
X293060Y-178465D01*
X292747Y-177835D01*
X292277Y-177310D01*
X291650Y-177100D01*
G01X296618Y-182665D02*
X297167Y-183190D01*
X297793Y-183400D01*
X298420Y-183190D01*
X298968Y-182560D01*
X299360Y-181615D01*
X299517Y-180670D01*
Y-179515D01*
X299360Y-178570D01*
X298968Y-177730D01*
X298498Y-177310D01*
X297950Y-177100D01*
X297323Y-177310D01*
X296853Y-177730D01*
X296540Y-178360D01*
X296383Y-179200D01*
X296540Y-179935D01*
X296932Y-180670D01*
X297402Y-181090D01*
X297950Y-181195D01*
X298577Y-180985D01*
X299047Y-180460D01*
X299517Y-179515D01*
G01X303232Y-181300D02*
X305268D01*
G01X310550Y-177100D02*
X309923Y-177310D01*
X309453Y-177835D01*
X309140Y-178465D01*
X308905Y-179305D01*
X308827Y-180250D01*
X308905Y-181195D01*
X309140Y-182035D01*
X309453Y-182665D01*
X309923Y-183190D01*
X310550Y-183400D01*
X311177Y-183190D01*
X311647Y-182665D01*
X311960Y-182035D01*
X312195Y-181195D01*
X312273Y-180250D01*
X312195Y-179305D01*
X311960Y-178465D01*
X311647Y-177835D01*
X311177Y-177310D01*
X310550Y-177100D01*
G01X316850Y-183400D02*
Y-177100D01*
X315910Y-178360D01*
G01Y-183400D02*
X317790D01*
G01X229205Y-159660D02*
X229832Y-160185D01*
X230537Y-160500D01*
X231163D01*
X231790Y-160185D01*
X232260Y-159660D01*
X232495Y-158925D01*
X232338Y-158190D01*
X231947Y-157560D01*
X231242Y-157140D01*
X230302Y-156930D01*
X229753Y-156510D01*
X229518Y-155775D01*
X229675Y-155040D01*
X230067Y-154515D01*
X230615Y-154200D01*
X231163D01*
X231712Y-154410D01*
X232182Y-154935D01*
G01X236210Y-154200D02*
X238090D01*
G01X237150D02*
Y-160500D01*
G01X236210D02*
X238090D01*
G01X241883Y-154200D02*
Y-160500D01*
X245017D01*
G01X248027D02*
Y-154200D01*
G01X251003D02*
X248027Y-158085D01*
G01X251473Y-160500D02*
X249358Y-156300D01*
G01X254405Y-159660D02*
X255032Y-160185D01*
X255737Y-160500D01*
X256363D01*
X256990Y-160185D01*
X257460Y-159660D01*
X257695Y-158925D01*
X257538Y-158190D01*
X257147Y-157560D01*
X256442Y-157140D01*
X255502Y-156930D01*
X254953Y-156510D01*
X254718Y-155775D01*
X254875Y-155040D01*
X255267Y-154515D01*
X255815Y-154200D01*
X256363D01*
X256912Y-154410D01*
X257382Y-154935D01*
G01X264073Y-154725D02*
X263603Y-154410D01*
X263055Y-154200D01*
X262428D01*
X261723Y-154515D01*
X261175Y-155040D01*
X260783Y-155670D01*
X260470Y-156720D01*
X260392Y-157665D01*
X260548Y-158610D01*
X260783Y-159240D01*
X261253Y-159870D01*
X261802Y-160290D01*
X262350Y-160500D01*
X262898D01*
X263447Y-160290D01*
X263917Y-159975D01*
X264308Y-159555D01*
G01X267083Y-160500D02*
Y-154200D01*
X269042D01*
X269668Y-154515D01*
X270060Y-154935D01*
X270217Y-155775D01*
X270060Y-156615D01*
X269590Y-157140D01*
X269042Y-157455D01*
X267083D01*
G01X269042D02*
X270217Y-160500D01*
G01X276517D02*
X273383D01*
Y-154200D01*
X276517D01*
G01X275263Y-157245D02*
X273383D01*
G01X282817Y-160500D02*
X279683D01*
Y-154200D01*
X282817D01*
G01X281563Y-157245D02*
X279683D01*
G01X285748Y-160500D02*
Y-154200D01*
X289352Y-160500D01*
Y-154200D01*
G01X299132Y-158400D02*
X301168D01*
G01X311105Y-159660D02*
X311732Y-160185D01*
X312437Y-160500D01*
X313063D01*
X313690Y-160185D01*
X314160Y-159660D01*
X314395Y-158925D01*
X314238Y-158190D01*
X313847Y-157560D01*
X313142Y-157140D01*
X312202Y-156930D01*
X311653Y-156510D01*
X311418Y-155775D01*
X311575Y-155040D01*
X311967Y-154515D01*
X312515Y-154200D01*
X313063D01*
X313612Y-154410D01*
X314082Y-154935D01*
G01X320617Y-160500D02*
X317483D01*
Y-154200D01*
X320617D01*
G01X319363Y-157245D02*
X317483D01*
G01X327073Y-154725D02*
X326603Y-154410D01*
X326055Y-154200D01*
X325428D01*
X324723Y-154515D01*
X324175Y-155040D01*
X323783Y-155670D01*
X323470Y-156720D01*
X323392Y-157665D01*
X323548Y-158610D01*
X323783Y-159240D01*
X324253Y-159870D01*
X324802Y-160290D01*
X325350Y-160500D01*
X325898D01*
X326447Y-160290D01*
X326917Y-159975D01*
X327308Y-159555D01*
G01X331650Y-160500D02*
X331023Y-160395D01*
X330475Y-159975D01*
X330005Y-159345D01*
X329692Y-158610D01*
X329535Y-157770D01*
Y-156930D01*
X329692Y-156090D01*
X330005Y-155355D01*
X330475Y-154725D01*
X331023Y-154305D01*
X331650Y-154200D01*
X332277Y-154305D01*
X332825Y-154725D01*
X333295Y-155355D01*
X333608Y-156090D01*
X333765Y-156930D01*
Y-157770D01*
X333608Y-158610D01*
X333295Y-159345D01*
X332825Y-159975D01*
X332277Y-160395D01*
X331650Y-160500D01*
G01X336148D02*
Y-154200D01*
X339752Y-160500D01*
Y-154200D01*
G01X342527Y-160500D02*
Y-154200D01*
X344093D01*
X344720Y-154515D01*
X345190Y-154935D01*
X345582Y-155565D01*
X345895Y-156300D01*
X345973Y-157350D01*
X345895Y-158400D01*
X345582Y-159135D01*
X345190Y-159765D01*
X344720Y-160185D01*
X344093Y-160500D01*
X342527D01*
G01X348592D02*
X350550Y-154200D01*
X352508Y-160500D01*
G01X351803Y-158295D02*
X349297D01*
G01X355283Y-160500D02*
Y-154200D01*
X357242D01*
X357868Y-154515D01*
X358260Y-154935D01*
X358417Y-155775D01*
X358260Y-156615D01*
X357790Y-157140D01*
X357242Y-157455D01*
X355283D01*
G01X357242D02*
X358417Y-160500D01*
G01X363150D02*
Y-157665D01*
X361583Y-154200D01*
G01X364717D02*
X363150Y-157665D01*
G01X374105Y-159660D02*
X374732Y-160185D01*
X375437Y-160500D01*
X376063D01*
X376690Y-160185D01*
X377160Y-159660D01*
X377395Y-158925D01*
X377238Y-158190D01*
X376847Y-157560D01*
X376142Y-157140D01*
X375202Y-156930D01*
X374653Y-156510D01*
X374418Y-155775D01*
X374575Y-155040D01*
X374967Y-154515D01*
X375515Y-154200D01*
X376063D01*
X376612Y-154410D01*
X377082Y-154935D01*
G01X381110Y-154200D02*
X382990D01*
G01X382050D02*
Y-160500D01*
G01X381110D02*
X382990D01*
G01X386627D02*
Y-154200D01*
X388193D01*
X388820Y-154515D01*
X389290Y-154935D01*
X389682Y-155565D01*
X389995Y-156300D01*
X390073Y-157350D01*
X389995Y-158400D01*
X389682Y-159135D01*
X389290Y-159765D01*
X388820Y-160185D01*
X388193Y-160500D01*
X386627D01*
G01X396217D02*
X393083D01*
Y-154200D01*
X396217D01*
G01X394963Y-157245D02*
X393083D01*
G01X349050Y-185000D02*
Y-178700D01*
X348110Y-179960D01*
G01Y-185000D02*
X349990D01*
G01X355350Y-178700D02*
X354723Y-178910D01*
X354253Y-179435D01*
X353940Y-180065D01*
X353705Y-180905D01*
X353627Y-181850D01*
X353705Y-182795D01*
X353940Y-183635D01*
X354253Y-184265D01*
X354723Y-184790D01*
X355350Y-185000D01*
X355977Y-184790D01*
X356447Y-184265D01*
X356760Y-183635D01*
X356995Y-182795D01*
X357073Y-181850D01*
X356995Y-180905D01*
X356760Y-180065D01*
X356447Y-179435D01*
X355977Y-178910D01*
X355350Y-178700D01*
G01X382150Y-181900D02*
Y-175600D01*
X381210Y-176860D01*
G01Y-181900D02*
X383090D01*
G01X386727Y-180640D02*
X387197Y-181375D01*
X387823Y-181795D01*
X388528Y-181900D01*
X389155Y-181795D01*
X389782Y-181270D01*
X390173Y-180640D01*
X390252Y-180010D01*
X390095Y-179275D01*
X389547Y-178750D01*
X388998Y-178540D01*
X388293D01*
G01X388998D02*
X389468Y-178225D01*
X389860Y-177700D01*
X390017Y-177070D01*
X389860Y-176440D01*
X389468Y-175915D01*
X388763Y-175600D01*
X388058Y-175705D01*
X387353Y-176125D01*
G01X829405Y-162860D02*
X830032Y-163385D01*
X830737Y-163700D01*
X831363D01*
X831990Y-163385D01*
X832460Y-162860D01*
X832695Y-162125D01*
X832538Y-161390D01*
X832147Y-160760D01*
X831442Y-160340D01*
X830502Y-160130D01*
X829953Y-159710D01*
X829718Y-158975D01*
X829875Y-158240D01*
X830267Y-157715D01*
X830815Y-157400D01*
X831363D01*
X831912Y-157610D01*
X832382Y-158135D01*
G01X836410Y-157400D02*
X838290D01*
G01X837350D02*
Y-163700D01*
G01X836410D02*
X838290D01*
G01X842083Y-157400D02*
Y-163700D01*
X845217D01*
G01X848227D02*
Y-157400D01*
G01X851203D02*
X848227Y-161285D01*
G01X851673Y-163700D02*
X849558Y-159500D01*
G01X854605Y-162860D02*
X855232Y-163385D01*
X855937Y-163700D01*
X856563D01*
X857190Y-163385D01*
X857660Y-162860D01*
X857895Y-162125D01*
X857738Y-161390D01*
X857347Y-160760D01*
X856642Y-160340D01*
X855702Y-160130D01*
X855153Y-159710D01*
X854918Y-158975D01*
X855075Y-158240D01*
X855467Y-157715D01*
X856015Y-157400D01*
X856563D01*
X857112Y-157610D01*
X857582Y-158135D01*
G01X864273Y-157925D02*
X863803Y-157610D01*
X863255Y-157400D01*
X862628D01*
X861923Y-157715D01*
X861375Y-158240D01*
X860983Y-158870D01*
X860670Y-159920D01*
X860592Y-160865D01*
X860748Y-161810D01*
X860983Y-162440D01*
X861453Y-163070D01*
X862002Y-163490D01*
X862550Y-163700D01*
X863098D01*
X863647Y-163490D01*
X864117Y-163175D01*
X864508Y-162755D01*
G01X867283Y-163700D02*
Y-157400D01*
X869242D01*
X869868Y-157715D01*
X870260Y-158135D01*
X870417Y-158975D01*
X870260Y-159815D01*
X869790Y-160340D01*
X869242Y-160655D01*
X867283D01*
G01X869242D02*
X870417Y-163700D01*
G01X876717D02*
X873583D01*
Y-157400D01*
X876717D01*
G01X875463Y-160445D02*
X873583D01*
G01X883017Y-163700D02*
X879883D01*
Y-157400D01*
X883017D01*
G01X881763Y-160445D02*
X879883D01*
G01X885948Y-163700D02*
Y-157400D01*
X889552Y-163700D01*
Y-157400D01*
G01X900977Y-160340D02*
X901290Y-160025D01*
X901525Y-159500D01*
X901682Y-158765D01*
X901525Y-158135D01*
X901212Y-157715D01*
X900663Y-157400D01*
X898548D01*
Y-163700D01*
X901133D01*
X901682Y-163280D01*
X901995Y-162650D01*
X902152Y-161915D01*
X901995Y-161180D01*
X901525Y-160550D01*
X900977Y-160340D01*
X898548D01*
G01X906650Y-163700D02*
X906023Y-163595D01*
X905475Y-163175D01*
X905005Y-162545D01*
X904692Y-161810D01*
X904535Y-160970D01*
Y-160130D01*
X904692Y-159290D01*
X905005Y-158555D01*
X905475Y-157925D01*
X906023Y-157505D01*
X906650Y-157400D01*
X907277Y-157505D01*
X907825Y-157925D01*
X908295Y-158555D01*
X908608Y-159290D01*
X908765Y-160130D01*
Y-160970D01*
X908608Y-161810D01*
X908295Y-162545D01*
X907825Y-163175D01*
X907277Y-163595D01*
X906650Y-163700D01*
G01X912950Y-157400D02*
Y-163700D01*
G01X911148Y-157400D02*
X914752D01*
G01X919250D02*
Y-163700D01*
G01X917448Y-157400D02*
X921052D01*
G01X925550Y-163700D02*
X924923Y-163595D01*
X924375Y-163175D01*
X923905Y-162545D01*
X923592Y-161810D01*
X923435Y-160970D01*
Y-160130D01*
X923592Y-159290D01*
X923905Y-158555D01*
X924375Y-157925D01*
X924923Y-157505D01*
X925550Y-157400D01*
X926177Y-157505D01*
X926725Y-157925D01*
X927195Y-158555D01*
X927508Y-159290D01*
X927665Y-160130D01*
Y-160970D01*
X927508Y-161810D01*
X927195Y-162545D01*
X926725Y-163175D01*
X926177Y-163595D01*
X925550Y-163700D01*
G01X929813D02*
Y-157400D01*
X931850Y-162650D01*
X933887Y-157400D01*
Y-163700D01*
G54D14*
G01X404000Y-115000D02*
X-46000D01*
Y-190000D01*
X404100D01*
Y-115000D01*
G01X404000Y-165000D02*
X-46000D01*
G01Y-140000D02*
X404000D01*
G01X101600Y-165000D02*
Y-190000D01*
G01X139100Y-165000D02*
Y-190000D01*
G01X179000Y-165000D02*
Y-140000D01*
G01X221600Y-190000D02*
Y-165000D01*
G01X319000D02*
Y-190000D01*
M02*
