G04 ================== begin FILE IDENTIFICATION RECORD ==================*
G04 Layout Name:  R:/nHD EVM Rev2/LAYOUT/03-16-17/nHD EVM Rev2 031617.brd*
G04 Film Name:    111609-01_ly3*
G04 File Format:  Gerber RS274X*
G04 File Origin:  Cadence Allegro 16.6-2015-S082*
G04 Origin Date:  Thu Mar 16 08:39:41 2017*
G04 *
G04 Layer:  DRAWING FORMAT/KRYPTON_TITLE_BLK*
G04 Layer:  DRAWING FORMAT/MOIRE_TOP*
G04 Layer:  VIA CLASS/LY3*
G04 Layer:  PIN/LY3*
G04 Layer:  ETCH/LY3*
G04 Layer:  DRAWING FORMAT/TITLE_TOP*
G04 *
G04 Offset:    (0.000 0.000)*
G04 Mirror:    No*
G04 Mode:      Positive*
G04 Rotation:  0*
G04 FullContactRelief:  No*
G04 UndefLineWidth:     6.000*
G04 ================== end FILE IDENTIFICATION RECORD ====================*
%FSLAX25Y25*MOIN*%
%IR0*IPPOS*OFA0.00000B0.00000*MIA0B0*SFA1.00000B1.00000*%
%ADD11O,.07X.15*%
%ADD13O,.15X.07*%
%ADD15O,.07X.18*%
%ADD20C,.01*%
%ADD16C,.04*%
%ADD18C,.032*%
%ADD10C,.05*%
%ADD12C,.06*%
%ADD21C,.016*%
%ADD17C,.07*%
%ADD14C,.018*%
%ADD19C,.019*%
%ADD22C,.023622*%
%ADD23C,.004*%
%ADD24C,.005*%
%ADD25C,.006*%
%ADD26C,.0052*%
%ADD27C,.007*%
%ADD28C,.008*%
%ADD29C,.02*%
%ADD30C,.015*%
G75*
%LPD*%
G75*
G36*
G01X149700Y76800D02*
Y79400D01*
X149900Y79600D01*
X182300D01*
X186900Y75000D01*
X201500D01*
X202300Y74200D01*
Y70800D01*
X201600Y70100D01*
X185700D01*
X179200Y76600D01*
X149900D01*
X149700Y76800D01*
G37*
G36*
G01X544573Y-134464D02*
X544501Y-134488D01*
X536015Y-133777D01*
X528699Y-133384D01*
X521624Y-133261D01*
X510618Y-133472D01*
X504723Y-133897D01*
X498555Y-134562D01*
X489152Y-135952D01*
X482228Y-137435D01*
X472765Y-139825D01*
X468260Y-141397D01*
X464089Y-142938D01*
X457499Y-145840D01*
X453510Y-148016D01*
X448791Y-151132D01*
X446132Y-153400D01*
X442623Y-157117D01*
X440053Y-160744D01*
X438572Y-164615D01*
X438299Y-167910D01*
X438390Y-170843D01*
X441354Y-177464D01*
X443711Y-180608D01*
X446977Y-183752D01*
X439722Y-178883D01*
X436124Y-175014D01*
X434279Y-172112D01*
X432767Y-168635D01*
X431951Y-164039D01*
X432707Y-159474D01*
X434612Y-155908D01*
X438935Y-150858D01*
X445739Y-145811D01*
X455504Y-140761D01*
X464845Y-137466D01*
X473763Y-134956D01*
X489275Y-132476D01*
X506355Y-131298D01*
X522623Y-131572D01*
X535835Y-132841D01*
X544542Y-134413D01*
X544573Y-134464D01*
G37*
G36*
G01X459231Y-149092D02*
X459221Y-173582D01*
X462631D01*
Y-161412D01*
X479655Y-171512D01*
X479835Y-171332D01*
Y-151132D01*
X462631Y-161202D01*
Y-149092D01*
X459231D01*
G37*
G36*
G01X486841Y-156722D02*
X487355Y-154799D01*
X488910Y-153484D01*
X491041Y-153167D01*
X492644Y-153860D01*
X492479Y-151307D01*
X489152Y-151458D01*
X486841Y-152924D01*
Y-151162D01*
X483451D01*
Y-171622D01*
X486831D01*
X486841Y-156722D01*
G37*
G36*
G01X504289Y-178400D02*
X501114Y-178340D01*
X503199Y-171508D01*
X496494Y-151122D01*
X500060Y-151062D01*
X505141Y-166117D01*
X510279Y-151122D01*
X513726D01*
X504289Y-178400D01*
G37*
G36*
G01X520887Y-152792D02*
X524305Y-151129D01*
X527963Y-151432D01*
X530804Y-154364D01*
X530895Y-167396D01*
X528870Y-170300D01*
X526359Y-171388D01*
X523035D01*
X520859Y-170027D01*
X520736Y-178403D01*
X517532Y-178343D01*
X517561Y-151158D01*
X520890D01*
X520887Y-152792D01*
G37*
G36*
G01X536775Y-175016D02*
X534831Y-180784D01*
X534030Y-180762D01*
X534423Y-179288D01*
X532983Y-175021D01*
X533927Y-174992D01*
X534894Y-177932D01*
X535878Y-174954D01*
X536778Y-174940D01*
X536775Y-175016D01*
G37*
G36*
G01X526782Y-175991D02*
X526751Y-175674D01*
X526676Y-175477D01*
X526578Y-175302D01*
X526487Y-175076D01*
X526223Y-174985D01*
X525997Y-174940D01*
X525611Y-174911D01*
X525301Y-174887D01*
X524953Y-174872D01*
X524658Y-174901D01*
X524394Y-175045D01*
X524204Y-175211D01*
X524031Y-175417D01*
X523902Y-175696D01*
X523863Y-175952D01*
X523873Y-176248D01*
X523909Y-176512D01*
X524060Y-176723D01*
X524204Y-176912D01*
X524370Y-177078D01*
X524612Y-177208D01*
X524833Y-177289D01*
X525090Y-177388D01*
X525308Y-177517D01*
X525603Y-177637D01*
X525875Y-177760D01*
X526011Y-177940D01*
X526064Y-178182D01*
Y-178348D01*
X525959Y-178499D01*
X525716Y-178614D01*
X525467Y-178643D01*
X525203Y-178628D01*
X525051Y-178576D01*
X524876Y-178477D01*
X524778Y-178348D01*
X524703Y-178196D01*
X524672Y-178062D01*
X524619Y-177964D01*
X524538Y-177925D01*
X524310D01*
X524053Y-177918D01*
X523880Y-177925D01*
X523856Y-178031D01*
Y-178136D01*
X523880Y-178357D01*
X523926Y-178576D01*
X523979Y-178818D01*
X524039Y-178960D01*
X524137Y-179089D01*
X524363Y-179188D01*
X524636Y-179262D01*
X524999Y-179353D01*
X525459Y-179370D01*
X525702Y-179346D01*
X525973Y-179300D01*
X526208Y-179255D01*
X526367Y-179202D01*
X526494Y-179120D01*
X526676Y-178818D01*
X526767Y-178688D01*
X526751Y-178348D01*
X526736Y-178091D01*
X526707Y-177911D01*
X526691Y-177788D01*
X526631Y-177577D01*
X526571Y-177397D01*
X526503Y-177246D01*
X526405Y-177116D01*
X526244Y-176989D01*
X526086Y-176891D01*
X525776Y-176768D01*
X525481Y-176617D01*
X525210Y-176473D01*
X524975Y-176353D01*
X524823Y-176248D01*
X524742Y-176128D01*
X524718Y-175998D01*
X524725Y-175780D01*
X524787Y-175650D01*
X524960Y-175523D01*
X525263Y-175460D01*
X525587Y-175492D01*
X525853Y-175748D01*
X525935Y-176164D01*
X526767Y-176156D01*
X526782Y-175991D01*
G37*
G36*
G01X543661Y-150779D02*
X543450Y-144474D01*
X540107Y-147709D01*
X540061Y-151110D01*
X535028Y-151081D01*
Y-153016D01*
X540123Y-153030D01*
X540116Y-165913D01*
X540191Y-167728D01*
X541038Y-169645D01*
X542473Y-170932D01*
X544499Y-171582D01*
X548521Y-171520D01*
X548475Y-169616D01*
X547023Y-169585D01*
X545996Y-169525D01*
X545226Y-169086D01*
X544167Y-168196D01*
X543743Y-167288D01*
X543623Y-166338D01*
Y-153035D01*
X548519Y-152975D01*
Y-151100D01*
X543743D01*
X543661Y-150779D01*
G37*
G36*
G01X544808Y-176790D02*
X544513Y-176639D01*
X544242Y-176495D01*
X544007Y-176375D01*
X543855Y-176269D01*
X543774Y-176149D01*
X543750Y-176020D01*
X543757Y-175801D01*
X543819Y-175672D01*
X543992Y-175544D01*
X544295Y-175482D01*
X544619Y-175513D01*
X544885Y-175770D01*
X544967Y-176185D01*
X545799Y-176178D01*
X545814Y-176012D01*
X545783Y-175696D01*
X545708Y-175499D01*
X545610Y-175324D01*
X545519Y-175098D01*
X545255Y-175007D01*
X545029Y-174961D01*
X544643Y-174932D01*
X544333Y-174908D01*
X543985Y-174894D01*
X543690Y-174923D01*
X543426Y-175067D01*
X543236Y-175232D01*
X543063Y-175439D01*
X542934Y-175717D01*
X542895Y-175974D01*
X542905Y-176269D01*
X542941Y-176533D01*
X543092Y-176744D01*
X543236Y-176934D01*
X543402Y-177100D01*
X543644Y-177229D01*
X543865Y-177311D01*
X544122Y-177409D01*
X544340Y-177539D01*
X544635Y-177659D01*
X544907Y-177781D01*
X545043Y-177961D01*
X545096Y-178204D01*
Y-178369D01*
X544991Y-178520D01*
X544748Y-178636D01*
X544499Y-178664D01*
X544235Y-178650D01*
X544083Y-178597D01*
X543908Y-178499D01*
X543810Y-178369D01*
X543735Y-178218D01*
X543693Y-177991D01*
X543612Y-177953D01*
X543384D01*
X543127Y-177946D01*
X542954Y-177953D01*
X542930Y-178058D01*
Y-178164D01*
X542954Y-178385D01*
X543000Y-178603D01*
X543053Y-178846D01*
X543113Y-178987D01*
X543211Y-179117D01*
X543437Y-179215D01*
X543710Y-179290D01*
X544073Y-179381D01*
X544533Y-179398D01*
X544776Y-179374D01*
G03X545875Y-178275I0J1099D01*
G01X545876Y-178240D01*
G03X545118Y-176912I-1375J95D01*
G01X544808Y-176790D01*
G37*
G36*
G01X564219Y-177227D02*
X564265Y-176425D01*
X564210Y-176003D01*
X564121Y-175775D01*
X564015Y-175525D01*
X563840Y-175307D01*
X563478Y-175043D01*
X563108Y-174930D01*
X562760Y-174853D01*
X562451Y-174846D01*
X562103Y-174944D01*
X561740Y-175141D01*
X561498Y-175328D01*
X561287Y-175578D01*
X561150Y-175943D01*
X561119Y-176812D01*
X561090Y-177469D01*
Y-177860D01*
X561128Y-178232D01*
X561279Y-178595D01*
X561498Y-178936D01*
X561822Y-179176D01*
X562261Y-179298D01*
X562707Y-179334D01*
X563130Y-179305D01*
X563403Y-179238D01*
X563749Y-179147D01*
X563939Y-178957D01*
X564090Y-178686D01*
X564181Y-178057D01*
X563365Y-178050D01*
X563161Y-178564D01*
X562647Y-178708D01*
X562247Y-178624D01*
X561980Y-178331D01*
X561937Y-177959D01*
X561944Y-177407D01*
X564210Y-177400D01*
X564219Y-177227D01*
G37*
G36*
G01X553736Y-173831D02*
X553002Y-174102D01*
X552949Y-174949D01*
X552239Y-174978D01*
X552299Y-175660D01*
X552872Y-175674D01*
X552879Y-178357D01*
X552942Y-178796D01*
X553182Y-179142D01*
X553652Y-179324D01*
X554195Y-179356D01*
X554567Y-179233D01*
X554559Y-178712D01*
X554022Y-178667D01*
X553794Y-178168D01*
X553856Y-175703D01*
X554612Y-175679D01*
X554675Y-175038D01*
X553827Y-174985D01*
X553743Y-173828D01*
X553736Y-173831D01*
G37*
G36*
G01X558716Y-150988D02*
X556705Y-151609D01*
X554754Y-152548D01*
X553350Y-154331D01*
X552323Y-157352D01*
X552248Y-164048D01*
X552519Y-166134D01*
X553139Y-168085D01*
X554123Y-169475D01*
X555815Y-170836D01*
X557552Y-171620D01*
X559623Y-171757D01*
X561135Y-171349D01*
X563101Y-170624D01*
X564339Y-169324D01*
X565215Y-168145D01*
X565609Y-166847D01*
X566094Y-164927D01*
X566130Y-157720D01*
X565873Y-155968D01*
X564923Y-154016D01*
X564701Y-153572D01*
X563843Y-152714D01*
G03X563439Y-152430I-1017J-1017D01*
G01X560840Y-151206D01*
X558860Y-151024D01*
X558716Y-150988D01*
G37*
G36*
G01X575648Y-176363D02*
X575619Y-175583D01*
X575286Y-175122D01*
X574674Y-174918D01*
X574033Y-174932D01*
X573443Y-175280D01*
X572761Y-174942D01*
X572022Y-174949D01*
X571470Y-175252D01*
Y-174932D01*
X570594D01*
X570587Y-175199D01*
X570654Y-175417D01*
X570721Y-175501D01*
X570728Y-175660D01*
X570791Y-179303D01*
X571484Y-179310D01*
X571448Y-176142D01*
X571491Y-175864D01*
X571765Y-175621D01*
X571998Y-175568D01*
X572279Y-175583D01*
X572475Y-175614D01*
X572595Y-175758D01*
X572701Y-176212D01*
X572838Y-179339D01*
X573517Y-179279D01*
X573503Y-176353D01*
X573534Y-176089D01*
X573632Y-175864D01*
X573812Y-175705D01*
X574100Y-175621D01*
X574319Y-175628D01*
X574568Y-175727D01*
X574863Y-176272D01*
X574931Y-179322D01*
X575619Y-179344D01*
X575648Y-176363D01*
G37*
G36*
G01X573092Y-151216D02*
X573061Y-152922D01*
X574302Y-152152D01*
X576313Y-151290D01*
X578473Y-151124D01*
X580710Y-151820D01*
X582541Y-153589D01*
X583491Y-156402D01*
X583611Y-171712D01*
X580316Y-171683D01*
X579971Y-155267D01*
X578670Y-153829D01*
X577309Y-153164D01*
X575360Y-153452D01*
X573863Y-154708D01*
X573380Y-156248D01*
X573251Y-171546D01*
X569879D01*
X569773Y-151072D01*
X572948Y-151132D01*
X573092Y-151216D01*
G37*
G36*
G01X584468Y-176044D02*
X584437Y-175727D01*
X584363Y-175530D01*
X584264Y-175355D01*
X584173Y-175129D01*
X583909Y-175038D01*
X583683Y-174992D01*
X583297Y-174964D01*
X582987Y-174940D01*
X582639Y-174925D01*
X582344Y-174954D01*
X582080Y-175098D01*
X581891Y-175264D01*
X581718Y-175470D01*
X581588Y-175748D01*
X581550Y-176005D01*
X581559Y-176300D01*
X581595Y-176564D01*
X581747Y-176776D01*
X581891Y-176965D01*
X582056Y-177131D01*
X582299Y-177260D01*
X582519Y-177342D01*
X582776Y-177440D01*
X582995Y-177570D01*
X583290Y-177690D01*
X583561Y-177812D01*
X583698Y-177992D01*
X583751Y-178235D01*
Y-178400D01*
X583645Y-178552D01*
X583403Y-178667D01*
X583153Y-178696D01*
X582889Y-178681D01*
X582738Y-178628D01*
X582563Y-178530D01*
X582464Y-178400D01*
X582390Y-178249D01*
X582359Y-178115D01*
X582306Y-178016D01*
X582224Y-177978D01*
X581996D01*
X581739Y-177971D01*
X581567Y-177978D01*
X581543Y-178084D01*
Y-178189D01*
X581567Y-178410D01*
X581612Y-178628D01*
X581665Y-178871D01*
X581725Y-179012D01*
X581823Y-179142D01*
X582049Y-179240D01*
X582323Y-179315D01*
X582685Y-179406D01*
X583146Y-179423D01*
X583388Y-179399D01*
X583659Y-179353D01*
X583895Y-179308D01*
X584053Y-179255D01*
X584180Y-179173D01*
X584363Y-178871D01*
X584454Y-178741D01*
X584437Y-178400D01*
X584423Y-178144D01*
X584394Y-177964D01*
X584377Y-177841D01*
X584317Y-177630D01*
X584257Y-177450D01*
X584190Y-177299D01*
X584091Y-177169D01*
X583931Y-177042D01*
X583772Y-176944D01*
X583463Y-176821D01*
X583167Y-176670D01*
X582896Y-176526D01*
X582661Y-176406D01*
X582510Y-176300D01*
X582428Y-176180D01*
X582404Y-176051D01*
X582411Y-175832D01*
X582474Y-175703D01*
X582647Y-175576D01*
X582949Y-175513D01*
X583273Y-175544D01*
X583539Y-175801D01*
X583621Y-176216D01*
X584454Y-176209D01*
X584468Y-176044D01*
G37*
%LPC*%
G75*
G36*
G01X524211Y-153220D02*
X525815Y-153433D01*
X527387Y-155034D01*
X527929Y-158178D01*
X527598Y-166732D01*
X526479Y-169148D01*
X525059Y-169573D01*
X523304Y-169451D01*
X522246Y-168877D01*
X521490Y-168030D01*
X521067Y-166912D01*
X521036Y-165824D01*
Y-155785D01*
X521823Y-154364D01*
X523184Y-153246D01*
X523938D01*
X524211Y-153220D01*
G37*
G36*
G01X562623Y-175477D02*
X562986Y-175537D01*
X563255Y-175679D01*
X563420Y-175924D01*
X563435Y-176416D01*
Y-176656D01*
X561980Y-176648D01*
X561987Y-176286D01*
X562004Y-176113D01*
X562059Y-175859D01*
X562163Y-175686D01*
X562271Y-175554D01*
X562467Y-175484D01*
X562623Y-175477D01*
G37*
G36*
G01X559019Y-153287D02*
X560365Y-153330D01*
X561347Y-153966D01*
X562134Y-154888D01*
X562602Y-156354D01*
X562571Y-158048D01*
X562691Y-166559D01*
X561951Y-168176D01*
X560847Y-169295D01*
X559729Y-169612D01*
X557915D01*
X556796Y-168810D01*
X556117Y-167452D01*
X555949Y-165985D01*
X555966Y-156462D01*
X556057Y-155236D01*
X556736Y-154345D01*
X557569Y-153740D01*
X558596Y-153301D01*
X558867Y-153287D01*
X559019D01*
G37*
%LPD*%
G75*
G54D10*
X8716Y12511D03*
X8700Y202500D03*
X155747Y108180D03*
X268700Y25000D03*
Y190000D03*
G54D20*
G01X404000Y-115000D02*
X-46000D01*
Y-190000D01*
X404100D01*
Y-115000D01*
G01X404000Y-165000D02*
X-46000D01*
G01Y-140000D02*
X404000D01*
G01X101600Y-165000D02*
Y-190000D01*
G01X139100Y-165000D02*
Y-190000D01*
G01X179000Y-165000D02*
Y-140000D01*
G01X233230Y72500D02*
X236070Y75340D01*
X242386D01*
X244147Y77100D01*
X244726D01*
G01X237990Y73230D02*
X242327D01*
X244623Y75526D01*
X244726D01*
G01Y78675D02*
X243671D01*
X242196Y77200D01*
X231180D01*
X229130Y75150D01*
G01X221600Y-190000D02*
Y-165000D01*
G01X319000D02*
Y-190000D01*
X69300Y122500D03*
X63500Y134500D03*
X68400Y137700D03*
X69700Y127800D03*
X66300Y129200D03*
X66800Y133000D03*
X69900Y139100D03*
X63400Y131300D03*
X61900Y140700D03*
X66774Y136474D03*
X68140Y143600D03*
X61880Y149480D03*
X69500Y145100D03*
X61940Y142700D03*
X58400Y155000D03*
X80540Y127200D03*
X83100Y128535D03*
X79700Y131500D03*
X80096Y136303D03*
X79614Y129100D03*
X80200Y138300D03*
X73150Y154250D03*
X81120Y160679D03*
X85788Y134691D03*
X88500Y162400D03*
X94100Y166600D03*
X87480Y157800D03*
X90700Y162400D03*
X88890Y155570D03*
X90700Y159600D03*
X88500Y165200D03*
X96300Y158200D03*
X94100D03*
X90700Y165200D03*
X85970Y168540D03*
X88500Y170800D03*
X90700Y168000D03*
Y170800D03*
Y173600D03*
X88500Y168000D03*
Y173600D03*
X95200Y181300D03*
X107490Y140180D03*
X110324Y154046D03*
X103430Y153450D03*
X110324Y147747D03*
Y152472D03*
X104220Y149500D03*
X110324Y150897D03*
X106430Y148460D03*
X110324Y149322D03*
X106920Y146760D03*
X106490Y145080D03*
X110324Y146172D03*
X109434Y142369D03*
X105390Y151820D03*
X105570Y155370D03*
X110324Y160346D03*
X106110Y159340D03*
X108749Y161920D03*
X106800Y163500D03*
X110324Y158771D03*
Y161920D03*
Y163495D03*
Y157196D03*
X108749Y160346D03*
X110324Y155621D03*
X97960Y178075D03*
X109200Y179500D03*
X105000Y176100D03*
X106400Y179500D03*
X100800D03*
X103600D03*
X107800Y176100D03*
X99400D03*
X109200Y181700D03*
X106400D03*
X109680Y184140D03*
X123790Y112940D03*
X115000Y123300D03*
X120060Y126400D03*
X119680Y139690D03*
X115040Y135600D03*
X121690Y133790D03*
X121347Y147747D03*
X118198D03*
X113473D03*
X111899Y152472D03*
Y147747D03*
X115048D03*
Y146172D03*
X116623Y147747D03*
X118198Y146172D03*
X116623D03*
X121347D03*
X119773D03*
X120720Y141380D03*
X117470Y141590D03*
X122922Y146172D03*
X111899D03*
X111710Y142670D03*
X113473Y146172D03*
Y141087D03*
X116623Y160346D03*
X111899D03*
X120920Y165300D03*
X111899Y155621D03*
X113100Y165900D03*
X113473Y161920D03*
X115048D03*
X113473Y163495D03*
X111899D03*
X119773Y167277D03*
X118198Y161920D03*
X119773D03*
X121347D03*
X117140Y166070D03*
X116623Y161920D03*
X113400Y176100D03*
X112200Y179500D03*
X113400Y173900D03*
X115408Y167835D03*
X121300Y180300D03*
X123300Y177800D03*
X116500D03*
X123300Y182800D03*
X119300D03*
X112150Y184200D03*
X131600Y86700D03*
X130600Y89200D03*
X127770Y116140D03*
X126840Y125990D03*
X132450Y115590D03*
X130770Y126300D03*
X128060Y137760D03*
X127590Y134700D03*
X126072Y152472D03*
X124497Y149322D03*
Y146172D03*
X126072Y154046D03*
X129074Y149324D03*
X126072Y149322D03*
Y147747D03*
Y150897D03*
X128645Y144599D03*
X130600Y151000D03*
X128757Y146920D03*
X127647Y152472D03*
X126585Y143538D03*
X125250Y141690D03*
X124472Y166138D03*
X130852Y154687D03*
X126070Y160347D03*
X126072Y158771D03*
X124497Y163495D03*
X129652Y157687D03*
X131043Y158772D03*
X128645Y160347D03*
X127647Y163495D03*
X126072D03*
Y155621D03*
X128841Y156292D03*
X124450Y161920D03*
X129000Y175450D03*
X125300Y185300D03*
X138650Y118950D03*
X149670Y162605D03*
Y165805D03*
Y168605D03*
X138500Y177000D03*
X159233Y140205D03*
Y134605D03*
X152033Y133005D03*
X159233Y137405D03*
X156870D03*
X159152Y131805D03*
X152033Y127405D03*
X156870Y134605D03*
X152033Y130205D03*
X156870Y140205D03*
X152033Y135805D03*
X156870Y131805D03*
Y150605D03*
X159233Y143005D03*
X156870D03*
X152033Y141005D03*
X159233Y150605D03*
Y147405D03*
X156870D03*
X152033Y152605D03*
X156870Y159005D03*
Y156205D03*
X159314D03*
X156870Y167405D03*
X152033Y165805D03*
X159314Y161805D03*
X152033Y162605D03*
X159233Y167405D03*
X159314Y159005D03*
X152033Y177005D03*
X159233Y170205D03*
X156952Y173005D03*
X159233Y178605D03*
X152033Y168605D03*
Y171405D03*
Y174205D03*
X164470Y153405D03*
Y144605D03*
Y147405D03*
X166833Y144605D03*
X164470Y150605D03*
X166752Y159005D03*
X164470D03*
Y161805D03*
X166752Y156205D03*
X164470D03*
X190659Y145618D03*
X203258Y148768D03*
X193809Y145618D03*
Y148768D03*
X203258Y145618D03*
X198452Y159805D03*
X200108Y161366D03*
X203258Y164516D03*
X200108D03*
X196959Y161366D03*
X214051Y136205D03*
X213651Y133005D03*
X216300Y136200D03*
X215856Y148768D03*
X217251Y144205D03*
X209557Y142468D03*
X214051Y147405D03*
X217251Y163227D03*
X214051Y162605D03*
X212707Y164516D03*
X217251Y160205D03*
X214051Y175005D03*
X211000Y174205D03*
X214051Y169005D03*
X220237Y144407D03*
X219006Y148768D03*
Y161366D03*
X220225Y165701D03*
X239000Y71500D03*
X244215Y85315D03*
X252600Y78675D03*
X247290Y75510D03*
X252600Y80250D03*
X253130Y83090D03*
X247850Y86010D03*
X247875Y80250D03*
Y78675D03*
X244726D03*
Y77100D03*
X249450Y78675D03*
X244726Y75526D03*
X252600Y75710D03*
X249450Y80250D03*
X251025D03*
Y81825D03*
X247040Y84420D03*
X251025Y78675D03*
X250535Y74115D03*
X252600Y87870D03*
X249450Y87830D03*
X245270Y90140D03*
X246980Y91790D03*
X267450Y66950D03*
G54D11*
X17400Y53200D03*
G54D30*
G01X99500Y104550D02*
X78860Y83910D01*
Y58810D01*
X75250Y55200D01*
G01X468200Y-196800D02*
X1058200D01*
Y-114300D01*
X428200D01*
Y-196800D01*
X588200D01*
Y-114300D01*
G01Y-116800D02*
Y-196800D01*
G01Y-141800D02*
X1058200D01*
Y-169300D01*
X588200D01*
G01X701700D02*
Y-196800D01*
G01X793200D02*
Y-141800D01*
G01X866950Y-196800D02*
Y-169300D01*
G01X867200Y-114300D02*
Y-141800D01*
G01X969450Y-169300D02*
Y-196800D01*
G01X969200Y-114300D02*
Y-141800D01*
G54D21*
X70000Y155897D03*
G54D12*
X28700Y7500D03*
Y17500D03*
Y207500D03*
Y197500D03*
X38700Y7500D03*
Y17500D03*
Y207500D03*
Y197500D03*
X58700Y7500D03*
X48700D03*
X58700Y17500D03*
X48700D03*
X58700Y207500D03*
Y197500D03*
X48700Y207500D03*
Y197500D03*
X68700Y7500D03*
Y17500D03*
Y207500D03*
Y197500D03*
X78700Y7500D03*
Y17500D03*
Y207500D03*
Y197500D03*
X98700Y7500D03*
X88700D03*
X98700Y17500D03*
X88700D03*
X98700Y207500D03*
Y197500D03*
X88700Y207500D03*
Y197500D03*
X108700Y7500D03*
Y17500D03*
Y207500D03*
Y197500D03*
X118700Y7500D03*
Y17500D03*
Y207500D03*
Y197500D03*
X138700Y7500D03*
X128700D03*
X138700Y17500D03*
X128700D03*
X138700Y207500D03*
Y197500D03*
X128700Y207500D03*
Y197500D03*
X148700Y7500D03*
Y17500D03*
Y207500D03*
Y197500D03*
X158700Y7500D03*
Y17500D03*
Y207500D03*
Y197500D03*
X178700Y7500D03*
X168700D03*
X178700Y17500D03*
X168700D03*
X178700Y207500D03*
Y197500D03*
X168700Y207500D03*
Y197500D03*
X188700Y7500D03*
Y17500D03*
Y207500D03*
Y197500D03*
X198700Y7500D03*
Y17500D03*
Y207500D03*
Y197500D03*
X218700Y7500D03*
X208700D03*
X218700Y17500D03*
X208700D03*
X218700Y207500D03*
Y197500D03*
X208700Y207500D03*
Y197500D03*
X228700Y7500D03*
Y17500D03*
Y207500D03*
Y197500D03*
X238700Y7500D03*
Y17500D03*
Y207500D03*
Y197500D03*
X248700Y7500D03*
Y17500D03*
Y207500D03*
Y197500D03*
G54D22*
X72799Y99466D03*
Y157734D03*
G54D13*
X29200Y34700D03*
G54D23*
G01X104100Y159374D02*
X105234Y158240D01*
X108199D01*
X110305Y160346D01*
X110324D01*
G01X104436Y155580D02*
X104310D01*
G01X104100Y144246D02*
X106614Y146760D01*
X106920D01*
G01X108690Y140000D02*
Y141625D01*
X109434Y142369D01*
G01X104100Y150720D02*
X105846D01*
X107597Y152472D01*
X110324D01*
G01X104100Y157919D02*
X104424D01*
X104902Y157440D01*
X108993D01*
X110324Y158771D01*
G01Y157196D02*
X109768Y156640D01*
G01X110324Y161920D02*
X105344Y166900D01*
X104100D01*
G01X110600Y140806D02*
Y143500D01*
X111899Y144799D01*
Y146172D01*
G01X105509Y140000D02*
X109790Y144281D01*
Y145021D01*
X110324Y145555D01*
Y146172D01*
G01X107310Y140000D02*
X107490Y140180D01*
G01X110324Y149322D02*
X108070Y147068D01*
Y144824D01*
X103346Y140099D01*
G01X106034Y149620D02*
X105270Y148856D01*
G01X105819Y168000D02*
X110324Y163495D01*
G01X111899D02*
X107604Y167790D01*
Y168000D01*
G01X113250D02*
Y167306D01*
X114200Y166356D01*
Y166218D01*
X114440Y165978D01*
Y164952D01*
X114573Y164818D01*
Y163040D01*
X113473Y161940D01*
Y161920D01*
G01Y163495D02*
X110984Y165985D01*
Y168000D01*
G01X117470Y140000D02*
Y141590D01*
G01X113942Y140000D02*
X114573Y140631D01*
Y141542D01*
X113473Y142642D01*
Y146172D01*
G01Y141087D02*
Y140935D01*
X112538Y140000D01*
G01X118198Y146172D02*
Y145458D01*
X121890Y141766D01*
Y140000D01*
G01X123040D02*
Y141747D01*
X119773Y145014D01*
Y146172D01*
G01X124710Y168000D02*
Y167932D01*
X123372Y166594D01*
Y165057D01*
X122597Y164282D01*
Y161614D01*
X121803Y160820D01*
X121770D01*
X120200Y159250D01*
Y151480D01*
X118450Y149730D01*
X115620D01*
X115350Y150000D01*
X112558D01*
X110324Y147766D01*
Y147747D01*
G01X126770Y140000D02*
Y141726D01*
X122922Y145574D01*
Y146172D01*
G01X122630Y158810D02*
X122690D01*
X122922Y158578D01*
Y155621D01*
X126072Y152472D01*
G01X120920Y165300D02*
X121010Y165390D01*
X121030D01*
X121673Y166033D01*
Y167380D01*
X121680Y167387D01*
Y167428D01*
X121850Y167598D01*
Y167741D01*
X121868Y167759D01*
Y167760D01*
X121869Y167760D01*
Y167949D01*
X121920Y168000D01*
G01X115048Y161920D02*
Y162383D01*
X115373Y162708D01*
Y165150D01*
X115240Y165283D01*
Y166447D01*
X114220Y167467D01*
Y168000D01*
G01X115210Y154830D02*
X114901Y154521D01*
X111443D01*
X110343Y155621D01*
X110324D01*
G01X127629Y168000D02*
X126250Y166621D01*
Y166360D01*
X124485Y164595D01*
X124041D01*
X123397Y163951D01*
Y162649D01*
X124125Y161920D01*
X124450D01*
G01X119773D02*
Y165722D01*
X120873Y166822D01*
Y167711D01*
X120880Y167718D01*
Y168000D01*
G01X121347Y161920D02*
Y164164D01*
X122473Y165289D01*
Y167089D01*
X123384Y168000D01*
G01X116640D02*
Y167126D01*
X116040Y166526D01*
Y165614D01*
X116623Y165031D01*
Y161920D01*
G01X126072Y149322D02*
X126975D01*
X126976Y149324D01*
X128262Y148038D01*
X129750D01*
X132652Y145136D01*
G01X129900Y145156D02*
X129256Y145800D01*
X128019D01*
X126072Y147747D01*
G01X128757Y146920D02*
X129736D01*
X130852Y145805D01*
Y141548D01*
G01X126072Y150897D02*
X126857D01*
X126860Y150900D01*
X129145D01*
X130244Y149800D01*
X132000D01*
G01X124472Y166138D02*
X126070Y167736D01*
Y168000D01*
G01X126072Y154046D02*
X128446D01*
X130100Y155700D01*
X130400D01*
X130500Y155800D01*
X131600D01*
X131700Y155700D01*
X134069D01*
G01X126070Y160347D02*
X127210Y161486D01*
X128933D01*
X132052Y164605D01*
G01X126072Y158771D02*
X129171D01*
X130300Y159900D01*
X131900D01*
X132000Y159800D01*
G01X124497Y163495D02*
X124797Y163795D01*
X124816D01*
X127110Y166089D01*
G01X129652Y157687D02*
X129738Y157600D01*
X131913D01*
X132000Y157687D01*
G01X132852Y161005D02*
X130120D01*
X129463Y160347D01*
X128645D01*
G01X126072Y155621D02*
X124852Y156842D01*
Y160684D01*
X126467Y162300D01*
X128100D01*
X131605Y165805D01*
G01X128841Y156292D02*
X129050Y156500D01*
X130100Y156500D01*
X130300Y156700D01*
X131900D01*
G01X255700Y83650D02*
X254040Y81990D01*
X252784D01*
X251044Y80250D01*
X251025D01*
G01X250535Y74050D02*
Y74115D01*
G54D14*
X30400Y169500D03*
X28500Y179300D03*
X27250Y184450D03*
X40200Y173200D03*
X46800Y91900D03*
X53000Y112852D03*
X57248Y102900D03*
X51000Y110884D03*
X53015Y108915D03*
X50900Y106946D03*
X52200Y118758D03*
X53032Y126632D03*
X51006Y122694D03*
X51000Y114820D03*
X53037Y132537D03*
X53026Y136474D03*
X46050Y130950D03*
X53022Y152222D03*
X53052Y144348D03*
X53085Y148285D03*
X59900Y98900D03*
X69200Y112852D03*
X69900Y110100D03*
X62450Y111750D03*
X59900Y102600D03*
X70500Y106900D03*
X62500Y108900D03*
X62450Y106050D03*
X70500Y118700D03*
X62500Y114800D03*
Y122700D03*
X70500Y124600D03*
X69245Y132128D03*
X70258Y134523D03*
X70500Y152222D03*
X67800Y172300D03*
X62500Y172321D03*
X60000Y169800D03*
X70300Y169900D03*
X65200Y169800D03*
X68700Y183200D03*
X66200D03*
X63700D03*
X67200Y185100D03*
X64600D03*
X69700D03*
X74002Y102626D03*
X79985Y108915D03*
X79978Y104978D03*
X81984Y110884D03*
X82100Y106946D03*
X79914Y120726D03*
Y116789D03*
X82500Y118700D03*
X79963Y124663D03*
X79991Y133905D03*
X79900Y141960D03*
X76500Y164200D03*
X89750Y58850D03*
X94800D03*
X89750Y70350D03*
X94750D03*
X86800Y82400D03*
X94750Y78480D03*
Y89950D03*
X89800Y90050D03*
X85200Y98800D03*
X87770Y109800D03*
X85137Y124663D03*
X96600Y126000D03*
X92284Y126534D03*
X92780Y120116D03*
X94211Y124788D03*
X96070Y122970D03*
X96490Y115900D03*
X94800Y118480D03*
X95030Y140130D03*
X92000Y129120D03*
X93477Y134464D03*
X87440Y132932D03*
X94900Y136640D03*
X87288Y129740D03*
X96750Y129970D03*
X93500Y131300D03*
X92603Y138427D03*
X95520Y150500D03*
X88308Y149342D03*
X93000Y144530D03*
X94060Y155260D03*
X93020Y174480D03*
X95890Y174530D03*
X104600Y36000D03*
X99900Y58850D03*
X99775Y70350D03*
X104700Y70550D03*
X99750Y78450D03*
X104800D03*
X104750Y89950D03*
X99750D03*
X111200Y98450D03*
X101400Y94750D03*
X109442Y108492D03*
X99500Y104550D03*
X104750Y111550D03*
X107091Y110013D03*
X102230Y113450D03*
X99930Y122370D03*
X102192Y120719D03*
X106452Y121240D03*
X99010Y115170D03*
X108150Y136750D03*
X98147Y135333D03*
X104092Y128221D03*
X99890Y129420D03*
X100000Y156500D03*
X123750Y27350D03*
Y49950D03*
X119330Y88790D03*
X115310Y98070D03*
X120400Y108770D03*
X115490Y108750D03*
X112790Y110400D03*
X112460Y116630D03*
X112500Y126460D03*
X116250Y126580D03*
X121210Y114980D03*
X114740Y138170D03*
X119370Y136600D03*
X117630Y151280D03*
X118400Y154000D03*
X114770Y151590D03*
X122630Y158810D03*
X117300Y157100D03*
X114380Y158000D03*
X115210Y154830D03*
X130000Y34500D03*
X136250Y50050D03*
X136833Y73167D03*
X131000Y95050D03*
X134171Y94617D03*
X136827Y94636D03*
X135480Y98028D03*
X127280Y90250D03*
X135150Y90030D03*
Y110930D03*
X134750Y107250D03*
X133690Y126260D03*
X132145Y176197D03*
X126294Y175799D03*
X132000Y173000D03*
X126200Y172600D03*
X131980Y179550D03*
X142000Y32000D03*
X145450Y36500D03*
X142000Y42900D03*
X151000Y70200D03*
Y78100D03*
X140000Y95050D03*
X138900Y110900D03*
X141700D03*
X141800Y107300D03*
X138900Y107200D03*
X154540Y33540D03*
X162950Y39100D03*
X160450Y36400D03*
X160750Y41600D03*
X161200Y47000D03*
X155300Y70200D03*
X153200D03*
X153767Y73167D03*
X151500Y75135D03*
X155300Y78100D03*
X153200D03*
X154700Y138700D03*
X171000Y31200D03*
X177250Y42800D03*
X175450Y44400D03*
X175500Y38200D03*
X165850D03*
X172400Y111500D03*
X176150Y119600D03*
X187100Y33000D03*
X179050Y44400D03*
X181200Y35600D03*
X189770Y43630D03*
X182600Y38700D03*
X183050Y49900D03*
X185100Y101450D03*
X184900Y111500D03*
Y116450D03*
X190052Y135005D03*
X194750Y45600D03*
X200500Y38050D03*
X198011Y35441D03*
X199750Y106500D03*
X199200Y101500D03*
X201100Y121550D03*
X199750Y116500D03*
X197905Y135005D03*
X194126Y170205D03*
X200108D03*
X209100Y31000D03*
X209700Y34350D03*
X206600Y34800D03*
X212260Y87090D03*
X206190Y82740D03*
X214700Y90000D03*
X214550Y93750D03*
X211300Y111550D03*
X217790Y102380D03*
X211250Y106450D03*
X211300Y116450D03*
X214000Y159000D03*
X206407Y158961D03*
X224900Y27000D03*
X223150Y23750D03*
X222700Y42800D03*
X221300Y69800D03*
X219110Y67750D03*
X227550Y84000D03*
X226590Y80060D03*
X224930Y77470D03*
X230090Y78650D03*
X227550Y94000D03*
Y89000D03*
X225540Y90960D03*
X222500Y112500D03*
X221920Y102620D03*
X219006Y140168D03*
X223300Y145000D03*
Y142000D03*
X226300Y164900D03*
Y172200D03*
X223770Y178350D03*
X226250Y180120D03*
X227250Y183200D03*
X222890Y181970D03*
X242250Y49550D03*
X231690Y70080D03*
X239870Y63400D03*
X236500Y63600D03*
X238050Y61220D03*
X232242Y80700D03*
X240700Y84500D03*
X241450Y79000D03*
X243200Y97700D03*
X240500Y89050D03*
Y94050D03*
X238600Y128450D03*
Y133450D03*
Y138450D03*
Y148450D03*
Y143450D03*
Y153450D03*
Y158450D03*
Y163450D03*
Y168450D03*
Y173450D03*
Y178450D03*
X246000Y39200D03*
X256000Y43050D03*
X249750Y49550D03*
X246000D03*
X255270Y58160D03*
X251740Y57710D03*
X246950Y62900D03*
X250700Y62950D03*
X256310Y75030D03*
X257483Y83140D03*
X246760Y118200D03*
X253250Y133450D03*
X250000D03*
X253250Y138450D03*
X250000D03*
X253250Y128450D03*
X250000D03*
X253250Y153450D03*
X250000D03*
X253250Y143450D03*
X250000D03*
X253250Y148450D03*
X250000D03*
X253250Y163450D03*
X250000D03*
X253250Y158450D03*
X250000D03*
X253250Y173450D03*
X250000D03*
X253250Y178450D03*
X250000D03*
X253250Y168450D03*
X250000D03*
X264400Y73821D03*
X270580Y71050D03*
X259770Y63880D03*
X265640Y81410D03*
X261950Y83200D03*
X266450Y85750D03*
X261440Y95270D03*
X261420Y98450D03*
Y91840D03*
X260800Y88100D03*
X261450Y107750D03*
Y102750D03*
X264650Y138450D03*
Y133450D03*
Y128450D03*
Y153450D03*
Y143450D03*
Y148450D03*
Y163450D03*
Y158450D03*
X264550Y176960D03*
X264650Y173450D03*
Y168450D03*
X273940Y78550D03*
X275450Y92750D03*
Y97750D03*
Y107750D03*
Y102750D03*
G54D24*
G01X-40600Y-174200D02*
X-37500D01*
X-36900Y-173500D01*
Y-172300D01*
X-37500Y-171700D01*
X-36900Y-171100D01*
Y-169800D01*
X-37500Y-169200D01*
X-40600D01*
Y-174200D01*
G01Y-171700D02*
X-37500D01*
G01X-40600D02*
X-37500D01*
G01X-40600Y-174200D02*
X-37500D01*
X-36900Y-173500D01*
Y-172300D01*
X-37500Y-171700D01*
X-36900Y-171100D01*
Y-169800D01*
X-37500Y-169200D01*
X-40600D01*
Y-174200D01*
G01X-37500Y-146700D02*
X-40600D01*
G01Y-149200D02*
X-37500D01*
X-36900Y-148500D01*
Y-147300D01*
X-37500Y-146700D01*
X-36900Y-146100D01*
Y-144800D01*
X-37500Y-144200D01*
X-40600D01*
Y-149200D01*
G01D02*
X-37500D01*
X-36900Y-148500D01*
Y-147300D01*
X-37500Y-146700D01*
X-36900Y-146100D01*
Y-144800D01*
X-37500Y-144200D01*
X-40600D01*
Y-149200D01*
G01X-37500Y-146700D02*
X-40600D01*
G01Y-123500D02*
X-40000Y-124200D01*
X-37500D01*
X-36900Y-123500D01*
Y-122900D01*
G01Y-120400D02*
Y-119800D01*
X-37500Y-119200D01*
X-40000D01*
X-40600Y-119800D01*
Y-123500D01*
G01X-36900Y-120400D02*
Y-119800D01*
X-37500Y-119200D01*
X-40000D01*
X-40600Y-119800D01*
Y-123500D01*
G01D02*
X-40000Y-124200D01*
X-37500D01*
X-36900Y-123500D01*
Y-122900D01*
G01X-30600Y-174200D02*
Y-170400D01*
X-29300Y-169200D01*
X-28100D01*
X-26900Y-170400D01*
Y-174200D01*
G01X-25600D02*
Y-169200D01*
X-22500D01*
X-21900Y-169800D01*
Y-171100D01*
X-22500Y-171700D01*
X-25600D01*
G01X-24300D02*
X-21900Y-174200D01*
G01X-26900Y-172300D02*
X-30600D01*
G01X-35600Y-173500D02*
X-35000Y-174200D01*
X-32500D01*
X-31900Y-173500D01*
Y-169800D01*
X-32500Y-169200D01*
X-35000D01*
X-35600Y-169800D01*
Y-173500D01*
G01D02*
X-35000Y-174200D01*
X-32500D01*
X-31900Y-173500D01*
Y-169800D01*
X-32500Y-169200D01*
X-35000D01*
X-35600Y-169800D01*
Y-173500D01*
G01X-26900Y-172300D02*
X-30600D01*
G01X-24300Y-171700D02*
X-21900Y-174200D01*
G01X-25600D02*
Y-169200D01*
X-22500D01*
X-21900Y-169800D01*
Y-171100D01*
X-22500Y-171700D01*
X-25600D01*
G01X-30600Y-174200D02*
Y-170400D01*
X-29300Y-169200D01*
X-28100D01*
X-26900Y-170400D01*
Y-174200D01*
G01X-21900Y-149200D02*
X-24300Y-146700D01*
G01X-25600D02*
X-22500D01*
X-21900Y-146100D01*
Y-144800D01*
X-22500Y-144200D01*
X-25600D01*
Y-149200D01*
G01X-26900D02*
Y-145400D01*
X-28100Y-144200D01*
X-29300D01*
X-30600Y-145400D01*
Y-149200D01*
G01Y-147300D02*
X-26900D01*
G01X-35600Y-148500D02*
X-35000Y-149200D01*
X-32500D01*
X-31900Y-148500D01*
Y-144800D01*
X-32500Y-144200D01*
X-35000D01*
X-35600Y-144800D01*
Y-148500D01*
G01D02*
X-35000Y-149200D01*
X-32500D01*
X-31900Y-148500D01*
Y-144800D01*
X-32500Y-144200D01*
X-35000D01*
X-35600Y-144800D01*
Y-148500D01*
G01X-30600Y-147300D02*
X-26900D01*
G01Y-149200D02*
Y-145400D01*
X-28100Y-144200D01*
X-29300D01*
X-30600Y-145400D01*
Y-149200D01*
G01X-25600Y-146700D02*
X-22500D01*
X-21900Y-146100D01*
Y-144800D01*
X-22500Y-144200D01*
X-25600D01*
Y-149200D01*
G01X-21900D02*
X-24300Y-146700D01*
G01X-30600Y-123500D02*
X-30000Y-124200D01*
X-27500D01*
X-26900Y-123500D01*
Y-122300D01*
X-27500Y-121700D01*
X-30000D01*
X-30600Y-121100D01*
Y-119800D01*
X-30000Y-119200D01*
X-27500D01*
X-26900Y-119800D01*
G01X-25500Y-119200D02*
X-23600D01*
Y-124400D01*
G01X-21700Y-119200D02*
X-23600D01*
G01X-35600D02*
Y-122900D01*
X-34300Y-124200D01*
X-33100D01*
X-31900Y-122900D01*
Y-119200D01*
G01X-35600D02*
Y-122900D01*
X-34300Y-124200D01*
X-33100D01*
X-31900Y-122900D01*
Y-119200D01*
G01X-21700D02*
X-23600D01*
G01X-25500D02*
X-23600D01*
Y-124400D01*
G01X-30600Y-123500D02*
X-30000Y-124200D01*
X-27500D01*
X-26900Y-123500D01*
Y-122300D01*
X-27500Y-121700D01*
X-30000D01*
X-30600Y-121100D01*
Y-119800D01*
X-30000Y-119200D01*
X-27500D01*
X-26900Y-119800D01*
G01X-10600Y-174200D02*
Y-169200D01*
G01Y-169800D02*
X-6900Y-173500D01*
G01X-20600Y-174200D02*
X-18100D01*
X-16900Y-172900D01*
Y-170400D01*
X-18100Y-169200D01*
X-20600D01*
Y-174200D01*
G01D02*
X-18100D01*
X-16900Y-172900D01*
Y-170400D01*
X-18100Y-169200D01*
X-20600D01*
Y-174200D01*
G01X-10600Y-169800D02*
X-6900Y-173500D01*
G01X-10600Y-174200D02*
Y-169200D01*
G01X-6900Y-148500D02*
X-10600Y-144800D01*
G01Y-144200D02*
Y-149200D01*
G01X-20600D02*
X-18100D01*
X-16900Y-147900D01*
Y-145400D01*
X-18100Y-144200D01*
X-20600D01*
Y-149200D01*
G01D02*
X-18100D01*
X-16900Y-147900D01*
Y-145400D01*
X-18100Y-144200D01*
X-20600D01*
Y-149200D01*
G01X-10600Y-144200D02*
Y-149200D01*
G01X-6900Y-148500D02*
X-10600Y-144800D01*
G01Y-121700D02*
X-8100D01*
G01X-6900Y-124200D02*
X-10600D01*
Y-119200D01*
X-6900D01*
G01X-20600Y-123500D02*
X-20000Y-124200D01*
X-17500D01*
X-16900Y-123500D01*
Y-119800D01*
X-17500Y-119200D01*
X-20000D01*
X-20600Y-119800D01*
Y-123500D01*
G01X-15600Y-124200D02*
Y-119200D01*
X-13700Y-121700D01*
X-11900Y-119200D01*
Y-124200D01*
G01X-15600D02*
Y-119200D01*
X-13700Y-121700D01*
X-11900Y-119200D01*
Y-124200D01*
G01X-20600Y-123500D02*
X-20000Y-124200D01*
X-17500D01*
X-16900Y-123500D01*
Y-119800D01*
X-17500Y-119200D01*
X-20000D01*
X-20600Y-119800D01*
Y-123500D01*
G01X-6900Y-124200D02*
X-10600D01*
Y-119200D01*
X-6900D01*
G01X-10600Y-121700D02*
X-8100D01*
G01X1300Y-174200D02*
X1900D01*
Y-173500D01*
X1300D01*
Y-174200D01*
G01X-6900D02*
Y-169200D01*
G01X-5600Y-173500D02*
X-5000Y-174200D01*
X-2500D01*
X-1900Y-173500D01*
Y-169800D01*
X-2500Y-169200D01*
X-5000D01*
X-5600Y-169800D01*
Y-173500D01*
G01D02*
X-5000Y-174200D01*
X-2500D01*
X-1900Y-173500D01*
Y-169800D01*
X-2500Y-169200D01*
X-5000D01*
X-5600Y-169800D01*
Y-173500D01*
G01X-6900Y-174200D02*
Y-169200D01*
G01X1300Y-174200D02*
X1900D01*
Y-173500D01*
X1300D01*
Y-174200D01*
G01X3100Y-149200D02*
Y-144200D01*
X1300Y-146700D01*
X-600Y-144200D01*
Y-149200D01*
G01X-1900D02*
Y-145400D01*
X-3100Y-144200D01*
X-4300D01*
X-5600Y-145400D01*
Y-149200D01*
G01X-6900D02*
Y-144200D01*
G01X-5600Y-147300D02*
X-1900D01*
G01X-5600D02*
X-1900D01*
G01X-6900Y-149200D02*
Y-144200D01*
G01X-1900Y-149200D02*
Y-145400D01*
X-3100Y-144200D01*
X-4300D01*
X-5600Y-145400D01*
Y-149200D01*
G01X3100D02*
Y-144200D01*
X1300Y-146700D01*
X-600Y-144200D01*
Y-149200D01*
G01X-5600Y-121700D02*
X-2500D01*
X-1900Y-121100D01*
Y-119800D01*
X-2500Y-119200D01*
X-5600D01*
Y-124200D01*
G01X-4300Y-121700D02*
X-1900Y-124200D01*
G01X-4300Y-121700D02*
X-1900Y-124200D01*
G01X-5600Y-121700D02*
X-2500D01*
X-1900Y-121100D01*
Y-119800D01*
X-2500Y-119200D01*
X-5600D01*
Y-124200D01*
G01X8100Y-144200D02*
X4400D01*
Y-149200D01*
X8100D01*
G01X6900Y-146700D02*
X4400D01*
G01X6900D02*
X4400D01*
G01X8100Y-144200D02*
X4400D01*
Y-149200D01*
X8100D01*
G01X4400Y-124200D02*
Y-119200D01*
G01Y-119800D02*
X8100Y-123500D01*
G01Y-124200D02*
Y-119200D01*
G01X9400Y-122300D02*
X13100D01*
G01Y-124200D02*
Y-120400D01*
X11900Y-119200D01*
X10700D01*
X9400Y-120400D01*
Y-124200D01*
G01X14400D02*
Y-119200D01*
X16300Y-121700D01*
X18100Y-119200D01*
Y-124200D01*
G01X14400D02*
Y-119200D01*
X16300Y-121700D01*
X18100Y-119200D01*
Y-124200D01*
G01X13100D02*
Y-120400D01*
X11900Y-119200D01*
X10700D01*
X9400Y-120400D01*
Y-124200D01*
G01Y-122300D02*
X13100D01*
G01X8100Y-124200D02*
Y-119200D01*
G01X4400Y-119800D02*
X8100Y-123500D01*
G01X4400Y-124200D02*
Y-119200D01*
G01X19400Y-121700D02*
X21900D01*
G01X23100Y-124200D02*
X19400D01*
Y-119200D01*
X23100D01*
G01Y-124200D02*
X19400D01*
Y-119200D01*
X23100D01*
G01X19400Y-121700D02*
X21900D01*
G01X108000Y-171700D02*
X110400Y-174200D01*
G01X106700Y-171700D02*
X109800D01*
X110400Y-171100D01*
Y-169800D01*
X109800Y-169200D01*
X106700D01*
Y-174200D01*
G01Y-171700D02*
X109800D01*
X110400Y-171100D01*
Y-169800D01*
X109800Y-169200D01*
X106700D01*
Y-174200D01*
G01X108000Y-171700D02*
X110400Y-174200D01*
G01X115400D02*
X111700D01*
Y-169200D01*
X115400D01*
G01X111700Y-171700D02*
X114200D01*
G01X116700Y-169200D02*
Y-172300D01*
X118600Y-174200D01*
X120400Y-172300D01*
Y-169200D01*
G01X116700D02*
Y-172300D01*
X118600Y-174200D01*
X120400Y-172300D01*
Y-169200D01*
G01X111700Y-171700D02*
X114200D01*
G01X115400Y-174200D02*
X111700D01*
Y-169200D01*
X115400D01*
G01X114380Y158000D02*
Y157980D01*
X112021Y155621D01*
X111899D01*
G01X146800Y-174200D02*
X149300D01*
X150500Y-172900D01*
Y-170400D01*
X149300Y-169200D01*
X146800D01*
Y-174200D01*
G01D02*
X149300D01*
X150500Y-172900D01*
Y-170400D01*
X149300Y-169200D01*
X146800D01*
Y-174200D01*
G01X160300Y-169200D02*
X158400D01*
G01X165500Y-174200D02*
X161800D01*
Y-169200D01*
X165500D01*
G01X161800Y-171700D02*
X164300D01*
G01X156500Y-169200D02*
X158400D01*
Y-174200D01*
G01X155500Y-172300D02*
X151800D01*
G01Y-174200D02*
Y-170400D01*
X153100Y-169200D01*
X154300D01*
X155500Y-170400D01*
Y-174200D01*
G01X151800D02*
Y-170400D01*
X153100Y-169200D01*
X154300D01*
X155500Y-170400D01*
Y-174200D01*
G01Y-172300D02*
X151800D01*
G01X156500Y-169200D02*
X158400D01*
Y-174200D01*
G01X161800Y-171700D02*
X164300D01*
G01X165500Y-174200D02*
X161800D01*
Y-169200D01*
X165500D01*
G01X160300D02*
X158400D01*
G01X184400Y-149200D02*
X186900D01*
X188100Y-147900D01*
Y-145400D01*
X186900Y-144200D01*
X184400D01*
Y-149200D01*
G01X189400Y-146700D02*
X191900D01*
G01X193100Y-149200D02*
X189400D01*
Y-144200D01*
X193100D01*
G01Y-149200D02*
X189400D01*
Y-144200D01*
X193100D01*
G01X189400Y-146700D02*
X191900D01*
G01X184400Y-149200D02*
X186900D01*
X188100Y-147900D01*
Y-145400D01*
X186900Y-144200D01*
X184400D01*
Y-149200D01*
G01X194400Y-148500D02*
X195000Y-149200D01*
X197500D01*
X198100Y-148500D01*
Y-147300D01*
X197500Y-146700D01*
X195000D01*
X194400Y-146100D01*
Y-144800D01*
X195000Y-144200D01*
X197500D01*
X198100Y-144800D01*
G01X203100Y-145400D02*
Y-144800D01*
X202500Y-144200D01*
X200000D01*
X199400Y-144800D01*
Y-148500D01*
X200000Y-149200D01*
X202500D01*
X203100Y-148500D01*
Y-147900D01*
G01Y-145400D02*
Y-144800D01*
X202500Y-144200D01*
X200000D01*
X199400Y-144800D01*
Y-148500D01*
X200000Y-149200D01*
X202500D01*
X203100Y-148500D01*
Y-147900D01*
G01X194400Y-148500D02*
X195000Y-149200D01*
X197500D01*
X198100Y-148500D01*
Y-147300D01*
X197500Y-146700D01*
X195000D01*
X194400Y-146100D01*
Y-144800D01*
X195000Y-144200D01*
X197500D01*
X198100Y-144800D01*
G01X209400Y-149200D02*
X213100D01*
G01X214400D02*
Y-144200D01*
X217500D01*
X218100Y-144800D01*
Y-146100D01*
X217500Y-146700D01*
X214400D01*
G01X213100Y-144200D02*
X209400D01*
G01X211300D02*
Y-149200D01*
G01X204400Y-146700D02*
X207500D01*
X208100Y-146100D01*
Y-144800D01*
X207500Y-144200D01*
X204400D01*
Y-149200D01*
G01X205700Y-146700D02*
X208100Y-149200D01*
G01X205700Y-146700D02*
X208100Y-149200D01*
G01X204400Y-146700D02*
X207500D01*
X208100Y-146100D01*
Y-144800D01*
X207500Y-144200D01*
X204400D01*
Y-149200D01*
G01X211300Y-144200D02*
Y-149200D01*
G01X213100Y-144200D02*
X209400D01*
G01X214400Y-149200D02*
Y-144200D01*
X217500D01*
X218100Y-144800D01*
Y-146100D01*
X217500Y-146700D01*
X214400D01*
G01X209400Y-149200D02*
X213100D01*
G01X225889Y-174285D02*
Y-169285D01*
X228989D01*
X229589Y-169885D01*
Y-171185D01*
X228989Y-171785D01*
X225889D01*
G01Y-174285D02*
Y-169285D01*
X228989D01*
X229589Y-169885D01*
Y-171185D01*
X228989Y-171785D01*
X225889D01*
G01X219400Y-144200D02*
X221300D01*
Y-149200D01*
G01X224400D02*
X228100D01*
G01X229400Y-148500D02*
X230000Y-149200D01*
X232500D01*
X233100Y-148500D01*
Y-144800D01*
X232500Y-144200D01*
X230000D01*
X229400Y-144800D01*
Y-148500D01*
G01X226300Y-149200D02*
Y-144200D01*
G01X228100D02*
X224400D01*
G01X223200D02*
X221300D01*
G01X223200D02*
X221300D01*
G01X228100D02*
X224400D01*
G01X226300Y-149200D02*
Y-144200D01*
G01X229400Y-148500D02*
X230000Y-149200D01*
X232500D01*
X233100Y-148500D01*
Y-144800D01*
X232500Y-144200D01*
X230000D01*
X229400Y-144800D01*
Y-148500D01*
G01X224400Y-149200D02*
X228100D01*
G01X219400Y-144200D02*
X221300D01*
Y-149200D01*
G01X231400Y-171800D02*
X234500D01*
X235100Y-171200D01*
Y-169900D01*
X234500Y-169300D01*
X231400D01*
Y-174300D01*
G01X232700Y-171800D02*
X235100Y-174300D01*
G01X245500Y-172800D02*
X241700D01*
G01X245500Y-170900D02*
X241700D01*
G01X243000Y-170000D02*
Y-173800D01*
G01X240200Y-169300D02*
Y-173000D01*
X239000Y-174300D01*
X237700D01*
X236500Y-173000D01*
G01X240200Y-169300D02*
Y-173000D01*
X239000Y-174300D01*
X237700D01*
X236500Y-173000D01*
G01X243000Y-170000D02*
Y-173800D01*
G01X245500Y-170900D02*
X241700D01*
G01X245500Y-172800D02*
X241700D01*
G01X232700Y-171800D02*
X235100Y-174300D01*
G01X231400Y-171800D02*
X234500D01*
X235100Y-171200D01*
Y-169900D01*
X234500Y-169300D01*
X231400D01*
Y-174300D01*
G01X238100Y-149200D02*
Y-144200D01*
G01X234400D02*
Y-149200D01*
G01Y-144800D02*
X238100Y-148500D01*
G01X234400Y-144800D02*
X238100Y-148500D01*
G01X234400Y-144200D02*
Y-149200D01*
G01X238100D02*
Y-144200D01*
G01X244200Y-170000D02*
Y-173800D01*
G01Y-170000D02*
Y-173800D01*
G01X329400Y-169200D02*
Y-174200D01*
G01Y-171700D02*
X333100D01*
G01Y-174200D02*
Y-169200D01*
G01X324400Y-173500D02*
X325000Y-174200D01*
X327500D01*
X328100Y-173500D01*
Y-172300D01*
X327500Y-171700D01*
X325000D01*
X324400Y-171100D01*
Y-169800D01*
X325000Y-169200D01*
X327500D01*
X328100Y-169800D01*
G01X324400Y-173500D02*
X325000Y-174200D01*
X327500D01*
X328100Y-173500D01*
Y-172300D01*
X327500Y-171700D01*
X325000D01*
X324400Y-171100D01*
Y-169800D01*
X325000Y-169200D01*
X327500D01*
X328100Y-169800D01*
G01X333100Y-174200D02*
Y-169200D01*
G01X329400Y-171700D02*
X333100D01*
G01X329400Y-169200D02*
Y-174200D01*
G01X369400D02*
Y-169200D01*
X373100D01*
G01X371900Y-171700D02*
X369400D01*
G01X364400Y-173500D02*
X365000Y-174200D01*
X367500D01*
X368100Y-173500D01*
Y-169800D01*
X367500Y-169200D01*
X365000D01*
X364400Y-169800D01*
Y-173500D01*
G01D02*
X365000Y-174200D01*
X367500D01*
X368100Y-173500D01*
Y-169800D01*
X367500Y-169200D01*
X365000D01*
X364400Y-169800D01*
Y-173500D01*
G01X371900Y-171700D02*
X369400D01*
G01Y-174200D02*
Y-169200D01*
X373100D01*
G54D15*
X41000Y53200D03*
G54D25*
G01X121347Y147747D02*
X123044D01*
X124122Y146670D01*
Y146547D01*
X124497Y146172D01*
G01X118198Y147747D02*
X121347D01*
G01X118400Y154000D02*
X117590Y153190D01*
X114107D01*
X113389Y152472D01*
X111899D01*
G01X115048Y147747D02*
Y147912D01*
X114013Y148947D01*
X112976D01*
X112273Y148244D01*
Y148122D01*
X111899Y147747D01*
G01X117300Y157100D02*
Y157780D01*
X116623Y158457D01*
Y160346D01*
G01X111899D02*
X116623D01*
G01X124497Y149322D02*
Y151022D01*
X125573Y152098D01*
X125698D01*
X126072Y152472D01*
G01X124497Y146172D02*
Y149322D01*
G54D16*
X54750Y28200D03*
X271000Y48200D03*
G54D26*
G01X101400Y94750D02*
X104280Y97630D01*
Y106800D01*
X102270Y108810D01*
X92910D01*
X78850Y94750D01*
X45250D01*
X41700Y98300D01*
Y160000D01*
X36610Y165090D01*
X34810D01*
X30400Y169500D01*
G01X99010Y115170D02*
X96230Y112390D01*
X94990D01*
X78700Y96100D01*
X45700D01*
X42800Y99000D01*
Y169770D01*
X63000Y189970D01*
X73200D01*
X76870Y193640D01*
X94840D01*
X98700Y197500D01*
G01X96490Y115900D02*
X77690Y97100D01*
X47100D01*
X43900Y100300D01*
Y168840D01*
X63750Y188690D01*
X73830D01*
X77710Y192570D01*
X100240D01*
X103070Y195400D01*
Y200790D01*
X101570Y202290D01*
X93910D01*
X88700Y207500D01*
G01X113400Y176100D02*
Y176580D01*
X114370Y177550D01*
Y178682D01*
X114420Y178732D01*
Y183880D01*
X107400Y190900D01*
X78680D01*
X71680Y183900D01*
X69280Y181500D01*
X64900D01*
X54800Y171400D01*
Y133100D01*
X64300Y123600D01*
Y113600D01*
X62450Y111750D01*
G01X112150Y184200D02*
X106420Y189930D01*
X79536D01*
X70046Y180440D01*
X65840D01*
X55900Y170500D01*
Y133800D01*
X65400Y124300D01*
Y111800D01*
X62500Y108900D01*
G01X109680Y184140D02*
X104860Y188960D01*
X79938D01*
X70448Y179470D01*
X66870D01*
X56900Y169500D01*
Y134400D01*
X66500Y124800D01*
Y110100D01*
X62450Y106050D01*
G01X69900Y110100D02*
X71000Y111200D01*
X72600D01*
X73500Y110300D01*
Y105120D01*
X74020Y104600D01*
X76580D01*
X77100Y105120D01*
Y117900D01*
X78000Y118800D01*
X80300D01*
X81800Y120300D01*
Y129900D01*
X82600Y130700D01*
Y145756D01*
X80066Y148290D01*
X78920D01*
X78400Y148810D01*
Y154370D01*
X78920Y154890D01*
X86569D01*
X88640Y156961D01*
Y158281D01*
X88500Y158421D01*
Y162400D01*
G01X95200Y181300D02*
X94870Y181630D01*
X85017D01*
X75740Y172353D01*
Y167353D01*
X73260Y164873D01*
X72447Y164060D01*
X69075D01*
X68265Y163250D01*
X67150D01*
X65040Y161140D01*
Y127660D01*
X67500Y125200D01*
Y109900D01*
X70500Y106900D01*
G01X69300Y122500D02*
X71000D01*
X72900Y124400D01*
Y126200D01*
X74200Y127500D01*
X78014D01*
X79614Y129100D01*
G01X63500Y134500D02*
Y133000D01*
X63100Y132600D01*
X62520D01*
X62000Y133120D01*
Y137000D01*
X64070Y139070D01*
Y162070D01*
X66220Y164220D01*
X67864D01*
X68674Y165030D01*
X72045D01*
X74770Y167755D01*
Y172755D01*
X75338Y173323D01*
X84615Y182600D01*
X97430D01*
X97950Y182080D01*
Y178075D01*
X97960D01*
G01X68400Y137700D02*
X67938D01*
X67218Y138420D01*
Y140618D01*
X67900Y141300D01*
Y142100D01*
X66980Y143020D01*
Y159080D01*
X70020Y162120D01*
X73251D01*
X73771Y162640D01*
X77146D01*
X78060Y163554D01*
Y171760D01*
X85990Y179690D01*
X93638D01*
X94300Y179028D01*
Y178020D01*
X93780Y177500D01*
X90759D01*
X87340Y174081D01*
Y171960D01*
X88500Y170800D01*
G01X79700Y131500D02*
X73400D01*
X69700Y127800D01*
G01X66300Y129200D02*
X68600D01*
X75703Y136303D01*
X80096D01*
G01X80200Y138300D02*
X79800Y137900D01*
X70800D01*
X66800Y133900D01*
Y133000D01*
G01X81120Y160679D02*
Y159620D01*
X80700Y159200D01*
X80000D01*
X75900Y155100D01*
Y153400D01*
X72200Y149700D01*
Y139900D01*
X71400Y139100D01*
X69900D01*
G01X99400Y176100D02*
Y183050D01*
X98880Y183570D01*
X84070D01*
X73800Y173300D01*
Y168156D01*
X71644Y166000D01*
X68272D01*
X67462Y165190D01*
X65590D01*
X63100Y162700D01*
Y139700D01*
X60900Y137500D01*
Y132600D01*
X62200Y131300D01*
X63400D01*
G01X88500Y173600D02*
X91300Y176400D01*
X96200D01*
X96800Y177000D01*
Y177859D01*
X96790Y177869D01*
Y179040D01*
X96130Y179700D01*
X95000D01*
X94040Y180660D01*
X85560D01*
X76710Y171810D01*
Y166951D01*
X73662Y163903D01*
X72849Y163090D01*
X69477D01*
X68667Y162280D01*
X68580D01*
X66010Y159710D01*
Y137190D01*
X66726Y136474D01*
X66774D01*
G01X68140Y143600D02*
X68100Y143640D01*
Y157300D01*
X68532Y157732D01*
X69732D01*
X70100Y158100D01*
Y158565D01*
X69400Y159265D01*
Y160000D01*
X69900Y160500D01*
X70700D01*
X71382Y159818D01*
X72118D01*
X72500Y160200D01*
Y160700D01*
X72950Y161150D01*
X73653D01*
X73685Y161182D01*
X73718D01*
X74200Y160700D01*
Y160188D01*
X74726Y159662D01*
X75462D01*
X75900Y160100D01*
Y161200D01*
X76300Y161600D01*
X77653D01*
X79030Y162977D01*
Y171358D01*
X84034Y176362D01*
X84484D01*
X85212Y175634D01*
X85634D01*
X85933Y175933D01*
Y176356D01*
X85265Y177024D01*
Y177593D01*
X85672Y178000D01*
X86000D01*
X86495Y177505D01*
X87230D01*
X88445Y178720D01*
X89180D01*
X89560Y178340D01*
Y177672D01*
X86370Y174482D01*
Y171030D01*
X87300Y170100D01*
Y168040D01*
X86760Y167500D01*
X86200D01*
X85970Y167730D01*
Y168540D01*
G01X61880Y149480D02*
Y163280D01*
X64760Y166160D01*
X67060D01*
X68200Y167300D01*
X71572D01*
X72830Y168558D01*
Y173758D01*
X83612Y184540D01*
X100458D01*
X102410Y182588D01*
Y172831D01*
X104041Y171200D01*
X105883D01*
X106403Y171720D01*
Y173797D01*
X105000Y175200D01*
Y176100D01*
G01X88500Y165200D02*
X86400D01*
X85800Y164600D01*
Y157492D01*
X85138Y156830D01*
X82800D01*
X82280Y157350D01*
Y167862D01*
X84430Y170012D01*
Y172105D01*
X83910Y172625D01*
X83125D01*
X82700Y172200D01*
Y170530D01*
X80970Y168800D01*
Y162173D01*
X75810Y157013D01*
Y156486D01*
X74500Y155176D01*
Y153400D01*
X70900Y149800D01*
X70300D01*
X69500Y149000D01*
Y147800D01*
X71100Y146200D01*
Y141292D01*
X70580Y140772D01*
X69485D01*
X68964Y141292D01*
Y142671D01*
X69500Y143206D01*
Y145100D01*
G01X61940Y142700D02*
X62130D01*
Y142668D01*
X61532D01*
X60600Y143600D01*
Y163800D01*
X63930Y167130D01*
X66530D01*
X67700Y168300D01*
X71200D01*
X71860Y168960D01*
Y174160D01*
X83210Y185510D01*
X100860D01*
X105190Y181180D01*
Y178750D01*
X105710Y178230D01*
X105882D01*
X107800Y176312D01*
Y176100D01*
G01X61900Y140700D02*
X61896D01*
X59600Y142996D01*
Y164700D01*
X63000Y168100D01*
X66000D01*
X69700Y171800D01*
Y173440D01*
X82740Y186480D01*
X101620D01*
X106400Y181700D01*
G01X61900Y140700D02*
G01X58400Y155000D02*
Y165800D01*
X67190Y174590D01*
X69478D01*
X82878Y187990D01*
X102910D01*
X109200Y181700D01*
G01X82500Y118700D02*
X83700Y117500D01*
Y114061D01*
X83401Y113762D01*
X79799D01*
X79500Y113464D01*
Y113041D01*
X79799Y112742D01*
X83401D01*
X83700Y112444D01*
Y110320D01*
X84482Y109538D01*
X85218D01*
X89630Y113950D01*
Y127570D01*
X89020Y128180D01*
X86642D01*
X84600Y130222D01*
Y146500D01*
X81000Y150100D01*
Y152430D01*
X81520Y152950D01*
X87911D01*
X90050Y155089D01*
Y158242D01*
X89540Y158752D01*
Y160080D01*
X90220Y160760D01*
X102713D01*
X104100Y159374D01*
G01X88890Y155570D02*
X87240Y153920D01*
X80510D01*
X79700Y153110D01*
Y150028D01*
X83600Y146128D01*
Y129900D01*
X83630Y129870D01*
Y129820D01*
X84600Y128850D01*
Y127720D01*
X85120Y127200D01*
X88080D01*
X88660Y126620D01*
Y114460D01*
X86218Y112018D01*
X85220D01*
X84700Y112538D01*
Y120200D01*
X82840Y122060D01*
Y128275D01*
X83100Y128535D01*
G01X80540Y127200D02*
X80800Y127460D01*
Y130500D01*
X81630Y131330D01*
Y142900D01*
X80660Y143870D01*
Y146140D01*
X80020Y146780D01*
X78860D01*
X78340Y146260D01*
Y141314D01*
X78455Y141198D01*
Y140420D01*
X77935Y139900D01*
X77200D01*
X76751Y140349D01*
Y148967D01*
X76412Y149306D01*
X75470D01*
X74950Y148786D01*
Y147688D01*
X74975Y147662D01*
Y139920D01*
X74455Y139400D01*
X73720D01*
X73200Y139920D01*
Y149300D01*
X77200Y153300D01*
Y154800D01*
X78260Y155860D01*
X85540D01*
X87480Y157800D01*
G01X94100Y158200D02*
X95621Y156679D01*
Y154179D01*
X92380Y150938D01*
Y148880D01*
X89200Y145700D01*
X88200D01*
X86300Y147600D01*
Y151450D01*
X85770Y151980D01*
X84276D01*
X83526Y151230D01*
Y149074D01*
X85800Y146800D01*
Y134691D01*
X85788D01*
G01X88500Y168000D02*
Y167070D01*
X87830Y166400D01*
X85210D01*
X84690Y165880D01*
Y158137D01*
X84353Y157800D01*
X83617D01*
X83250Y158168D01*
Y167460D01*
X85400Y169611D01*
Y173780D01*
X84880Y174300D01*
X83400D01*
X80000Y170900D01*
Y162575D01*
X74840Y157415D01*
Y156888D01*
X73150Y155198D01*
Y154250D01*
G01X84750Y34450D02*
X90630Y28570D01*
X97500D01*
X101480Y32550D01*
Y48010D01*
X94800Y54690D01*
Y58850D01*
G01X96000Y34450D02*
X89750Y40700D01*
Y58850D01*
G01X105570Y155370D02*
X104646D01*
X104436Y155580D01*
G01X104310D02*
X101460D01*
X100770Y154890D01*
X97704D01*
X93350Y150536D01*
Y148458D01*
X89000Y144108D01*
Y130000D01*
X90600Y128400D01*
Y112630D01*
X87770Y109800D01*
G01X105270Y148856D02*
X99466Y143051D01*
Y136221D01*
X99707Y135979D01*
Y134687D01*
X96550Y131530D01*
X96104D01*
X95100Y130526D01*
Y127400D01*
X96500Y126000D01*
X96600D01*
G01X92780Y120116D02*
X92800D01*
Y120100D01*
X95406D01*
X101540Y126234D01*
Y129248D01*
X101647Y129355D01*
Y136783D01*
X101406Y137024D01*
Y141551D01*
X104100Y144246D01*
G01X94800Y118480D02*
X105898D01*
X108030Y120612D01*
Y129652D01*
X106590Y131092D01*
Y137510D01*
X108690Y139610D01*
Y140000D01*
G01X110324Y154046D02*
X104664D01*
X104100Y154610D01*
X101862D01*
X96192Y148940D01*
X95204D01*
X90000Y143736D01*
Y133064D01*
X91820Y131244D01*
Y129410D01*
X92100Y129130D01*
Y129115D01*
X92015D01*
X92000Y129100D01*
Y129120D01*
G01X93477Y134464D02*
X93500D01*
Y134500D01*
X93200D01*
X91043Y136657D01*
Y140367D01*
X95170Y144494D01*
Y145190D01*
X103430Y153450D01*
G01X94900Y136640D02*
X97110Y138850D01*
Y144031D01*
X103800Y150720D01*
X104100D01*
G01X96750Y129970D02*
X100677Y133897D01*
Y136381D01*
X100436Y136623D01*
Y142466D01*
X106430Y148460D01*
G01X105390Y151820D02*
X103528D01*
X96140Y144432D01*
Y143562D01*
X92600Y140022D01*
Y138430D01*
X92603Y138427D01*
G01X106110Y159340D02*
X105560D01*
X102500Y162400D01*
X90700D01*
G01X108749Y161920D02*
X106680D01*
X104100Y164500D01*
X96816D01*
X96166Y165150D01*
X93550D01*
X90700Y168000D01*
G01Y170800D02*
X91888D01*
X96988Y165700D01*
X104600D01*
X106800Y163500D01*
G01X90700Y159600D02*
X102178D01*
X103860Y157919D01*
X104100D01*
G01X109768Y156640D02*
X109409D01*
X109349Y156580D01*
X104546D01*
X104486Y156640D01*
X103766D01*
X102206Y158200D01*
X96300D01*
G01X108749Y160346D02*
X107954D01*
X107500Y160800D01*
X106000D01*
X103300Y163500D01*
X96444D01*
X95764Y164180D01*
X91720D01*
X90700Y165200D01*
G01X104100Y166900D02*
X98000D01*
X91300Y173600D01*
X90700D01*
G01X223150Y23750D02*
X224000Y22900D01*
Y14300D01*
X221900Y12200D01*
X135100D01*
X132460Y9560D01*
Y5942D01*
X130258Y3740D01*
X102460D01*
X98700Y7500D01*
G01X104600Y36000D02*
Y56600D01*
X101800Y59400D01*
Y71600D01*
X98190Y75210D01*
Y80990D01*
X101400Y84200D01*
Y94750D01*
G01X118700Y7500D02*
X113980Y12220D01*
Y54460D01*
X109640Y58800D01*
Y68560D01*
X99750Y78450D01*
G01X104800D02*
X112390Y70860D01*
Y59850D01*
X118700Y53540D01*
Y17500D01*
G01X109442Y108492D02*
Y88142D01*
X99750Y78450D01*
G01X115048Y146172D02*
Y143502D01*
X116300Y142250D01*
Y132176D01*
X118780Y129696D01*
Y120140D01*
X117390Y118750D01*
Y106382D01*
X112780Y101772D01*
Y86430D01*
X104800Y78450D01*
G01X104750Y111550D02*
X107390Y114190D01*
Y117110D01*
X109000Y118720D01*
Y131334D01*
X110270Y132604D01*
Y140476D01*
X110600Y140806D01*
G01X107091Y110013D02*
Y110081D01*
X109764Y112754D01*
Y117463D01*
X109930Y117678D01*
X109970Y117718D01*
Y130932D01*
X111240Y132202D01*
Y140074D01*
X111710Y140544D01*
Y142670D01*
G01X99930Y122370D02*
X102510Y124950D01*
Y128846D01*
X102617Y128953D01*
Y137185D01*
X102376Y137426D01*
Y140966D01*
X106490Y145080D01*
G01X102192Y120719D02*
X105800Y124328D01*
Y129020D01*
X104557Y130263D01*
Y139048D01*
X105509Y140000D01*
G01X106452Y121240D02*
X106950Y121738D01*
Y129360D01*
X105527Y130783D01*
Y138217D01*
X107310Y140000D01*
G01X98147Y135333D02*
Y143427D01*
X104220Y149500D01*
G01X103346Y140099D02*
Y137828D01*
X103587Y137587D01*
Y128726D01*
X104092Y128221D01*
G01X106034Y149620D02*
X105949D01*
X105270Y148941D01*
Y148856D01*
G01X110324Y150897D02*
X107311D01*
X106034Y149620D01*
G01X100800Y179500D02*
Y173019D01*
X105819Y168000D01*
G01X107604D02*
Y174596D01*
X106640Y175560D01*
Y176101D01*
X105481Y177260D01*
X105308D01*
X104220Y178348D01*
Y178880D01*
X103600Y179500D01*
G01X109200D02*
X110630Y180930D01*
X112880D01*
X113450Y180360D01*
Y179134D01*
X113400Y179084D01*
Y178100D01*
X112240Y176940D01*
Y173419D01*
X113250Y172409D01*
Y168000D01*
G01X110984D02*
Y171932D01*
X109170Y173746D01*
Y176730D01*
X106400Y179500D01*
G01X182600Y38700D02*
Y45700D01*
X172800Y55500D01*
X136700D01*
X123500Y68700D01*
Y110100D01*
X122630Y110970D01*
Y113421D01*
X122770Y113560D01*
Y128451D01*
X119370Y131850D01*
Y136600D01*
G01X119330Y88790D02*
X113750Y94370D01*
Y99740D01*
X118360Y104350D01*
Y117470D01*
X120060Y119170D01*
Y126400D01*
G01X115310Y98070D02*
X119330Y102090D01*
Y105494D01*
X121960Y108124D01*
Y109416D01*
X119649Y111727D01*
Y115626D01*
X121220Y117197D01*
Y128628D01*
X117470Y132378D01*
Y140000D01*
G01X115490Y108750D02*
Y119340D01*
X113840Y120990D01*
Y123781D01*
X114060Y124001D01*
Y127530D01*
X113180Y128410D01*
Y139238D01*
X113942Y140000D01*
G01X112538D02*
X112210Y139672D01*
Y131800D01*
X110940Y130530D01*
Y117316D01*
X110900Y117276D01*
Y112290D01*
X112790Y110400D01*
G01X115000Y123300D02*
X115176D01*
X117810Y125934D01*
Y129295D01*
X115040Y132065D01*
Y135600D01*
G01X127280Y90250D02*
X126106Y91424D01*
Y109708D01*
X127610Y111212D01*
Y114486D01*
X123740Y118356D01*
Y129050D01*
X120530Y132260D01*
Y135554D01*
X120930Y135954D01*
Y137246D01*
X119680Y138496D01*
Y139690D01*
G01X121890Y140000D02*
Y139030D01*
X122870Y138050D01*
Y131546D01*
X124710Y129706D01*
Y119200D01*
X127770Y116140D01*
G01X119370Y136600D02*
X118520Y137450D01*
Y140999D01*
X118630Y141109D01*
Y142660D01*
X116623Y144667D01*
Y146172D01*
G01X132450Y115590D02*
X125680Y122360D01*
Y130108D01*
X123840Y131948D01*
Y138452D01*
X123040Y139252D01*
Y140000D01*
G01X120720Y141380D02*
Y140291D01*
X120840Y140171D01*
Y138708D01*
X121900Y137648D01*
Y134000D01*
X121690Y133790D01*
G01X158700Y207500D02*
X153310Y202110D01*
Y193870D01*
X150250Y190810D01*
X145890D01*
X134310Y179230D01*
Y176030D01*
X132840Y174560D01*
X131354D01*
X129144Y172350D01*
X128660D01*
X124710Y168400D01*
Y168000D01*
G01X121347Y146172D02*
Y145164D01*
X124010Y142501D01*
Y139654D01*
X124810Y138854D01*
Y132350D01*
X126840Y130320D01*
Y125990D01*
G01X130770Y126300D02*
Y133161D01*
X126770Y137161D01*
Y140000D01*
G01X121920Y168000D02*
Y173820D01*
X124460Y176360D01*
Y184460D01*
X125300Y185300D01*
G01X112200Y179500D02*
X111970Y179470D01*
X111270Y178770D01*
Y173018D01*
X112280Y172008D01*
Y166720D01*
X113100Y165900D01*
G01X114220Y168000D02*
Y173080D01*
X113400Y173900D01*
G01X118198Y161920D02*
Y165308D01*
X118580Y165690D01*
Y175100D01*
X119660Y176180D01*
Y178660D01*
X121300Y180300D01*
G01X138500Y177000D02*
Y174800D01*
X133870Y170170D01*
X129799D01*
X127629Y168000D01*
G01X120880D02*
Y174656D01*
X121600Y175376D01*
Y176100D01*
X123300Y177800D01*
G01X123384Y168000D02*
X123540Y168157D01*
Y172660D01*
X125050Y174170D01*
X129440D01*
X130160Y174890D01*
Y182010D01*
X143170Y195020D01*
Y209370D01*
X145540Y211740D01*
X189778D01*
X192460Y209058D01*
Y209030D01*
X193390Y208100D01*
Y191250D01*
X199750Y184890D01*
X222176D01*
X224450Y182616D01*
Y181920D01*
X226250Y180120D01*
G01X129000Y175450D02*
Y183241D01*
X125781Y186460D01*
X124530D01*
X120460Y182390D01*
Y182319D01*
X118690Y180549D01*
Y176582D01*
X117610Y175502D01*
Y166540D01*
X117140Y166070D01*
G01X116500Y177800D02*
X116640Y177660D01*
Y168000D01*
G01X119773Y167277D02*
X119770Y167280D01*
Y174918D01*
X120630Y175778D01*
Y177989D01*
X122460Y179819D01*
Y181960D01*
X123300Y182800D01*
G01X119300D02*
X116623Y180123D01*
Y179564D01*
X115340Y178281D01*
Y167903D01*
X115408Y167835D01*
G01X198011Y35441D02*
X191270Y28700D01*
X170500D01*
X167700Y31500D01*
X150500D01*
X147500Y34500D01*
X130000D01*
G01X123790Y112940D02*
X124820Y111910D01*
Y88920D01*
X130640Y83100D01*
X202300D01*
X204400Y81000D01*
X210460D01*
X211720Y82260D01*
X228860D01*
X229900Y83300D01*
X236500D01*
X236900Y82900D01*
X243300D01*
X243940Y82260D01*
X248280D01*
X249450Y81090D01*
Y80250D01*
G01X125250Y141690D02*
Y140000D01*
X125780Y139470D01*
Y133040D01*
X128030Y130790D01*
Y122350D01*
X133610Y116770D01*
Y115109D01*
X127500Y108999D01*
Y92236D01*
X128840Y90896D01*
Y87820D01*
X131360Y85300D01*
X195700D01*
X196300Y84700D01*
X204230D01*
X206190Y82740D01*
G01X131600Y86700D02*
Y88559D01*
X131760Y88719D01*
Y89681D01*
X131100Y90341D01*
Y91400D01*
X129440Y93060D01*
Y107790D01*
X135550Y113900D01*
Y119150D01*
X132100Y122600D01*
Y133202D01*
X128060Y137242D01*
Y137760D01*
G01X251025Y81825D02*
X249650Y83200D01*
X244600D01*
X241700Y86100D01*
X225850D01*
X224890Y85140D01*
X209960D01*
X204500Y90600D01*
X197800D01*
X195300Y88100D01*
X134874D01*
X132611Y90363D01*
Y102211D01*
X136710Y106310D01*
Y121580D01*
X133690Y124600D01*
Y126260D01*
G01X130600Y89200D02*
X129810Y89990D01*
Y91298D01*
X128470Y92638D01*
Y108270D01*
X134580Y114380D01*
Y117920D01*
X129000Y123500D01*
Y131600D01*
X127590Y133010D01*
Y134700D01*
G01X135150Y90030D02*
X192930D01*
X196650Y93750D01*
X214550D01*
G01X133690Y126260D02*
X139860D01*
X142220Y123900D01*
X237000D01*
X238000Y122900D01*
Y108400D01*
X236400Y106800D01*
X232300D01*
X231500Y107600D01*
Y112100D01*
X230900Y112700D01*
X229050D01*
X228510Y112160D01*
Y108035D01*
X226925Y106450D01*
X211250D01*
G01X132652Y145136D02*
Y141136D01*
X133183Y140605D01*
X133924D01*
X134452Y141132D01*
Y143005D01*
X134852Y143405D01*
X135866D01*
X136452Y142819D01*
Y139990D01*
X137037Y139405D01*
X137866D01*
X138452Y139990D01*
Y142819D01*
X139037Y143405D01*
X139866D01*
X140452Y142819D01*
Y139990D01*
X141037Y139405D01*
X141866D01*
X142452Y139990D01*
Y142819D01*
X143037Y143405D01*
X143866D01*
X144452Y142819D01*
Y139990D01*
X145037Y139405D01*
X145866D01*
X146452Y139990D01*
Y142819D01*
X147037Y143405D01*
X147866D01*
X148452Y142819D01*
Y139990D01*
X149037Y139405D01*
X149866D01*
X150452Y139990D01*
Y142205D01*
X151252Y143005D01*
X156870D01*
G01Y137405D02*
X156606Y137140D01*
X133888D01*
X129900Y141128D01*
Y145156D01*
G01X128645Y144599D02*
Y141011D01*
X135052Y134605D01*
X156870D01*
G01X130852Y141548D02*
X134195Y138205D01*
X151252D01*
X153652Y140605D01*
X156470D01*
X156870Y140205D01*
G01Y131805D02*
X136480D01*
X127720Y140564D01*
Y142403D01*
X126585Y143538D01*
G01X130852Y154687D02*
X132452D01*
X137334Y149805D01*
X154852D01*
X155652Y150605D01*
X156870D01*
G01X164470Y144605D02*
X135485D01*
X131252Y148838D01*
X130166D01*
X130106Y148898D01*
X129500D01*
X129074Y149324D01*
G01X132000Y149800D02*
X136070Y145805D01*
X162852D01*
X164452Y147405D01*
X164470D01*
G01X130600Y151000D02*
X132433D01*
X136028Y147405D01*
X156870D01*
G01X127647Y152472D02*
X127648Y152473D01*
X132852D01*
X136720Y148605D01*
X156052D01*
X156852Y149405D01*
X161652D01*
X162852Y150605D01*
X164470D01*
G01X126070Y168000D02*
X129210Y171140D01*
X132890D01*
X136730Y174980D01*
Y177410D01*
X142790Y183470D01*
X218650D01*
X223770Y178350D01*
G01X134069Y155700D02*
X134452Y155318D01*
Y154273D01*
X134920Y153805D01*
X135583D01*
X136052Y154273D01*
Y155005D01*
X136452Y155405D01*
X137252D01*
X137652Y155005D01*
Y151473D01*
X138120Y151005D01*
X138783D01*
X139252Y151473D01*
Y155005D01*
X139652Y155405D01*
X140452D01*
X140852Y155005D01*
Y151405D01*
X141252Y151005D01*
X142052D01*
X142452Y151405D01*
Y155005D01*
X142852Y155405D01*
X143652D01*
X144052Y155005D01*
Y151405D01*
X144452Y151005D01*
X145252D01*
X145652Y151405D01*
Y154205D01*
X146052Y154605D01*
X146852D01*
X147252Y154205D01*
Y151200D01*
X147652Y150800D01*
X148452D01*
X148852Y151200D01*
Y153005D01*
X149252Y153405D01*
X150052D01*
X150452Y153005D01*
Y151405D01*
X150852Y151005D01*
X153252D01*
X154252Y152005D01*
X161052D01*
X162452Y153405D01*
X164470D01*
G01X132052Y164605D02*
X146852D01*
X148852Y162605D01*
X149670D01*
G01X132000Y159800D02*
X148700D01*
X149495Y159005D01*
X156870D01*
G01X127110Y166089D02*
X130221Y169200D01*
X136500D01*
X136930Y169630D01*
X144830D01*
X148205Y173005D01*
X156952D01*
G01X132000Y157687D02*
X147252D01*
X148734Y156205D01*
X156870D01*
G01X131043Y158772D02*
X148128D01*
X149496Y157405D01*
X160452D01*
X162052Y159005D01*
X164470D01*
G01Y161805D02*
X161652D01*
X160347Y160500D01*
X157686D01*
X157386Y160800D01*
X147856D01*
X147252Y161405D01*
Y162605D01*
X146452Y163405D01*
X145652D01*
X145252Y163005D01*
Y161405D01*
X144852Y161005D01*
X143652D01*
X143252Y161405D01*
Y163005D01*
X142852Y163405D01*
X141652D01*
X141300Y163053D01*
Y161453D01*
X140900Y161053D01*
X139603D01*
X139252Y161405D01*
Y162819D01*
X138666Y163405D01*
X137837D01*
X137252Y162819D01*
Y161405D01*
X136852Y161005D01*
X135652D01*
X135252Y161405D01*
Y162819D01*
X134666Y163405D01*
X133837D01*
X133252Y162819D01*
Y161405D01*
X132852Y161005D01*
G01X127647Y163495D02*
X131411Y167260D01*
X137304D01*
X137448Y167405D01*
X156870D01*
G01X149670Y168605D02*
X137276D01*
X136902Y168230D01*
X130741D01*
X126487Y163976D01*
Y163910D01*
X126072Y163495D01*
G01X131605Y165805D02*
X149670D01*
G01X131900Y156700D02*
X146338D01*
X148434Y154605D01*
X160505D01*
X162105Y156205D01*
X164470D01*
G01X138650Y118950D02*
X143650D01*
X145400Y117200D01*
Y93700D01*
X146800Y92300D01*
X169022D01*
X169760Y93038D01*
Y93862D01*
X169022Y94600D01*
X149838D01*
X149100Y95338D01*
Y96162D01*
X149838Y96900D01*
X169022D01*
X169760Y97638D01*
Y106662D01*
X170498Y107400D01*
X171542D01*
X172280Y106662D01*
Y95338D01*
X173018Y94600D01*
X174062D01*
X174800Y95338D01*
Y106662D01*
X175538Y107400D01*
X176582D01*
X177320Y106662D01*
Y96020D01*
X178740Y94600D01*
X180611D01*
X181349Y95338D01*
Y97262D01*
X182087Y98000D01*
X183131D01*
X183869Y97262D01*
Y95338D01*
X184607Y94600D01*
X187400D01*
X194300Y101500D01*
X199200D01*
G01X138650Y118950D02*
Y120850D01*
X139500Y121700D01*
X190700D01*
X195460Y116940D01*
Y107280D01*
X198890Y103850D01*
X213950D01*
X215280Y105180D01*
X264950D01*
X268840Y101290D01*
Y80180D01*
X265880Y77220D01*
X251920D01*
X251025Y78115D01*
Y78675D01*
G01X222700Y42800D02*
X221800Y43700D01*
X201600D01*
X194901Y37001D01*
X181999D01*
X178700Y40300D01*
X164150D01*
X162950Y39100D01*
G01X159233Y140205D02*
X159252D01*
X163252Y136205D01*
X184452D01*
X190052Y141805D01*
X207252D01*
X208452Y140605D01*
X209652D01*
X212451Y143405D01*
Y148380D01*
X212839Y148768D01*
X215856D01*
G01X217251Y144205D02*
Y143405D01*
X206452Y132605D01*
X161652D01*
X159652Y134605D01*
X159233D01*
G01X220237Y144407D02*
X219854D01*
X206852Y131405D01*
X161252D01*
X159252Y133405D01*
X154452D01*
X154052Y133005D01*
X152033D01*
G01X214051Y147405D02*
Y143405D01*
X208452Y137805D01*
X187652D01*
X184852Y135005D01*
X162452D01*
X160052Y137405D01*
X159233D01*
G01X214051Y136205D02*
X213251D01*
X207252Y130205D01*
X160752D01*
X159152Y131805D01*
G01X152033Y127405D02*
X152852D01*
X153252Y127805D01*
X212005D01*
X214100Y129900D01*
Y132556D01*
X213651Y133005D01*
G01X216300Y136200D02*
X214705Y134605D01*
X213251D01*
X212400Y133753D01*
Y132400D01*
X212700Y132100D01*
Y130197D01*
X211508Y129005D01*
X153233D01*
X152033Y130205D01*
G01Y135805D02*
X160052D01*
X162052Y133805D01*
X185652D01*
X188452Y136605D01*
X208852D01*
X215251Y143005D01*
Y145017D01*
X216039Y145805D01*
X218218D01*
X219006Y146592D01*
Y148768D01*
G01X159233Y143005D02*
X163652D01*
X165252Y141405D01*
Y139405D01*
X166052Y138605D01*
X183646D01*
X190659Y145618D01*
G01X152033Y141005D02*
X152833Y141805D01*
X163252D01*
X164052Y141005D01*
Y138605D01*
X165252Y137405D01*
X184052D01*
X189652Y143005D01*
X206452D01*
X208052Y144605D01*
Y147805D01*
X208852Y148605D01*
X210851D01*
X211251Y148205D01*
Y144205D01*
X209557Y142510D01*
Y142468D01*
G01X159233Y150605D02*
X161252D01*
X162452Y151805D01*
X193652D01*
X195252Y150205D01*
Y144790D01*
X195837Y144205D01*
X196666D01*
X197252Y144790D01*
Y151219D01*
X197837Y151805D01*
X198666D01*
X199252Y151219D01*
Y144790D01*
X199837Y144205D01*
X200666D01*
X201252Y144790D01*
Y151219D01*
X201837Y151805D01*
X202666D01*
X203258Y151212D01*
Y148768D01*
G01X193809D02*
Y148847D01*
X192052Y150605D01*
X184052D01*
X183652Y150205D01*
Y145590D01*
X183066Y145005D01*
X182237D01*
X181652Y145590D01*
Y149805D01*
X180852Y150605D01*
X180052D01*
X179252Y149805D01*
Y145190D01*
X178666Y144605D01*
X177837D01*
X177252Y145190D01*
Y149805D01*
X176452Y150605D01*
X175652D01*
X174852Y149805D01*
Y145190D01*
X174266Y144605D01*
X173437D01*
X172852Y145190D01*
Y150205D01*
X172452Y150605D01*
X170852D01*
X170452Y150205D01*
Y145190D01*
X169866Y144605D01*
X169037D01*
X168452Y145190D01*
Y148205D01*
X167652Y149005D01*
X163252D01*
X161652Y147405D01*
X159233D01*
G01X152033Y152605D02*
X152833Y153405D01*
X160705D01*
X161905Y154605D01*
X165252D01*
X166852Y153005D01*
X217290D01*
X218051Y152243D01*
Y151166D01*
X217290Y150405D01*
X209052D01*
X204265Y145618D01*
X203258D01*
G01X159314Y156205D02*
X160705D01*
X161905Y157405D01*
X167825D01*
X169825Y155405D01*
X207252D01*
X208052Y156205D01*
Y161805D01*
X206852Y163005D01*
X205252D01*
X204452Y162205D01*
Y159590D01*
X203866Y159005D01*
X203037D01*
X202452Y159590D01*
Y162205D01*
X201652Y163005D01*
X200452D01*
X200108Y162661D01*
Y161366D01*
G01X152033Y165805D02*
X161652D01*
X167252Y171405D01*
X180852D01*
X183252Y169005D01*
X186052D01*
X187652Y167405D01*
X212051D01*
X214051Y165405D01*
Y162605D01*
G01X200108Y164516D02*
X182052D01*
X181252Y165316D01*
Y167619D01*
X180666Y168205D01*
X179837D01*
X179252Y167619D01*
Y166390D01*
X178666Y165805D01*
X177837D01*
X177252Y166390D01*
Y168419D01*
X176666Y169005D01*
X175837D01*
X175252Y168419D01*
Y162390D01*
X174666Y161805D01*
X173837D01*
X173252Y162390D01*
Y168419D01*
X172666Y169005D01*
X171837D01*
X171252Y168419D01*
Y161990D01*
X170666Y161405D01*
X169837D01*
X169252Y161990D01*
Y168019D01*
X168666Y168605D01*
X167837D01*
X167252Y168019D01*
Y164205D01*
X166452Y163405D01*
X160914D01*
X159314Y161805D01*
G01X212707Y164516D02*
Y160060D01*
X212451Y159805D01*
X210851D01*
X210452Y160205D01*
Y165805D01*
X210052Y166205D01*
X186052D01*
X184452Y167805D01*
X182852D01*
X180452Y170205D01*
X168052D01*
X162452Y164605D01*
X154033D01*
X152033Y162605D01*
G01X159314Y159005D02*
X160452D01*
X161652Y160205D01*
X176052D01*
X176452Y160605D01*
Y163219D01*
X177037Y163805D01*
X177866D01*
X178452Y163219D01*
Y160605D01*
X179102Y159955D01*
X194710D01*
X195252Y160496D01*
Y161263D01*
X194710Y161805D01*
X183320D01*
X182852Y162273D01*
Y162936D01*
X183320Y163405D01*
X196052D01*
X196959Y162497D01*
Y161366D01*
G01X152033Y177005D02*
X154833Y179805D01*
X209252D01*
X214051Y175005D01*
G01X159233Y170205D02*
X160452D01*
X165252Y175005D01*
X182452D01*
X184452Y173005D01*
X202452D01*
X204652Y170805D01*
X214652D01*
X217251Y168205D01*
Y163227D01*
G01X211000Y174205D02*
X206852D01*
X204896Y176160D01*
X186096D01*
X183652Y178605D01*
X159233D01*
G01X214051Y169005D02*
X213251Y169805D01*
X202852D01*
X202452Y170205D01*
Y171005D01*
X201652Y171805D01*
X198852D01*
X198052Y171005D01*
Y170205D01*
X197652Y169805D01*
X196100D01*
X195700Y170205D01*
Y171356D01*
X195252Y171805D01*
X192052D01*
X191652Y171405D01*
Y170205D01*
X191252Y169805D01*
X189745D01*
X189345Y170205D01*
Y171311D01*
X188852Y171805D01*
X184052D01*
X182052Y173805D01*
X166052D01*
X161252Y169005D01*
X152433D01*
X152033Y168605D01*
G01Y171405D02*
X159652D01*
X164452Y176205D01*
X182852D01*
X185056Y174000D01*
X203456D01*
X205652Y171805D01*
X215651D01*
X219006Y168450D01*
Y161366D01*
G01X159233Y167405D02*
X161652D01*
X166852Y172605D01*
X181252D01*
X183652Y170205D01*
X186852D01*
X188452Y168605D01*
X212451D01*
X216051Y165005D01*
Y161405D01*
X217251Y160205D01*
G01X152033Y174205D02*
X160052D01*
X163252Y177405D01*
X183252D01*
X185556Y175100D01*
X204106D01*
X206201Y173005D01*
X216195D01*
X220225Y168975D01*
Y165701D01*
G01X166833Y144605D02*
X168042Y143395D01*
X182268D01*
X182852Y142812D01*
Y141988D01*
X182268Y141405D01*
X168955D01*
X168452Y140902D01*
Y140189D01*
X168955Y139686D01*
X182733D01*
X184852Y141805D01*
Y146605D01*
X185252Y147005D01*
X186452D01*
X186852Y146605D01*
Y145405D01*
X187462Y144794D01*
X188452D01*
X188924Y145266D01*
Y146605D01*
X189461Y147142D01*
X192285D01*
X193809Y145618D01*
G01X166752Y159005D02*
X169968D01*
X170418Y158555D01*
Y157055D01*
X170868Y156605D01*
X172418D01*
X172868Y157055D01*
Y158555D01*
X173318Y159005D01*
X174868D01*
X175318Y158555D01*
Y157055D01*
X175768Y156605D01*
X177318D01*
X177768Y157055D01*
Y157887D01*
X178486Y158605D01*
X179501D01*
X180218Y157887D01*
Y157055D01*
X180668Y156605D01*
X182218D01*
X182668Y157055D01*
Y158205D01*
X183068Y158605D01*
X184452D01*
X184852Y158205D01*
Y157005D01*
X185252Y156605D01*
X187118D01*
X187568Y157055D01*
Y158205D01*
X187968Y158605D01*
X189618D01*
X190018Y158205D01*
Y157055D01*
X190468Y156605D01*
X192018D01*
X192468Y157055D01*
Y158205D01*
X192868Y158605D01*
X194452D01*
X194852Y158205D01*
Y157055D01*
X195302Y156605D01*
X200852D01*
X201252Y157005D01*
Y159005D01*
X200852Y159405D01*
X198852D01*
X198452Y159805D01*
G01X166752Y156205D02*
X168752Y154205D01*
X212464D01*
X213251Y154992D01*
Y157417D01*
X212464Y158205D01*
X210052D01*
X209252Y159005D01*
Y163005D01*
X207652Y164605D01*
X203347D01*
X203258Y164516D01*
G01X244215Y85315D02*
X242440Y87090D01*
X212260D01*
G01X222700Y42800D02*
Y53900D01*
X236600Y67800D01*
X241600D01*
X247290Y73490D01*
Y75510D01*
G01X226590Y80060D02*
X228660D01*
X230860Y82260D01*
X235640D01*
X236100Y81800D01*
X243000D01*
X243600Y81200D01*
X246925D01*
X247875Y80250D01*
G01X247040Y84420D02*
X244210Y87250D01*
Y88460D01*
X241710Y90960D01*
X225540D01*
G01X253130Y83090D02*
Y86670D01*
X256460Y90000D01*
X262100D01*
X263400Y91300D01*
Y95556D01*
X262066Y96890D01*
X260210D01*
X256400Y100700D01*
X219470D01*
X217790Y102380D01*
G01X221920Y102620D02*
X258180D01*
X260300Y100500D01*
X261820D01*
X265600Y96720D01*
Y88200D01*
X262790Y85390D01*
X257440D01*
X255700Y83650D01*
G01X239000Y71500D02*
X242700D01*
X246100Y74900D01*
Y76900D01*
X247875Y78675D01*
G01X236500Y63600D02*
X239390Y66490D01*
X243690D01*
X248800Y71600D01*
Y74700D01*
X249450Y75350D01*
Y78675D01*
G01X238050Y61220D02*
X240920D01*
X250535Y70835D01*
Y74050D01*
G01X267450Y66950D02*
X256840D01*
X252600Y71190D01*
Y75710D01*
G01X261950Y83200D02*
X259000Y80250D01*
X252600D01*
G01X261440Y95270D02*
X254570D01*
X247850Y88550D01*
Y86010D01*
G54D17*
X56000Y43200D03*
Y53200D03*
X84750Y34450D03*
Y44450D03*
X96000Y34450D03*
Y44450D03*
G54D27*
G01X14713Y-160300D02*
Y-155300D01*
G01Y-156550D02*
X15087Y-155925D01*
X15647Y-155425D01*
X16393Y-155300D01*
X17047Y-155425D01*
X17607Y-155925D01*
X17887Y-156800D01*
Y-160300D01*
G01X21840D02*
Y-152800D01*
G01X25760D02*
Y-160300D01*
G01Y-156550D02*
X21840D01*
G01X29247Y-160300D02*
Y-152800D01*
X31113D01*
X31860Y-153175D01*
X32420Y-153675D01*
X32887Y-154425D01*
X33260Y-155300D01*
X33353Y-156550D01*
X33260Y-157800D01*
X32887Y-158675D01*
X32420Y-159425D01*
X31860Y-159925D01*
X31113Y-160300D01*
X29247D01*
G01X48167D02*
X44433D01*
Y-152800D01*
X48167D01*
G01X46673Y-156425D02*
X44433D01*
G01X51467Y-152800D02*
X53800Y-160300D01*
X56133Y-152800D01*
G01X58873Y-160300D02*
Y-152800D01*
X61300Y-159050D01*
X63727Y-152800D01*
Y-160300D01*
G01X20900Y-175233D02*
X21500Y-174434D01*
X22200Y-174033D01*
X23000Y-173900D01*
X24000Y-174167D01*
X24700Y-174833D01*
X24900Y-175633D01*
X24800Y-176434D01*
X24400Y-177100D01*
X22400Y-178433D01*
X21500Y-179367D01*
X20900Y-180700D01*
X20700Y-181900D01*
X24900D01*
G01X28600Y-180700D02*
X29200Y-181367D01*
X29900Y-181767D01*
X30800Y-181900D01*
X31700Y-181633D01*
X32400Y-181100D01*
X32900Y-180167D01*
X33000Y-179100D01*
X32800Y-178033D01*
X32300Y-177367D01*
X31600Y-176833D01*
X30900Y-176700D01*
X30200Y-176833D01*
X29300Y-177367D01*
X29600Y-173900D01*
X32300D01*
G01X38800Y-181900D02*
Y-173900D01*
X37600Y-175500D01*
G01Y-181900D02*
X40000D01*
G01X44600Y-180700D02*
X45200Y-181367D01*
X45900Y-181767D01*
X46800Y-181900D01*
X47700Y-181633D01*
X48400Y-181100D01*
X48900Y-180167D01*
X49000Y-179100D01*
X48800Y-178033D01*
X48300Y-177367D01*
X47600Y-176833D01*
X46900Y-176700D01*
X46200Y-176833D01*
X45300Y-177367D01*
X45600Y-173900D01*
X48300D01*
G01X52900Y-175233D02*
X53500Y-174434D01*
X54200Y-174033D01*
X55000Y-173900D01*
X56000Y-174167D01*
X56700Y-174833D01*
X56900Y-175633D01*
X56800Y-176434D01*
X56400Y-177100D01*
X54400Y-178433D01*
X53500Y-179367D01*
X52900Y-180700D01*
X52700Y-181900D01*
X56900D01*
G01X62800D02*
Y-173900D01*
X61600Y-175500D01*
G01Y-181900D02*
X64000D01*
G01X70800Y-173900D02*
X70000Y-174167D01*
X69400Y-174833D01*
X69000Y-175633D01*
X68700Y-176700D01*
X68600Y-177900D01*
X68700Y-179100D01*
X69000Y-180167D01*
X69400Y-180967D01*
X70000Y-181633D01*
X70800Y-181900D01*
X71600Y-181633D01*
X72200Y-180967D01*
X72600Y-180167D01*
X72900Y-179100D01*
X73000Y-177900D01*
X72900Y-176700D01*
X72600Y-175633D01*
X72200Y-174833D01*
X71600Y-174167D01*
X70800Y-173900D01*
G01X83250Y-122500D02*
Y-131900D01*
G01X80605Y-122500D02*
X85895D01*
G01X94750Y-131900D02*
X90150D01*
Y-122500D01*
X94750D01*
G01X92910Y-127043D02*
X90150D01*
G01X99235Y-131900D02*
X104065Y-122500D01*
G01X99235D02*
X104065Y-131900D01*
G01X107975D02*
X110850Y-122500D01*
X113725Y-131900D01*
G01X112690Y-128610D02*
X109010D01*
G01X117635Y-130647D02*
X118555Y-131430D01*
X119590Y-131900D01*
X120510D01*
X121430Y-131430D01*
X122120Y-130647D01*
X122465Y-129550D01*
X122235Y-128454D01*
X121660Y-127513D01*
X120625Y-126887D01*
X119245Y-126573D01*
X118440Y-125947D01*
X118095Y-124850D01*
X118325Y-123753D01*
X118900Y-122970D01*
X119705Y-122500D01*
X120510D01*
X121315Y-122813D01*
X122005Y-123597D01*
G01X137070Y-122500D02*
X139830D01*
G01X138450D02*
Y-131900D01*
G01X137070D02*
X139830D01*
G01X145005D02*
Y-122500D01*
X150295Y-131900D01*
Y-122500D01*
G01X154435Y-130647D02*
X155355Y-131430D01*
X156390Y-131900D01*
X157310D01*
X158230Y-131430D01*
X158920Y-130647D01*
X159265Y-129550D01*
X159035Y-128454D01*
X158460Y-127513D01*
X157425Y-126887D01*
X156045Y-126573D01*
X155240Y-125947D01*
X154895Y-124850D01*
X155125Y-123753D01*
X155700Y-122970D01*
X156505Y-122500D01*
X157310D01*
X158115Y-122813D01*
X158805Y-123597D01*
G01X166050Y-122500D02*
Y-131900D01*
G01X163405Y-122500D02*
X168695D01*
G01X172950Y-131900D02*
Y-122500D01*
X175825D01*
X176745Y-122970D01*
X177320Y-123597D01*
X177550Y-124850D01*
X177320Y-126103D01*
X176630Y-126887D01*
X175825Y-127357D01*
X172950D01*
G01X175825D02*
X177550Y-131900D01*
G01X181920Y-122500D02*
Y-129237D01*
X182380Y-130647D01*
X183300Y-131587D01*
X184450Y-131900D01*
X185600Y-131587D01*
X186520Y-130647D01*
X186980Y-129237D01*
Y-122500D01*
G01X190660Y-131900D02*
Y-122500D01*
X193650Y-130333D01*
X196640Y-122500D01*
Y-131900D01*
G01X205150D02*
X200550D01*
Y-122500D01*
X205150D01*
G01X203310Y-127043D02*
X200550D01*
G01X209405Y-131900D02*
Y-122500D01*
X214695Y-131900D01*
Y-122500D01*
G01X221250D02*
Y-131900D01*
G01X218605Y-122500D02*
X223895D01*
G01X228035Y-130647D02*
X228955Y-131430D01*
X229990Y-131900D01*
X230910D01*
X231830Y-131430D01*
X232520Y-130647D01*
X232865Y-129550D01*
X232635Y-128454D01*
X232060Y-127513D01*
X231025Y-126887D01*
X229645Y-126573D01*
X228840Y-125947D01*
X228495Y-124850D01*
X228725Y-123753D01*
X229300Y-122970D01*
X230105Y-122500D01*
X230910D01*
X231715Y-122813D01*
X232405Y-123597D01*
G01X121200Y-185200D02*
X117200D01*
Y-177200D01*
X121200D01*
G01X119600Y-181067D02*
X117200D01*
G01X125300Y-178533D02*
X125900Y-177734D01*
X126600Y-177333D01*
X127400Y-177200D01*
X128400Y-177467D01*
X129100Y-178133D01*
X129300Y-178933D01*
X129200Y-179734D01*
X128800Y-180400D01*
X126800Y-181733D01*
X125900Y-182667D01*
X125300Y-184000D01*
X125100Y-185200D01*
X129300D01*
G01X148150Y-185400D02*
Y-179100D01*
X147210Y-180360D01*
G01Y-185400D02*
X149090D01*
G01X152962Y-182775D02*
X153510Y-182040D01*
X153980Y-181620D01*
X154607Y-181410D01*
X155155Y-181620D01*
X155547Y-182040D01*
X155860Y-182670D01*
X155938Y-183405D01*
X155860Y-184035D01*
X155547Y-184665D01*
X155077Y-185190D01*
X154528Y-185400D01*
X153902Y-185190D01*
X153353Y-184560D01*
X153040Y-183615D01*
X152962Y-182565D01*
X153118Y-181200D01*
X153353Y-180465D01*
X153745Y-179730D01*
X154293Y-179205D01*
X154842Y-179100D01*
X155390Y-179310D01*
X155782Y-179835D01*
G01X159732Y-183300D02*
X161768D01*
G01X165013Y-185400D02*
Y-179100D01*
X167050Y-184350D01*
X169087Y-179100D01*
Y-185400D01*
G01X171392D02*
X173350Y-179100D01*
X175308Y-185400D01*
G01X174603Y-183195D02*
X172097D01*
G01X178083Y-185400D02*
Y-179100D01*
X180042D01*
X180668Y-179415D01*
X181060Y-179835D01*
X181217Y-180675D01*
X181060Y-181515D01*
X180590Y-182040D01*
X180042Y-182355D01*
X178083D01*
G01X180042D02*
X181217Y-185400D01*
G01X184932Y-183300D02*
X186968D01*
G01X190762Y-180150D02*
X191232Y-179520D01*
X191780Y-179205D01*
X192407Y-179100D01*
X193190Y-179310D01*
X193738Y-179835D01*
X193895Y-180465D01*
X193817Y-181095D01*
X193503Y-181620D01*
X191937Y-182670D01*
X191232Y-183405D01*
X190762Y-184455D01*
X190605Y-185400D01*
X193895D01*
G01X198550Y-179100D02*
X197923Y-179310D01*
X197453Y-179835D01*
X197140Y-180465D01*
X196905Y-181305D01*
X196827Y-182250D01*
X196905Y-183195D01*
X197140Y-184035D01*
X197453Y-184665D01*
X197923Y-185190D01*
X198550Y-185400D01*
X199177Y-185190D01*
X199647Y-184665D01*
X199960Y-184035D01*
X200195Y-183195D01*
X200273Y-182250D01*
X200195Y-181305D01*
X199960Y-180465D01*
X199647Y-179835D01*
X199177Y-179310D01*
X198550Y-179100D01*
G01X204850Y-185400D02*
Y-179100D01*
X203910Y-180360D01*
G01Y-185400D02*
X205790D01*
G01X210993D02*
X211150Y-184035D01*
X211385Y-182880D01*
X211698Y-181830D01*
X212090Y-180675D01*
X212717Y-179100D01*
X209583D01*
G01X228650Y-177100D02*
Y-183400D01*
G01X226848Y-177100D02*
X230452D01*
G01X234010D02*
X235890D01*
G01X234950D02*
Y-183400D01*
G01X234010D02*
X235890D01*
G01X239527D02*
Y-177100D01*
X241093D01*
X241720Y-177415D01*
X242190Y-177835D01*
X242582Y-178465D01*
X242895Y-179200D01*
X242973Y-180250D01*
X242895Y-181300D01*
X242582Y-182035D01*
X242190Y-182665D01*
X241720Y-183085D01*
X241093Y-183400D01*
X239527D01*
G01X245983Y-177100D02*
Y-183400D01*
X249117D01*
G01X252283D02*
Y-177100D01*
X254163D01*
X254790Y-177415D01*
X255260Y-178150D01*
X255417Y-178990D01*
X255260Y-179830D01*
X254868Y-180460D01*
X254163Y-180775D01*
X252283D01*
G01X259132Y-181300D02*
X261168D01*
G01X266450Y-183400D02*
Y-177100D01*
X265510Y-178360D01*
G01Y-183400D02*
X267390D01*
G01X272750D02*
Y-177100D01*
X271810Y-178360D01*
G01Y-183400D02*
X273690D01*
G01X279050D02*
Y-177100D01*
X278110Y-178360D01*
G01Y-183400D02*
X279990D01*
G01X283862Y-180775D02*
X284410Y-180040D01*
X284880Y-179620D01*
X285507Y-179410D01*
X286055Y-179620D01*
X286447Y-180040D01*
X286760Y-180670D01*
X286838Y-181405D01*
X286760Y-182035D01*
X286447Y-182665D01*
X285977Y-183190D01*
X285428Y-183400D01*
X284802Y-183190D01*
X284253Y-182560D01*
X283940Y-181615D01*
X283862Y-180565D01*
X284018Y-179200D01*
X284253Y-178465D01*
X284645Y-177730D01*
X285193Y-177205D01*
X285742Y-177100D01*
X286290Y-177310D01*
X286682Y-177835D01*
G01X291650Y-177100D02*
X291023Y-177310D01*
X290553Y-177835D01*
X290240Y-178465D01*
X290005Y-179305D01*
X289927Y-180250D01*
X290005Y-181195D01*
X290240Y-182035D01*
X290553Y-182665D01*
X291023Y-183190D01*
X291650Y-183400D01*
X292277Y-183190D01*
X292747Y-182665D01*
X293060Y-182035D01*
X293295Y-181195D01*
X293373Y-180250D01*
X293295Y-179305D01*
X293060Y-178465D01*
X292747Y-177835D01*
X292277Y-177310D01*
X291650Y-177100D01*
G01X296618Y-182665D02*
X297167Y-183190D01*
X297793Y-183400D01*
X298420Y-183190D01*
X298968Y-182560D01*
X299360Y-181615D01*
X299517Y-180670D01*
Y-179515D01*
X299360Y-178570D01*
X298968Y-177730D01*
X298498Y-177310D01*
X297950Y-177100D01*
X297323Y-177310D01*
X296853Y-177730D01*
X296540Y-178360D01*
X296383Y-179200D01*
X296540Y-179935D01*
X296932Y-180670D01*
X297402Y-181090D01*
X297950Y-181195D01*
X298577Y-180985D01*
X299047Y-180460D01*
X299517Y-179515D01*
G01X303232Y-181300D02*
X305268D01*
G01X310550Y-177100D02*
X309923Y-177310D01*
X309453Y-177835D01*
X309140Y-178465D01*
X308905Y-179305D01*
X308827Y-180250D01*
X308905Y-181195D01*
X309140Y-182035D01*
X309453Y-182665D01*
X309923Y-183190D01*
X310550Y-183400D01*
X311177Y-183190D01*
X311647Y-182665D01*
X311960Y-182035D01*
X312195Y-181195D01*
X312273Y-180250D01*
X312195Y-179305D01*
X311960Y-178465D01*
X311647Y-177835D01*
X311177Y-177310D01*
X310550Y-177100D01*
G01X316850Y-183400D02*
Y-177100D01*
X315910Y-178360D01*
G01Y-183400D02*
X317790D01*
G01X245583Y-153100D02*
Y-159400D01*
X248717D01*
G01X251492D02*
X253450Y-153100D01*
X255408Y-159400D01*
G01X254703Y-157195D02*
X252197D01*
G01X259750Y-159400D02*
Y-156565D01*
X258183Y-153100D01*
G01X261317D02*
X259750Y-156565D01*
G01X267617Y-159400D02*
X264483D01*
Y-153100D01*
X267617D01*
G01X266363Y-156145D02*
X264483D01*
G01X270783Y-159400D02*
Y-153100D01*
X272742D01*
X273368Y-153415D01*
X273760Y-153835D01*
X273917Y-154675D01*
X273760Y-155515D01*
X273290Y-156040D01*
X272742Y-156355D01*
X270783D01*
G01X272742D02*
X273917Y-159400D01*
G01X283227Y-158140D02*
X283697Y-158875D01*
X284323Y-159295D01*
X285028Y-159400D01*
X285655Y-159295D01*
X286282Y-158770D01*
X286673Y-158140D01*
X286752Y-157510D01*
X286595Y-156775D01*
X286047Y-156250D01*
X285498Y-156040D01*
X284793D01*
G01X285498D02*
X285968Y-155725D01*
X286360Y-155200D01*
X286517Y-154570D01*
X286360Y-153940D01*
X285968Y-153415D01*
X285263Y-153100D01*
X284558Y-153205D01*
X283853Y-153625D01*
G01X296532Y-157300D02*
X298568D01*
G01X308505Y-158560D02*
X309132Y-159085D01*
X309837Y-159400D01*
X310463D01*
X311090Y-159085D01*
X311560Y-158560D01*
X311795Y-157825D01*
X311638Y-157090D01*
X311247Y-156460D01*
X310542Y-156040D01*
X309602Y-155830D01*
X309053Y-155410D01*
X308818Y-154675D01*
X308975Y-153940D01*
X309367Y-153415D01*
X309915Y-153100D01*
X310463D01*
X311012Y-153310D01*
X311482Y-153835D01*
G01X315510Y-153100D02*
X317390D01*
G01X316450D02*
Y-159400D01*
G01X315510D02*
X317390D01*
G01X323220Y-156250D02*
X324787D01*
Y-158140D01*
X324317Y-158770D01*
X323768Y-159190D01*
X322985Y-159400D01*
X322202Y-159190D01*
X321653Y-158770D01*
X321183Y-158140D01*
X320870Y-157405D01*
X320713Y-156565D01*
Y-155830D01*
X320870Y-155200D01*
X321183Y-154465D01*
X321653Y-153835D01*
X322123Y-153415D01*
X322750Y-153100D01*
X323298D01*
X323925Y-153310D01*
X324395Y-153730D01*
G01X327248Y-159400D02*
Y-153100D01*
X330852Y-159400D01*
Y-153100D01*
G01X333392Y-159400D02*
X335350Y-153100D01*
X337308Y-159400D01*
G01X336603Y-157195D02*
X334097D01*
G01X340083Y-153100D02*
Y-159400D01*
X343217D01*
G01X346327Y-181640D02*
X346797Y-182375D01*
X347423Y-182795D01*
X348128Y-182900D01*
X348755Y-182795D01*
X349382Y-182270D01*
X349773Y-181640D01*
X349852Y-181010D01*
X349695Y-180275D01*
X349147Y-179750D01*
X348598Y-179540D01*
X347893D01*
G01X348598D02*
X349068Y-179225D01*
X349460Y-178700D01*
X349617Y-178070D01*
X349460Y-177440D01*
X349068Y-176915D01*
X348363Y-176600D01*
X347658Y-176705D01*
X346953Y-177125D01*
G01X382150Y-181900D02*
Y-175600D01*
X381210Y-176860D01*
G01Y-181900D02*
X383090D01*
G01X386727Y-180640D02*
X387197Y-181375D01*
X387823Y-181795D01*
X388528Y-181900D01*
X389155Y-181795D01*
X389782Y-181270D01*
X390173Y-180640D01*
X390252Y-180010D01*
X390095Y-179275D01*
X389547Y-178750D01*
X388998Y-178540D01*
X388293D01*
G01X388998D02*
X389468Y-178225D01*
X389860Y-177700D01*
X390017Y-177070D01*
X389860Y-176440D01*
X389468Y-175915D01*
X388763Y-175600D01*
X388058Y-175705D01*
X387353Y-176125D01*
G01X603983Y-193300D02*
Y-187000D01*
X605863D01*
X606490Y-187315D01*
X606960Y-188050D01*
X607117Y-188890D01*
X606960Y-189730D01*
X606568Y-190360D01*
X605863Y-190675D01*
X603983D01*
G01X610518Y-193300D02*
Y-187000D01*
G01Y-190045D02*
X610910Y-189520D01*
X611302Y-189205D01*
X611928Y-189100D01*
X612398Y-189205D01*
X612947Y-189625D01*
X613182Y-190255D01*
Y-193300D01*
G01X618150Y-189100D02*
Y-193300D01*
G01Y-187420D02*
X617993Y-187315D01*
Y-187105D01*
X618150Y-187000D01*
X618307Y-187105D01*
Y-187315D01*
X618150Y-187420D01*
G01X624450Y-193300D02*
Y-187000D01*
G01X630750Y-189100D02*
Y-193300D01*
G01Y-187420D02*
X630593Y-187315D01*
Y-187105D01*
X630750Y-187000D01*
X630907Y-187105D01*
Y-187315D01*
X630750Y-187420D01*
G01X635640Y-195400D02*
Y-189100D01*
G01Y-190045D02*
X636032Y-189520D01*
X636423Y-189205D01*
X637050Y-189100D01*
X637598Y-189205D01*
X638147Y-189730D01*
X638382Y-190465D01*
X638460Y-191200D01*
X638382Y-191935D01*
X638147Y-192670D01*
X637677Y-193090D01*
X637050Y-193300D01*
X636502Y-193195D01*
X635953Y-192880D01*
X635640Y-192460D01*
G01X641940Y-195400D02*
Y-189100D01*
G01Y-190045D02*
X642332Y-189520D01*
X642723Y-189205D01*
X643350Y-189100D01*
X643898Y-189205D01*
X644447Y-189730D01*
X644682Y-190465D01*
X644760Y-191200D01*
X644682Y-191935D01*
X644447Y-192670D01*
X643977Y-193090D01*
X643350Y-193300D01*
X642802Y-193195D01*
X642253Y-192880D01*
X641940Y-192460D01*
G01X648475Y-190465D02*
X650982D01*
X650747Y-189730D01*
X650355Y-189310D01*
X649807Y-189100D01*
X649258Y-189205D01*
X648788Y-189520D01*
X648475Y-190255D01*
X648318Y-190885D01*
Y-191515D01*
X648475Y-192145D01*
X648867Y-192775D01*
X649337Y-193195D01*
X649885Y-193300D01*
X650433Y-193090D01*
X650982Y-192460D01*
G01X660527Y-193300D02*
Y-187000D01*
X662093D01*
X662720Y-187315D01*
X663190Y-187735D01*
X663582Y-188365D01*
X663895Y-189100D01*
X663973Y-190150D01*
X663895Y-191200D01*
X663582Y-191935D01*
X663190Y-192565D01*
X662720Y-192985D01*
X662093Y-193300D01*
X660527D01*
G01X668550D02*
X668080Y-193195D01*
X667610Y-192775D01*
X667297Y-192040D01*
X667140Y-191200D01*
X667297Y-190360D01*
X667610Y-189625D01*
X668080Y-189205D01*
X668550Y-189100D01*
X669020Y-189205D01*
X669490Y-189625D01*
X669803Y-190360D01*
X669882Y-191200D01*
X669803Y-192040D01*
X669490Y-192775D01*
X669020Y-193195D01*
X668550Y-193300D01*
G01X674850D02*
Y-187000D01*
G01X681150Y-193300D02*
Y-187000D01*
G01X687450Y-193300D02*
X686980Y-193195D01*
X686510Y-192775D01*
X686197Y-192040D01*
X686040Y-191200D01*
X686197Y-190360D01*
X686510Y-189625D01*
X686980Y-189205D01*
X687450Y-189100D01*
X687920Y-189205D01*
X688390Y-189625D01*
X688703Y-190360D01*
X688782Y-191200D01*
X688703Y-192040D01*
X688390Y-192775D01*
X687920Y-193195D01*
X687450Y-193300D01*
G01X594866Y-180800D02*
X592333D01*
Y-175800D01*
X594866D01*
G01X593853Y-178217D02*
X592333D01*
G01X597242Y-180800D02*
Y-175800D01*
X600154Y-180800D01*
Y-175800D01*
G01X604176Y-178300D02*
X605443D01*
Y-179800D01*
X605063Y-180300D01*
X604620Y-180633D01*
X603986Y-180800D01*
X603353Y-180633D01*
X602910Y-180300D01*
X602530Y-179800D01*
X602277Y-179217D01*
X602150Y-178550D01*
Y-177967D01*
X602277Y-177467D01*
X602530Y-176883D01*
X602910Y-176383D01*
X603290Y-176050D01*
X603796Y-175800D01*
X604240D01*
X604746Y-175967D01*
X605126Y-176300D01*
G01X608135Y-175800D02*
X609654D01*
G01X608895D02*
Y-180800D01*
G01X608135D02*
X609654D01*
G01X612537D02*
Y-175800D01*
X615450Y-180800D01*
Y-175800D01*
G01X620358Y-180800D02*
X617825D01*
Y-175800D01*
X620358D01*
G01X619345Y-178217D02*
X617825D01*
G01X625456Y-180800D02*
X622924D01*
Y-175800D01*
X625456D01*
G01X624443Y-178217D02*
X622924D01*
G01X628022Y-180800D02*
Y-175800D01*
X629605D01*
X630112Y-176050D01*
X630428Y-176383D01*
X630555Y-177050D01*
X630428Y-177717D01*
X630048Y-178133D01*
X629605Y-178383D01*
X628022D01*
G01X629605D02*
X630555Y-180800D01*
G01X634387Y-180967D02*
X634260Y-180883D01*
Y-180717D01*
X634387Y-180633D01*
X634514Y-180717D01*
Y-180883D01*
X634387Y-180967D01*
G01Y-178717D02*
X634260Y-178633D01*
Y-178467D01*
X634387Y-178383D01*
X634514Y-178467D01*
Y-178633D01*
X634387Y-178717D01*
G01X604218Y-165800D02*
Y-161600D01*
G01Y-162650D02*
X604532Y-162125D01*
X605002Y-161705D01*
X605628Y-161600D01*
X606177Y-161705D01*
X606647Y-162125D01*
X606882Y-162860D01*
Y-165800D01*
G01X610205D02*
Y-159500D01*
G01X613495D02*
Y-165800D01*
G01Y-162650D02*
X610205D01*
G01X616427Y-165800D02*
Y-159500D01*
X617993D01*
X618620Y-159815D01*
X619090Y-160235D01*
X619482Y-160865D01*
X619795Y-161600D01*
X619873Y-162650D01*
X619795Y-163700D01*
X619482Y-164435D01*
X619090Y-165065D01*
X618620Y-165485D01*
X617993Y-165800D01*
X616427D01*
G01X632317D02*
X629183D01*
Y-159500D01*
X632317D01*
G01X631063Y-162545D02*
X629183D01*
G01X635092Y-159500D02*
X637050Y-165800D01*
X639008Y-159500D01*
G01X641313Y-165800D02*
Y-159500D01*
X643350Y-164750D01*
X645387Y-159500D01*
Y-165800D01*
G01X594106Y-150633D02*
X594360Y-150383D01*
X594549Y-149967D01*
X594676Y-149383D01*
X594549Y-148883D01*
X594296Y-148550D01*
X593853Y-148300D01*
X592143D01*
Y-153300D01*
X594233D01*
X594676Y-152967D01*
X594929Y-152467D01*
X595056Y-151883D01*
X594929Y-151300D01*
X594549Y-150800D01*
X594106Y-150633D01*
X592143D01*
G01X598698Y-153300D02*
X598191Y-153217D01*
X597748Y-152883D01*
X597368Y-152383D01*
X597115Y-151800D01*
X596988Y-151133D01*
Y-150467D01*
X597115Y-149800D01*
X597368Y-149217D01*
X597748Y-148717D01*
X598191Y-148383D01*
X598698Y-148300D01*
X599204Y-148383D01*
X599648Y-148717D01*
X600028Y-149217D01*
X600281Y-149800D01*
X600408Y-150467D01*
Y-151133D01*
X600281Y-151800D01*
X600028Y-152383D01*
X599648Y-152883D01*
X599204Y-153217D01*
X598698Y-153300D01*
G01X602213D02*
X603796Y-148300D01*
X605380Y-153300D01*
G01X604810Y-151550D02*
X602783D01*
G01X607628Y-153300D02*
Y-148300D01*
X609211D01*
X609718Y-148550D01*
X610035Y-148883D01*
X610161Y-149550D01*
X610035Y-150217D01*
X609655Y-150633D01*
X609211Y-150883D01*
X607628D01*
G01X609211D02*
X610161Y-153300D01*
G01X612600D02*
Y-148300D01*
X613866D01*
X614373Y-148550D01*
X614753Y-148883D01*
X615070Y-149383D01*
X615323Y-149967D01*
X615386Y-150800D01*
X615323Y-151633D01*
X615070Y-152217D01*
X614753Y-152717D01*
X614373Y-153050D01*
X613866Y-153300D01*
X612600D01*
G01X622734D02*
Y-148300D01*
X625646Y-153300D01*
Y-148300D01*
G01X627705Y-153300D02*
X629288Y-148300D01*
X630872Y-153300D01*
G01X630302Y-151550D02*
X628275D01*
G01X632740Y-153300D02*
Y-148300D01*
X634387Y-152467D01*
X636033Y-148300D01*
Y-153300D01*
G01X640752D02*
X638219D01*
Y-148300D01*
X640752D01*
G01X639739Y-150717D02*
X638219D01*
G01X644584Y-153467D02*
X644457Y-153383D01*
Y-153217D01*
X644584Y-153133D01*
X644710Y-153217D01*
Y-153383D01*
X644584Y-153467D01*
G01Y-151217D02*
X644457Y-151133D01*
Y-150967D01*
X644584Y-150883D01*
X644710Y-150967D01*
Y-151133D01*
X644584Y-151217D01*
G01X605550Y-133000D02*
Y-139300D01*
G01X603748Y-133000D02*
X607352D01*
G01X613417Y-139300D02*
X610283D01*
Y-133000D01*
X613417D01*
G01X612163Y-136045D02*
X610283D01*
G01X616505Y-139300D02*
X619795Y-133000D01*
G01X616505D02*
X619795Y-139300D01*
G01X622492D02*
X624450Y-133000D01*
X626408Y-139300D01*
G01X625703Y-137095D02*
X623197D01*
G01X629105Y-138460D02*
X629732Y-138985D01*
X630437Y-139300D01*
X631063D01*
X631690Y-138985D01*
X632160Y-138460D01*
X632395Y-137725D01*
X632238Y-136990D01*
X631847Y-136360D01*
X631142Y-135940D01*
X630202Y-135730D01*
X629653Y-135310D01*
X629418Y-134575D01*
X629575Y-133840D01*
X629967Y-133315D01*
X630515Y-133000D01*
X631063D01*
X631612Y-133210D01*
X632082Y-133735D01*
G01X642410Y-133000D02*
X644290D01*
G01X643350D02*
Y-139300D01*
G01X642410D02*
X644290D01*
G01X647848D02*
Y-133000D01*
X651452Y-139300D01*
Y-133000D01*
G01X654305Y-138460D02*
X654932Y-138985D01*
X655637Y-139300D01*
X656263D01*
X656890Y-138985D01*
X657360Y-138460D01*
X657595Y-137725D01*
X657438Y-136990D01*
X657047Y-136360D01*
X656342Y-135940D01*
X655402Y-135730D01*
X654853Y-135310D01*
X654618Y-134575D01*
X654775Y-133840D01*
X655167Y-133315D01*
X655715Y-133000D01*
X656263D01*
X656812Y-133210D01*
X657282Y-133735D01*
G01X662250Y-133000D02*
Y-139300D01*
G01X660448Y-133000D02*
X664052D01*
G01X666983Y-139300D02*
Y-133000D01*
X668942D01*
X669568Y-133315D01*
X669960Y-133735D01*
X670117Y-134575D01*
X669960Y-135415D01*
X669490Y-135940D01*
X668942Y-136255D01*
X666983D01*
G01X668942D02*
X670117Y-139300D01*
G01X673127Y-133000D02*
Y-137515D01*
X673440Y-138460D01*
X674067Y-139090D01*
X674850Y-139300D01*
X675633Y-139090D01*
X676260Y-138460D01*
X676573Y-137515D01*
Y-133000D01*
G01X679113Y-139300D02*
Y-133000D01*
X681150Y-138250D01*
X683187Y-133000D01*
Y-139300D01*
G01X689017D02*
X685883D01*
Y-133000D01*
X689017D01*
G01X687763Y-136045D02*
X685883D01*
G01X691948Y-139300D02*
Y-133000D01*
X695552Y-139300D01*
Y-133000D01*
G01X700050D02*
Y-139300D01*
G01X698248Y-133000D02*
X701852D01*
G01X704705Y-138460D02*
X705332Y-138985D01*
X706037Y-139300D01*
X706663D01*
X707290Y-138985D01*
X707760Y-138460D01*
X707995Y-137725D01*
X707838Y-136990D01*
X707447Y-136360D01*
X706742Y-135940D01*
X705802Y-135730D01*
X705253Y-135310D01*
X705018Y-134575D01*
X705175Y-133840D01*
X705567Y-133315D01*
X706115Y-133000D01*
X706663D01*
X707212Y-133210D01*
X707682Y-133735D01*
G01X594993Y-122217D02*
X594613Y-121967D01*
X594170Y-121800D01*
X593663D01*
X593093Y-122050D01*
X592650Y-122467D01*
X592333Y-122967D01*
X592080Y-123800D01*
X592016Y-124550D01*
X592143Y-125300D01*
X592333Y-125800D01*
X592713Y-126300D01*
X593156Y-126633D01*
X593600Y-126800D01*
X594043D01*
X594486Y-126633D01*
X594866Y-126383D01*
X595183Y-126050D01*
G01X597305Y-121800D02*
Y-125383D01*
X597558Y-126134D01*
X598065Y-126633D01*
X598698Y-126800D01*
X599331Y-126633D01*
X599838Y-126134D01*
X600091Y-125383D01*
Y-121800D01*
G01X602467Y-126134D02*
X602973Y-126550D01*
X603543Y-126800D01*
X604050D01*
X604556Y-126550D01*
X604936Y-126134D01*
X605126Y-125550D01*
X605000Y-124967D01*
X604683Y-124467D01*
X604113Y-124133D01*
X603353Y-123967D01*
X602910Y-123633D01*
X602720Y-123050D01*
X602847Y-122467D01*
X603163Y-122050D01*
X603606Y-121800D01*
X604050D01*
X604493Y-121967D01*
X604873Y-122383D01*
G01X608895Y-121800D02*
Y-126800D01*
G01X607438Y-121800D02*
X610351D01*
G01X613993Y-126800D02*
X613487Y-126717D01*
X613043Y-126383D01*
X612664Y-125883D01*
X612410Y-125300D01*
X612284Y-124633D01*
Y-123967D01*
X612410Y-123300D01*
X612664Y-122717D01*
X613043Y-122217D01*
X613487Y-121883D01*
X613993Y-121800D01*
X614500Y-121883D01*
X614943Y-122217D01*
X615323Y-122717D01*
X615576Y-123300D01*
X615703Y-123967D01*
Y-124633D01*
X615576Y-125300D01*
X615323Y-125883D01*
X614943Y-126383D01*
X614500Y-126717D01*
X613993Y-126800D01*
G01X617445D02*
Y-121800D01*
X619092Y-125967D01*
X620738Y-121800D01*
Y-126800D01*
G01X625456D02*
X622924D01*
Y-121800D01*
X625456D01*
G01X624443Y-124217D02*
X622924D01*
G01X628022Y-126800D02*
Y-121800D01*
X629605D01*
X630112Y-122050D01*
X630428Y-122383D01*
X630555Y-123050D01*
X630428Y-123717D01*
X630048Y-124133D01*
X629605Y-124383D01*
X628022D01*
G01X629605D02*
X630555Y-126800D01*
G01X634387Y-126967D02*
X634260Y-126883D01*
Y-126717D01*
X634387Y-126633D01*
X634514Y-126717D01*
Y-126883D01*
X634387Y-126967D01*
G01Y-124717D02*
X634260Y-124633D01*
Y-124467D01*
X634387Y-124383D01*
X634514Y-124467D01*
Y-124633D01*
X634387Y-124717D01*
G01X705833Y-180800D02*
Y-175800D01*
X707353D01*
X707860Y-176050D01*
X708239Y-176633D01*
X708366Y-177300D01*
X708239Y-177967D01*
X707923Y-178467D01*
X707353Y-178717D01*
X705833D01*
G01X713591Y-176217D02*
X713211Y-175967D01*
X712768Y-175800D01*
X712261D01*
X711691Y-176050D01*
X711248Y-176467D01*
X710932Y-176967D01*
X710678Y-177800D01*
X710615Y-178550D01*
X710742Y-179300D01*
X710932Y-179800D01*
X711312Y-180300D01*
X711755Y-180633D01*
X712198Y-180800D01*
X712641D01*
X713085Y-180633D01*
X713464Y-180383D01*
X713781Y-180050D01*
G01X717803Y-178133D02*
X718056Y-177883D01*
X718246Y-177467D01*
X718373Y-176883D01*
X718246Y-176383D01*
X717993Y-176050D01*
X717550Y-175800D01*
X715840D01*
Y-180800D01*
X717930D01*
X718373Y-180467D01*
X718626Y-179967D01*
X718753Y-179383D01*
X718626Y-178800D01*
X718246Y-178300D01*
X717803Y-178133D01*
X715840D01*
G01X726100Y-180800D02*
Y-175800D01*
X727366D01*
X727873Y-176050D01*
X728253Y-176383D01*
X728570Y-176883D01*
X728823Y-177467D01*
X728886Y-178300D01*
X728823Y-179133D01*
X728570Y-179717D01*
X728253Y-180217D01*
X727873Y-180550D01*
X727366Y-180800D01*
X726100D01*
G01X733858D02*
X731325D01*
Y-175800D01*
X733858D01*
G01X732845Y-178217D02*
X731325D01*
G01X736360Y-180134D02*
X736867Y-180550D01*
X737437Y-180800D01*
X737943D01*
X738450Y-180550D01*
X738830Y-180134D01*
X739020Y-179550D01*
X738893Y-178967D01*
X738576Y-178467D01*
X738007Y-178133D01*
X737247Y-177967D01*
X736804Y-177633D01*
X736614Y-177050D01*
X736740Y-176467D01*
X737057Y-176050D01*
X737500Y-175800D01*
X737943D01*
X738386Y-175967D01*
X738766Y-176383D01*
G01X742028Y-175800D02*
X743548D01*
G01X742788D02*
Y-180800D01*
G01X742028D02*
X743548D01*
G01X748267Y-178300D02*
X749533D01*
Y-179800D01*
X749153Y-180300D01*
X748710Y-180633D01*
X748077Y-180800D01*
X747444Y-180633D01*
X747000Y-180300D01*
X746620Y-179800D01*
X746367Y-179217D01*
X746240Y-178550D01*
Y-177967D01*
X746367Y-177467D01*
X746620Y-176883D01*
X747000Y-176383D01*
X747380Y-176050D01*
X747887Y-175800D01*
X748330D01*
X748837Y-175967D01*
X749216Y-176300D01*
G01X751529Y-180800D02*
Y-175800D01*
X754442Y-180800D01*
Y-175800D01*
G01X759350Y-180800D02*
X756817D01*
Y-175800D01*
X759350D01*
G01X758337Y-178217D02*
X756817D01*
G01X761916Y-180800D02*
Y-175800D01*
X763499D01*
X764005Y-176050D01*
X764322Y-176383D01*
X764448Y-177050D01*
X764322Y-177717D01*
X763942Y-178133D01*
X763499Y-178383D01*
X761916D01*
G01X763499D02*
X764448Y-180800D01*
G01X768280Y-180967D02*
X768154Y-180883D01*
Y-180717D01*
X768280Y-180633D01*
X768407Y-180717D01*
Y-180883D01*
X768280Y-180967D01*
G01Y-178717D02*
X768154Y-178633D01*
Y-178467D01*
X768280Y-178383D01*
X768407Y-178467D01*
Y-178633D01*
X768280Y-178717D01*
G01X717483Y-187000D02*
Y-193300D01*
X720617D01*
G01X723705Y-195190D02*
X724175Y-195400D01*
X724802Y-195190D01*
X725193Y-194770D01*
X725507Y-194245D01*
X725977Y-192565D01*
X726995Y-189100D01*
G01X724488D02*
X725977Y-192565D01*
G01X730318Y-193300D02*
Y-189100D01*
G01Y-190150D02*
X730632Y-189625D01*
X731102Y-189205D01*
X731728Y-189100D01*
X732277Y-189205D01*
X732747Y-189625D01*
X732982Y-190360D01*
Y-193300D01*
G01X736618D02*
Y-189100D01*
G01Y-190150D02*
X736932Y-189625D01*
X737402Y-189205D01*
X738028Y-189100D01*
X738577Y-189205D01*
X739047Y-189625D01*
X739282Y-190360D01*
Y-193300D01*
G01X748200Y-187000D02*
X749297Y-193300D01*
X750550Y-187000D01*
X751803Y-193300D01*
X752900Y-187000D01*
G01X756850Y-189100D02*
Y-193300D01*
G01Y-187420D02*
X756693Y-187315D01*
Y-187105D01*
X756850Y-187000D01*
X757007Y-187105D01*
Y-187315D01*
X756850Y-187420D01*
G01X763150Y-187000D02*
Y-193300D01*
G01X762053Y-189100D02*
X764247D01*
G01X769450Y-187000D02*
Y-193300D01*
G01X768353Y-189100D02*
X770547D01*
G01X774575Y-190465D02*
X777082D01*
X776847Y-189730D01*
X776455Y-189310D01*
X775907Y-189100D01*
X775358Y-189205D01*
X774888Y-189520D01*
X774575Y-190255D01*
X774418Y-190885D01*
Y-191515D01*
X774575Y-192145D01*
X774967Y-192775D01*
X775437Y-193195D01*
X775985Y-193300D01*
X776533Y-193090D01*
X777082Y-192460D01*
G01X780953Y-193300D02*
Y-189100D01*
G01Y-189940D02*
X781345Y-189520D01*
X781737Y-189205D01*
X782285Y-189100D01*
X782677Y-189205D01*
X783147Y-189520D01*
G01X799106Y-177133D02*
X799360Y-176883D01*
X799549Y-176467D01*
X799676Y-175883D01*
X799549Y-175383D01*
X799296Y-175050D01*
X798853Y-174800D01*
X797143D01*
Y-179800D01*
X799233D01*
X799676Y-179467D01*
X799929Y-178967D01*
X800056Y-178383D01*
X799929Y-177800D01*
X799549Y-177300D01*
X799106Y-177133D01*
X797143D01*
G01X803698Y-179800D02*
X803191Y-179717D01*
X802748Y-179383D01*
X802368Y-178883D01*
X802115Y-178300D01*
X801988Y-177633D01*
Y-176967D01*
X802115Y-176300D01*
X802368Y-175717D01*
X802748Y-175217D01*
X803191Y-174883D01*
X803698Y-174800D01*
X804204Y-174883D01*
X804648Y-175217D01*
X805028Y-175717D01*
X805281Y-176300D01*
X805408Y-176967D01*
Y-177633D01*
X805281Y-178300D01*
X805028Y-178883D01*
X804648Y-179383D01*
X804204Y-179717D01*
X803698Y-179800D01*
G01X807213D02*
X808796Y-174800D01*
X810380Y-179800D01*
G01X809810Y-178050D02*
X807783D01*
G01X812628Y-179800D02*
Y-174800D01*
X814211D01*
X814718Y-175050D01*
X815035Y-175383D01*
X815161Y-176050D01*
X815035Y-176717D01*
X814655Y-177133D01*
X814211Y-177383D01*
X812628D01*
G01X814211D02*
X815161Y-179800D01*
G01X817600D02*
Y-174800D01*
X818866D01*
X819373Y-175050D01*
X819753Y-175383D01*
X820070Y-175883D01*
X820323Y-176467D01*
X820386Y-177300D01*
X820323Y-178133D01*
X820070Y-178717D01*
X819753Y-179217D01*
X819373Y-179550D01*
X818866Y-179800D01*
X817600D01*
G01X827924D02*
Y-174800D01*
X829507D01*
X830013Y-175050D01*
X830330Y-175383D01*
X830456Y-176050D01*
X830330Y-176717D01*
X829950Y-177133D01*
X829507Y-177383D01*
X827924D01*
G01X829507D02*
X830456Y-179800D01*
G01X835555D02*
X833022D01*
Y-174800D01*
X835555D01*
G01X834542Y-177217D02*
X833022D01*
G01X837804Y-174800D02*
X839387Y-179800D01*
X840970Y-174800D01*
G01X844485Y-179967D02*
X844358Y-179883D01*
Y-179717D01*
X844485Y-179633D01*
X844612Y-179717D01*
Y-179883D01*
X844485Y-179967D01*
G01Y-177717D02*
X844358Y-177633D01*
Y-177467D01*
X844485Y-177383D01*
X844612Y-177467D01*
Y-177633D01*
X844485Y-177717D01*
G01X797333Y-148300D02*
Y-153300D01*
X799866D01*
G01X802115D02*
X803698Y-148300D01*
X805281Y-153300D01*
G01X804711Y-151550D02*
X802685D01*
G01X808796Y-153300D02*
Y-151050D01*
X807530Y-148300D01*
G01X810063D02*
X808796Y-151050D01*
G01X815161Y-153300D02*
X812628D01*
Y-148300D01*
X815161D01*
G01X814148Y-150717D02*
X812628D01*
G01X817727Y-153300D02*
Y-148300D01*
X819310D01*
X819816Y-148550D01*
X820133Y-148883D01*
X820260Y-149550D01*
X820133Y-150217D01*
X819753Y-150633D01*
X819310Y-150883D01*
X817727D01*
G01X819310D02*
X820260Y-153300D01*
G01X827797D02*
Y-148300D01*
X829063D01*
X829570Y-148550D01*
X829950Y-148883D01*
X830267Y-149383D01*
X830520Y-149967D01*
X830583Y-150800D01*
X830520Y-151633D01*
X830267Y-152217D01*
X829950Y-152717D01*
X829570Y-153050D01*
X829063Y-153300D01*
X827797D01*
G01X835555D02*
X833022D01*
Y-148300D01*
X835555D01*
G01X834542Y-150717D02*
X833022D01*
G01X838057Y-152634D02*
X838564Y-153050D01*
X839134Y-153300D01*
X839640D01*
X840147Y-153050D01*
X840527Y-152634D01*
X840717Y-152050D01*
X840590Y-151467D01*
X840273Y-150967D01*
X839703Y-150633D01*
X838944Y-150467D01*
X838500Y-150133D01*
X838310Y-149550D01*
X838437Y-148967D01*
X838754Y-148550D01*
X839197Y-148300D01*
X839640D01*
X840083Y-148467D01*
X840463Y-148883D01*
G01X845878Y-148717D02*
X845498Y-148467D01*
X845055Y-148300D01*
X844549D01*
X843979Y-148550D01*
X843535Y-148967D01*
X843219Y-149467D01*
X842965Y-150300D01*
X842902Y-151050D01*
X843029Y-151800D01*
X843219Y-152300D01*
X843599Y-152800D01*
X844042Y-153133D01*
X844485Y-153300D01*
X844928D01*
X845372Y-153133D01*
X845752Y-152883D01*
X846068Y-152550D01*
G01X848317Y-153300D02*
Y-148300D01*
X849900D01*
X850407Y-148550D01*
X850723Y-148883D01*
X850850Y-149550D01*
X850723Y-150217D01*
X850344Y-150633D01*
X849900Y-150883D01*
X848317D01*
G01X849900D02*
X850850Y-153300D01*
G01X853922Y-148300D02*
X855442D01*
G01X854682D02*
Y-153300D01*
G01X853922D02*
X855442D01*
G01X858514D02*
Y-148300D01*
X860034D01*
X860540Y-148550D01*
X860920Y-149133D01*
X861047Y-149800D01*
X860920Y-150467D01*
X860604Y-150967D01*
X860034Y-151217D01*
X858514D01*
G01X864879Y-148300D02*
Y-153300D01*
G01X863423Y-148300D02*
X866335D01*
G01X869217D02*
X870737D01*
G01X869977D02*
Y-153300D01*
G01X869217D02*
X870737D01*
G01X875076D02*
X874569Y-153217D01*
X874126Y-152883D01*
X873746Y-152383D01*
X873492Y-151800D01*
X873366Y-151133D01*
Y-150467D01*
X873492Y-149800D01*
X873746Y-149217D01*
X874126Y-148717D01*
X874569Y-148383D01*
X875076Y-148300D01*
X875582Y-148383D01*
X876025Y-148717D01*
X876405Y-149217D01*
X876659Y-149800D01*
X876785Y-150467D01*
Y-151133D01*
X876659Y-151800D01*
X876405Y-152383D01*
X876025Y-152883D01*
X875582Y-153217D01*
X875076Y-153300D01*
G01X878718D02*
Y-148300D01*
X881630Y-153300D01*
Y-148300D01*
G01X885272Y-153467D02*
X885146Y-153383D01*
Y-153217D01*
X885272Y-153133D01*
X885399Y-153217D01*
Y-153383D01*
X885272Y-153467D01*
G01Y-151217D02*
X885146Y-151133D01*
Y-150967D01*
X885272Y-150883D01*
X885399Y-150967D01*
Y-151133D01*
X885272Y-151217D01*
G01X816905Y-165800D02*
X820195Y-159500D01*
G01X816905D02*
X820195Y-165800D01*
G01X828242Y-192800D02*
X830200Y-186500D01*
X832158Y-192800D01*
G01X831453Y-190595D02*
X828947D01*
G01X844883Y-158800D02*
Y-165100D01*
X848017D01*
G01X850792D02*
X852750Y-158800D01*
X854708Y-165100D01*
G01X854003Y-162895D02*
X851497D01*
G01X859050Y-165100D02*
Y-162265D01*
X857483Y-158800D01*
G01X860617D02*
X859050Y-162265D01*
G01X866917Y-165100D02*
X863783D01*
Y-158800D01*
X866917D01*
G01X865663Y-161845D02*
X863783D01*
G01X870083Y-165100D02*
Y-158800D01*
X872042D01*
X872668Y-159115D01*
X873060Y-159535D01*
X873217Y-160375D01*
X873060Y-161215D01*
X872590Y-161740D01*
X872042Y-162055D01*
X870083D01*
G01X872042D02*
X873217Y-165100D01*
G01X882527Y-163840D02*
X882997Y-164575D01*
X883623Y-164995D01*
X884328Y-165100D01*
X884955Y-164995D01*
X885582Y-164470D01*
X885973Y-163840D01*
X886052Y-163210D01*
X885895Y-162475D01*
X885347Y-161950D01*
X884798Y-161740D01*
X884093D01*
G01X884798D02*
X885268Y-161425D01*
X885660Y-160900D01*
X885817Y-160270D01*
X885660Y-159640D01*
X885268Y-159115D01*
X884563Y-158800D01*
X883858Y-158905D01*
X883153Y-159325D01*
G01X895832Y-163000D02*
X897868D01*
G01X907805Y-164260D02*
X908432Y-164785D01*
X909137Y-165100D01*
X909763D01*
X910390Y-164785D01*
X910860Y-164260D01*
X911095Y-163525D01*
X910938Y-162790D01*
X910547Y-162160D01*
X909842Y-161740D01*
X908902Y-161530D01*
X908353Y-161110D01*
X908118Y-160375D01*
X908275Y-159640D01*
X908667Y-159115D01*
X909215Y-158800D01*
X909763D01*
X910312Y-159010D01*
X910782Y-159535D01*
G01X914810Y-158800D02*
X916690D01*
G01X915750D02*
Y-165100D01*
G01X914810D02*
X916690D01*
G01X922520Y-161950D02*
X924087D01*
Y-163840D01*
X923617Y-164470D01*
X923068Y-164890D01*
X922285Y-165100D01*
X921502Y-164890D01*
X920953Y-164470D01*
X920483Y-163840D01*
X920170Y-163105D01*
X920013Y-162265D01*
Y-161530D01*
X920170Y-160900D01*
X920483Y-160165D01*
X920953Y-159535D01*
X921423Y-159115D01*
X922050Y-158800D01*
X922598D01*
X923225Y-159010D01*
X923695Y-159430D01*
G01X926548Y-165100D02*
Y-158800D01*
X930152Y-165100D01*
Y-158800D01*
G01X932692Y-165100D02*
X934650Y-158800D01*
X936608Y-165100D01*
G01X935903Y-162895D02*
X933397D01*
G01X939383Y-158800D02*
Y-165100D01*
X942517D01*
G01X871333Y-179800D02*
Y-174800D01*
X872916D01*
X873423Y-175050D01*
X873739Y-175383D01*
X873866Y-176050D01*
X873739Y-176717D01*
X873359Y-177133D01*
X872916Y-177383D01*
X871333D01*
G01X872916D02*
X873866Y-179800D01*
G01X878964D02*
X876432D01*
Y-174800D01*
X878964D01*
G01X877951Y-177217D02*
X876432D01*
G01X881530Y-174800D02*
Y-179800D01*
X884063D01*
G01X889161D02*
X886628D01*
Y-174800D01*
X889161D01*
G01X888148Y-177217D02*
X886628D01*
G01X891410Y-179800D02*
X892993Y-174800D01*
X894576Y-179800D01*
G01X894006Y-178050D02*
X891980D01*
G01X896762Y-179134D02*
X897268Y-179550D01*
X897838Y-179800D01*
X898345D01*
X898852Y-179550D01*
X899231Y-179134D01*
X899421Y-178550D01*
X899295Y-177967D01*
X898978Y-177467D01*
X898408Y-177133D01*
X897648Y-176967D01*
X897205Y-176633D01*
X897015Y-176050D01*
X897142Y-175467D01*
X897458Y-175050D01*
X897902Y-174800D01*
X898345D01*
X898788Y-174967D01*
X899168Y-175383D01*
G01X904456Y-179800D02*
X901924D01*
Y-174800D01*
X904456D01*
G01X903443Y-177217D02*
X901924D01*
G01X911994Y-179800D02*
Y-174800D01*
X913260D01*
X913767Y-175050D01*
X914147Y-175383D01*
X914463Y-175883D01*
X914717Y-176467D01*
X914780Y-177300D01*
X914717Y-178133D01*
X914463Y-178717D01*
X914147Y-179217D01*
X913767Y-179550D01*
X913260Y-179800D01*
X911994D01*
G01X916902D02*
X918485Y-174800D01*
X920068Y-179800D01*
G01X919498Y-178050D02*
X917472D01*
G01X923584Y-174800D02*
Y-179800D01*
G01X922127Y-174800D02*
X925040D01*
G01X929948Y-179800D02*
X927416D01*
Y-174800D01*
X929948D01*
G01X928935Y-177217D02*
X927416D01*
G01X933780Y-179967D02*
X933654Y-179883D01*
Y-179717D01*
X933780Y-179633D01*
X933907Y-179717D01*
Y-179883D01*
X933780Y-179967D01*
G01Y-177717D02*
X933654Y-177633D01*
Y-177467D01*
X933780Y-177383D01*
X933907Y-177467D01*
Y-177633D01*
X933780Y-177717D01*
G01X871207Y-124800D02*
Y-119800D01*
G01X873613D02*
X871207Y-122883D01*
G01X873993Y-124800D02*
X872283Y-121467D01*
G01X876368Y-124134D02*
X876875Y-124550D01*
X877445Y-124800D01*
X877951D01*
X878458Y-124550D01*
X878838Y-124134D01*
X879028Y-123550D01*
X878901Y-122967D01*
X878584Y-122467D01*
X878015Y-122133D01*
X877255Y-121967D01*
X876812Y-121633D01*
X876622Y-121050D01*
X876748Y-120467D01*
X877065Y-120050D01*
X877508Y-119800D01*
X877951D01*
X878394Y-119967D01*
X878775Y-120383D01*
G01X882037Y-119800D02*
X883556D01*
G01X882796D02*
Y-124800D01*
G01X882037D02*
X883556D01*
G01X886502D02*
Y-119800D01*
X887768D01*
X888275Y-120050D01*
X888655Y-120383D01*
X888971Y-120883D01*
X889225Y-121467D01*
X889288Y-122300D01*
X889225Y-123133D01*
X888971Y-123717D01*
X888655Y-124217D01*
X888275Y-124550D01*
X887768Y-124800D01*
X886502D01*
G01X892993Y-124967D02*
X892866Y-124883D01*
Y-124717D01*
X892993Y-124633D01*
X893120Y-124717D01*
Y-124883D01*
X892993Y-124967D01*
G01Y-122717D02*
X892866Y-122633D01*
Y-122467D01*
X892993Y-122383D01*
X893120Y-122467D01*
Y-122633D01*
X892993Y-122717D01*
G01X884663Y-192800D02*
Y-186500D01*
X886700Y-191750D01*
X888737Y-186500D01*
Y-192800D01*
G01X891042D02*
X893000Y-186500D01*
X894958Y-192800D01*
G01X894253Y-190595D02*
X891747D01*
G01X897733Y-192800D02*
Y-186500D01*
X899692D01*
X900318Y-186815D01*
X900710Y-187235D01*
X900867Y-188075D01*
X900710Y-188915D01*
X900240Y-189440D01*
X899692Y-189755D01*
X897733D01*
G01X899692D02*
X900867Y-192800D01*
G01X904582Y-190700D02*
X906618D01*
G01X911900Y-192800D02*
Y-186500D01*
X910960Y-187760D01*
G01Y-192800D02*
X912840D01*
G01X916712Y-190175D02*
X917260Y-189440D01*
X917730Y-189020D01*
X918357Y-188810D01*
X918905Y-189020D01*
X919297Y-189440D01*
X919610Y-190070D01*
X919688Y-190805D01*
X919610Y-191435D01*
X919297Y-192065D01*
X918827Y-192590D01*
X918278Y-192800D01*
X917652Y-192590D01*
X917103Y-191960D01*
X916790Y-191015D01*
X916712Y-189965D01*
X916868Y-188600D01*
X917103Y-187865D01*
X917495Y-187130D01*
X918043Y-186605D01*
X918592Y-186500D01*
X919140Y-186710D01*
X919532Y-187235D01*
G01X923482Y-190700D02*
X925518D01*
G01X929312Y-187550D02*
X929782Y-186920D01*
X930330Y-186605D01*
X930957Y-186500D01*
X931740Y-186710D01*
X932288Y-187235D01*
X932445Y-187865D01*
X932367Y-188495D01*
X932053Y-189020D01*
X930487Y-190070D01*
X929782Y-190805D01*
X929312Y-191855D01*
X929155Y-192800D01*
X932445D01*
G01X937100Y-186500D02*
X936473Y-186710D01*
X936003Y-187235D01*
X935690Y-187865D01*
X935455Y-188705D01*
X935377Y-189650D01*
X935455Y-190595D01*
X935690Y-191435D01*
X936003Y-192065D01*
X936473Y-192590D01*
X937100Y-192800D01*
X937727Y-192590D01*
X938197Y-192065D01*
X938510Y-191435D01*
X938745Y-190595D01*
X938823Y-189650D01*
X938745Y-188705D01*
X938510Y-187865D01*
X938197Y-187235D01*
X937727Y-186710D01*
X937100Y-186500D01*
G01X943400Y-192800D02*
Y-186500D01*
X942460Y-187760D01*
G01Y-192800D02*
X944340D01*
G01X949543D02*
X949700Y-191435D01*
X949935Y-190280D01*
X950248Y-189230D01*
X950640Y-188075D01*
X951267Y-186500D01*
X948133D01*
G01X905600Y-137800D02*
Y-131500D01*
X904660Y-132760D01*
G01Y-137800D02*
X906540D01*
G01X911743D02*
X911900Y-136435D01*
X912135Y-135280D01*
X912448Y-134230D01*
X912840Y-133075D01*
X913467Y-131500D01*
X910333D01*
G01X918043Y-137800D02*
X918200Y-136435D01*
X918435Y-135280D01*
X918748Y-134230D01*
X919140Y-133075D01*
X919767Y-131500D01*
X916633D01*
G01X925440Y-137800D02*
Y-131500D01*
X922542Y-136015D01*
X926458D01*
G01X929077Y-136855D02*
X929547Y-137380D01*
X930095Y-137695D01*
X930800Y-137800D01*
X931505Y-137590D01*
X932053Y-137170D01*
X932445Y-136435D01*
X932523Y-135595D01*
X932367Y-134755D01*
X931975Y-134230D01*
X931427Y-133810D01*
X930878Y-133705D01*
X930330Y-133810D01*
X929625Y-134230D01*
X929860Y-131500D01*
X931975D01*
G01X973770Y-179134D02*
X974276Y-179550D01*
X974846Y-179800D01*
X975353D01*
X975860Y-179550D01*
X976239Y-179134D01*
X976429Y-178550D01*
X976303Y-177967D01*
X975986Y-177467D01*
X975416Y-177133D01*
X974656Y-176967D01*
X974213Y-176633D01*
X974023Y-176050D01*
X974150Y-175467D01*
X974466Y-175050D01*
X974910Y-174800D01*
X975353D01*
X975796Y-174967D01*
X976176Y-175383D01*
G01X978868Y-179800D02*
Y-174800D01*
G01X981528D02*
Y-179800D01*
G01Y-177300D02*
X978868D01*
G01X986563Y-179800D02*
X984030D01*
Y-174800D01*
X986563D01*
G01X985550Y-177217D02*
X984030D01*
G01X991661Y-179800D02*
X989128D01*
Y-174800D01*
X991661D01*
G01X990648Y-177217D02*
X989128D01*
G01X995493Y-174800D02*
Y-179800D01*
G01X994037Y-174800D02*
X996950D01*
G01X1004234Y-179800D02*
Y-174800D01*
X1007146Y-179800D01*
Y-174800D01*
G01X1009395D02*
Y-178383D01*
X1009649Y-179134D01*
X1010155Y-179633D01*
X1010788Y-179800D01*
X1011422Y-179633D01*
X1011928Y-179134D01*
X1012181Y-178383D01*
Y-174800D01*
G01X1014240Y-179800D02*
Y-174800D01*
X1015887Y-178967D01*
X1017533Y-174800D01*
Y-179800D01*
G01X1021492Y-177133D02*
X1021745Y-176883D01*
X1021935Y-176467D01*
X1022062Y-175883D01*
X1021935Y-175383D01*
X1021682Y-175050D01*
X1021239Y-174800D01*
X1019529D01*
Y-179800D01*
X1021618D01*
X1022062Y-179467D01*
X1022315Y-178967D01*
X1022442Y-178383D01*
X1022315Y-177800D01*
X1021935Y-177300D01*
X1021492Y-177133D01*
X1019529D01*
G01X1027350Y-179800D02*
X1024817D01*
Y-174800D01*
X1027350D01*
G01X1026337Y-177217D02*
X1024817D01*
G01X1029916Y-179800D02*
Y-174800D01*
X1031499D01*
X1032005Y-175050D01*
X1032322Y-175383D01*
X1032448Y-176050D01*
X1032322Y-176717D01*
X1031942Y-177133D01*
X1031499Y-177383D01*
X1029916D01*
G01X1031499D02*
X1032448Y-179800D01*
G01X1036280Y-179967D02*
X1036154Y-179883D01*
Y-179717D01*
X1036280Y-179633D01*
X1036407Y-179717D01*
Y-179883D01*
X1036280Y-179967D01*
G01Y-177717D02*
X1036154Y-177633D01*
Y-177467D01*
X1036280Y-177383D01*
X1036407Y-177467D01*
Y-177633D01*
X1036280Y-177717D01*
G01X973333Y-123800D02*
X973650Y-124300D01*
X974030Y-124633D01*
X974473Y-124800D01*
X974980Y-124633D01*
X975359Y-124300D01*
X975739Y-123800D01*
X975866Y-123133D01*
Y-119800D01*
G01X979698Y-124800D02*
X979191Y-124717D01*
X978748Y-124383D01*
X978368Y-123883D01*
X978115Y-123300D01*
X977988Y-122633D01*
Y-121967D01*
X978115Y-121300D01*
X978368Y-120717D01*
X978748Y-120217D01*
X979191Y-119883D01*
X979698Y-119800D01*
X980204Y-119883D01*
X980648Y-120217D01*
X981028Y-120717D01*
X981281Y-121300D01*
X981408Y-121967D01*
Y-122633D01*
X981281Y-123300D01*
X981028Y-123883D01*
X980648Y-124383D01*
X980204Y-124717D01*
X979698Y-124800D01*
G01X985303Y-122133D02*
X985556Y-121883D01*
X985746Y-121467D01*
X985873Y-120883D01*
X985746Y-120383D01*
X985493Y-120050D01*
X985050Y-119800D01*
X983340D01*
Y-124800D01*
X985430D01*
X985873Y-124467D01*
X986126Y-123967D01*
X986253Y-123383D01*
X986126Y-122800D01*
X985746Y-122300D01*
X985303Y-122133D01*
X983340D01*
G01X993537Y-124800D02*
Y-119800D01*
X996450Y-124800D01*
Y-119800D01*
G01X998699D02*
Y-123383D01*
X998952Y-124134D01*
X999458Y-124633D01*
X1000092Y-124800D01*
X1000725Y-124633D01*
X1001231Y-124134D01*
X1001485Y-123383D01*
Y-119800D01*
G01X1003544Y-124800D02*
Y-119800D01*
X1005190Y-123967D01*
X1006836Y-119800D01*
Y-124800D01*
G01X1010795Y-122133D02*
X1011048Y-121883D01*
X1011238Y-121467D01*
X1011365Y-120883D01*
X1011238Y-120383D01*
X1010985Y-120050D01*
X1010542Y-119800D01*
X1008832D01*
Y-124800D01*
X1010922D01*
X1011365Y-124467D01*
X1011618Y-123967D01*
X1011745Y-123383D01*
X1011618Y-122800D01*
X1011238Y-122300D01*
X1010795Y-122133D01*
X1008832D01*
G01X1016653Y-124800D02*
X1014120D01*
Y-119800D01*
X1016653D01*
G01X1015640Y-122217D02*
X1014120D01*
G01X1019219Y-124800D02*
Y-119800D01*
X1020802D01*
X1021308Y-120050D01*
X1021625Y-120383D01*
X1021752Y-121050D01*
X1021625Y-121717D01*
X1021245Y-122133D01*
X1020802Y-122383D01*
X1019219D01*
G01X1020802D02*
X1021752Y-124800D01*
G01X1025583Y-124967D02*
X1025457Y-124883D01*
Y-124717D01*
X1025583Y-124633D01*
X1025710Y-124717D01*
Y-124883D01*
X1025583Y-124967D01*
G01Y-122717D02*
X1025457Y-122633D01*
Y-122467D01*
X1025583Y-122383D01*
X1025710Y-122467D01*
Y-122633D01*
X1025583Y-122717D01*
G01X989905Y-192800D02*
X993195Y-186500D01*
G01X989905D02*
X993195Y-192800D01*
G01X996205D02*
X999495Y-186500D01*
G01X996205D02*
X999495Y-192800D01*
G01X997950Y-137800D02*
Y-131500D01*
X997010Y-132760D01*
G01Y-137800D02*
X998890D01*
G01X1002527Y-136540D02*
X1002997Y-137275D01*
X1003623Y-137695D01*
X1004328Y-137800D01*
X1004955Y-137695D01*
X1005582Y-137170D01*
X1005973Y-136540D01*
X1006052Y-135910D01*
X1005895Y-135175D01*
X1005347Y-134650D01*
X1004798Y-134440D01*
X1004093D01*
G01X1004798D02*
X1005268Y-134125D01*
X1005660Y-133600D01*
X1005817Y-132970D01*
X1005660Y-132340D01*
X1005268Y-131815D01*
X1004563Y-131500D01*
X1003858Y-131605D01*
X1003153Y-132025D01*
G01X1010550Y-137800D02*
Y-131500D01*
X1009610Y-132760D01*
G01Y-137800D02*
X1011490D01*
G01X1016850D02*
X1017398Y-137695D01*
X1018025Y-137380D01*
X1018417Y-136855D01*
X1018573Y-136120D01*
X1018417Y-135385D01*
X1017947Y-134755D01*
X1017242Y-134440D01*
X1016458D01*
X1015988Y-134230D01*
X1015597Y-133705D01*
X1015440Y-132970D01*
X1015675Y-132235D01*
X1016223Y-131710D01*
X1016850Y-131500D01*
X1017477Y-131710D01*
X1018025Y-132235D01*
X1018260Y-132970D01*
X1018103Y-133705D01*
X1017712Y-134230D01*
X1017242Y-134440D01*
X1016458D01*
X1015753Y-134755D01*
X1015283Y-135385D01*
X1015127Y-136120D01*
X1015283Y-136855D01*
X1015675Y-137380D01*
X1016302Y-137695D01*
X1016850Y-137800D01*
G01X1023150D02*
X1023698Y-137695D01*
X1024325Y-137380D01*
X1024717Y-136855D01*
X1024873Y-136120D01*
X1024717Y-135385D01*
X1024247Y-134755D01*
X1023542Y-134440D01*
X1022758D01*
X1022288Y-134230D01*
X1021897Y-133705D01*
X1021740Y-132970D01*
X1021975Y-132235D01*
X1022523Y-131710D01*
X1023150Y-131500D01*
X1023777Y-131710D01*
X1024325Y-132235D01*
X1024560Y-132970D01*
X1024403Y-133705D01*
X1024012Y-134230D01*
X1023542Y-134440D01*
X1022758D01*
X1022053Y-134755D01*
X1021583Y-135385D01*
X1021427Y-136120D01*
X1021583Y-136855D01*
X1021975Y-137380D01*
X1022602Y-137695D01*
X1023150Y-137800D01*
G01X1029450D02*
Y-131500D01*
X1028510Y-132760D01*
G01Y-137800D02*
X1030390D01*
G01X1010550Y-192800D02*
X1010080Y-192695D01*
X1009610Y-192275D01*
X1009297Y-191540D01*
X1009140Y-190700D01*
X1009297Y-189860D01*
X1009610Y-189125D01*
X1010080Y-188705D01*
X1010550Y-188600D01*
X1011020Y-188705D01*
X1011490Y-189125D01*
X1011803Y-189860D01*
X1011882Y-190700D01*
X1011803Y-191540D01*
X1011490Y-192275D01*
X1011020Y-192695D01*
X1010550Y-192800D01*
G01X1016380D02*
Y-187445D01*
X1016537Y-186920D01*
X1016850Y-186605D01*
X1017320Y-186500D01*
X1017790Y-186710D01*
X1018025Y-187235D01*
G01X1017085Y-189020D02*
X1015518D01*
G01X1027905Y-192800D02*
X1031195Y-186500D01*
G01X1027905D02*
X1031195Y-192800D01*
G01X1034205D02*
X1037495Y-186500D01*
G01X1034205D02*
X1037495Y-192800D01*
G54D18*
X46500Y114800D03*
Y122700D03*
X68500Y176950D03*
X85200Y124600D03*
X139500Y102200D03*
X200000Y65000D03*
Y72500D03*
Y87500D03*
Y80000D03*
X233500Y35700D03*
G54D28*
G01X252600Y78675D02*
X262905D01*
X265640Y81410D01*
G54D19*
X68750Y31200D03*
X69000Y55200D03*
Y52450D03*
X66000D03*
Y55200D03*
X68750Y76450D03*
X73250Y31200D03*
X75250Y55200D03*
Y52450D03*
X72000Y55200D03*
Y52450D03*
X73250Y76450D03*
X162426Y139805D03*
X167028Y142028D03*
X190659Y139805D03*
X187814Y148768D03*
X180689Y162205D03*
X183252Y166179D03*
X190052Y178002D03*
X186852Y178179D03*
X203258Y139805D03*
X197652Y139905D03*
Y177805D03*
X194470Y177786D03*
X200870D03*
X210873Y130982D03*
X206407Y139805D03*
X204852Y177805D03*
X208833Y177786D03*
G54D29*
G01X200000Y72500D02*
X233230D01*
G01X200000Y65000D02*
X230500D01*
X236230Y70730D01*
Y71470D01*
X237990Y73230D01*
G01X229130Y75150D02*
X204850D01*
X200000Y80000D01*
M02*
