G04 ================== begin FILE IDENTIFICATION RECORD ==================*
G04 Layout Name:  R:/nHD EVM Rev2/LAYOUT/03-16-17/nHD EVM Rev2 031617.brd*
G04 Film Name:    111609-01_ly4*
G04 File Format:  Gerber RS274X*
G04 File Origin:  Cadence Allegro 16.6-2015-S082*
G04 Origin Date:  Thu Mar 16 08:39:41 2017*
G04 *
G04 Layer:  DRAWING FORMAT/KRYPTON_TITLE_BLK*
G04 Layer:  VIA CLASS/LY4*
G04 Layer:  PIN/LY4*
G04 Layer:  ETCH/LY4*
G04 Layer:  DRAWING FORMAT/MOIRE_TOP*
G04 Layer:  DRAWING FORMAT/TITLE_TOP*
G04 *
G04 Offset:    (0.000 0.000)*
G04 Mirror:    No*
G04 Mode:      Positive*
G04 Rotation:  0*
G04 FullContactRelief:  No*
G04 UndefLineWidth:     6.000*
G04 ================== end FILE IDENTIFICATION RECORD ====================*
%FSLAX25Y25*MOIN*%
%IR0*IPPOS*OFA0.00000B0.00000*MIA0B0*SFA1.00000B1.00000*%
%ADD11O,.07X.15*%
%ADD13O,.15X.07*%
%ADD15O,.07X.18*%
%ADD16C,.04*%
%ADD18C,.032*%
%ADD10C,.05*%
%ADD12C,.06*%
%ADD20C,.016*%
%ADD17C,.07*%
%ADD14C,.018*%
%ADD19C,.019*%
%ADD21C,.023622*%
%ADD22C,.005*%
%ADD23C,.007*%
%ADD24C,.01*%
%ADD25C,.015*%
%ADD38O,.090004X.200004*%
%ADD35C,.200005*%
%ADD26O,.082004X.162004*%
%ADD33C,.052004*%
%ADD31C,.044004*%
%ADD30C,.026004*%
%ADD37C,.090004*%
%ADD32C,.027004*%
%ADD27C,.072004*%
%ADD36C,.082004*%
%ADD29C,.028004*%
%ADD28C,.029004*%
%ADD34C,.043626*%
G75*
%LPD*%
G75*
G36*
G01X13909Y3100D02*
G02X13710Y3847I0J400D01*
G03X3701Y21162I-4993J8664D01*
G02X3100Y21508I-201J346D01*
G01Y75200D01*
X41300D01*
Y91300D01*
X45535D01*
G03X48065I1265J600D01*
G01X92800D01*
Y118706D01*
X92972Y118730D01*
G03X93150Y118766I-193J1387D01*
G02X93402Y118562I53J-193D01*
G03X94853Y117081I1398J-82D01*
G02X95228Y116508I15J-400D01*
G03X97203Y114695I1262J-607D01*
G02X97763Y114533I204J-344D01*
G03X98297Y116375I1247J637D01*
G02X97737Y116537I-204J344D01*
G03X96437Y117299I-1247J-637D01*
G02X96062Y117872I-15J400D01*
G03X94624Y119869I-1262J608D01*
G02X94175Y120233I-50J397D01*
G03X92972Y121503I-1395J-116D01*
G01X92800Y121527D01*
Y123299D01*
G02X93425Y123630I400J0D01*
G03X94257Y123389I787J1158D01*
G02X94670Y122985I13J-400D01*
G03X96993Y124023I1400J-15D01*
G02X97111Y124696I264J301D01*
G03X95248Y126363I-511J1304D01*
G02X94717Y126094I-386J104D01*
G03X94112Y126185I-506J-1306D01*
G02X93684Y126573I-28J399D01*
G03X93136Y127645I-1400J-39D01*
G02X93073Y128220I243J317D01*
G03X93366Y129430I-1073J900D01*
G02X93699Y129914I390J88D01*
G03X94713Y132000I-199J1386D01*
G02X95059Y132600I346J200D01*
G01X97800D01*
Y132700D01*
X97800Y133534D01*
G02X98188Y133934I400J0D01*
G03Y136733I-42J1400D01*
G02X97800Y137132I12J400D01*
G01Y153500D01*
X117194D01*
X117250Y153393D01*
G03X119550I1150J607D01*
G01X119606Y153500D01*
X120400D01*
Y138286D01*
G02X119860Y137912I-400J0D01*
G03Y135288I-490J-1312D01*
G02X120400Y134914I140J-375D01*
G01Y134300D01*
X108500D01*
Y111504D01*
G02X107876Y111173I-400J0D01*
G03X106664Y111347I-785J-1159D01*
G02X106143Y111688I-122J381D01*
G03X104176Y112827I-1393J-138D01*
G02X103616Y113249I-164J365D01*
G03X102804Y112173I-1386J201D01*
G02X103364Y111751I164J-365D01*
G03X105177Y110217I1386J-201D01*
G02X105697Y109875I122J-381D01*
G03X107527Y108683I1393J138D01*
G02X108049Y108345I125J-380D01*
G03X108500Y107456I1392J148D01*
G01Y91300D01*
X125600D01*
Y75100D01*
X150090D01*
X150115Y74929D01*
G03X151875Y73786I1385J206D01*
G02X152379Y73349I107J-385D01*
G03X152798Y72156I1388J-182D01*
G02X152672Y71497I-277J-289D01*
G03X152238Y71217I528J-1297D01*
G02X151962I-137J145D01*
G03Y69183I-962J-1017D01*
G02X152238I138J-145D01*
G03X154119Y69143I963J1017D01*
G02X154381I131J-151D01*
G03Y71257I919J1057D01*
G02X154119I-131J151D01*
G03X153903Y71411I-919J-1057D01*
G02X153973Y71782I100J173D01*
G03X153093Y74394I-207J1385D01*
G02X152810Y74640I-96J175D01*
G03X152885Y74929I-1310J495D01*
G01X152910Y75100D01*
X198614D01*
G02X198827Y74362I0J-400D01*
G03X201173I1173J-1862D01*
G02X201386Y75100I213J338D01*
G01X210200D01*
Y50200D01*
X236500D01*
Y37197D01*
G02X235753Y36998I-400J0D01*
G03Y34402I-2253J-1298D01*
G02X236500Y34203I347J-200D01*
G01Y31300D01*
X212300D01*
Y40800D01*
X198200D01*
Y49300D01*
X184839D01*
G02X184442Y49744I0J400D01*
G03X181658I-1391J156D01*
G02X181261Y49300I-398J-44D01*
G01X142000D01*
Y53300D01*
X122100D01*
Y66100D01*
X31400D01*
Y40600D01*
X52830D01*
G03X56456Y39125I3170J2600D01*
G02X56900Y38728I44J-398D01*
G01Y30637D01*
G02X56267Y30312I-400J0D01*
G03Y26088I-1517J-2112D01*
G02X56900Y25763I233J-325D01*
G01Y20618D01*
G03Y14382I1800J-3118D01*
G01Y10618D01*
G03Y4382I1800J-3118D01*
G01Y3100D01*
X40534D01*
G02X40367Y3864I0J400D01*
G03X37033I-1667J3636D01*
G02X36866Y3100I-167J-364D01*
G01X13909D01*
G37*
G36*
G01X110200Y107315D02*
G03Y109670I-758J1177D01*
G01Y132700D01*
X122000D01*
Y155100D01*
X119093D01*
G03X117707I-693J-1100D01*
G01X116490D01*
X116445Y155237D01*
G03X113975Y155237I-1235J-407D01*
G01X113930Y155100D01*
X101497D01*
G02X101164Y155722I0J400D01*
G03X98836I-1164J778D01*
G02X98503Y155100I-333J-222D01*
G01X96300D01*
Y152260D01*
G02X95816Y151869I-400J0D01*
G03Y149131I-296J-1369D01*
G02X96300Y148740I84J-391D01*
G01Y141706D01*
G02X95707Y141356I-400J0D01*
G03X93630Y140118I-677J-1226D01*
G02X93091Y139740I-400J-3D01*
G03X92990Y137082I-488J-1313D01*
G02X93500Y136685I111J-384D01*
G03X93536Y136324I1399J-45D01*
G02X93220Y135841I-390J-90D01*
G03X92080Y134570I257J-1376D01*
G02X91682Y134200I-399J30D01*
G01X91200D01*
Y130269D01*
G03Y127971I800J-1149D01*
G01Y127422D01*
X91160Y127369D01*
G03X91200Y125648I1124J-835D01*
G01Y92900D01*
X47780D01*
G03X45820I-980J-1000D01*
G01X41300D01*
Y159700D01*
X-5700D01*
Y172900D01*
X38825D01*
X38870Y172762D01*
G03X41100Y174273I1330J437D01*
G01Y191400D01*
X227800D01*
Y184994D01*
G02X227367Y184595I-400J0D01*
G03Y181805I-117J-1395D01*
G02X227800Y181406I33J-399D01*
G01Y180779D01*
X227490D01*
X227431Y180872D01*
G03X224852Y180039I-1181J-752D01*
G02X224301Y179646I-399J-23D01*
G03X225168Y178431I-531J-1296D01*
G02X225719Y178824I399J23D01*
G03X227145Y179043I531J1296D01*
G02X227800Y178735I256J-308D01*
G01Y173625D01*
G02X227156Y173308I-400J0D01*
G03Y171092I-856J-1108D01*
G02X227800Y170775I244J-317D01*
G01Y95794D01*
G02X227433Y95395I-400J0D01*
G03Y92605I117J-1395D01*
G02X227800Y92206I-33J-399D01*
G01Y90794D01*
G02X227433Y90395I-400J0D01*
G03X227380Y90390I115J-1395D01*
G02X226934Y90825I-48J397D01*
G03X225710Y89570I-1394J135D01*
G02X226156Y89135I48J-397D01*
G03X227433Y87605I1394J-135D01*
G02X227800Y87206I-33J-399D01*
G01Y85794D01*
G02X227433Y85395I-400J0D01*
G03Y82605I117J-1395D01*
G02X227800Y82206I-33J-399D01*
G01Y81668D01*
G02X227220Y81311I-400J0D01*
G03X225332Y79445I-630J-1250D01*
G02X224963Y78870I-359J-176D01*
G03X226188Y78085I-33J-1400D01*
G02X226557Y78660I359J176D01*
G03X227220Y78810I33J1400D01*
G02X227800Y78452I180J-357D01*
G01Y76100D01*
X228000D01*
Y75900D01*
X260300D01*
Y76100D01*
X260400D01*
Y82500D01*
X260733D01*
X260792Y82412D01*
G03X263163Y82500I1158J788D01*
G01X267600D01*
Y59300D01*
X256083D01*
G03X254457I-813J-1140D01*
G01X252200D01*
Y59089D01*
X251984D01*
X251968Y59092D01*
G03X251787Y56311I-228J-1382D01*
G02X252200Y55911I13J-400D01*
G01Y31400D01*
X238100D01*
Y51800D01*
X211800D01*
Y76700D01*
X156797D01*
G02X156464Y77322I0J400D01*
G03X154406Y79178I-1164J778D01*
G01X154380Y79156D01*
X154250Y79108D01*
X154120Y79156D01*
X154094Y79178D01*
G03X152238Y79117I-894J-1078D01*
G02X151962I-137J145D01*
G03X149836Y77322I-962J-1017D01*
G02X149503Y76700I-333J-222D01*
G01X127400D01*
Y88845D01*
X127560Y88878D01*
G03Y91622I-280J1372D01*
G01X127400Y91655D01*
Y93000D01*
X110200D01*
Y96753D01*
G02X110733Y97130I400J0D01*
G03Y99770I467J1320D01*
G02X110200Y100147I-133J377D01*
G01Y107315D01*
G37*
G36*
G01X198864Y39200D02*
G02X199227Y38633I0J-400D01*
G03X201773I1273J-583D01*
G02X202136Y39200I364J167D01*
G01X210700D01*
Y36047D01*
G02X210167Y35670I-400J0D01*
G03Y33030I-467J-1320D01*
G02X210700Y32653I133J-377D01*
G01Y29750D01*
X253900D01*
Y56643D01*
G02X254516Y56980I400J0D01*
G03X256546Y57582I755J1180D01*
G01X256599Y57700D01*
X269200D01*
Y69540D01*
G02X269818Y69876I400J0D01*
G03Y72224I762J1175D01*
G02X269200Y72560I-218J336D01*
G01Y84100D01*
X267745D01*
G02X267458Y84778I0J400D01*
G03X265442I-1008J972D01*
G02X265155Y84100I-288J-278D01*
G01X263023D01*
G03X260877I-1073J-900D01*
G01X258800D01*
Y77400D01*
X242792D01*
G02X242494Y78067I0J400D01*
G03X240406I-1044J933D01*
G02X240108Y77400I-298J-267D01*
G01X229500D01*
Y193000D01*
X39500D01*
Y174500D01*
X-5800D01*
Y212000D01*
X3665D01*
G02X3858Y211250I0J-400D01*
G03X13542I4842J-8750D01*
G02X13735Y212000I194J350D01*
G01X241802D01*
X245100Y211800D01*
X247085Y211532D01*
G02X247198Y210772I-54J-396D01*
G03X251244Y210047I1502J-3272D01*
G02X251608Y210722I283J283D01*
G01X252200Y210600D01*
X255800Y209600D01*
X260100Y207900D01*
X264100Y205800D01*
X268200Y203200D01*
X271700Y200400D01*
X271809Y200296D01*
G02X271423Y199622I-277J-289D01*
G03X278373Y192535I-2723J-9622D01*
G01X278340Y192663D01*
X278602Y192867D01*
X279200Y192100D01*
X282100Y187600D01*
X284700Y181900D01*
X285900Y178600D01*
X287100Y173500D01*
X287800Y168500D01*
X287900Y165000D01*
Y47500D01*
X287700Y45500D01*
X287200Y41900D01*
X285900Y36500D01*
X283500Y30100D01*
X280200Y24300D01*
X279278Y23028D01*
G02X278560Y23330I-324J235D01*
G03X271288Y15341I-9860J1670D01*
G02X271656Y14654I104J-386D01*
G01X270000Y13200D01*
X265700Y10100D01*
X261700Y7900D01*
X257000Y5900D01*
X250800Y4100D01*
X250772Y4095D01*
G02X250630Y4461I-35J197D01*
G01X250635Y4464D01*
X250648Y4472D01*
G03X247156Y4248I-1948J3028D01*
G02X247030Y3489I-172J-361D01*
G01X244500Y3200D01*
X243697Y3132D01*
X241800Y3100D01*
X240900D01*
X58630Y2996D01*
Y3702D01*
X58822Y3901D01*
X58901Y3905D01*
G03Y11095I-201J3595D01*
G01X58822Y11099D01*
X58630Y11298D01*
Y13702D01*
X58822Y13901D01*
X58901Y13905D01*
G03Y21095I-201J3595D01*
G01X58822Y21099D01*
X58630Y21298D01*
Y40054D01*
G03X51936Y42653I-2630J3146D01*
G02X51540Y42200I-396J-53D01*
G01X33000D01*
Y64500D01*
X120500D01*
Y33700D01*
X128851D01*
G03X131149I1149J800D01*
G01X140755D01*
G02X141031Y33011I0J-400D01*
G03X142969I969J-1011D01*
G02X143245Y33700I277J289D01*
G01X152940D01*
X153138Y33507D01*
X153144Y33432D01*
G03X155936I1396J108D01*
G01X155942Y33507D01*
X156140Y33700D01*
X181600D01*
Y34251D01*
X181725Y34302D01*
G03Y36898I-525J1298D01*
G01X181600Y36949D01*
Y37307D01*
G02X181852Y37500I200J0D01*
G01X181899Y37488D01*
X181921Y37476D01*
G03X183998Y38778I679J1224D01*
G02X184397Y39200I399J22D01*
G01X198864D01*
G37*
G36*
G01X140400Y51700D02*
Y47700D01*
X159425D01*
G02X159819Y47233I0J-400D01*
G03X162581I1381J-233D01*
G02X162975Y47700I394J67D01*
G01X196600D01*
Y40800D01*
X180000D01*
Y36322D01*
G03X179802Y35678I1200J-721D01*
G02X179403Y35300I-399J22D01*
G01X162108D01*
G02X161740Y35856I0J400D01*
G03X159160I-1290J544D01*
G02X158792Y35300I-369J-156D01*
G01X131149D01*
G03X128851I-1149J-800D01*
G01X122100D01*
Y51700D01*
X134955D01*
G02X135242Y51022I0J-400D01*
G03X137258I1008J-972D01*
G02X137545Y51700I288J278D01*
G01X140400D01*
G37*
G36*
G01X544573Y-134464D02*
X544501Y-134488D01*
X536015Y-133777D01*
X528699Y-133384D01*
X521624Y-133261D01*
X510618Y-133472D01*
X504723Y-133897D01*
X498555Y-134562D01*
X489152Y-135952D01*
X482228Y-137435D01*
X472765Y-139825D01*
X468260Y-141397D01*
X464089Y-142938D01*
X457499Y-145840D01*
X453510Y-148016D01*
X448791Y-151132D01*
X446132Y-153400D01*
X442623Y-157117D01*
X440053Y-160744D01*
X438572Y-164615D01*
X438299Y-167910D01*
X438390Y-170843D01*
X441354Y-177464D01*
X443711Y-180608D01*
X446977Y-183752D01*
X439722Y-178883D01*
X436124Y-175014D01*
X434279Y-172112D01*
X432767Y-168635D01*
X431951Y-164039D01*
X432707Y-159474D01*
X434612Y-155908D01*
X438935Y-150858D01*
X445739Y-145811D01*
X455504Y-140761D01*
X464845Y-137466D01*
X473763Y-134956D01*
X489275Y-132476D01*
X506355Y-131298D01*
X522623Y-131572D01*
X535835Y-132841D01*
X544542Y-134413D01*
X544573Y-134464D01*
G37*
G36*
G01X459231Y-149092D02*
X459221Y-173582D01*
X462631D01*
Y-161412D01*
X479655Y-171512D01*
X479835Y-171332D01*
Y-151132D01*
X462631Y-161202D01*
Y-149092D01*
X459231D01*
G37*
G36*
G01X486841Y-156722D02*
X487355Y-154799D01*
X488910Y-153484D01*
X491041Y-153167D01*
X492644Y-153860D01*
X492479Y-151307D01*
X489152Y-151458D01*
X486841Y-152924D01*
Y-151162D01*
X483451D01*
Y-171622D01*
X486831D01*
X486841Y-156722D01*
G37*
G36*
G01X504289Y-178400D02*
X501114Y-178340D01*
X503199Y-171508D01*
X496494Y-151122D01*
X500060Y-151062D01*
X505141Y-166117D01*
X510279Y-151122D01*
X513726D01*
X504289Y-178400D01*
G37*
G36*
G01X520887Y-152792D02*
X524305Y-151129D01*
X527963Y-151432D01*
X530804Y-154364D01*
X530895Y-167396D01*
X528870Y-170300D01*
X526359Y-171388D01*
X523035D01*
X520859Y-170027D01*
X520736Y-178403D01*
X517532Y-178343D01*
X517561Y-151158D01*
X520890D01*
X520887Y-152792D01*
G37*
G36*
G01X536775Y-175016D02*
X534831Y-180784D01*
X534030Y-180762D01*
X534423Y-179288D01*
X532983Y-175021D01*
X533927Y-174992D01*
X534894Y-177932D01*
X535878Y-174954D01*
X536778Y-174940D01*
X536775Y-175016D01*
G37*
G36*
G01X526782Y-175991D02*
X526751Y-175674D01*
X526676Y-175477D01*
X526578Y-175302D01*
X526487Y-175076D01*
X526223Y-174985D01*
X525997Y-174940D01*
X525611Y-174911D01*
X525301Y-174887D01*
X524953Y-174872D01*
X524658Y-174901D01*
X524394Y-175045D01*
X524204Y-175211D01*
X524031Y-175417D01*
X523902Y-175696D01*
X523863Y-175952D01*
X523873Y-176248D01*
X523909Y-176512D01*
X524060Y-176723D01*
X524204Y-176912D01*
X524370Y-177078D01*
X524612Y-177208D01*
X524833Y-177289D01*
X525090Y-177388D01*
X525308Y-177517D01*
X525603Y-177637D01*
X525875Y-177760D01*
X526011Y-177940D01*
X526064Y-178182D01*
Y-178348D01*
X525959Y-178499D01*
X525716Y-178614D01*
X525467Y-178643D01*
X525203Y-178628D01*
X525051Y-178576D01*
X524876Y-178477D01*
X524778Y-178348D01*
X524703Y-178196D01*
X524672Y-178062D01*
X524619Y-177964D01*
X524538Y-177925D01*
X524310D01*
X524053Y-177918D01*
X523880Y-177925D01*
X523856Y-178031D01*
Y-178136D01*
X523880Y-178357D01*
X523926Y-178576D01*
X523979Y-178818D01*
X524039Y-178960D01*
X524137Y-179089D01*
X524363Y-179188D01*
X524636Y-179262D01*
X524999Y-179353D01*
X525459Y-179370D01*
X525702Y-179346D01*
X525973Y-179300D01*
X526208Y-179255D01*
X526367Y-179202D01*
X526494Y-179120D01*
X526676Y-178818D01*
X526767Y-178688D01*
X526751Y-178348D01*
X526736Y-178091D01*
X526707Y-177911D01*
X526691Y-177788D01*
X526631Y-177577D01*
X526571Y-177397D01*
X526503Y-177246D01*
X526405Y-177116D01*
X526244Y-176989D01*
X526086Y-176891D01*
X525776Y-176768D01*
X525481Y-176617D01*
X525210Y-176473D01*
X524975Y-176353D01*
X524823Y-176248D01*
X524742Y-176128D01*
X524718Y-175998D01*
X524725Y-175780D01*
X524787Y-175650D01*
X524960Y-175523D01*
X525263Y-175460D01*
X525587Y-175492D01*
X525853Y-175748D01*
X525935Y-176164D01*
X526767Y-176156D01*
X526782Y-175991D01*
G37*
G36*
G01X543661Y-150779D02*
X543450Y-144474D01*
X540107Y-147709D01*
X540061Y-151110D01*
X535028Y-151081D01*
Y-153016D01*
X540123Y-153030D01*
X540116Y-165913D01*
X540191Y-167728D01*
X541038Y-169645D01*
X542473Y-170932D01*
X544499Y-171582D01*
X548521Y-171520D01*
X548475Y-169616D01*
X547023Y-169585D01*
X545996Y-169525D01*
X545226Y-169086D01*
X544167Y-168196D01*
X543743Y-167288D01*
X543623Y-166338D01*
Y-153035D01*
X548519Y-152975D01*
Y-151100D01*
X543743D01*
X543661Y-150779D01*
G37*
G36*
G01X544808Y-176790D02*
X544513Y-176639D01*
X544242Y-176495D01*
X544007Y-176375D01*
X543855Y-176269D01*
X543774Y-176149D01*
X543750Y-176020D01*
X543757Y-175801D01*
X543819Y-175672D01*
X543992Y-175544D01*
X544295Y-175482D01*
X544619Y-175513D01*
X544885Y-175770D01*
X544967Y-176185D01*
X545799Y-176178D01*
X545814Y-176012D01*
X545783Y-175696D01*
X545708Y-175499D01*
X545610Y-175324D01*
X545519Y-175098D01*
X545255Y-175007D01*
X545029Y-174961D01*
X544643Y-174932D01*
X544333Y-174908D01*
X543985Y-174894D01*
X543690Y-174923D01*
X543426Y-175067D01*
X543236Y-175232D01*
X543063Y-175439D01*
X542934Y-175717D01*
X542895Y-175974D01*
X542905Y-176269D01*
X542941Y-176533D01*
X543092Y-176744D01*
X543236Y-176934D01*
X543402Y-177100D01*
X543644Y-177229D01*
X543865Y-177311D01*
X544122Y-177409D01*
X544340Y-177539D01*
X544635Y-177659D01*
X544907Y-177781D01*
X545043Y-177961D01*
X545096Y-178204D01*
Y-178369D01*
X544991Y-178520D01*
X544748Y-178636D01*
X544499Y-178664D01*
X544235Y-178650D01*
X544083Y-178597D01*
X543908Y-178499D01*
X543810Y-178369D01*
X543735Y-178218D01*
X543693Y-177991D01*
X543612Y-177953D01*
X543384D01*
X543127Y-177946D01*
X542954Y-177953D01*
X542930Y-178058D01*
Y-178164D01*
X542954Y-178385D01*
X543000Y-178603D01*
X543053Y-178846D01*
X543113Y-178987D01*
X543211Y-179117D01*
X543437Y-179215D01*
X543710Y-179290D01*
X544073Y-179381D01*
X544533Y-179398D01*
X544776Y-179374D01*
G03X545875Y-178275I0J1099D01*
G01X545876Y-178240D01*
G03X545118Y-176912I-1375J95D01*
G01X544808Y-176790D01*
G37*
G36*
G01X564219Y-177227D02*
X564265Y-176425D01*
X564210Y-176003D01*
X564121Y-175775D01*
X564015Y-175525D01*
X563840Y-175307D01*
X563478Y-175043D01*
X563108Y-174930D01*
X562760Y-174853D01*
X562451Y-174846D01*
X562103Y-174944D01*
X561740Y-175141D01*
X561498Y-175328D01*
X561287Y-175578D01*
X561150Y-175943D01*
X561119Y-176812D01*
X561090Y-177469D01*
Y-177860D01*
X561128Y-178232D01*
X561279Y-178595D01*
X561498Y-178936D01*
X561822Y-179176D01*
X562261Y-179298D01*
X562707Y-179334D01*
X563130Y-179305D01*
X563403Y-179238D01*
X563749Y-179147D01*
X563939Y-178957D01*
X564090Y-178686D01*
X564181Y-178057D01*
X563365Y-178050D01*
X563161Y-178564D01*
X562647Y-178708D01*
X562247Y-178624D01*
X561980Y-178331D01*
X561937Y-177959D01*
X561944Y-177407D01*
X564210Y-177400D01*
X564219Y-177227D01*
G37*
G36*
G01X553736Y-173831D02*
X553002Y-174102D01*
X552949Y-174949D01*
X552239Y-174978D01*
X552299Y-175660D01*
X552872Y-175674D01*
X552879Y-178357D01*
X552942Y-178796D01*
X553182Y-179142D01*
X553652Y-179324D01*
X554195Y-179356D01*
X554567Y-179233D01*
X554559Y-178712D01*
X554022Y-178667D01*
X553794Y-178168D01*
X553856Y-175703D01*
X554612Y-175679D01*
X554675Y-175038D01*
X553827Y-174985D01*
X553743Y-173828D01*
X553736Y-173831D01*
G37*
G36*
G01X558716Y-150988D02*
X556705Y-151609D01*
X554754Y-152548D01*
X553350Y-154331D01*
X552323Y-157352D01*
X552248Y-164048D01*
X552519Y-166134D01*
X553139Y-168085D01*
X554123Y-169475D01*
X555815Y-170836D01*
X557552Y-171620D01*
X559623Y-171757D01*
X561135Y-171349D01*
X563101Y-170624D01*
X564339Y-169324D01*
X565215Y-168145D01*
X565609Y-166847D01*
X566094Y-164927D01*
X566130Y-157720D01*
X565873Y-155968D01*
X564923Y-154016D01*
X564701Y-153572D01*
X563843Y-152714D01*
G03X563439Y-152430I-1017J-1017D01*
G01X560840Y-151206D01*
X558860Y-151024D01*
X558716Y-150988D01*
G37*
G36*
G01X575648Y-176363D02*
X575619Y-175583D01*
X575286Y-175122D01*
X574674Y-174918D01*
X574033Y-174932D01*
X573443Y-175280D01*
X572761Y-174942D01*
X572022Y-174949D01*
X571470Y-175252D01*
Y-174932D01*
X570594D01*
X570587Y-175199D01*
X570654Y-175417D01*
X570721Y-175501D01*
X570728Y-175660D01*
X570791Y-179303D01*
X571484Y-179310D01*
X571448Y-176142D01*
X571491Y-175864D01*
X571765Y-175621D01*
X571998Y-175568D01*
X572279Y-175583D01*
X572475Y-175614D01*
X572595Y-175758D01*
X572701Y-176212D01*
X572838Y-179339D01*
X573517Y-179279D01*
X573503Y-176353D01*
X573534Y-176089D01*
X573632Y-175864D01*
X573812Y-175705D01*
X574100Y-175621D01*
X574319Y-175628D01*
X574568Y-175727D01*
X574863Y-176272D01*
X574931Y-179322D01*
X575619Y-179344D01*
X575648Y-176363D01*
G37*
G36*
G01X573092Y-151216D02*
X573061Y-152922D01*
X574302Y-152152D01*
X576313Y-151290D01*
X578473Y-151124D01*
X580710Y-151820D01*
X582541Y-153589D01*
X583491Y-156402D01*
X583611Y-171712D01*
X580316Y-171683D01*
X579971Y-155267D01*
X578670Y-153829D01*
X577309Y-153164D01*
X575360Y-153452D01*
X573863Y-154708D01*
X573380Y-156248D01*
X573251Y-171546D01*
X569879D01*
X569773Y-151072D01*
X572948Y-151132D01*
X573092Y-151216D01*
G37*
G36*
G01X584468Y-176044D02*
X584437Y-175727D01*
X584363Y-175530D01*
X584264Y-175355D01*
X584173Y-175129D01*
X583909Y-175038D01*
X583683Y-174992D01*
X583297Y-174964D01*
X582987Y-174940D01*
X582639Y-174925D01*
X582344Y-174954D01*
X582080Y-175098D01*
X581891Y-175264D01*
X581718Y-175470D01*
X581588Y-175748D01*
X581550Y-176005D01*
X581559Y-176300D01*
X581595Y-176564D01*
X581747Y-176776D01*
X581891Y-176965D01*
X582056Y-177131D01*
X582299Y-177260D01*
X582519Y-177342D01*
X582776Y-177440D01*
X582995Y-177570D01*
X583290Y-177690D01*
X583561Y-177812D01*
X583698Y-177992D01*
X583751Y-178235D01*
Y-178400D01*
X583645Y-178552D01*
X583403Y-178667D01*
X583153Y-178696D01*
X582889Y-178681D01*
X582738Y-178628D01*
X582563Y-178530D01*
X582464Y-178400D01*
X582390Y-178249D01*
X582359Y-178115D01*
X582306Y-178016D01*
X582224Y-177978D01*
X581996D01*
X581739Y-177971D01*
X581567Y-177978D01*
X581543Y-178084D01*
Y-178189D01*
X581567Y-178410D01*
X581612Y-178628D01*
X581665Y-178871D01*
X581725Y-179012D01*
X581823Y-179142D01*
X582049Y-179240D01*
X582323Y-179315D01*
X582685Y-179406D01*
X583146Y-179423D01*
X583388Y-179399D01*
X583659Y-179353D01*
X583895Y-179308D01*
X584053Y-179255D01*
X584180Y-179173D01*
X584363Y-178871D01*
X584454Y-178741D01*
X584437Y-178400D01*
X584423Y-178144D01*
X584394Y-177964D01*
X584377Y-177841D01*
X584317Y-177630D01*
X584257Y-177450D01*
X584190Y-177299D01*
X584091Y-177169D01*
X583931Y-177042D01*
X583772Y-176944D01*
X583463Y-176821D01*
X583167Y-176670D01*
X582896Y-176526D01*
X582661Y-176406D01*
X582510Y-176300D01*
X582428Y-176180D01*
X582404Y-176051D01*
X582411Y-175832D01*
X582474Y-175703D01*
X582647Y-175576D01*
X582949Y-175513D01*
X583273Y-175544D01*
X583539Y-175801D01*
X583621Y-176216D01*
X584454Y-176209D01*
X584468Y-176044D01*
G37*
%LPC*%
G75*
G36*
G01X25200Y30600D02*
G02Y38800I0J4100D01*
G01X33200D01*
G02Y30600I0J-4100D01*
G01X25200D01*
G37*
G36*
G01X101328Y122439D02*
G03X101831Y122072I400J20D01*
G02X100793Y120650I361J-1353D01*
G03X100291Y121017I-400J-20D01*
G02X101328Y122439I-361J1353D01*
G37*
G36*
G01X98781Y130275D02*
G02X98557Y128993I1109J-855D01*
G03X97859Y129115I-381J-122D01*
G02X98083Y130397I-1109J855D01*
G03X98781Y130275I381J122D01*
G37*
G36*
G01X239418Y61516D02*
G02X236726Y61676I-1369J-296D01*
G03X236382Y62205I-378J130D01*
G02X237824Y63144I118J1395D01*
G03X238168Y62615I378J-130D01*
G02X238351Y62587I-119J-1395D01*
G03X238578Y62860I43J195D01*
G02X239823Y62001I1292J540D01*
G03X239418Y61516I-13J-400D01*
G37*
G36*
G01X220491Y67982D02*
G02X219432Y69112I-1381J-232D01*
G03X219919Y69568I92J389D01*
G02X220978Y68438I1381J232D01*
G03X220491Y67982I-92J-389D01*
G37*
G36*
G01X81370Y105133D02*
G02X80237Y106354I-1392J-155D01*
G03X80708Y106791I74J393D01*
G02X80708Y107101I1392J155D01*
G03X80238Y107538I-398J44D01*
G02X80146Y110306I-253J1377D01*
G03X80590Y110743I46J397D01*
G02X81822Y109493I1393J140D01*
G03X81378Y109055I-46J-397D01*
G02X81377Y108761I-1393J-140D01*
G03X81847Y108324I398J-44D01*
G02X81841Y105570I253J-1377D01*
G03X81370Y105133I-74J-393D01*
G37*
G36*
G01X63325Y107143D02*
G02X61614Y107173I-875J-1093D01*
G03X61625Y107807I-239J321D01*
G02Y109993I875J1093D01*
G03X61614Y110627I-250J312D01*
G02X61726Y112948I836J1123D01*
G03X61737Y113626I-207J342D01*
G02X63224Y113602I763J1174D01*
G03X63213Y112924I207J-342D01*
G02X63325Y110657I-763J-1174D01*
G03X63336Y110023I250J-312D01*
G02Y107777I-836J-1123D01*
G03X63325Y107143I239J-321D01*
G37*
G36*
G01X52292Y107101D02*
G02X51153Y108324I-1392J-154D01*
G03X51623Y108761I72J393D01*
G02X51622Y109057I1392J154D01*
G03X51174Y109494I-398J41D01*
G02X52393Y110742I-174J1389D01*
G03X52841Y110304I398J-41D01*
G02X52762Y107538I174J-1389D01*
G03X52292Y107101I-72J-393D01*
G37*
G36*
G01X114788Y109962D02*
G02X114092Y108822I702J-1212D01*
G03X113492Y109188I-399J20D01*
G02X114188Y110328I-702J1212D01*
G03X114788Y109962I399J-20D01*
G37*
G36*
G01X87991Y130951D02*
G02X86703Y131012I-703J-1211D01*
G03X86737Y131722I-167J363D01*
G02X88025Y131660I703J1211D01*
G03X87991Y130951I167J-363D01*
G37*
G36*
G01X126878Y173825D02*
G02X125595Y173863I-678J-1225D01*
G03X125616Y174574I-173J361D01*
G02X126899Y174536I678J1225D01*
G03X126878Y173825I173J-361D01*
G37*
G36*
G01X132698Y174214D02*
G02X131416Y174272I-698J-1214D01*
G03X131448Y174983I-167J363D01*
G02X132730Y174924I698J1214D01*
G03X132698Y174214I167J-363D01*
G37*
G36*
G01X94151Y173654D02*
G02X94121Y175344I-1131J826D01*
G03X94759Y175356I315J247D01*
G02X94789Y173666I1131J-826D01*
G03X94151Y173654I-315J-247D01*
G37*
G36*
G01X58385Y103717D02*
G03X58974Y103651I325J233D01*
G02X58763Y101783I926J-1051D01*
G03X58174Y101850I-325J-233D01*
G02X58385Y103717I-926J1051D01*
G37*
G36*
G01X71517Y170592D02*
X73259Y168850D01*
X85559D01*
X91350Y163059D01*
Y151059D01*
X94350Y148059D01*
Y144902D01*
X94356Y144877D01*
G02X91644I-1356J-347D01*
G01X91650Y144902D01*
Y146941D01*
X90037Y148553D01*
G03X89433Y148509I-283J-283D01*
G02X88263Y150742I-1125J834D01*
G03X88650Y151142I-13J400D01*
G01Y161941D01*
X84441Y166150D01*
X72141D01*
X69608Y168682D01*
X69586Y168695D01*
G02X71517Y170592I714J1205D01*
G37*
G36*
G01X71815Y155787D02*
G03X71250Y155540I-180J-357D01*
G02X70170Y157186I-1250J357D01*
G03X70622Y157606I52J397D01*
G02X71815Y155787I2178J128D01*
G37*
G36*
G01X63140Y184483D02*
G03X63252Y184721I-80J183D01*
G02X65611Y186069I1348J379D01*
G03X66189I289J277D01*
G02X68172Y186108I1011J-969D01*
G03X68728I278J288D01*
G02X70181Y183785I972J-1008D01*
G03X70056Y183548I69J-188D01*
G02X67728Y182192I-1356J-348D01*
G03X67172I-278J-288D01*
G02X65228I-972J1008D01*
G03X64672I-278J-288D01*
G02X63140Y184483I-972J1008D01*
G37*
G36*
G01X164945Y39269D02*
G02X164499Y37831I905J-1069D01*
G03X163855Y38031I-386J-105D01*
G02X164301Y39469I-905J1069D01*
G03X164945Y39269I386J105D01*
G37*
G36*
G01X524211Y-153220D02*
X525815Y-153433D01*
X527387Y-155034D01*
X527929Y-158178D01*
X527598Y-166732D01*
X526479Y-169148D01*
X525059Y-169573D01*
X523304Y-169451D01*
X522246Y-168877D01*
X521490Y-168030D01*
X521067Y-166912D01*
X521036Y-165824D01*
Y-155785D01*
X521823Y-154364D01*
X523184Y-153246D01*
X523938D01*
X524211Y-153220D01*
G37*
G36*
G01X562623Y-175477D02*
X562986Y-175537D01*
X563255Y-175679D01*
X563420Y-175924D01*
X563435Y-176416D01*
Y-176656D01*
X561980Y-176648D01*
X561987Y-176286D01*
X562004Y-176113D01*
X562059Y-175859D01*
X562163Y-175686D01*
X562271Y-175554D01*
X562467Y-175484D01*
X562623Y-175477D01*
G37*
G36*
G01X559019Y-153287D02*
X560365Y-153330D01*
X561347Y-153966D01*
X562134Y-154888D01*
X562602Y-156354D01*
X562571Y-158048D01*
X562691Y-166559D01*
X561951Y-168176D01*
X560847Y-169295D01*
X559729Y-169612D01*
X557915D01*
X556796Y-168810D01*
X556117Y-167452D01*
X555949Y-165985D01*
X555966Y-156462D01*
X556057Y-155236D01*
X556736Y-154345D01*
X557569Y-153740D01*
X558596Y-153301D01*
X558867Y-153287D01*
X559019D01*
G37*
G54D38*
X41000Y53200D03*
G54D35*
X155747Y108180D03*
G54D26*
X17400Y53200D03*
G54D33*
X139500Y102200D03*
X271000Y48200D03*
G54D31*
X200000Y65000D03*
Y80000D03*
Y87500D03*
X85200Y124600D03*
X68500Y176950D03*
X46500Y122700D03*
Y114800D03*
G54D30*
X114770Y151590D03*
X219006Y140168D03*
X206407Y158961D03*
X214000Y159000D03*
X200108Y170205D03*
X194126D03*
X114380Y158000D03*
G54D37*
X56000Y53200D03*
G54D32*
X206407Y139805D03*
X197652Y139905D03*
X203258Y139805D03*
X187814Y148768D03*
X190659Y139805D03*
G54D27*
X28700Y7500D03*
Y17500D03*
X38700D03*
X48700Y7500D03*
Y17500D03*
X248700Y197500D03*
Y17500D03*
X238700Y197500D03*
Y207500D03*
Y17500D03*
Y7500D03*
X228700Y197500D03*
Y207500D03*
Y7500D03*
X208700Y197500D03*
Y207500D03*
X218700Y197500D03*
Y207500D03*
X208700Y17500D03*
Y7500D03*
X218700D03*
X198700Y197500D03*
Y207500D03*
Y17500D03*
Y7500D03*
X188700Y197500D03*
Y207500D03*
Y17500D03*
Y7500D03*
X168700Y197500D03*
Y207500D03*
X178700Y197500D03*
Y207500D03*
X168700Y17500D03*
X178700D03*
X168700Y7500D03*
X178700D03*
X158700Y197500D03*
Y207500D03*
Y17500D03*
Y7500D03*
X148700Y197500D03*
Y207500D03*
Y17500D03*
Y7500D03*
X128700Y197500D03*
Y207500D03*
X138700Y197500D03*
Y207500D03*
X128700Y17500D03*
X138700D03*
X128700Y7500D03*
X138700D03*
X118700Y197500D03*
Y207500D03*
Y17500D03*
Y7500D03*
X108700Y197500D03*
Y207500D03*
Y17500D03*
Y7500D03*
X88700Y197500D03*
Y207500D03*
X98700Y197500D03*
Y207500D03*
X88700Y17500D03*
X98700D03*
X88700Y7500D03*
X98700D03*
X78700Y197500D03*
Y207500D03*
Y17500D03*
Y7500D03*
X68700Y197500D03*
Y207500D03*
Y17500D03*
Y7500D03*
X48700Y197500D03*
Y207500D03*
X58700Y197500D03*
Y207500D03*
X38700Y197500D03*
Y207500D03*
X28700Y197500D03*
Y207500D03*
X218700Y17500D03*
X228700D03*
G54D36*
X96000Y44450D03*
Y34450D03*
X84750Y44450D03*
Y34450D03*
G54D29*
X86800Y82400D03*
X94750Y78480D03*
X104700Y70550D03*
X99750Y78450D03*
X104800D03*
X101400Y94750D03*
X99500Y104550D03*
X106452Y121240D03*
X108150Y136750D03*
X104092Y128221D03*
X119330Y88790D03*
X136833Y73167D03*
X222700Y42800D03*
X259770Y63880D03*
X264400Y73821D03*
X250700Y62950D03*
X246950Y62900D03*
X246000Y49550D03*
Y39200D03*
X231690Y70080D03*
X222890Y181970D03*
X223300Y142000D03*
X221920Y102620D03*
X211300Y116450D03*
X211250Y106450D03*
X217790Y102380D03*
X211300Y111550D03*
X214700Y90000D03*
X214550Y93750D03*
X212260Y87090D03*
X206190Y82740D03*
X199750Y116500D03*
Y106500D03*
X199200Y101500D03*
X190052Y135005D03*
X184900Y116450D03*
X185100Y101450D03*
X184900Y111500D03*
X154700Y138700D03*
X131980Y179550D03*
X133690Y126260D03*
X135150Y90030D03*
X121210Y114980D03*
X116250Y126580D03*
X120400Y108770D03*
X115310Y98070D03*
X94060Y155260D03*
X87770Y109800D03*
X85200Y98800D03*
X76500Y164200D03*
X79900Y141960D03*
X79914Y116789D03*
Y120726D03*
X79963Y124663D03*
X82500Y118700D03*
X65200Y169800D03*
X60000D03*
X62500Y172321D03*
X67800Y172300D03*
X70258Y134523D03*
X62500Y122700D03*
X70500Y124600D03*
Y106900D03*
X69900Y110100D03*
X59900Y98900D03*
X53085Y148285D03*
X53052Y144348D03*
X53026Y136474D03*
X46050Y130950D03*
X52200Y118758D03*
X51000Y114820D03*
X51006Y122694D03*
X53032Y126632D03*
X30400Y169500D03*
X172400Y111500D03*
X275450Y102750D03*
Y107750D03*
Y97750D03*
Y92750D03*
X273940Y78550D03*
X264650Y168450D03*
Y173450D03*
X264550Y176960D03*
X264650Y158450D03*
Y163450D03*
Y148450D03*
Y143450D03*
Y153450D03*
Y128450D03*
Y133450D03*
Y138450D03*
X261440Y95270D03*
X246760Y118200D03*
X238600Y178450D03*
Y173450D03*
Y168450D03*
Y163450D03*
Y158450D03*
Y153450D03*
Y143450D03*
Y148450D03*
Y138450D03*
Y133450D03*
Y128450D03*
X240500Y94050D03*
Y89050D03*
X243200Y97700D03*
X240700Y84500D03*
X232242Y80700D03*
X198011Y35441D03*
X187100Y33000D03*
X123750Y27350D03*
X99900Y58850D03*
X104600Y36000D03*
X94800Y58850D03*
X89750D03*
X27250Y184450D03*
X223150Y23750D03*
X224900Y27000D03*
X142000Y42900D03*
X160750Y41600D03*
X175500Y38200D03*
X189770Y43630D03*
G54D28*
X68750Y76450D03*
X73250D03*
X208833Y177786D03*
X210873Y130982D03*
X200870Y177786D03*
X194470D03*
X186852Y178179D03*
X183252Y166179D03*
X167028Y142028D03*
X162426Y139805D03*
X73250Y31200D03*
X68750D03*
G54D34*
X72799Y99466D03*
%LPD*%
G75*
G54D10*
X8716Y12511D03*
X8700Y202500D03*
X155747Y108180D03*
X268700Y25000D03*
Y190000D03*
G54D20*
X70000Y155897D03*
G54D11*
X17400Y53200D03*
G54D21*
X72799Y99466D03*
Y157734D03*
G54D12*
X28700Y7500D03*
Y17500D03*
Y207500D03*
Y197500D03*
X38700Y7500D03*
Y17500D03*
Y207500D03*
Y197500D03*
X58700Y7500D03*
X48700D03*
X58700Y17500D03*
X48700D03*
X58700Y207500D03*
Y197500D03*
X48700Y207500D03*
Y197500D03*
X68700Y7500D03*
Y17500D03*
Y207500D03*
Y197500D03*
X78700Y7500D03*
Y17500D03*
Y207500D03*
Y197500D03*
X98700Y7500D03*
X88700D03*
X98700Y17500D03*
X88700D03*
X98700Y207500D03*
Y197500D03*
X88700Y207500D03*
Y197500D03*
X108700Y7500D03*
Y17500D03*
Y207500D03*
Y197500D03*
X118700Y7500D03*
Y17500D03*
Y207500D03*
Y197500D03*
X138700Y7500D03*
X128700D03*
X138700Y17500D03*
X128700D03*
X138700Y207500D03*
Y197500D03*
X128700Y207500D03*
Y197500D03*
X148700Y7500D03*
Y17500D03*
Y207500D03*
Y197500D03*
X158700Y7500D03*
Y17500D03*
Y207500D03*
Y197500D03*
X178700Y7500D03*
X168700D03*
X178700Y17500D03*
X168700D03*
X178700Y207500D03*
Y197500D03*
X168700Y207500D03*
Y197500D03*
X188700Y7500D03*
Y17500D03*
Y207500D03*
Y197500D03*
X198700Y7500D03*
Y17500D03*
Y207500D03*
Y197500D03*
X218700Y7500D03*
X208700D03*
X218700Y17500D03*
X208700D03*
X218700Y207500D03*
Y197500D03*
X208700Y207500D03*
Y197500D03*
X228700Y7500D03*
Y17500D03*
Y207500D03*
Y197500D03*
X238700Y7500D03*
Y17500D03*
Y207500D03*
Y197500D03*
X248700Y7500D03*
Y17500D03*
Y207500D03*
Y197500D03*
G54D22*
G01X-40600Y-174200D02*
X-37500D01*
X-36900Y-173500D01*
Y-172300D01*
X-37500Y-171700D01*
X-36900Y-171100D01*
Y-169800D01*
X-37500Y-169200D01*
X-40600D01*
Y-174200D01*
G01Y-171700D02*
X-37500D01*
G01X-40600D02*
X-37500D01*
G01X-40600Y-174200D02*
X-37500D01*
X-36900Y-173500D01*
Y-172300D01*
X-37500Y-171700D01*
X-36900Y-171100D01*
Y-169800D01*
X-37500Y-169200D01*
X-40600D01*
Y-174200D01*
G01X-37500Y-146700D02*
X-40600D01*
G01Y-149200D02*
X-37500D01*
X-36900Y-148500D01*
Y-147300D01*
X-37500Y-146700D01*
X-36900Y-146100D01*
Y-144800D01*
X-37500Y-144200D01*
X-40600D01*
Y-149200D01*
G01D02*
X-37500D01*
X-36900Y-148500D01*
Y-147300D01*
X-37500Y-146700D01*
X-36900Y-146100D01*
Y-144800D01*
X-37500Y-144200D01*
X-40600D01*
Y-149200D01*
G01X-37500Y-146700D02*
X-40600D01*
G01Y-123500D02*
X-40000Y-124200D01*
X-37500D01*
X-36900Y-123500D01*
Y-122900D01*
G01Y-120400D02*
Y-119800D01*
X-37500Y-119200D01*
X-40000D01*
X-40600Y-119800D01*
Y-123500D01*
G01X-36900Y-120400D02*
Y-119800D01*
X-37500Y-119200D01*
X-40000D01*
X-40600Y-119800D01*
Y-123500D01*
G01D02*
X-40000Y-124200D01*
X-37500D01*
X-36900Y-123500D01*
Y-122900D01*
G01X-30600Y-174200D02*
Y-170400D01*
X-29300Y-169200D01*
X-28100D01*
X-26900Y-170400D01*
Y-174200D01*
G01X-25600D02*
Y-169200D01*
X-22500D01*
X-21900Y-169800D01*
Y-171100D01*
X-22500Y-171700D01*
X-25600D01*
G01X-24300D02*
X-21900Y-174200D01*
G01X-26900Y-172300D02*
X-30600D01*
G01X-35600Y-173500D02*
X-35000Y-174200D01*
X-32500D01*
X-31900Y-173500D01*
Y-169800D01*
X-32500Y-169200D01*
X-35000D01*
X-35600Y-169800D01*
Y-173500D01*
G01D02*
X-35000Y-174200D01*
X-32500D01*
X-31900Y-173500D01*
Y-169800D01*
X-32500Y-169200D01*
X-35000D01*
X-35600Y-169800D01*
Y-173500D01*
G01X-26900Y-172300D02*
X-30600D01*
G01X-24300Y-171700D02*
X-21900Y-174200D01*
G01X-25600D02*
Y-169200D01*
X-22500D01*
X-21900Y-169800D01*
Y-171100D01*
X-22500Y-171700D01*
X-25600D01*
G01X-30600Y-174200D02*
Y-170400D01*
X-29300Y-169200D01*
X-28100D01*
X-26900Y-170400D01*
Y-174200D01*
G01X-21900Y-149200D02*
X-24300Y-146700D01*
G01X-25600D02*
X-22500D01*
X-21900Y-146100D01*
Y-144800D01*
X-22500Y-144200D01*
X-25600D01*
Y-149200D01*
G01X-26900D02*
Y-145400D01*
X-28100Y-144200D01*
X-29300D01*
X-30600Y-145400D01*
Y-149200D01*
G01Y-147300D02*
X-26900D01*
G01X-35600Y-148500D02*
X-35000Y-149200D01*
X-32500D01*
X-31900Y-148500D01*
Y-144800D01*
X-32500Y-144200D01*
X-35000D01*
X-35600Y-144800D01*
Y-148500D01*
G01D02*
X-35000Y-149200D01*
X-32500D01*
X-31900Y-148500D01*
Y-144800D01*
X-32500Y-144200D01*
X-35000D01*
X-35600Y-144800D01*
Y-148500D01*
G01X-30600Y-147300D02*
X-26900D01*
G01Y-149200D02*
Y-145400D01*
X-28100Y-144200D01*
X-29300D01*
X-30600Y-145400D01*
Y-149200D01*
G01X-25600Y-146700D02*
X-22500D01*
X-21900Y-146100D01*
Y-144800D01*
X-22500Y-144200D01*
X-25600D01*
Y-149200D01*
G01X-21900D02*
X-24300Y-146700D01*
G01X-30600Y-123500D02*
X-30000Y-124200D01*
X-27500D01*
X-26900Y-123500D01*
Y-122300D01*
X-27500Y-121700D01*
X-30000D01*
X-30600Y-121100D01*
Y-119800D01*
X-30000Y-119200D01*
X-27500D01*
X-26900Y-119800D01*
G01X-25500Y-119200D02*
X-23600D01*
Y-124400D01*
G01X-21700Y-119200D02*
X-23600D01*
G01X-35600D02*
Y-122900D01*
X-34300Y-124200D01*
X-33100D01*
X-31900Y-122900D01*
Y-119200D01*
G01X-35600D02*
Y-122900D01*
X-34300Y-124200D01*
X-33100D01*
X-31900Y-122900D01*
Y-119200D01*
G01X-21700D02*
X-23600D01*
G01X-25500D02*
X-23600D01*
Y-124400D01*
G01X-30600Y-123500D02*
X-30000Y-124200D01*
X-27500D01*
X-26900Y-123500D01*
Y-122300D01*
X-27500Y-121700D01*
X-30000D01*
X-30600Y-121100D01*
Y-119800D01*
X-30000Y-119200D01*
X-27500D01*
X-26900Y-119800D01*
G01X-10600Y-174200D02*
Y-169200D01*
G01Y-169800D02*
X-6900Y-173500D01*
G01X-20600Y-174200D02*
X-18100D01*
X-16900Y-172900D01*
Y-170400D01*
X-18100Y-169200D01*
X-20600D01*
Y-174200D01*
G01D02*
X-18100D01*
X-16900Y-172900D01*
Y-170400D01*
X-18100Y-169200D01*
X-20600D01*
Y-174200D01*
G01X-10600Y-169800D02*
X-6900Y-173500D01*
G01X-10600Y-174200D02*
Y-169200D01*
G01X-6900Y-148500D02*
X-10600Y-144800D01*
G01Y-144200D02*
Y-149200D01*
G01X-20600D02*
X-18100D01*
X-16900Y-147900D01*
Y-145400D01*
X-18100Y-144200D01*
X-20600D01*
Y-149200D01*
G01D02*
X-18100D01*
X-16900Y-147900D01*
Y-145400D01*
X-18100Y-144200D01*
X-20600D01*
Y-149200D01*
G01X-10600Y-144200D02*
Y-149200D01*
G01X-6900Y-148500D02*
X-10600Y-144800D01*
G01Y-121700D02*
X-8100D01*
G01X-6900Y-124200D02*
X-10600D01*
Y-119200D01*
X-6900D01*
G01X-20600Y-123500D02*
X-20000Y-124200D01*
X-17500D01*
X-16900Y-123500D01*
Y-119800D01*
X-17500Y-119200D01*
X-20000D01*
X-20600Y-119800D01*
Y-123500D01*
G01X-15600Y-124200D02*
Y-119200D01*
X-13700Y-121700D01*
X-11900Y-119200D01*
Y-124200D01*
G01X-15600D02*
Y-119200D01*
X-13700Y-121700D01*
X-11900Y-119200D01*
Y-124200D01*
G01X-20600Y-123500D02*
X-20000Y-124200D01*
X-17500D01*
X-16900Y-123500D01*
Y-119800D01*
X-17500Y-119200D01*
X-20000D01*
X-20600Y-119800D01*
Y-123500D01*
G01X-6900Y-124200D02*
X-10600D01*
Y-119200D01*
X-6900D01*
G01X-10600Y-121700D02*
X-8100D01*
G01X1300Y-174200D02*
X1900D01*
Y-173500D01*
X1300D01*
Y-174200D01*
G01X-6900D02*
Y-169200D01*
G01X-5600Y-173500D02*
X-5000Y-174200D01*
X-2500D01*
X-1900Y-173500D01*
Y-169800D01*
X-2500Y-169200D01*
X-5000D01*
X-5600Y-169800D01*
Y-173500D01*
G01D02*
X-5000Y-174200D01*
X-2500D01*
X-1900Y-173500D01*
Y-169800D01*
X-2500Y-169200D01*
X-5000D01*
X-5600Y-169800D01*
Y-173500D01*
G01X-6900Y-174200D02*
Y-169200D01*
G01X1300Y-174200D02*
X1900D01*
Y-173500D01*
X1300D01*
Y-174200D01*
G01X3100Y-149200D02*
Y-144200D01*
X1300Y-146700D01*
X-600Y-144200D01*
Y-149200D01*
G01X-1900D02*
Y-145400D01*
X-3100Y-144200D01*
X-4300D01*
X-5600Y-145400D01*
Y-149200D01*
G01X-6900D02*
Y-144200D01*
G01X-5600Y-147300D02*
X-1900D01*
G01X-5600D02*
X-1900D01*
G01X-6900Y-149200D02*
Y-144200D01*
G01X-1900Y-149200D02*
Y-145400D01*
X-3100Y-144200D01*
X-4300D01*
X-5600Y-145400D01*
Y-149200D01*
G01X3100D02*
Y-144200D01*
X1300Y-146700D01*
X-600Y-144200D01*
Y-149200D01*
G01X-5600Y-121700D02*
X-2500D01*
X-1900Y-121100D01*
Y-119800D01*
X-2500Y-119200D01*
X-5600D01*
Y-124200D01*
G01X-4300Y-121700D02*
X-1900Y-124200D01*
G01X-4300Y-121700D02*
X-1900Y-124200D01*
G01X-5600Y-121700D02*
X-2500D01*
X-1900Y-121100D01*
Y-119800D01*
X-2500Y-119200D01*
X-5600D01*
Y-124200D01*
G01X8100Y-144200D02*
X4400D01*
Y-149200D01*
X8100D01*
G01X6900Y-146700D02*
X4400D01*
G01X6900D02*
X4400D01*
G01X8100Y-144200D02*
X4400D01*
Y-149200D01*
X8100D01*
G01X4400Y-124200D02*
Y-119200D01*
G01Y-119800D02*
X8100Y-123500D01*
G01Y-124200D02*
Y-119200D01*
G01X9400Y-122300D02*
X13100D01*
G01Y-124200D02*
Y-120400D01*
X11900Y-119200D01*
X10700D01*
X9400Y-120400D01*
Y-124200D01*
G01X14400D02*
Y-119200D01*
X16300Y-121700D01*
X18100Y-119200D01*
Y-124200D01*
G01X14400D02*
Y-119200D01*
X16300Y-121700D01*
X18100Y-119200D01*
Y-124200D01*
G01X13100D02*
Y-120400D01*
X11900Y-119200D01*
X10700D01*
X9400Y-120400D01*
Y-124200D01*
G01Y-122300D02*
X13100D01*
G01X8100Y-124200D02*
Y-119200D01*
G01X4400Y-119800D02*
X8100Y-123500D01*
G01X4400Y-124200D02*
Y-119200D01*
G01X19400Y-121700D02*
X21900D01*
G01X23100Y-124200D02*
X19400D01*
Y-119200D01*
X23100D01*
G01Y-124200D02*
X19400D01*
Y-119200D01*
X23100D01*
G01X19400Y-121700D02*
X21900D01*
G01X108000Y-171700D02*
X110400Y-174200D01*
G01X106700Y-171700D02*
X109800D01*
X110400Y-171100D01*
Y-169800D01*
X109800Y-169200D01*
X106700D01*
Y-174200D01*
G01Y-171700D02*
X109800D01*
X110400Y-171100D01*
Y-169800D01*
X109800Y-169200D01*
X106700D01*
Y-174200D01*
G01X108000Y-171700D02*
X110400Y-174200D01*
G01X115400D02*
X111700D01*
Y-169200D01*
X115400D01*
G01X111700Y-171700D02*
X114200D01*
G01X116700Y-169200D02*
Y-172300D01*
X118600Y-174200D01*
X120400Y-172300D01*
Y-169200D01*
G01X116700D02*
Y-172300D01*
X118600Y-174200D01*
X120400Y-172300D01*
Y-169200D01*
G01X111700Y-171700D02*
X114200D01*
G01X115400Y-174200D02*
X111700D01*
Y-169200D01*
X115400D01*
G01X146800Y-174200D02*
X149300D01*
X150500Y-172900D01*
Y-170400D01*
X149300Y-169200D01*
X146800D01*
Y-174200D01*
G01D02*
X149300D01*
X150500Y-172900D01*
Y-170400D01*
X149300Y-169200D01*
X146800D01*
Y-174200D01*
G01X160300Y-169200D02*
X158400D01*
G01X165500Y-174200D02*
X161800D01*
Y-169200D01*
X165500D01*
G01X161800Y-171700D02*
X164300D01*
G01X156500Y-169200D02*
X158400D01*
Y-174200D01*
G01X155500Y-172300D02*
X151800D01*
G01Y-174200D02*
Y-170400D01*
X153100Y-169200D01*
X154300D01*
X155500Y-170400D01*
Y-174200D01*
G01X151800D02*
Y-170400D01*
X153100Y-169200D01*
X154300D01*
X155500Y-170400D01*
Y-174200D01*
G01Y-172300D02*
X151800D01*
G01X156500Y-169200D02*
X158400D01*
Y-174200D01*
G01X161800Y-171700D02*
X164300D01*
G01X165500Y-174200D02*
X161800D01*
Y-169200D01*
X165500D01*
G01X160300D02*
X158400D01*
G01X184400Y-149200D02*
X186900D01*
X188100Y-147900D01*
Y-145400D01*
X186900Y-144200D01*
X184400D01*
Y-149200D01*
G01X189400Y-146700D02*
X191900D01*
G01X193100Y-149200D02*
X189400D01*
Y-144200D01*
X193100D01*
G01Y-149200D02*
X189400D01*
Y-144200D01*
X193100D01*
G01X189400Y-146700D02*
X191900D01*
G01X184400Y-149200D02*
X186900D01*
X188100Y-147900D01*
Y-145400D01*
X186900Y-144200D01*
X184400D01*
Y-149200D01*
G01X194400Y-148500D02*
X195000Y-149200D01*
X197500D01*
X198100Y-148500D01*
Y-147300D01*
X197500Y-146700D01*
X195000D01*
X194400Y-146100D01*
Y-144800D01*
X195000Y-144200D01*
X197500D01*
X198100Y-144800D01*
G01X203100Y-145400D02*
Y-144800D01*
X202500Y-144200D01*
X200000D01*
X199400Y-144800D01*
Y-148500D01*
X200000Y-149200D01*
X202500D01*
X203100Y-148500D01*
Y-147900D01*
G01Y-145400D02*
Y-144800D01*
X202500Y-144200D01*
X200000D01*
X199400Y-144800D01*
Y-148500D01*
X200000Y-149200D01*
X202500D01*
X203100Y-148500D01*
Y-147900D01*
G01X194400Y-148500D02*
X195000Y-149200D01*
X197500D01*
X198100Y-148500D01*
Y-147300D01*
X197500Y-146700D01*
X195000D01*
X194400Y-146100D01*
Y-144800D01*
X195000Y-144200D01*
X197500D01*
X198100Y-144800D01*
G01X209400Y-149200D02*
X213100D01*
G01X214400D02*
Y-144200D01*
X217500D01*
X218100Y-144800D01*
Y-146100D01*
X217500Y-146700D01*
X214400D01*
G01X213100Y-144200D02*
X209400D01*
G01X211300D02*
Y-149200D01*
G01X204400Y-146700D02*
X207500D01*
X208100Y-146100D01*
Y-144800D01*
X207500Y-144200D01*
X204400D01*
Y-149200D01*
G01X205700Y-146700D02*
X208100Y-149200D01*
G01X205700Y-146700D02*
X208100Y-149200D01*
G01X204400Y-146700D02*
X207500D01*
X208100Y-146100D01*
Y-144800D01*
X207500Y-144200D01*
X204400D01*
Y-149200D01*
G01X211300Y-144200D02*
Y-149200D01*
G01X213100Y-144200D02*
X209400D01*
G01X214400Y-149200D02*
Y-144200D01*
X217500D01*
X218100Y-144800D01*
Y-146100D01*
X217500Y-146700D01*
X214400D01*
G01X209400Y-149200D02*
X213100D01*
G01X225889Y-174285D02*
Y-169285D01*
X228989D01*
X229589Y-169885D01*
Y-171185D01*
X228989Y-171785D01*
X225889D01*
G01Y-174285D02*
Y-169285D01*
X228989D01*
X229589Y-169885D01*
Y-171185D01*
X228989Y-171785D01*
X225889D01*
G01X219400Y-144200D02*
X221300D01*
Y-149200D01*
G01X224400D02*
X228100D01*
G01X229400Y-148500D02*
X230000Y-149200D01*
X232500D01*
X233100Y-148500D01*
Y-144800D01*
X232500Y-144200D01*
X230000D01*
X229400Y-144800D01*
Y-148500D01*
G01X226300Y-149200D02*
Y-144200D01*
G01X228100D02*
X224400D01*
G01X223200D02*
X221300D01*
G01X223200D02*
X221300D01*
G01X228100D02*
X224400D01*
G01X226300Y-149200D02*
Y-144200D01*
G01X229400Y-148500D02*
X230000Y-149200D01*
X232500D01*
X233100Y-148500D01*
Y-144800D01*
X232500Y-144200D01*
X230000D01*
X229400Y-144800D01*
Y-148500D01*
G01X224400Y-149200D02*
X228100D01*
G01X219400Y-144200D02*
X221300D01*
Y-149200D01*
G01X231400Y-171800D02*
X234500D01*
X235100Y-171200D01*
Y-169900D01*
X234500Y-169300D01*
X231400D01*
Y-174300D01*
G01X232700Y-171800D02*
X235100Y-174300D01*
G01X245500Y-172800D02*
X241700D01*
G01X245500Y-170900D02*
X241700D01*
G01X243000Y-170000D02*
Y-173800D01*
G01X240200Y-169300D02*
Y-173000D01*
X239000Y-174300D01*
X237700D01*
X236500Y-173000D01*
G01X240200Y-169300D02*
Y-173000D01*
X239000Y-174300D01*
X237700D01*
X236500Y-173000D01*
G01X243000Y-170000D02*
Y-173800D01*
G01X245500Y-170900D02*
X241700D01*
G01X245500Y-172800D02*
X241700D01*
G01X232700Y-171800D02*
X235100Y-174300D01*
G01X231400Y-171800D02*
X234500D01*
X235100Y-171200D01*
Y-169900D01*
X234500Y-169300D01*
X231400D01*
Y-174300D01*
G01X238100Y-149200D02*
Y-144200D01*
G01X234400D02*
Y-149200D01*
G01Y-144800D02*
X238100Y-148500D01*
G01X234400Y-144800D02*
X238100Y-148500D01*
G01X234400Y-144200D02*
Y-149200D01*
G01X238100D02*
Y-144200D01*
G01X244200Y-170000D02*
Y-173800D01*
G01Y-170000D02*
Y-173800D01*
G01X329400Y-169200D02*
Y-174200D01*
G01Y-171700D02*
X333100D01*
G01Y-174200D02*
Y-169200D01*
G01X324400Y-173500D02*
X325000Y-174200D01*
X327500D01*
X328100Y-173500D01*
Y-172300D01*
X327500Y-171700D01*
X325000D01*
X324400Y-171100D01*
Y-169800D01*
X325000Y-169200D01*
X327500D01*
X328100Y-169800D01*
G01X324400Y-173500D02*
X325000Y-174200D01*
X327500D01*
X328100Y-173500D01*
Y-172300D01*
X327500Y-171700D01*
X325000D01*
X324400Y-171100D01*
Y-169800D01*
X325000Y-169200D01*
X327500D01*
X328100Y-169800D01*
G01X333100Y-174200D02*
Y-169200D01*
G01X329400Y-171700D02*
X333100D01*
G01X329400Y-169200D02*
Y-174200D01*
G01X369400D02*
Y-169200D01*
X373100D01*
G01X371900Y-171700D02*
X369400D01*
G01X364400Y-173500D02*
X365000Y-174200D01*
X367500D01*
X368100Y-173500D01*
Y-169800D01*
X367500Y-169200D01*
X365000D01*
X364400Y-169800D01*
Y-173500D01*
G01D02*
X365000Y-174200D01*
X367500D01*
X368100Y-173500D01*
Y-169800D01*
X367500Y-169200D01*
X365000D01*
X364400Y-169800D01*
Y-173500D01*
G01X371900Y-171700D02*
X369400D01*
G01Y-174200D02*
Y-169200D01*
X373100D01*
G54D13*
X29200Y34700D03*
G54D23*
G01X14713Y-160300D02*
Y-155300D01*
G01Y-156550D02*
X15087Y-155925D01*
X15647Y-155425D01*
X16393Y-155300D01*
X17047Y-155425D01*
X17607Y-155925D01*
X17887Y-156800D01*
Y-160300D01*
G01X21840D02*
Y-152800D01*
G01X25760D02*
Y-160300D01*
G01Y-156550D02*
X21840D01*
G01X29247Y-160300D02*
Y-152800D01*
X31113D01*
X31860Y-153175D01*
X32420Y-153675D01*
X32887Y-154425D01*
X33260Y-155300D01*
X33353Y-156550D01*
X33260Y-157800D01*
X32887Y-158675D01*
X32420Y-159425D01*
X31860Y-159925D01*
X31113Y-160300D01*
X29247D01*
G01X48167D02*
X44433D01*
Y-152800D01*
X48167D01*
G01X46673Y-156425D02*
X44433D01*
G01X51467Y-152800D02*
X53800Y-160300D01*
X56133Y-152800D01*
G01X58873Y-160300D02*
Y-152800D01*
X61300Y-159050D01*
X63727Y-152800D01*
Y-160300D01*
G01X20900Y-175233D02*
X21500Y-174434D01*
X22200Y-174033D01*
X23000Y-173900D01*
X24000Y-174167D01*
X24700Y-174833D01*
X24900Y-175633D01*
X24800Y-176434D01*
X24400Y-177100D01*
X22400Y-178433D01*
X21500Y-179367D01*
X20900Y-180700D01*
X20700Y-181900D01*
X24900D01*
G01X28600Y-180700D02*
X29200Y-181367D01*
X29900Y-181767D01*
X30800Y-181900D01*
X31700Y-181633D01*
X32400Y-181100D01*
X32900Y-180167D01*
X33000Y-179100D01*
X32800Y-178033D01*
X32300Y-177367D01*
X31600Y-176833D01*
X30900Y-176700D01*
X30200Y-176833D01*
X29300Y-177367D01*
X29600Y-173900D01*
X32300D01*
G01X38800Y-181900D02*
Y-173900D01*
X37600Y-175500D01*
G01Y-181900D02*
X40000D01*
G01X44600Y-180700D02*
X45200Y-181367D01*
X45900Y-181767D01*
X46800Y-181900D01*
X47700Y-181633D01*
X48400Y-181100D01*
X48900Y-180167D01*
X49000Y-179100D01*
X48800Y-178033D01*
X48300Y-177367D01*
X47600Y-176833D01*
X46900Y-176700D01*
X46200Y-176833D01*
X45300Y-177367D01*
X45600Y-173900D01*
X48300D01*
G01X52900Y-175233D02*
X53500Y-174434D01*
X54200Y-174033D01*
X55000Y-173900D01*
X56000Y-174167D01*
X56700Y-174833D01*
X56900Y-175633D01*
X56800Y-176434D01*
X56400Y-177100D01*
X54400Y-178433D01*
X53500Y-179367D01*
X52900Y-180700D01*
X52700Y-181900D01*
X56900D01*
G01X62800D02*
Y-173900D01*
X61600Y-175500D01*
G01Y-181900D02*
X64000D01*
G01X70800Y-173900D02*
X70000Y-174167D01*
X69400Y-174833D01*
X69000Y-175633D01*
X68700Y-176700D01*
X68600Y-177900D01*
X68700Y-179100D01*
X69000Y-180167D01*
X69400Y-180967D01*
X70000Y-181633D01*
X70800Y-181900D01*
X71600Y-181633D01*
X72200Y-180967D01*
X72600Y-180167D01*
X72900Y-179100D01*
X73000Y-177900D01*
X72900Y-176700D01*
X72600Y-175633D01*
X72200Y-174833D01*
X71600Y-174167D01*
X70800Y-173900D01*
G01X83250Y-122500D02*
Y-131900D01*
G01X80605Y-122500D02*
X85895D01*
G01X94750Y-131900D02*
X90150D01*
Y-122500D01*
X94750D01*
G01X92910Y-127043D02*
X90150D01*
G01X99235Y-131900D02*
X104065Y-122500D01*
G01X99235D02*
X104065Y-131900D01*
G01X107975D02*
X110850Y-122500D01*
X113725Y-131900D01*
G01X112690Y-128610D02*
X109010D01*
G01X117635Y-130647D02*
X118555Y-131430D01*
X119590Y-131900D01*
X120510D01*
X121430Y-131430D01*
X122120Y-130647D01*
X122465Y-129550D01*
X122235Y-128454D01*
X121660Y-127513D01*
X120625Y-126887D01*
X119245Y-126573D01*
X118440Y-125947D01*
X118095Y-124850D01*
X118325Y-123753D01*
X118900Y-122970D01*
X119705Y-122500D01*
X120510D01*
X121315Y-122813D01*
X122005Y-123597D01*
G01X137070Y-122500D02*
X139830D01*
G01X138450D02*
Y-131900D01*
G01X137070D02*
X139830D01*
G01X145005D02*
Y-122500D01*
X150295Y-131900D01*
Y-122500D01*
G01X154435Y-130647D02*
X155355Y-131430D01*
X156390Y-131900D01*
X157310D01*
X158230Y-131430D01*
X158920Y-130647D01*
X159265Y-129550D01*
X159035Y-128454D01*
X158460Y-127513D01*
X157425Y-126887D01*
X156045Y-126573D01*
X155240Y-125947D01*
X154895Y-124850D01*
X155125Y-123753D01*
X155700Y-122970D01*
X156505Y-122500D01*
X157310D01*
X158115Y-122813D01*
X158805Y-123597D01*
G01X166050Y-122500D02*
Y-131900D01*
G01X163405Y-122500D02*
X168695D01*
G01X172950Y-131900D02*
Y-122500D01*
X175825D01*
X176745Y-122970D01*
X177320Y-123597D01*
X177550Y-124850D01*
X177320Y-126103D01*
X176630Y-126887D01*
X175825Y-127357D01*
X172950D01*
G01X175825D02*
X177550Y-131900D01*
G01X181920Y-122500D02*
Y-129237D01*
X182380Y-130647D01*
X183300Y-131587D01*
X184450Y-131900D01*
X185600Y-131587D01*
X186520Y-130647D01*
X186980Y-129237D01*
Y-122500D01*
G01X190660Y-131900D02*
Y-122500D01*
X193650Y-130333D01*
X196640Y-122500D01*
Y-131900D01*
G01X205150D02*
X200550D01*
Y-122500D01*
X205150D01*
G01X203310Y-127043D02*
X200550D01*
G01X209405Y-131900D02*
Y-122500D01*
X214695Y-131900D01*
Y-122500D01*
G01X221250D02*
Y-131900D01*
G01X218605Y-122500D02*
X223895D01*
G01X228035Y-130647D02*
X228955Y-131430D01*
X229990Y-131900D01*
X230910D01*
X231830Y-131430D01*
X232520Y-130647D01*
X232865Y-129550D01*
X232635Y-128454D01*
X232060Y-127513D01*
X231025Y-126887D01*
X229645Y-126573D01*
X228840Y-125947D01*
X228495Y-124850D01*
X228725Y-123753D01*
X229300Y-122970D01*
X230105Y-122500D01*
X230910D01*
X231715Y-122813D01*
X232405Y-123597D01*
G01X121200Y-185200D02*
X117200D01*
Y-177200D01*
X121200D01*
G01X119600Y-181067D02*
X117200D01*
G01X125300Y-178533D02*
X125900Y-177734D01*
X126600Y-177333D01*
X127400Y-177200D01*
X128400Y-177467D01*
X129100Y-178133D01*
X129300Y-178933D01*
X129200Y-179734D01*
X128800Y-180400D01*
X126800Y-181733D01*
X125900Y-182667D01*
X125300Y-184000D01*
X125100Y-185200D01*
X129300D01*
G01X148150Y-185400D02*
Y-179100D01*
X147210Y-180360D01*
G01Y-185400D02*
X149090D01*
G01X152962Y-182775D02*
X153510Y-182040D01*
X153980Y-181620D01*
X154607Y-181410D01*
X155155Y-181620D01*
X155547Y-182040D01*
X155860Y-182670D01*
X155938Y-183405D01*
X155860Y-184035D01*
X155547Y-184665D01*
X155077Y-185190D01*
X154528Y-185400D01*
X153902Y-185190D01*
X153353Y-184560D01*
X153040Y-183615D01*
X152962Y-182565D01*
X153118Y-181200D01*
X153353Y-180465D01*
X153745Y-179730D01*
X154293Y-179205D01*
X154842Y-179100D01*
X155390Y-179310D01*
X155782Y-179835D01*
G01X159732Y-183300D02*
X161768D01*
G01X165013Y-185400D02*
Y-179100D01*
X167050Y-184350D01*
X169087Y-179100D01*
Y-185400D01*
G01X171392D02*
X173350Y-179100D01*
X175308Y-185400D01*
G01X174603Y-183195D02*
X172097D01*
G01X178083Y-185400D02*
Y-179100D01*
X180042D01*
X180668Y-179415D01*
X181060Y-179835D01*
X181217Y-180675D01*
X181060Y-181515D01*
X180590Y-182040D01*
X180042Y-182355D01*
X178083D01*
G01X180042D02*
X181217Y-185400D01*
G01X184932Y-183300D02*
X186968D01*
G01X190762Y-180150D02*
X191232Y-179520D01*
X191780Y-179205D01*
X192407Y-179100D01*
X193190Y-179310D01*
X193738Y-179835D01*
X193895Y-180465D01*
X193817Y-181095D01*
X193503Y-181620D01*
X191937Y-182670D01*
X191232Y-183405D01*
X190762Y-184455D01*
X190605Y-185400D01*
X193895D01*
G01X198550Y-179100D02*
X197923Y-179310D01*
X197453Y-179835D01*
X197140Y-180465D01*
X196905Y-181305D01*
X196827Y-182250D01*
X196905Y-183195D01*
X197140Y-184035D01*
X197453Y-184665D01*
X197923Y-185190D01*
X198550Y-185400D01*
X199177Y-185190D01*
X199647Y-184665D01*
X199960Y-184035D01*
X200195Y-183195D01*
X200273Y-182250D01*
X200195Y-181305D01*
X199960Y-180465D01*
X199647Y-179835D01*
X199177Y-179310D01*
X198550Y-179100D01*
G01X204850Y-185400D02*
Y-179100D01*
X203910Y-180360D01*
G01Y-185400D02*
X205790D01*
G01X210993D02*
X211150Y-184035D01*
X211385Y-182880D01*
X211698Y-181830D01*
X212090Y-180675D01*
X212717Y-179100D01*
X209583D01*
G01X228650Y-177100D02*
Y-183400D01*
G01X226848Y-177100D02*
X230452D01*
G01X234010D02*
X235890D01*
G01X234950D02*
Y-183400D01*
G01X234010D02*
X235890D01*
G01X239527D02*
Y-177100D01*
X241093D01*
X241720Y-177415D01*
X242190Y-177835D01*
X242582Y-178465D01*
X242895Y-179200D01*
X242973Y-180250D01*
X242895Y-181300D01*
X242582Y-182035D01*
X242190Y-182665D01*
X241720Y-183085D01*
X241093Y-183400D01*
X239527D01*
G01X245983Y-177100D02*
Y-183400D01*
X249117D01*
G01X252283D02*
Y-177100D01*
X254163D01*
X254790Y-177415D01*
X255260Y-178150D01*
X255417Y-178990D01*
X255260Y-179830D01*
X254868Y-180460D01*
X254163Y-180775D01*
X252283D01*
G01X259132Y-181300D02*
X261168D01*
G01X266450Y-183400D02*
Y-177100D01*
X265510Y-178360D01*
G01Y-183400D02*
X267390D01*
G01X272750D02*
Y-177100D01*
X271810Y-178360D01*
G01Y-183400D02*
X273690D01*
G01X279050D02*
Y-177100D01*
X278110Y-178360D01*
G01Y-183400D02*
X279990D01*
G01X283862Y-180775D02*
X284410Y-180040D01*
X284880Y-179620D01*
X285507Y-179410D01*
X286055Y-179620D01*
X286447Y-180040D01*
X286760Y-180670D01*
X286838Y-181405D01*
X286760Y-182035D01*
X286447Y-182665D01*
X285977Y-183190D01*
X285428Y-183400D01*
X284802Y-183190D01*
X284253Y-182560D01*
X283940Y-181615D01*
X283862Y-180565D01*
X284018Y-179200D01*
X284253Y-178465D01*
X284645Y-177730D01*
X285193Y-177205D01*
X285742Y-177100D01*
X286290Y-177310D01*
X286682Y-177835D01*
G01X291650Y-177100D02*
X291023Y-177310D01*
X290553Y-177835D01*
X290240Y-178465D01*
X290005Y-179305D01*
X289927Y-180250D01*
X290005Y-181195D01*
X290240Y-182035D01*
X290553Y-182665D01*
X291023Y-183190D01*
X291650Y-183400D01*
X292277Y-183190D01*
X292747Y-182665D01*
X293060Y-182035D01*
X293295Y-181195D01*
X293373Y-180250D01*
X293295Y-179305D01*
X293060Y-178465D01*
X292747Y-177835D01*
X292277Y-177310D01*
X291650Y-177100D01*
G01X296618Y-182665D02*
X297167Y-183190D01*
X297793Y-183400D01*
X298420Y-183190D01*
X298968Y-182560D01*
X299360Y-181615D01*
X299517Y-180670D01*
Y-179515D01*
X299360Y-178570D01*
X298968Y-177730D01*
X298498Y-177310D01*
X297950Y-177100D01*
X297323Y-177310D01*
X296853Y-177730D01*
X296540Y-178360D01*
X296383Y-179200D01*
X296540Y-179935D01*
X296932Y-180670D01*
X297402Y-181090D01*
X297950Y-181195D01*
X298577Y-180985D01*
X299047Y-180460D01*
X299517Y-179515D01*
G01X303232Y-181300D02*
X305268D01*
G01X310550Y-177100D02*
X309923Y-177310D01*
X309453Y-177835D01*
X309140Y-178465D01*
X308905Y-179305D01*
X308827Y-180250D01*
X308905Y-181195D01*
X309140Y-182035D01*
X309453Y-182665D01*
X309923Y-183190D01*
X310550Y-183400D01*
X311177Y-183190D01*
X311647Y-182665D01*
X311960Y-182035D01*
X312195Y-181195D01*
X312273Y-180250D01*
X312195Y-179305D01*
X311960Y-178465D01*
X311647Y-177835D01*
X311177Y-177310D01*
X310550Y-177100D01*
G01X316850Y-183400D02*
Y-177100D01*
X315910Y-178360D01*
G01Y-183400D02*
X317790D01*
G01X251883Y-153100D02*
Y-159400D01*
X255017D01*
G01X257792D02*
X259750Y-153100D01*
X261708Y-159400D01*
G01X261003Y-157195D02*
X258497D01*
G01X266050Y-159400D02*
Y-156565D01*
X264483Y-153100D01*
G01X267617D02*
X266050Y-156565D01*
G01X273917Y-159400D02*
X270783D01*
Y-153100D01*
X273917D01*
G01X272663Y-156145D02*
X270783D01*
G01X277083Y-159400D02*
Y-153100D01*
X279042D01*
X279668Y-153415D01*
X280060Y-153835D01*
X280217Y-154675D01*
X280060Y-155515D01*
X279590Y-156040D01*
X279042Y-156355D01*
X277083D01*
G01X279042D02*
X280217Y-159400D01*
G01X292190D02*
Y-153100D01*
X289292Y-157615D01*
X293208D01*
G01X302832Y-157300D02*
X304868D01*
G01X314883Y-159400D02*
Y-153100D01*
X316763D01*
X317390Y-153415D01*
X317860Y-154150D01*
X318017Y-154990D01*
X317860Y-155830D01*
X317468Y-156460D01*
X316763Y-156775D01*
X314883D01*
G01X320400Y-153100D02*
X321497Y-159400D01*
X322750Y-153100D01*
X324003Y-159400D01*
X325100Y-153100D01*
G01X327483Y-159400D02*
Y-153100D01*
X329442D01*
X330068Y-153415D01*
X330460Y-153835D01*
X330617Y-154675D01*
X330460Y-155515D01*
X329990Y-156040D01*
X329442Y-156355D01*
X327483D01*
G01X329442D02*
X330617Y-159400D01*
G01X340083D02*
Y-153100D01*
X341963D01*
X342590Y-153415D01*
X343060Y-154150D01*
X343217Y-154990D01*
X343060Y-155830D01*
X342668Y-156460D01*
X341963Y-156775D01*
X340083D01*
G01X346383Y-153100D02*
Y-159400D01*
X349517D01*
G01X352292D02*
X354250Y-153100D01*
X356208Y-159400D01*
G01X355503Y-157195D02*
X352997D01*
G01X358748Y-159400D02*
Y-153100D01*
X362352Y-159400D01*
Y-153100D01*
G01X368417Y-159400D02*
X365283D01*
Y-153100D01*
X368417D01*
G01X367163Y-156145D02*
X365283D01*
G01X355290Y-182900D02*
Y-176600D01*
X352392Y-181115D01*
X356308D01*
G01X382150Y-181900D02*
Y-175600D01*
X381210Y-176860D01*
G01Y-181900D02*
X383090D01*
G01X386727Y-180640D02*
X387197Y-181375D01*
X387823Y-181795D01*
X388528Y-181900D01*
X389155Y-181795D01*
X389782Y-181270D01*
X390173Y-180640D01*
X390252Y-180010D01*
X390095Y-179275D01*
X389547Y-178750D01*
X388998Y-178540D01*
X388293D01*
G01X388998D02*
X389468Y-178225D01*
X389860Y-177700D01*
X390017Y-177070D01*
X389860Y-176440D01*
X389468Y-175915D01*
X388763Y-175600D01*
X388058Y-175705D01*
X387353Y-176125D01*
G01X603983Y-193300D02*
Y-187000D01*
X605863D01*
X606490Y-187315D01*
X606960Y-188050D01*
X607117Y-188890D01*
X606960Y-189730D01*
X606568Y-190360D01*
X605863Y-190675D01*
X603983D01*
G01X610518Y-193300D02*
Y-187000D01*
G01Y-190045D02*
X610910Y-189520D01*
X611302Y-189205D01*
X611928Y-189100D01*
X612398Y-189205D01*
X612947Y-189625D01*
X613182Y-190255D01*
Y-193300D01*
G01X618150Y-189100D02*
Y-193300D01*
G01Y-187420D02*
X617993Y-187315D01*
Y-187105D01*
X618150Y-187000D01*
X618307Y-187105D01*
Y-187315D01*
X618150Y-187420D01*
G01X624450Y-193300D02*
Y-187000D01*
G01X630750Y-189100D02*
Y-193300D01*
G01Y-187420D02*
X630593Y-187315D01*
Y-187105D01*
X630750Y-187000D01*
X630907Y-187105D01*
Y-187315D01*
X630750Y-187420D01*
G01X635640Y-195400D02*
Y-189100D01*
G01Y-190045D02*
X636032Y-189520D01*
X636423Y-189205D01*
X637050Y-189100D01*
X637598Y-189205D01*
X638147Y-189730D01*
X638382Y-190465D01*
X638460Y-191200D01*
X638382Y-191935D01*
X638147Y-192670D01*
X637677Y-193090D01*
X637050Y-193300D01*
X636502Y-193195D01*
X635953Y-192880D01*
X635640Y-192460D01*
G01X641940Y-195400D02*
Y-189100D01*
G01Y-190045D02*
X642332Y-189520D01*
X642723Y-189205D01*
X643350Y-189100D01*
X643898Y-189205D01*
X644447Y-189730D01*
X644682Y-190465D01*
X644760Y-191200D01*
X644682Y-191935D01*
X644447Y-192670D01*
X643977Y-193090D01*
X643350Y-193300D01*
X642802Y-193195D01*
X642253Y-192880D01*
X641940Y-192460D01*
G01X648475Y-190465D02*
X650982D01*
X650747Y-189730D01*
X650355Y-189310D01*
X649807Y-189100D01*
X649258Y-189205D01*
X648788Y-189520D01*
X648475Y-190255D01*
X648318Y-190885D01*
Y-191515D01*
X648475Y-192145D01*
X648867Y-192775D01*
X649337Y-193195D01*
X649885Y-193300D01*
X650433Y-193090D01*
X650982Y-192460D01*
G01X660527Y-193300D02*
Y-187000D01*
X662093D01*
X662720Y-187315D01*
X663190Y-187735D01*
X663582Y-188365D01*
X663895Y-189100D01*
X663973Y-190150D01*
X663895Y-191200D01*
X663582Y-191935D01*
X663190Y-192565D01*
X662720Y-192985D01*
X662093Y-193300D01*
X660527D01*
G01X668550D02*
X668080Y-193195D01*
X667610Y-192775D01*
X667297Y-192040D01*
X667140Y-191200D01*
X667297Y-190360D01*
X667610Y-189625D01*
X668080Y-189205D01*
X668550Y-189100D01*
X669020Y-189205D01*
X669490Y-189625D01*
X669803Y-190360D01*
X669882Y-191200D01*
X669803Y-192040D01*
X669490Y-192775D01*
X669020Y-193195D01*
X668550Y-193300D01*
G01X674850D02*
Y-187000D01*
G01X681150Y-193300D02*
Y-187000D01*
G01X687450Y-193300D02*
X686980Y-193195D01*
X686510Y-192775D01*
X686197Y-192040D01*
X686040Y-191200D01*
X686197Y-190360D01*
X686510Y-189625D01*
X686980Y-189205D01*
X687450Y-189100D01*
X687920Y-189205D01*
X688390Y-189625D01*
X688703Y-190360D01*
X688782Y-191200D01*
X688703Y-192040D01*
X688390Y-192775D01*
X687920Y-193195D01*
X687450Y-193300D01*
G01X594866Y-180800D02*
X592333D01*
Y-175800D01*
X594866D01*
G01X593853Y-178217D02*
X592333D01*
G01X597242Y-180800D02*
Y-175800D01*
X600154Y-180800D01*
Y-175800D01*
G01X604176Y-178300D02*
X605443D01*
Y-179800D01*
X605063Y-180300D01*
X604620Y-180633D01*
X603986Y-180800D01*
X603353Y-180633D01*
X602910Y-180300D01*
X602530Y-179800D01*
X602277Y-179217D01*
X602150Y-178550D01*
Y-177967D01*
X602277Y-177467D01*
X602530Y-176883D01*
X602910Y-176383D01*
X603290Y-176050D01*
X603796Y-175800D01*
X604240D01*
X604746Y-175967D01*
X605126Y-176300D01*
G01X608135Y-175800D02*
X609654D01*
G01X608895D02*
Y-180800D01*
G01X608135D02*
X609654D01*
G01X612537D02*
Y-175800D01*
X615450Y-180800D01*
Y-175800D01*
G01X620358Y-180800D02*
X617825D01*
Y-175800D01*
X620358D01*
G01X619345Y-178217D02*
X617825D01*
G01X625456Y-180800D02*
X622924D01*
Y-175800D01*
X625456D01*
G01X624443Y-178217D02*
X622924D01*
G01X628022Y-180800D02*
Y-175800D01*
X629605D01*
X630112Y-176050D01*
X630428Y-176383D01*
X630555Y-177050D01*
X630428Y-177717D01*
X630048Y-178133D01*
X629605Y-178383D01*
X628022D01*
G01X629605D02*
X630555Y-180800D01*
G01X634387Y-180967D02*
X634260Y-180883D01*
Y-180717D01*
X634387Y-180633D01*
X634514Y-180717D01*
Y-180883D01*
X634387Y-180967D01*
G01Y-178717D02*
X634260Y-178633D01*
Y-178467D01*
X634387Y-178383D01*
X634514Y-178467D01*
Y-178633D01*
X634387Y-178717D01*
G01X604218Y-165800D02*
Y-161600D01*
G01Y-162650D02*
X604532Y-162125D01*
X605002Y-161705D01*
X605628Y-161600D01*
X606177Y-161705D01*
X606647Y-162125D01*
X606882Y-162860D01*
Y-165800D01*
G01X610205D02*
Y-159500D01*
G01X613495D02*
Y-165800D01*
G01Y-162650D02*
X610205D01*
G01X616427Y-165800D02*
Y-159500D01*
X617993D01*
X618620Y-159815D01*
X619090Y-160235D01*
X619482Y-160865D01*
X619795Y-161600D01*
X619873Y-162650D01*
X619795Y-163700D01*
X619482Y-164435D01*
X619090Y-165065D01*
X618620Y-165485D01*
X617993Y-165800D01*
X616427D01*
G01X632317D02*
X629183D01*
Y-159500D01*
X632317D01*
G01X631063Y-162545D02*
X629183D01*
G01X635092Y-159500D02*
X637050Y-165800D01*
X639008Y-159500D01*
G01X641313Y-165800D02*
Y-159500D01*
X643350Y-164750D01*
X645387Y-159500D01*
Y-165800D01*
G01X594106Y-150633D02*
X594360Y-150383D01*
X594549Y-149967D01*
X594676Y-149383D01*
X594549Y-148883D01*
X594296Y-148550D01*
X593853Y-148300D01*
X592143D01*
Y-153300D01*
X594233D01*
X594676Y-152967D01*
X594929Y-152467D01*
X595056Y-151883D01*
X594929Y-151300D01*
X594549Y-150800D01*
X594106Y-150633D01*
X592143D01*
G01X598698Y-153300D02*
X598191Y-153217D01*
X597748Y-152883D01*
X597368Y-152383D01*
X597115Y-151800D01*
X596988Y-151133D01*
Y-150467D01*
X597115Y-149800D01*
X597368Y-149217D01*
X597748Y-148717D01*
X598191Y-148383D01*
X598698Y-148300D01*
X599204Y-148383D01*
X599648Y-148717D01*
X600028Y-149217D01*
X600281Y-149800D01*
X600408Y-150467D01*
Y-151133D01*
X600281Y-151800D01*
X600028Y-152383D01*
X599648Y-152883D01*
X599204Y-153217D01*
X598698Y-153300D01*
G01X602213D02*
X603796Y-148300D01*
X605380Y-153300D01*
G01X604810Y-151550D02*
X602783D01*
G01X607628Y-153300D02*
Y-148300D01*
X609211D01*
X609718Y-148550D01*
X610035Y-148883D01*
X610161Y-149550D01*
X610035Y-150217D01*
X609655Y-150633D01*
X609211Y-150883D01*
X607628D01*
G01X609211D02*
X610161Y-153300D01*
G01X612600D02*
Y-148300D01*
X613866D01*
X614373Y-148550D01*
X614753Y-148883D01*
X615070Y-149383D01*
X615323Y-149967D01*
X615386Y-150800D01*
X615323Y-151633D01*
X615070Y-152217D01*
X614753Y-152717D01*
X614373Y-153050D01*
X613866Y-153300D01*
X612600D01*
G01X622734D02*
Y-148300D01*
X625646Y-153300D01*
Y-148300D01*
G01X627705Y-153300D02*
X629288Y-148300D01*
X630872Y-153300D01*
G01X630302Y-151550D02*
X628275D01*
G01X632740Y-153300D02*
Y-148300D01*
X634387Y-152467D01*
X636033Y-148300D01*
Y-153300D01*
G01X640752D02*
X638219D01*
Y-148300D01*
X640752D01*
G01X639739Y-150717D02*
X638219D01*
G01X644584Y-153467D02*
X644457Y-153383D01*
Y-153217D01*
X644584Y-153133D01*
X644710Y-153217D01*
Y-153383D01*
X644584Y-153467D01*
G01Y-151217D02*
X644457Y-151133D01*
Y-150967D01*
X644584Y-150883D01*
X644710Y-150967D01*
Y-151133D01*
X644584Y-151217D01*
G01X605550Y-133000D02*
Y-139300D01*
G01X603748Y-133000D02*
X607352D01*
G01X613417Y-139300D02*
X610283D01*
Y-133000D01*
X613417D01*
G01X612163Y-136045D02*
X610283D01*
G01X616505Y-139300D02*
X619795Y-133000D01*
G01X616505D02*
X619795Y-139300D01*
G01X622492D02*
X624450Y-133000D01*
X626408Y-139300D01*
G01X625703Y-137095D02*
X623197D01*
G01X629105Y-138460D02*
X629732Y-138985D01*
X630437Y-139300D01*
X631063D01*
X631690Y-138985D01*
X632160Y-138460D01*
X632395Y-137725D01*
X632238Y-136990D01*
X631847Y-136360D01*
X631142Y-135940D01*
X630202Y-135730D01*
X629653Y-135310D01*
X629418Y-134575D01*
X629575Y-133840D01*
X629967Y-133315D01*
X630515Y-133000D01*
X631063D01*
X631612Y-133210D01*
X632082Y-133735D01*
G01X642410Y-133000D02*
X644290D01*
G01X643350D02*
Y-139300D01*
G01X642410D02*
X644290D01*
G01X647848D02*
Y-133000D01*
X651452Y-139300D01*
Y-133000D01*
G01X654305Y-138460D02*
X654932Y-138985D01*
X655637Y-139300D01*
X656263D01*
X656890Y-138985D01*
X657360Y-138460D01*
X657595Y-137725D01*
X657438Y-136990D01*
X657047Y-136360D01*
X656342Y-135940D01*
X655402Y-135730D01*
X654853Y-135310D01*
X654618Y-134575D01*
X654775Y-133840D01*
X655167Y-133315D01*
X655715Y-133000D01*
X656263D01*
X656812Y-133210D01*
X657282Y-133735D01*
G01X662250Y-133000D02*
Y-139300D01*
G01X660448Y-133000D02*
X664052D01*
G01X666983Y-139300D02*
Y-133000D01*
X668942D01*
X669568Y-133315D01*
X669960Y-133735D01*
X670117Y-134575D01*
X669960Y-135415D01*
X669490Y-135940D01*
X668942Y-136255D01*
X666983D01*
G01X668942D02*
X670117Y-139300D01*
G01X673127Y-133000D02*
Y-137515D01*
X673440Y-138460D01*
X674067Y-139090D01*
X674850Y-139300D01*
X675633Y-139090D01*
X676260Y-138460D01*
X676573Y-137515D01*
Y-133000D01*
G01X679113Y-139300D02*
Y-133000D01*
X681150Y-138250D01*
X683187Y-133000D01*
Y-139300D01*
G01X689017D02*
X685883D01*
Y-133000D01*
X689017D01*
G01X687763Y-136045D02*
X685883D01*
G01X691948Y-139300D02*
Y-133000D01*
X695552Y-139300D01*
Y-133000D01*
G01X700050D02*
Y-139300D01*
G01X698248Y-133000D02*
X701852D01*
G01X704705Y-138460D02*
X705332Y-138985D01*
X706037Y-139300D01*
X706663D01*
X707290Y-138985D01*
X707760Y-138460D01*
X707995Y-137725D01*
X707838Y-136990D01*
X707447Y-136360D01*
X706742Y-135940D01*
X705802Y-135730D01*
X705253Y-135310D01*
X705018Y-134575D01*
X705175Y-133840D01*
X705567Y-133315D01*
X706115Y-133000D01*
X706663D01*
X707212Y-133210D01*
X707682Y-133735D01*
G01X594993Y-122217D02*
X594613Y-121967D01*
X594170Y-121800D01*
X593663D01*
X593093Y-122050D01*
X592650Y-122467D01*
X592333Y-122967D01*
X592080Y-123800D01*
X592016Y-124550D01*
X592143Y-125300D01*
X592333Y-125800D01*
X592713Y-126300D01*
X593156Y-126633D01*
X593600Y-126800D01*
X594043D01*
X594486Y-126633D01*
X594866Y-126383D01*
X595183Y-126050D01*
G01X597305Y-121800D02*
Y-125383D01*
X597558Y-126134D01*
X598065Y-126633D01*
X598698Y-126800D01*
X599331Y-126633D01*
X599838Y-126134D01*
X600091Y-125383D01*
Y-121800D01*
G01X602467Y-126134D02*
X602973Y-126550D01*
X603543Y-126800D01*
X604050D01*
X604556Y-126550D01*
X604936Y-126134D01*
X605126Y-125550D01*
X605000Y-124967D01*
X604683Y-124467D01*
X604113Y-124133D01*
X603353Y-123967D01*
X602910Y-123633D01*
X602720Y-123050D01*
X602847Y-122467D01*
X603163Y-122050D01*
X603606Y-121800D01*
X604050D01*
X604493Y-121967D01*
X604873Y-122383D01*
G01X608895Y-121800D02*
Y-126800D01*
G01X607438Y-121800D02*
X610351D01*
G01X613993Y-126800D02*
X613487Y-126717D01*
X613043Y-126383D01*
X612664Y-125883D01*
X612410Y-125300D01*
X612284Y-124633D01*
Y-123967D01*
X612410Y-123300D01*
X612664Y-122717D01*
X613043Y-122217D01*
X613487Y-121883D01*
X613993Y-121800D01*
X614500Y-121883D01*
X614943Y-122217D01*
X615323Y-122717D01*
X615576Y-123300D01*
X615703Y-123967D01*
Y-124633D01*
X615576Y-125300D01*
X615323Y-125883D01*
X614943Y-126383D01*
X614500Y-126717D01*
X613993Y-126800D01*
G01X617445D02*
Y-121800D01*
X619092Y-125967D01*
X620738Y-121800D01*
Y-126800D01*
G01X625456D02*
X622924D01*
Y-121800D01*
X625456D01*
G01X624443Y-124217D02*
X622924D01*
G01X628022Y-126800D02*
Y-121800D01*
X629605D01*
X630112Y-122050D01*
X630428Y-122383D01*
X630555Y-123050D01*
X630428Y-123717D01*
X630048Y-124133D01*
X629605Y-124383D01*
X628022D01*
G01X629605D02*
X630555Y-126800D01*
G01X634387Y-126967D02*
X634260Y-126883D01*
Y-126717D01*
X634387Y-126633D01*
X634514Y-126717D01*
Y-126883D01*
X634387Y-126967D01*
G01Y-124717D02*
X634260Y-124633D01*
Y-124467D01*
X634387Y-124383D01*
X634514Y-124467D01*
Y-124633D01*
X634387Y-124717D01*
G01X705833Y-180800D02*
Y-175800D01*
X707353D01*
X707860Y-176050D01*
X708239Y-176633D01*
X708366Y-177300D01*
X708239Y-177967D01*
X707923Y-178467D01*
X707353Y-178717D01*
X705833D01*
G01X713591Y-176217D02*
X713211Y-175967D01*
X712768Y-175800D01*
X712261D01*
X711691Y-176050D01*
X711248Y-176467D01*
X710932Y-176967D01*
X710678Y-177800D01*
X710615Y-178550D01*
X710742Y-179300D01*
X710932Y-179800D01*
X711312Y-180300D01*
X711755Y-180633D01*
X712198Y-180800D01*
X712641D01*
X713085Y-180633D01*
X713464Y-180383D01*
X713781Y-180050D01*
G01X717803Y-178133D02*
X718056Y-177883D01*
X718246Y-177467D01*
X718373Y-176883D01*
X718246Y-176383D01*
X717993Y-176050D01*
X717550Y-175800D01*
X715840D01*
Y-180800D01*
X717930D01*
X718373Y-180467D01*
X718626Y-179967D01*
X718753Y-179383D01*
X718626Y-178800D01*
X718246Y-178300D01*
X717803Y-178133D01*
X715840D01*
G01X726100Y-180800D02*
Y-175800D01*
X727366D01*
X727873Y-176050D01*
X728253Y-176383D01*
X728570Y-176883D01*
X728823Y-177467D01*
X728886Y-178300D01*
X728823Y-179133D01*
X728570Y-179717D01*
X728253Y-180217D01*
X727873Y-180550D01*
X727366Y-180800D01*
X726100D01*
G01X733858D02*
X731325D01*
Y-175800D01*
X733858D01*
G01X732845Y-178217D02*
X731325D01*
G01X736360Y-180134D02*
X736867Y-180550D01*
X737437Y-180800D01*
X737943D01*
X738450Y-180550D01*
X738830Y-180134D01*
X739020Y-179550D01*
X738893Y-178967D01*
X738576Y-178467D01*
X738007Y-178133D01*
X737247Y-177967D01*
X736804Y-177633D01*
X736614Y-177050D01*
X736740Y-176467D01*
X737057Y-176050D01*
X737500Y-175800D01*
X737943D01*
X738386Y-175967D01*
X738766Y-176383D01*
G01X742028Y-175800D02*
X743548D01*
G01X742788D02*
Y-180800D01*
G01X742028D02*
X743548D01*
G01X748267Y-178300D02*
X749533D01*
Y-179800D01*
X749153Y-180300D01*
X748710Y-180633D01*
X748077Y-180800D01*
X747444Y-180633D01*
X747000Y-180300D01*
X746620Y-179800D01*
X746367Y-179217D01*
X746240Y-178550D01*
Y-177967D01*
X746367Y-177467D01*
X746620Y-176883D01*
X747000Y-176383D01*
X747380Y-176050D01*
X747887Y-175800D01*
X748330D01*
X748837Y-175967D01*
X749216Y-176300D01*
G01X751529Y-180800D02*
Y-175800D01*
X754442Y-180800D01*
Y-175800D01*
G01X759350Y-180800D02*
X756817D01*
Y-175800D01*
X759350D01*
G01X758337Y-178217D02*
X756817D01*
G01X761916Y-180800D02*
Y-175800D01*
X763499D01*
X764005Y-176050D01*
X764322Y-176383D01*
X764448Y-177050D01*
X764322Y-177717D01*
X763942Y-178133D01*
X763499Y-178383D01*
X761916D01*
G01X763499D02*
X764448Y-180800D01*
G01X768280Y-180967D02*
X768154Y-180883D01*
Y-180717D01*
X768280Y-180633D01*
X768407Y-180717D01*
Y-180883D01*
X768280Y-180967D01*
G01Y-178717D02*
X768154Y-178633D01*
Y-178467D01*
X768280Y-178383D01*
X768407Y-178467D01*
Y-178633D01*
X768280Y-178717D01*
G01X717483Y-187000D02*
Y-193300D01*
X720617D01*
G01X723705Y-195190D02*
X724175Y-195400D01*
X724802Y-195190D01*
X725193Y-194770D01*
X725507Y-194245D01*
X725977Y-192565D01*
X726995Y-189100D01*
G01X724488D02*
X725977Y-192565D01*
G01X730318Y-193300D02*
Y-189100D01*
G01Y-190150D02*
X730632Y-189625D01*
X731102Y-189205D01*
X731728Y-189100D01*
X732277Y-189205D01*
X732747Y-189625D01*
X732982Y-190360D01*
Y-193300D01*
G01X736618D02*
Y-189100D01*
G01Y-190150D02*
X736932Y-189625D01*
X737402Y-189205D01*
X738028Y-189100D01*
X738577Y-189205D01*
X739047Y-189625D01*
X739282Y-190360D01*
Y-193300D01*
G01X748200Y-187000D02*
X749297Y-193300D01*
X750550Y-187000D01*
X751803Y-193300D01*
X752900Y-187000D01*
G01X756850Y-189100D02*
Y-193300D01*
G01Y-187420D02*
X756693Y-187315D01*
Y-187105D01*
X756850Y-187000D01*
X757007Y-187105D01*
Y-187315D01*
X756850Y-187420D01*
G01X763150Y-187000D02*
Y-193300D01*
G01X762053Y-189100D02*
X764247D01*
G01X769450Y-187000D02*
Y-193300D01*
G01X768353Y-189100D02*
X770547D01*
G01X774575Y-190465D02*
X777082D01*
X776847Y-189730D01*
X776455Y-189310D01*
X775907Y-189100D01*
X775358Y-189205D01*
X774888Y-189520D01*
X774575Y-190255D01*
X774418Y-190885D01*
Y-191515D01*
X774575Y-192145D01*
X774967Y-192775D01*
X775437Y-193195D01*
X775985Y-193300D01*
X776533Y-193090D01*
X777082Y-192460D01*
G01X780953Y-193300D02*
Y-189100D01*
G01Y-189940D02*
X781345Y-189520D01*
X781737Y-189205D01*
X782285Y-189100D01*
X782677Y-189205D01*
X783147Y-189520D01*
G01X799106Y-177133D02*
X799360Y-176883D01*
X799549Y-176467D01*
X799676Y-175883D01*
X799549Y-175383D01*
X799296Y-175050D01*
X798853Y-174800D01*
X797143D01*
Y-179800D01*
X799233D01*
X799676Y-179467D01*
X799929Y-178967D01*
X800056Y-178383D01*
X799929Y-177800D01*
X799549Y-177300D01*
X799106Y-177133D01*
X797143D01*
G01X803698Y-179800D02*
X803191Y-179717D01*
X802748Y-179383D01*
X802368Y-178883D01*
X802115Y-178300D01*
X801988Y-177633D01*
Y-176967D01*
X802115Y-176300D01*
X802368Y-175717D01*
X802748Y-175217D01*
X803191Y-174883D01*
X803698Y-174800D01*
X804204Y-174883D01*
X804648Y-175217D01*
X805028Y-175717D01*
X805281Y-176300D01*
X805408Y-176967D01*
Y-177633D01*
X805281Y-178300D01*
X805028Y-178883D01*
X804648Y-179383D01*
X804204Y-179717D01*
X803698Y-179800D01*
G01X807213D02*
X808796Y-174800D01*
X810380Y-179800D01*
G01X809810Y-178050D02*
X807783D01*
G01X812628Y-179800D02*
Y-174800D01*
X814211D01*
X814718Y-175050D01*
X815035Y-175383D01*
X815161Y-176050D01*
X815035Y-176717D01*
X814655Y-177133D01*
X814211Y-177383D01*
X812628D01*
G01X814211D02*
X815161Y-179800D01*
G01X817600D02*
Y-174800D01*
X818866D01*
X819373Y-175050D01*
X819753Y-175383D01*
X820070Y-175883D01*
X820323Y-176467D01*
X820386Y-177300D01*
X820323Y-178133D01*
X820070Y-178717D01*
X819753Y-179217D01*
X819373Y-179550D01*
X818866Y-179800D01*
X817600D01*
G01X827924D02*
Y-174800D01*
X829507D01*
X830013Y-175050D01*
X830330Y-175383D01*
X830456Y-176050D01*
X830330Y-176717D01*
X829950Y-177133D01*
X829507Y-177383D01*
X827924D01*
G01X829507D02*
X830456Y-179800D01*
G01X835555D02*
X833022D01*
Y-174800D01*
X835555D01*
G01X834542Y-177217D02*
X833022D01*
G01X837804Y-174800D02*
X839387Y-179800D01*
X840970Y-174800D01*
G01X844485Y-179967D02*
X844358Y-179883D01*
Y-179717D01*
X844485Y-179633D01*
X844612Y-179717D01*
Y-179883D01*
X844485Y-179967D01*
G01Y-177717D02*
X844358Y-177633D01*
Y-177467D01*
X844485Y-177383D01*
X844612Y-177467D01*
Y-177633D01*
X844485Y-177717D01*
G01X797333Y-148300D02*
Y-153300D01*
X799866D01*
G01X802115D02*
X803698Y-148300D01*
X805281Y-153300D01*
G01X804711Y-151550D02*
X802685D01*
G01X808796Y-153300D02*
Y-151050D01*
X807530Y-148300D01*
G01X810063D02*
X808796Y-151050D01*
G01X815161Y-153300D02*
X812628D01*
Y-148300D01*
X815161D01*
G01X814148Y-150717D02*
X812628D01*
G01X817727Y-153300D02*
Y-148300D01*
X819310D01*
X819816Y-148550D01*
X820133Y-148883D01*
X820260Y-149550D01*
X820133Y-150217D01*
X819753Y-150633D01*
X819310Y-150883D01*
X817727D01*
G01X819310D02*
X820260Y-153300D01*
G01X827797D02*
Y-148300D01*
X829063D01*
X829570Y-148550D01*
X829950Y-148883D01*
X830267Y-149383D01*
X830520Y-149967D01*
X830583Y-150800D01*
X830520Y-151633D01*
X830267Y-152217D01*
X829950Y-152717D01*
X829570Y-153050D01*
X829063Y-153300D01*
X827797D01*
G01X835555D02*
X833022D01*
Y-148300D01*
X835555D01*
G01X834542Y-150717D02*
X833022D01*
G01X838057Y-152634D02*
X838564Y-153050D01*
X839134Y-153300D01*
X839640D01*
X840147Y-153050D01*
X840527Y-152634D01*
X840717Y-152050D01*
X840590Y-151467D01*
X840273Y-150967D01*
X839703Y-150633D01*
X838944Y-150467D01*
X838500Y-150133D01*
X838310Y-149550D01*
X838437Y-148967D01*
X838754Y-148550D01*
X839197Y-148300D01*
X839640D01*
X840083Y-148467D01*
X840463Y-148883D01*
G01X845878Y-148717D02*
X845498Y-148467D01*
X845055Y-148300D01*
X844549D01*
X843979Y-148550D01*
X843535Y-148967D01*
X843219Y-149467D01*
X842965Y-150300D01*
X842902Y-151050D01*
X843029Y-151800D01*
X843219Y-152300D01*
X843599Y-152800D01*
X844042Y-153133D01*
X844485Y-153300D01*
X844928D01*
X845372Y-153133D01*
X845752Y-152883D01*
X846068Y-152550D01*
G01X848317Y-153300D02*
Y-148300D01*
X849900D01*
X850407Y-148550D01*
X850723Y-148883D01*
X850850Y-149550D01*
X850723Y-150217D01*
X850344Y-150633D01*
X849900Y-150883D01*
X848317D01*
G01X849900D02*
X850850Y-153300D01*
G01X853922Y-148300D02*
X855442D01*
G01X854682D02*
Y-153300D01*
G01X853922D02*
X855442D01*
G01X858514D02*
Y-148300D01*
X860034D01*
X860540Y-148550D01*
X860920Y-149133D01*
X861047Y-149800D01*
X860920Y-150467D01*
X860604Y-150967D01*
X860034Y-151217D01*
X858514D01*
G01X864879Y-148300D02*
Y-153300D01*
G01X863423Y-148300D02*
X866335D01*
G01X869217D02*
X870737D01*
G01X869977D02*
Y-153300D01*
G01X869217D02*
X870737D01*
G01X875076D02*
X874569Y-153217D01*
X874126Y-152883D01*
X873746Y-152383D01*
X873492Y-151800D01*
X873366Y-151133D01*
Y-150467D01*
X873492Y-149800D01*
X873746Y-149217D01*
X874126Y-148717D01*
X874569Y-148383D01*
X875076Y-148300D01*
X875582Y-148383D01*
X876025Y-148717D01*
X876405Y-149217D01*
X876659Y-149800D01*
X876785Y-150467D01*
Y-151133D01*
X876659Y-151800D01*
X876405Y-152383D01*
X876025Y-152883D01*
X875582Y-153217D01*
X875076Y-153300D01*
G01X878718D02*
Y-148300D01*
X881630Y-153300D01*
Y-148300D01*
G01X885272Y-153467D02*
X885146Y-153383D01*
Y-153217D01*
X885272Y-153133D01*
X885399Y-153217D01*
Y-153383D01*
X885272Y-153467D01*
G01Y-151217D02*
X885146Y-151133D01*
Y-150967D01*
X885272Y-150883D01*
X885399Y-150967D01*
Y-151133D01*
X885272Y-151217D01*
G01X816905Y-165800D02*
X820195Y-159500D01*
G01X816905D02*
X820195Y-165800D01*
G01X828242Y-192800D02*
X830200Y-186500D01*
X832158Y-192800D01*
G01X831453Y-190595D02*
X828947D01*
G01X838983Y-158000D02*
Y-164300D01*
X842117D01*
G01X844892D02*
X846850Y-158000D01*
X848808Y-164300D01*
G01X848103Y-162095D02*
X845597D01*
G01X853150Y-164300D02*
Y-161465D01*
X851583Y-158000D01*
G01X854717D02*
X853150Y-161465D01*
G01X861017Y-164300D02*
X857883D01*
Y-158000D01*
X861017D01*
G01X859763Y-161045D02*
X857883D01*
G01X864183Y-164300D02*
Y-158000D01*
X866142D01*
X866768Y-158315D01*
X867160Y-158735D01*
X867317Y-159575D01*
X867160Y-160415D01*
X866690Y-160940D01*
X866142Y-161255D01*
X864183D01*
G01X866142D02*
X867317Y-164300D01*
G01X879290D02*
Y-158000D01*
X876392Y-162515D01*
X880308D01*
G01X889932Y-162200D02*
X891968D01*
G01X904020Y-161150D02*
X905587D01*
Y-163040D01*
X905117Y-163670D01*
X904568Y-164090D01*
X903785Y-164300D01*
X903002Y-164090D01*
X902453Y-163670D01*
X901983Y-163040D01*
X901670Y-162305D01*
X901513Y-161465D01*
Y-160730D01*
X901670Y-160100D01*
X901983Y-159365D01*
X902453Y-158735D01*
X902923Y-158315D01*
X903550Y-158000D01*
X904098D01*
X904725Y-158210D01*
X905195Y-158630D01*
G01X908048Y-164300D02*
Y-158000D01*
X911652Y-164300D01*
Y-158000D01*
G01X914427Y-164300D02*
Y-158000D01*
X915993D01*
X916620Y-158315D01*
X917090Y-158735D01*
X917482Y-159365D01*
X917795Y-160100D01*
X917873Y-161150D01*
X917795Y-162200D01*
X917482Y-162935D01*
X917090Y-163565D01*
X916620Y-163985D01*
X915993Y-164300D01*
X914427D01*
G01X927183D02*
Y-158000D01*
X929063D01*
X929690Y-158315D01*
X930160Y-159050D01*
X930317Y-159890D01*
X930160Y-160730D01*
X929768Y-161360D01*
X929063Y-161675D01*
X927183D01*
G01X933483Y-158000D02*
Y-164300D01*
X936617D01*
G01X939392D02*
X941350Y-158000D01*
X943308Y-164300D01*
G01X942603Y-162095D02*
X940097D01*
G01X945848Y-164300D02*
Y-158000D01*
X949452Y-164300D01*
Y-158000D01*
G01X955517Y-164300D02*
X952383D01*
Y-158000D01*
X955517D01*
G01X954263Y-161045D02*
X952383D01*
G01X871333Y-179800D02*
Y-174800D01*
X872916D01*
X873423Y-175050D01*
X873739Y-175383D01*
X873866Y-176050D01*
X873739Y-176717D01*
X873359Y-177133D01*
X872916Y-177383D01*
X871333D01*
G01X872916D02*
X873866Y-179800D01*
G01X878964D02*
X876432D01*
Y-174800D01*
X878964D01*
G01X877951Y-177217D02*
X876432D01*
G01X881530Y-174800D02*
Y-179800D01*
X884063D01*
G01X889161D02*
X886628D01*
Y-174800D01*
X889161D01*
G01X888148Y-177217D02*
X886628D01*
G01X891410Y-179800D02*
X892993Y-174800D01*
X894576Y-179800D01*
G01X894006Y-178050D02*
X891980D01*
G01X896762Y-179134D02*
X897268Y-179550D01*
X897838Y-179800D01*
X898345D01*
X898852Y-179550D01*
X899231Y-179134D01*
X899421Y-178550D01*
X899295Y-177967D01*
X898978Y-177467D01*
X898408Y-177133D01*
X897648Y-176967D01*
X897205Y-176633D01*
X897015Y-176050D01*
X897142Y-175467D01*
X897458Y-175050D01*
X897902Y-174800D01*
X898345D01*
X898788Y-174967D01*
X899168Y-175383D01*
G01X904456Y-179800D02*
X901924D01*
Y-174800D01*
X904456D01*
G01X903443Y-177217D02*
X901924D01*
G01X911994Y-179800D02*
Y-174800D01*
X913260D01*
X913767Y-175050D01*
X914147Y-175383D01*
X914463Y-175883D01*
X914717Y-176467D01*
X914780Y-177300D01*
X914717Y-178133D01*
X914463Y-178717D01*
X914147Y-179217D01*
X913767Y-179550D01*
X913260Y-179800D01*
X911994D01*
G01X916902D02*
X918485Y-174800D01*
X920068Y-179800D01*
G01X919498Y-178050D02*
X917472D01*
G01X923584Y-174800D02*
Y-179800D01*
G01X922127Y-174800D02*
X925040D01*
G01X929948Y-179800D02*
X927416D01*
Y-174800D01*
X929948D01*
G01X928935Y-177217D02*
X927416D01*
G01X933780Y-179967D02*
X933654Y-179883D01*
Y-179717D01*
X933780Y-179633D01*
X933907Y-179717D01*
Y-179883D01*
X933780Y-179967D01*
G01Y-177717D02*
X933654Y-177633D01*
Y-177467D01*
X933780Y-177383D01*
X933907Y-177467D01*
Y-177633D01*
X933780Y-177717D01*
G01X871207Y-124800D02*
Y-119800D01*
G01X873613D02*
X871207Y-122883D01*
G01X873993Y-124800D02*
X872283Y-121467D01*
G01X876368Y-124134D02*
X876875Y-124550D01*
X877445Y-124800D01*
X877951D01*
X878458Y-124550D01*
X878838Y-124134D01*
X879028Y-123550D01*
X878901Y-122967D01*
X878584Y-122467D01*
X878015Y-122133D01*
X877255Y-121967D01*
X876812Y-121633D01*
X876622Y-121050D01*
X876748Y-120467D01*
X877065Y-120050D01*
X877508Y-119800D01*
X877951D01*
X878394Y-119967D01*
X878775Y-120383D01*
G01X882037Y-119800D02*
X883556D01*
G01X882796D02*
Y-124800D01*
G01X882037D02*
X883556D01*
G01X886502D02*
Y-119800D01*
X887768D01*
X888275Y-120050D01*
X888655Y-120383D01*
X888971Y-120883D01*
X889225Y-121467D01*
X889288Y-122300D01*
X889225Y-123133D01*
X888971Y-123717D01*
X888655Y-124217D01*
X888275Y-124550D01*
X887768Y-124800D01*
X886502D01*
G01X892993Y-124967D02*
X892866Y-124883D01*
Y-124717D01*
X892993Y-124633D01*
X893120Y-124717D01*
Y-124883D01*
X892993Y-124967D01*
G01Y-122717D02*
X892866Y-122633D01*
Y-122467D01*
X892993Y-122383D01*
X893120Y-122467D01*
Y-122633D01*
X892993Y-122717D01*
G01X884663Y-192800D02*
Y-186500D01*
X886700Y-191750D01*
X888737Y-186500D01*
Y-192800D01*
G01X891042D02*
X893000Y-186500D01*
X894958Y-192800D01*
G01X894253Y-190595D02*
X891747D01*
G01X897733Y-192800D02*
Y-186500D01*
X899692D01*
X900318Y-186815D01*
X900710Y-187235D01*
X900867Y-188075D01*
X900710Y-188915D01*
X900240Y-189440D01*
X899692Y-189755D01*
X897733D01*
G01X899692D02*
X900867Y-192800D01*
G01X904582Y-190700D02*
X906618D01*
G01X911900Y-192800D02*
Y-186500D01*
X910960Y-187760D01*
G01Y-192800D02*
X912840D01*
G01X916712Y-190175D02*
X917260Y-189440D01*
X917730Y-189020D01*
X918357Y-188810D01*
X918905Y-189020D01*
X919297Y-189440D01*
X919610Y-190070D01*
X919688Y-190805D01*
X919610Y-191435D01*
X919297Y-192065D01*
X918827Y-192590D01*
X918278Y-192800D01*
X917652Y-192590D01*
X917103Y-191960D01*
X916790Y-191015D01*
X916712Y-189965D01*
X916868Y-188600D01*
X917103Y-187865D01*
X917495Y-187130D01*
X918043Y-186605D01*
X918592Y-186500D01*
X919140Y-186710D01*
X919532Y-187235D01*
G01X923482Y-190700D02*
X925518D01*
G01X929312Y-187550D02*
X929782Y-186920D01*
X930330Y-186605D01*
X930957Y-186500D01*
X931740Y-186710D01*
X932288Y-187235D01*
X932445Y-187865D01*
X932367Y-188495D01*
X932053Y-189020D01*
X930487Y-190070D01*
X929782Y-190805D01*
X929312Y-191855D01*
X929155Y-192800D01*
X932445D01*
G01X937100Y-186500D02*
X936473Y-186710D01*
X936003Y-187235D01*
X935690Y-187865D01*
X935455Y-188705D01*
X935377Y-189650D01*
X935455Y-190595D01*
X935690Y-191435D01*
X936003Y-192065D01*
X936473Y-192590D01*
X937100Y-192800D01*
X937727Y-192590D01*
X938197Y-192065D01*
X938510Y-191435D01*
X938745Y-190595D01*
X938823Y-189650D01*
X938745Y-188705D01*
X938510Y-187865D01*
X938197Y-187235D01*
X937727Y-186710D01*
X937100Y-186500D01*
G01X943400Y-192800D02*
Y-186500D01*
X942460Y-187760D01*
G01Y-192800D02*
X944340D01*
G01X949543D02*
X949700Y-191435D01*
X949935Y-190280D01*
X950248Y-189230D01*
X950640Y-188075D01*
X951267Y-186500D01*
X948133D01*
G01X905600Y-137800D02*
Y-131500D01*
X904660Y-132760D01*
G01Y-137800D02*
X906540D01*
G01X911743D02*
X911900Y-136435D01*
X912135Y-135280D01*
X912448Y-134230D01*
X912840Y-133075D01*
X913467Y-131500D01*
X910333D01*
G01X918043Y-137800D02*
X918200Y-136435D01*
X918435Y-135280D01*
X918748Y-134230D01*
X919140Y-133075D01*
X919767Y-131500D01*
X916633D01*
G01X925440Y-137800D02*
Y-131500D01*
X922542Y-136015D01*
X926458D01*
G01X929077Y-136855D02*
X929547Y-137380D01*
X930095Y-137695D01*
X930800Y-137800D01*
X931505Y-137590D01*
X932053Y-137170D01*
X932445Y-136435D01*
X932523Y-135595D01*
X932367Y-134755D01*
X931975Y-134230D01*
X931427Y-133810D01*
X930878Y-133705D01*
X930330Y-133810D01*
X929625Y-134230D01*
X929860Y-131500D01*
X931975D01*
G01X973770Y-179134D02*
X974276Y-179550D01*
X974846Y-179800D01*
X975353D01*
X975860Y-179550D01*
X976239Y-179134D01*
X976429Y-178550D01*
X976303Y-177967D01*
X975986Y-177467D01*
X975416Y-177133D01*
X974656Y-176967D01*
X974213Y-176633D01*
X974023Y-176050D01*
X974150Y-175467D01*
X974466Y-175050D01*
X974910Y-174800D01*
X975353D01*
X975796Y-174967D01*
X976176Y-175383D01*
G01X978868Y-179800D02*
Y-174800D01*
G01X981528D02*
Y-179800D01*
G01Y-177300D02*
X978868D01*
G01X986563Y-179800D02*
X984030D01*
Y-174800D01*
X986563D01*
G01X985550Y-177217D02*
X984030D01*
G01X991661Y-179800D02*
X989128D01*
Y-174800D01*
X991661D01*
G01X990648Y-177217D02*
X989128D01*
G01X995493Y-174800D02*
Y-179800D01*
G01X994037Y-174800D02*
X996950D01*
G01X1004234Y-179800D02*
Y-174800D01*
X1007146Y-179800D01*
Y-174800D01*
G01X1009395D02*
Y-178383D01*
X1009649Y-179134D01*
X1010155Y-179633D01*
X1010788Y-179800D01*
X1011422Y-179633D01*
X1011928Y-179134D01*
X1012181Y-178383D01*
Y-174800D01*
G01X1014240Y-179800D02*
Y-174800D01*
X1015887Y-178967D01*
X1017533Y-174800D01*
Y-179800D01*
G01X1021492Y-177133D02*
X1021745Y-176883D01*
X1021935Y-176467D01*
X1022062Y-175883D01*
X1021935Y-175383D01*
X1021682Y-175050D01*
X1021239Y-174800D01*
X1019529D01*
Y-179800D01*
X1021618D01*
X1022062Y-179467D01*
X1022315Y-178967D01*
X1022442Y-178383D01*
X1022315Y-177800D01*
X1021935Y-177300D01*
X1021492Y-177133D01*
X1019529D01*
G01X1027350Y-179800D02*
X1024817D01*
Y-174800D01*
X1027350D01*
G01X1026337Y-177217D02*
X1024817D01*
G01X1029916Y-179800D02*
Y-174800D01*
X1031499D01*
X1032005Y-175050D01*
X1032322Y-175383D01*
X1032448Y-176050D01*
X1032322Y-176717D01*
X1031942Y-177133D01*
X1031499Y-177383D01*
X1029916D01*
G01X1031499D02*
X1032448Y-179800D01*
G01X1036280Y-179967D02*
X1036154Y-179883D01*
Y-179717D01*
X1036280Y-179633D01*
X1036407Y-179717D01*
Y-179883D01*
X1036280Y-179967D01*
G01Y-177717D02*
X1036154Y-177633D01*
Y-177467D01*
X1036280Y-177383D01*
X1036407Y-177467D01*
Y-177633D01*
X1036280Y-177717D01*
G01X973333Y-123800D02*
X973650Y-124300D01*
X974030Y-124633D01*
X974473Y-124800D01*
X974980Y-124633D01*
X975359Y-124300D01*
X975739Y-123800D01*
X975866Y-123133D01*
Y-119800D01*
G01X979698Y-124800D02*
X979191Y-124717D01*
X978748Y-124383D01*
X978368Y-123883D01*
X978115Y-123300D01*
X977988Y-122633D01*
Y-121967D01*
X978115Y-121300D01*
X978368Y-120717D01*
X978748Y-120217D01*
X979191Y-119883D01*
X979698Y-119800D01*
X980204Y-119883D01*
X980648Y-120217D01*
X981028Y-120717D01*
X981281Y-121300D01*
X981408Y-121967D01*
Y-122633D01*
X981281Y-123300D01*
X981028Y-123883D01*
X980648Y-124383D01*
X980204Y-124717D01*
X979698Y-124800D01*
G01X985303Y-122133D02*
X985556Y-121883D01*
X985746Y-121467D01*
X985873Y-120883D01*
X985746Y-120383D01*
X985493Y-120050D01*
X985050Y-119800D01*
X983340D01*
Y-124800D01*
X985430D01*
X985873Y-124467D01*
X986126Y-123967D01*
X986253Y-123383D01*
X986126Y-122800D01*
X985746Y-122300D01*
X985303Y-122133D01*
X983340D01*
G01X993537Y-124800D02*
Y-119800D01*
X996450Y-124800D01*
Y-119800D01*
G01X998699D02*
Y-123383D01*
X998952Y-124134D01*
X999458Y-124633D01*
X1000092Y-124800D01*
X1000725Y-124633D01*
X1001231Y-124134D01*
X1001485Y-123383D01*
Y-119800D01*
G01X1003544Y-124800D02*
Y-119800D01*
X1005190Y-123967D01*
X1006836Y-119800D01*
Y-124800D01*
G01X1010795Y-122133D02*
X1011048Y-121883D01*
X1011238Y-121467D01*
X1011365Y-120883D01*
X1011238Y-120383D01*
X1010985Y-120050D01*
X1010542Y-119800D01*
X1008832D01*
Y-124800D01*
X1010922D01*
X1011365Y-124467D01*
X1011618Y-123967D01*
X1011745Y-123383D01*
X1011618Y-122800D01*
X1011238Y-122300D01*
X1010795Y-122133D01*
X1008832D01*
G01X1016653Y-124800D02*
X1014120D01*
Y-119800D01*
X1016653D01*
G01X1015640Y-122217D02*
X1014120D01*
G01X1019219Y-124800D02*
Y-119800D01*
X1020802D01*
X1021308Y-120050D01*
X1021625Y-120383D01*
X1021752Y-121050D01*
X1021625Y-121717D01*
X1021245Y-122133D01*
X1020802Y-122383D01*
X1019219D01*
G01X1020802D02*
X1021752Y-124800D01*
G01X1025583Y-124967D02*
X1025457Y-124883D01*
Y-124717D01*
X1025583Y-124633D01*
X1025710Y-124717D01*
Y-124883D01*
X1025583Y-124967D01*
G01Y-122717D02*
X1025457Y-122633D01*
Y-122467D01*
X1025583Y-122383D01*
X1025710Y-122467D01*
Y-122633D01*
X1025583Y-122717D01*
G01X989905Y-192800D02*
X993195Y-186500D01*
G01X989905D02*
X993195Y-192800D01*
G01X996205D02*
X999495Y-186500D01*
G01X996205D02*
X999495Y-192800D01*
G01X997950Y-137800D02*
Y-131500D01*
X997010Y-132760D01*
G01Y-137800D02*
X998890D01*
G01X1002527Y-136540D02*
X1002997Y-137275D01*
X1003623Y-137695D01*
X1004328Y-137800D01*
X1004955Y-137695D01*
X1005582Y-137170D01*
X1005973Y-136540D01*
X1006052Y-135910D01*
X1005895Y-135175D01*
X1005347Y-134650D01*
X1004798Y-134440D01*
X1004093D01*
G01X1004798D02*
X1005268Y-134125D01*
X1005660Y-133600D01*
X1005817Y-132970D01*
X1005660Y-132340D01*
X1005268Y-131815D01*
X1004563Y-131500D01*
X1003858Y-131605D01*
X1003153Y-132025D01*
G01X1010550Y-137800D02*
Y-131500D01*
X1009610Y-132760D01*
G01Y-137800D02*
X1011490D01*
G01X1016850D02*
X1017398Y-137695D01*
X1018025Y-137380D01*
X1018417Y-136855D01*
X1018573Y-136120D01*
X1018417Y-135385D01*
X1017947Y-134755D01*
X1017242Y-134440D01*
X1016458D01*
X1015988Y-134230D01*
X1015597Y-133705D01*
X1015440Y-132970D01*
X1015675Y-132235D01*
X1016223Y-131710D01*
X1016850Y-131500D01*
X1017477Y-131710D01*
X1018025Y-132235D01*
X1018260Y-132970D01*
X1018103Y-133705D01*
X1017712Y-134230D01*
X1017242Y-134440D01*
X1016458D01*
X1015753Y-134755D01*
X1015283Y-135385D01*
X1015127Y-136120D01*
X1015283Y-136855D01*
X1015675Y-137380D01*
X1016302Y-137695D01*
X1016850Y-137800D01*
G01X1023150D02*
X1023698Y-137695D01*
X1024325Y-137380D01*
X1024717Y-136855D01*
X1024873Y-136120D01*
X1024717Y-135385D01*
X1024247Y-134755D01*
X1023542Y-134440D01*
X1022758D01*
X1022288Y-134230D01*
X1021897Y-133705D01*
X1021740Y-132970D01*
X1021975Y-132235D01*
X1022523Y-131710D01*
X1023150Y-131500D01*
X1023777Y-131710D01*
X1024325Y-132235D01*
X1024560Y-132970D01*
X1024403Y-133705D01*
X1024012Y-134230D01*
X1023542Y-134440D01*
X1022758D01*
X1022053Y-134755D01*
X1021583Y-135385D01*
X1021427Y-136120D01*
X1021583Y-136855D01*
X1021975Y-137380D01*
X1022602Y-137695D01*
X1023150Y-137800D01*
G01X1029450D02*
Y-131500D01*
X1028510Y-132760D01*
G01Y-137800D02*
X1030390D01*
G01X1010550Y-192800D02*
X1010080Y-192695D01*
X1009610Y-192275D01*
X1009297Y-191540D01*
X1009140Y-190700D01*
X1009297Y-189860D01*
X1009610Y-189125D01*
X1010080Y-188705D01*
X1010550Y-188600D01*
X1011020Y-188705D01*
X1011490Y-189125D01*
X1011803Y-189860D01*
X1011882Y-190700D01*
X1011803Y-191540D01*
X1011490Y-192275D01*
X1011020Y-192695D01*
X1010550Y-192800D01*
G01X1016380D02*
Y-187445D01*
X1016537Y-186920D01*
X1016850Y-186605D01*
X1017320Y-186500D01*
X1017790Y-186710D01*
X1018025Y-187235D01*
G01X1017085Y-189020D02*
X1015518D01*
G01X1027905Y-192800D02*
X1031195Y-186500D01*
G01X1027905D02*
X1031195Y-192800D01*
G01X1034205D02*
X1037495Y-186500D01*
G01X1034205D02*
X1037495Y-192800D01*
G54D14*
X30400Y169500D03*
X28500Y179300D03*
X27250Y184450D03*
X40200Y173200D03*
X46800Y91900D03*
X53000Y112852D03*
X57248Y102900D03*
X51000Y110884D03*
X53015Y108915D03*
X50900Y106946D03*
X52200Y118758D03*
X53032Y126632D03*
X51006Y122694D03*
X51000Y114820D03*
X53037Y132537D03*
X53026Y136474D03*
X46050Y130950D03*
X53022Y152222D03*
X53052Y144348D03*
X53085Y148285D03*
X59900Y98900D03*
X69200Y112852D03*
X69900Y110100D03*
X62450Y111750D03*
X59900Y102600D03*
X70500Y106900D03*
X62500Y108900D03*
X62450Y106050D03*
X70500Y118700D03*
X62500Y114800D03*
Y122700D03*
X70500Y124600D03*
X69245Y132128D03*
X70258Y134523D03*
X70500Y152222D03*
X67800Y172300D03*
X62500Y172321D03*
X60000Y169800D03*
X70300Y169900D03*
X65200Y169800D03*
X68700Y183200D03*
X66200D03*
X63700D03*
X67200Y185100D03*
X64600D03*
X69700D03*
X74002Y102626D03*
X79985Y108915D03*
X79978Y104978D03*
X81984Y110884D03*
X82100Y106946D03*
X79914Y120726D03*
Y116789D03*
X82500Y118700D03*
X79963Y124663D03*
X79991Y133905D03*
X79900Y141960D03*
X76500Y164200D03*
X89750Y58850D03*
X94800D03*
X89750Y70350D03*
X94750D03*
X86800Y82400D03*
X94750Y78480D03*
Y89950D03*
X89800Y90050D03*
X85200Y98800D03*
X87770Y109800D03*
X85137Y124663D03*
X96600Y126000D03*
X92284Y126534D03*
X92780Y120116D03*
X94211Y124788D03*
X96070Y122970D03*
X96490Y115900D03*
X94800Y118480D03*
X95030Y140130D03*
X92000Y129120D03*
X93477Y134464D03*
X87440Y132932D03*
X94900Y136640D03*
X87288Y129740D03*
X96750Y129970D03*
X93500Y131300D03*
X92603Y138427D03*
X95520Y150500D03*
X88308Y149342D03*
X93000Y144530D03*
X94060Y155260D03*
X93020Y174480D03*
X95890Y174530D03*
X104600Y36000D03*
X99900Y58850D03*
X99775Y70350D03*
X104700Y70550D03*
X99750Y78450D03*
X104800D03*
X104750Y89950D03*
X99750D03*
X111200Y98450D03*
X101400Y94750D03*
X109442Y108492D03*
X99500Y104550D03*
X104750Y111550D03*
X107091Y110013D03*
X102230Y113450D03*
X99930Y122370D03*
X102192Y120719D03*
X106452Y121240D03*
X99010Y115170D03*
X108150Y136750D03*
X98147Y135333D03*
X104092Y128221D03*
X99890Y129420D03*
X100000Y156500D03*
X123750Y27350D03*
Y49950D03*
X119330Y88790D03*
X115310Y98070D03*
X120400Y108770D03*
X115490Y108750D03*
X112790Y110400D03*
X112460Y116630D03*
X112500Y126460D03*
X116250Y126580D03*
X121210Y114980D03*
X114740Y138170D03*
X119370Y136600D03*
X117630Y151280D03*
X118400Y154000D03*
X114770Y151590D03*
X122630Y158810D03*
X117300Y157100D03*
X114380Y158000D03*
X115210Y154830D03*
X130000Y34500D03*
X136250Y50050D03*
X136833Y73167D03*
X131000Y95050D03*
X134171Y94617D03*
X136827Y94636D03*
X135480Y98028D03*
X127280Y90250D03*
X135150Y90030D03*
Y110930D03*
X134750Y107250D03*
X133690Y126260D03*
X132145Y176197D03*
X126294Y175799D03*
X132000Y173000D03*
X126200Y172600D03*
X131980Y179550D03*
X142000Y32000D03*
X145450Y36500D03*
X142000Y42900D03*
X151000Y70200D03*
Y78100D03*
X140000Y95050D03*
X138900Y110900D03*
X141700D03*
X141800Y107300D03*
X138900Y107200D03*
X154540Y33540D03*
X162950Y39100D03*
X160450Y36400D03*
X160750Y41600D03*
X161200Y47000D03*
X155300Y70200D03*
X153200D03*
X153767Y73167D03*
X151500Y75135D03*
X155300Y78100D03*
X153200D03*
X154700Y138700D03*
X171000Y31200D03*
X177250Y42800D03*
X175450Y44400D03*
X175500Y38200D03*
X165850D03*
X172400Y111500D03*
X176150Y119600D03*
X187100Y33000D03*
X179050Y44400D03*
X181200Y35600D03*
X189770Y43630D03*
X182600Y38700D03*
X183050Y49900D03*
X185100Y101450D03*
X184900Y111500D03*
Y116450D03*
X190052Y135005D03*
X194750Y45600D03*
X200500Y38050D03*
X198011Y35441D03*
X199750Y106500D03*
X199200Y101500D03*
X201100Y121550D03*
X199750Y116500D03*
X197905Y135005D03*
X194126Y170205D03*
X200108D03*
X209100Y31000D03*
X209700Y34350D03*
X206600Y34800D03*
X212260Y87090D03*
X206190Y82740D03*
X214700Y90000D03*
X214550Y93750D03*
X211300Y111550D03*
X217790Y102380D03*
X211250Y106450D03*
X211300Y116450D03*
X214000Y159000D03*
X206407Y158961D03*
X224900Y27000D03*
X223150Y23750D03*
X222700Y42800D03*
X221300Y69800D03*
X219110Y67750D03*
X227550Y84000D03*
X226590Y80060D03*
X224930Y77470D03*
X230090Y78650D03*
X227550Y94000D03*
Y89000D03*
X225540Y90960D03*
X222500Y112500D03*
X221920Y102620D03*
X219006Y140168D03*
X223300Y145000D03*
Y142000D03*
X226300Y164900D03*
Y172200D03*
X223770Y178350D03*
X226250Y180120D03*
X227250Y183200D03*
X222890Y181970D03*
X242250Y49550D03*
X231690Y70080D03*
X239870Y63400D03*
X236500Y63600D03*
X238050Y61220D03*
X232242Y80700D03*
X240700Y84500D03*
X241450Y79000D03*
X243200Y97700D03*
X240500Y89050D03*
Y94050D03*
X238600Y128450D03*
Y133450D03*
Y138450D03*
Y148450D03*
Y143450D03*
Y153450D03*
Y158450D03*
Y163450D03*
Y168450D03*
Y173450D03*
Y178450D03*
X246000Y39200D03*
X256000Y43050D03*
X249750Y49550D03*
X246000D03*
X255270Y58160D03*
X251740Y57710D03*
X246950Y62900D03*
X250700Y62950D03*
X256310Y75030D03*
X257483Y83140D03*
X246760Y118200D03*
X253250Y133450D03*
X250000D03*
X253250Y138450D03*
X250000D03*
X253250Y128450D03*
X250000D03*
X253250Y153450D03*
X250000D03*
X253250Y143450D03*
X250000D03*
X253250Y148450D03*
X250000D03*
X253250Y163450D03*
X250000D03*
X253250Y158450D03*
X250000D03*
X253250Y173450D03*
X250000D03*
X253250Y178450D03*
X250000D03*
X253250Y168450D03*
X250000D03*
X264400Y73821D03*
X270580Y71050D03*
X259770Y63880D03*
X265640Y81410D03*
X261950Y83200D03*
X266450Y85750D03*
X261440Y95270D03*
X261420Y98450D03*
Y91840D03*
X260800Y88100D03*
X261450Y107750D03*
Y102750D03*
X264650Y138450D03*
Y133450D03*
Y128450D03*
Y153450D03*
Y143450D03*
Y148450D03*
Y163450D03*
Y158450D03*
X264550Y176960D03*
X264650Y173450D03*
Y168450D03*
X273940Y78550D03*
X275450Y92750D03*
Y97750D03*
Y107750D03*
Y102750D03*
G54D24*
G01X404000Y-115000D02*
X-46000D01*
Y-190000D01*
X404100D01*
Y-115000D01*
G01X404000Y-165000D02*
X-46000D01*
G01Y-140000D02*
X404000D01*
G01X101600Y-165000D02*
Y-190000D01*
G01X139100Y-165000D02*
Y-190000D01*
G01X179000Y-165000D02*
Y-140000D01*
G01X221600Y-190000D02*
Y-165000D01*
G01X319000D02*
Y-190000D01*
G54D15*
X41000Y53200D03*
G54D25*
G01X35530Y4330D02*
X38700Y7500D01*
G01D02*
X41870Y4330D01*
G01X38700Y7500D02*
X41870Y10670D01*
G01X35530D02*
X38700Y7500D01*
G01X36300Y43000D02*
X41000Y53200D01*
G01D02*
X45700Y63400D01*
G01X36300D02*
X41000Y53200D01*
G01D02*
X45700Y43000D01*
G01X52477Y49676D02*
X56000Y53200D01*
G01D02*
X59524Y56724D01*
G01X52477D02*
X56000Y53200D01*
G01D02*
X59524Y49676D01*
G01X93000Y144530D02*
Y147500D01*
X90000Y150500D01*
Y162500D01*
X85000Y167500D01*
X72700D01*
X70300Y169900D01*
G01X137320Y100020D02*
X139500Y102200D01*
G01X137320Y104380D02*
X139500Y102200D01*
G01D02*
X141680Y100020D01*
G01X139500Y102200D02*
X141680Y104380D01*
G01X231320Y33520D02*
X233500Y35700D01*
G01D02*
X235680Y33520D01*
G01X233500Y35700D02*
X235680Y37880D01*
G01X231320D02*
X233500Y35700D01*
G01X468200Y-196800D02*
X1058200D01*
Y-114300D01*
X428200D01*
Y-196800D01*
X588200D01*
Y-114300D01*
G01Y-116800D02*
Y-196800D01*
G01Y-141800D02*
X1058200D01*
Y-169300D01*
X588200D01*
G01X701700D02*
Y-196800D01*
G01X793200D02*
Y-141800D01*
G01X866950Y-196800D02*
Y-169300D01*
G01X867200Y-114300D02*
Y-141800D01*
G01X969450Y-169300D02*
Y-196800D01*
G01X969200Y-114300D02*
Y-141800D01*
G54D16*
X54750Y28200D03*
X271000Y48200D03*
G54D17*
X56000Y43200D03*
Y53200D03*
X84750Y34450D03*
Y44450D03*
X96000Y34450D03*
Y44450D03*
G54D18*
X46500Y114800D03*
Y122700D03*
X68500Y176950D03*
X85200Y124600D03*
X139500Y102200D03*
X200000Y65000D03*
Y72500D03*
Y87500D03*
Y80000D03*
X233500Y35700D03*
G54D19*
X68750Y31200D03*
X69000Y55200D03*
Y52450D03*
X66000D03*
Y55200D03*
X68750Y76450D03*
X73250Y31200D03*
X75250Y55200D03*
Y52450D03*
X72000Y55200D03*
Y52450D03*
X73250Y76450D03*
X162426Y139805D03*
X167028Y142028D03*
X190659Y139805D03*
X187814Y148768D03*
X180689Y162205D03*
X183252Y166179D03*
X190052Y178002D03*
X186852Y178179D03*
X203258Y139805D03*
X197652Y139905D03*
Y177805D03*
X194470Y177786D03*
X200870D03*
X210873Y130982D03*
X206407Y139805D03*
X204852Y177805D03*
X208833Y177786D03*
M02*
