G04 ================== begin FILE IDENTIFICATION RECORD ==================*
G04 Layout Name:  R:/nHD EVM Rev2/LAYOUT/03-16-17/nHD EVM Rev2 031617.brd*
G04 Film Name:    111609-01_spt*
G04 File Format:  Gerber RS274X*
G04 File Origin:  Cadence Allegro 16.6-2015-S082*
G04 Origin Date:  Thu Mar 16 08:39:40 2017*
G04 *
G04 Layer:  DRAWING FORMAT/KRYPTON_TITLE_BLK*
G04 Layer:  DRAWING FORMAT/MOIRE_TOP*
G04 Layer:  PIN/PASTEMASK_TOP*
G04 Layer:  PACKAGE GEOMETRY/PASTEMASK_TOP*
G04 Layer:  DRAWING FORMAT/TITLE_TOP*
G04 Layer:  BOARD GEOMETRY/PASTEMASK_TOP*
G04 *
G04 Offset:    (0.000 0.000)*
G04 Mirror:    No*
G04 Mode:      Positive*
G04 Rotation:  0*
G04 FullContactRelief:  No*
G04 UndefLineWidth:     6.000*
G04 ================== end FILE IDENTIFICATION RECORD ====================*
%FSLAX25Y25*MOIN*%
%IR0*IPPOS*OFA0.00000B0.00000*MIA0B0*SFA1.00000B1.00000*%
%ADD17R,.115X.062*%
%ADD37R,.062X.115*%
%ADD38C,.009*%
%AMMACRO25*
4,1,8,-.0065,.005,
-.0065,-.0015,
-.002,-.007,
.002,-.007,
.0065,-.0015,
.0065,.005,
.0045,.007,
-.0045,.007,
-.0065,.005,
0.0*
%
%ADD25MACRO25*%
%AMMACRO21*
4,1,8,.005,.0065,
-.0015,.0065,
-.007,.002,
-.007,-.002,
-.0015,-.0065,
.005,-.0065,
.007,-.0045,
.007,.0045,
.005,.0065,
0.0*
%
%ADD21MACRO21*%
%AMMACRO39*
4,1,8,.0225,-.065,
-.0225,-.065,
-.0225,.065,
.0225,.065,
.0225,.04,
.0025,.04,
.0025,-.04,
.0225,-.04,
.0225,-.065,
0.0*
%
%ADD39MACRO39*%
%ADD14R,.047244X.009449*%
%ADD16R,.04X.03*%
%ADD36R,.03X.04*%
%ADD20R,.012X.014*%
%ADD29R,.014X.012*%
%ADD41R,.05X.06*%
%ADD27R,.05X.017*%
%ADD31R,.08X.025*%
%ADD23C,.01*%
%ADD19R,.025X.08*%
%ADD12C,.02*%
%ADD26R,.064X.062*%
%ADD10C,.05*%
%ADD32C,.016*%
%ADD13R,.039X.027*%
%ADD35R,.027X.039*%
%AMMACRO24*
4,1,8,.0065,-.005,
.0065,.0015,
.002,.007,
-.002,.007,
-.0065,.0015,
-.0065,-.005,
-.0045,-.007,
.0045,-.007,
.0065,-.005,
0.0*
%
%ADD24MACRO24*%
%AMMACRO22*
4,1,8,-.005,-.0065,
.0015,-.0065,
.007,-.002,
.007,.002,
.0015,.0065,
-.005,.0065,
-.007,.0045,
-.007,-.0045,
-.005,-.0065,
0.0*
%
%ADD22MACRO22*%
%ADD11R,.02X.02*%
%ADD28R,.055118X.011811*%
%ADD33R,.041339X.023622*%
%ADD15R,.035433X.059055*%
%AMMACRO40*
4,1,8,-.0225,.065,
.0225,.065,
.0225,-.065,
-.0225,-.065,
-.0225,-.04,
-.0025,-.04,
-.0025,.04,
-.0225,.04,
-.0225,.065,
0.0*
%
%ADD40MACRO40*%
%ADD34R,.015748X.035433*%
%ADD18R,.07874X.059055*%
%ADD30R,.086614X.062992*%
%ADD42R,.025591X.019689*%
%ADD43C,.005*%
%ADD44C,.007*%
%ADD45C,.015*%
G75*
%LPD*%
G75*
G36*
G01X544573Y-134464D02*
X544501Y-134488D01*
X536015Y-133777D01*
X528699Y-133384D01*
X521624Y-133261D01*
X510618Y-133472D01*
X504723Y-133897D01*
X498555Y-134562D01*
X489152Y-135952D01*
X482228Y-137435D01*
X472765Y-139825D01*
X468260Y-141397D01*
X464089Y-142938D01*
X457499Y-145840D01*
X453510Y-148016D01*
X448791Y-151132D01*
X446132Y-153400D01*
X442623Y-157117D01*
X440053Y-160744D01*
X438572Y-164615D01*
X438299Y-167910D01*
X438390Y-170843D01*
X441354Y-177464D01*
X443711Y-180608D01*
X446977Y-183752D01*
X439722Y-178883D01*
X436124Y-175014D01*
X434279Y-172112D01*
X432767Y-168635D01*
X431951Y-164039D01*
X432707Y-159474D01*
X434612Y-155908D01*
X438935Y-150858D01*
X445739Y-145811D01*
X455504Y-140761D01*
X464845Y-137466D01*
X473763Y-134956D01*
X489275Y-132476D01*
X506355Y-131298D01*
X522623Y-131572D01*
X535835Y-132841D01*
X544542Y-134413D01*
X544573Y-134464D01*
G37*
G36*
G01X459231Y-149092D02*
X459221Y-173582D01*
X462631D01*
Y-161412D01*
X479655Y-171512D01*
X479835Y-171332D01*
Y-151132D01*
X462631Y-161202D01*
Y-149092D01*
X459231D01*
G37*
G36*
G01X486841Y-156722D02*
X487355Y-154799D01*
X488910Y-153484D01*
X491041Y-153167D01*
X492644Y-153860D01*
X492479Y-151307D01*
X489152Y-151458D01*
X486841Y-152924D01*
Y-151162D01*
X483451D01*
Y-171622D01*
X486831D01*
X486841Y-156722D01*
G37*
G36*
G01X504289Y-178400D02*
X501114Y-178340D01*
X503199Y-171508D01*
X496494Y-151122D01*
X500060Y-151062D01*
X505141Y-166117D01*
X510279Y-151122D01*
X513726D01*
X504289Y-178400D01*
G37*
G36*
G01X520887Y-152792D02*
X524305Y-151129D01*
X527963Y-151432D01*
X530804Y-154364D01*
X530895Y-167396D01*
X528870Y-170300D01*
X526359Y-171388D01*
X523035D01*
X520859Y-170027D01*
X520736Y-178403D01*
X517532Y-178343D01*
X517561Y-151158D01*
X520890D01*
X520887Y-152792D01*
G37*
G36*
G01X536775Y-175016D02*
X534831Y-180784D01*
X534030Y-180762D01*
X534423Y-179288D01*
X532983Y-175021D01*
X533927Y-174992D01*
X534894Y-177932D01*
X535878Y-174954D01*
X536778Y-174940D01*
X536775Y-175016D01*
G37*
G36*
G01X526782Y-175991D02*
X526751Y-175674D01*
X526676Y-175477D01*
X526578Y-175302D01*
X526487Y-175076D01*
X526223Y-174985D01*
X525997Y-174940D01*
X525611Y-174911D01*
X525301Y-174887D01*
X524953Y-174872D01*
X524658Y-174901D01*
X524394Y-175045D01*
X524204Y-175211D01*
X524031Y-175417D01*
X523902Y-175696D01*
X523863Y-175952D01*
X523873Y-176248D01*
X523909Y-176512D01*
X524060Y-176723D01*
X524204Y-176912D01*
X524370Y-177078D01*
X524612Y-177208D01*
X524833Y-177289D01*
X525090Y-177388D01*
X525308Y-177517D01*
X525603Y-177637D01*
X525875Y-177760D01*
X526011Y-177940D01*
X526064Y-178182D01*
Y-178348D01*
X525959Y-178499D01*
X525716Y-178614D01*
X525467Y-178643D01*
X525203Y-178628D01*
X525051Y-178576D01*
X524876Y-178477D01*
X524778Y-178348D01*
X524703Y-178196D01*
X524672Y-178062D01*
X524619Y-177964D01*
X524538Y-177925D01*
X524310D01*
X524053Y-177918D01*
X523880Y-177925D01*
X523856Y-178031D01*
Y-178136D01*
X523880Y-178357D01*
X523926Y-178576D01*
X523979Y-178818D01*
X524039Y-178960D01*
X524137Y-179089D01*
X524363Y-179188D01*
X524636Y-179262D01*
X524999Y-179353D01*
X525459Y-179370D01*
X525702Y-179346D01*
X525973Y-179300D01*
X526208Y-179255D01*
X526367Y-179202D01*
X526494Y-179120D01*
X526676Y-178818D01*
X526767Y-178688D01*
X526751Y-178348D01*
X526736Y-178091D01*
X526707Y-177911D01*
X526691Y-177788D01*
X526631Y-177577D01*
X526571Y-177397D01*
X526503Y-177246D01*
X526405Y-177116D01*
X526244Y-176989D01*
X526086Y-176891D01*
X525776Y-176768D01*
X525481Y-176617D01*
X525210Y-176473D01*
X524975Y-176353D01*
X524823Y-176248D01*
X524742Y-176128D01*
X524718Y-175998D01*
X524725Y-175780D01*
X524787Y-175650D01*
X524960Y-175523D01*
X525263Y-175460D01*
X525587Y-175492D01*
X525853Y-175748D01*
X525935Y-176164D01*
X526767Y-176156D01*
X526782Y-175991D01*
G37*
G36*
G01X543661Y-150779D02*
X543450Y-144474D01*
X540107Y-147709D01*
X540061Y-151110D01*
X535028Y-151081D01*
Y-153016D01*
X540123Y-153030D01*
X540116Y-165913D01*
X540191Y-167728D01*
X541038Y-169645D01*
X542473Y-170932D01*
X544499Y-171582D01*
X548521Y-171520D01*
X548475Y-169616D01*
X547023Y-169585D01*
X545996Y-169525D01*
X545226Y-169086D01*
X544167Y-168196D01*
X543743Y-167288D01*
X543623Y-166338D01*
Y-153035D01*
X548519Y-152975D01*
Y-151100D01*
X543743D01*
X543661Y-150779D01*
G37*
G36*
G01X544808Y-176790D02*
X544513Y-176639D01*
X544242Y-176495D01*
X544007Y-176375D01*
X543855Y-176269D01*
X543774Y-176149D01*
X543750Y-176020D01*
X543757Y-175801D01*
X543819Y-175672D01*
X543992Y-175544D01*
X544295Y-175482D01*
X544619Y-175513D01*
X544885Y-175770D01*
X544967Y-176185D01*
X545799Y-176178D01*
X545814Y-176012D01*
X545783Y-175696D01*
X545708Y-175499D01*
X545610Y-175324D01*
X545519Y-175098D01*
X545255Y-175007D01*
X545029Y-174961D01*
X544643Y-174932D01*
X544333Y-174908D01*
X543985Y-174894D01*
X543690Y-174923D01*
X543426Y-175067D01*
X543236Y-175232D01*
X543063Y-175439D01*
X542934Y-175717D01*
X542895Y-175974D01*
X542905Y-176269D01*
X542941Y-176533D01*
X543092Y-176744D01*
X543236Y-176934D01*
X543402Y-177100D01*
X543644Y-177229D01*
X543865Y-177311D01*
X544122Y-177409D01*
X544340Y-177539D01*
X544635Y-177659D01*
X544907Y-177781D01*
X545043Y-177961D01*
X545096Y-178204D01*
Y-178369D01*
X544991Y-178520D01*
X544748Y-178636D01*
X544499Y-178664D01*
X544235Y-178650D01*
X544083Y-178597D01*
X543908Y-178499D01*
X543810Y-178369D01*
X543735Y-178218D01*
X543693Y-177991D01*
X543612Y-177953D01*
X543384D01*
X543127Y-177946D01*
X542954Y-177953D01*
X542930Y-178058D01*
Y-178164D01*
X542954Y-178385D01*
X543000Y-178603D01*
X543053Y-178846D01*
X543113Y-178987D01*
X543211Y-179117D01*
X543437Y-179215D01*
X543710Y-179290D01*
X544073Y-179381D01*
X544533Y-179398D01*
X544776Y-179374D01*
G03X545875Y-178275I0J1099D01*
G01X545876Y-178240D01*
G03X545118Y-176912I-1375J95D01*
G01X544808Y-176790D01*
G37*
G36*
G01X564219Y-177227D02*
X564265Y-176425D01*
X564210Y-176003D01*
X564121Y-175775D01*
X564015Y-175525D01*
X563840Y-175307D01*
X563478Y-175043D01*
X563108Y-174930D01*
X562760Y-174853D01*
X562451Y-174846D01*
X562103Y-174944D01*
X561740Y-175141D01*
X561498Y-175328D01*
X561287Y-175578D01*
X561150Y-175943D01*
X561119Y-176812D01*
X561090Y-177469D01*
Y-177860D01*
X561128Y-178232D01*
X561279Y-178595D01*
X561498Y-178936D01*
X561822Y-179176D01*
X562261Y-179298D01*
X562707Y-179334D01*
X563130Y-179305D01*
X563403Y-179238D01*
X563749Y-179147D01*
X563939Y-178957D01*
X564090Y-178686D01*
X564181Y-178057D01*
X563365Y-178050D01*
X563161Y-178564D01*
X562647Y-178708D01*
X562247Y-178624D01*
X561980Y-178331D01*
X561937Y-177959D01*
X561944Y-177407D01*
X564210Y-177400D01*
X564219Y-177227D01*
G37*
G36*
G01X553736Y-173831D02*
X553002Y-174102D01*
X552949Y-174949D01*
X552239Y-174978D01*
X552299Y-175660D01*
X552872Y-175674D01*
X552879Y-178357D01*
X552942Y-178796D01*
X553182Y-179142D01*
X553652Y-179324D01*
X554195Y-179356D01*
X554567Y-179233D01*
X554559Y-178712D01*
X554022Y-178667D01*
X553794Y-178168D01*
X553856Y-175703D01*
X554612Y-175679D01*
X554675Y-175038D01*
X553827Y-174985D01*
X553743Y-173828D01*
X553736Y-173831D01*
G37*
G36*
G01X558716Y-150988D02*
X556705Y-151609D01*
X554754Y-152548D01*
X553350Y-154331D01*
X552323Y-157352D01*
X552248Y-164048D01*
X552519Y-166134D01*
X553139Y-168085D01*
X554123Y-169475D01*
X555815Y-170836D01*
X557552Y-171620D01*
X559623Y-171757D01*
X561135Y-171349D01*
X563101Y-170624D01*
X564339Y-169324D01*
X565215Y-168145D01*
X565609Y-166847D01*
X566094Y-164927D01*
X566130Y-157720D01*
X565873Y-155968D01*
X564923Y-154016D01*
X564701Y-153572D01*
X563843Y-152714D01*
G03X563439Y-152430I-1017J-1017D01*
G01X560840Y-151206D01*
X558860Y-151024D01*
X558716Y-150988D01*
G37*
G36*
G01X575648Y-176363D02*
X575619Y-175583D01*
X575286Y-175122D01*
X574674Y-174918D01*
X574033Y-174932D01*
X573443Y-175280D01*
X572761Y-174942D01*
X572022Y-174949D01*
X571470Y-175252D01*
Y-174932D01*
X570594D01*
X570587Y-175199D01*
X570654Y-175417D01*
X570721Y-175501D01*
X570728Y-175660D01*
X570791Y-179303D01*
X571484Y-179310D01*
X571448Y-176142D01*
X571491Y-175864D01*
X571765Y-175621D01*
X571998Y-175568D01*
X572279Y-175583D01*
X572475Y-175614D01*
X572595Y-175758D01*
X572701Y-176212D01*
X572838Y-179339D01*
X573517Y-179279D01*
X573503Y-176353D01*
X573534Y-176089D01*
X573632Y-175864D01*
X573812Y-175705D01*
X574100Y-175621D01*
X574319Y-175628D01*
X574568Y-175727D01*
X574863Y-176272D01*
X574931Y-179322D01*
X575619Y-179344D01*
X575648Y-176363D01*
G37*
G36*
G01X573092Y-151216D02*
X573061Y-152922D01*
X574302Y-152152D01*
X576313Y-151290D01*
X578473Y-151124D01*
X580710Y-151820D01*
X582541Y-153589D01*
X583491Y-156402D01*
X583611Y-171712D01*
X580316Y-171683D01*
X579971Y-155267D01*
X578670Y-153829D01*
X577309Y-153164D01*
X575360Y-153452D01*
X573863Y-154708D01*
X573380Y-156248D01*
X573251Y-171546D01*
X569879D01*
X569773Y-151072D01*
X572948Y-151132D01*
X573092Y-151216D01*
G37*
G36*
G01X584468Y-176044D02*
X584437Y-175727D01*
X584363Y-175530D01*
X584264Y-175355D01*
X584173Y-175129D01*
X583909Y-175038D01*
X583683Y-174992D01*
X583297Y-174964D01*
X582987Y-174940D01*
X582639Y-174925D01*
X582344Y-174954D01*
X582080Y-175098D01*
X581891Y-175264D01*
X581718Y-175470D01*
X581588Y-175748D01*
X581550Y-176005D01*
X581559Y-176300D01*
X581595Y-176564D01*
X581747Y-176776D01*
X581891Y-176965D01*
X582056Y-177131D01*
X582299Y-177260D01*
X582519Y-177342D01*
X582776Y-177440D01*
X582995Y-177570D01*
X583290Y-177690D01*
X583561Y-177812D01*
X583698Y-177992D01*
X583751Y-178235D01*
Y-178400D01*
X583645Y-178552D01*
X583403Y-178667D01*
X583153Y-178696D01*
X582889Y-178681D01*
X582738Y-178628D01*
X582563Y-178530D01*
X582464Y-178400D01*
X582390Y-178249D01*
X582359Y-178115D01*
X582306Y-178016D01*
X582224Y-177978D01*
X581996D01*
X581739Y-177971D01*
X581567Y-177978D01*
X581543Y-178084D01*
Y-178189D01*
X581567Y-178410D01*
X581612Y-178628D01*
X581665Y-178871D01*
X581725Y-179012D01*
X581823Y-179142D01*
X582049Y-179240D01*
X582323Y-179315D01*
X582685Y-179406D01*
X583146Y-179423D01*
X583388Y-179399D01*
X583659Y-179353D01*
X583895Y-179308D01*
X584053Y-179255D01*
X584180Y-179173D01*
X584363Y-178871D01*
X584454Y-178741D01*
X584437Y-178400D01*
X584423Y-178144D01*
X584394Y-177964D01*
X584377Y-177841D01*
X584317Y-177630D01*
X584257Y-177450D01*
X584190Y-177299D01*
X584091Y-177169D01*
X583931Y-177042D01*
X583772Y-176944D01*
X583463Y-176821D01*
X583167Y-176670D01*
X582896Y-176526D01*
X582661Y-176406D01*
X582510Y-176300D01*
X582428Y-176180D01*
X582404Y-176051D01*
X582411Y-175832D01*
X582474Y-175703D01*
X582647Y-175576D01*
X582949Y-175513D01*
X583273Y-175544D01*
X583539Y-175801D01*
X583621Y-176216D01*
X584454Y-176209D01*
X584468Y-176044D01*
G37*
%LPC*%
G75*
G36*
G01X524211Y-153220D02*
X525815Y-153433D01*
X527387Y-155034D01*
X527929Y-158178D01*
X527598Y-166732D01*
X526479Y-169148D01*
X525059Y-169573D01*
X523304Y-169451D01*
X522246Y-168877D01*
X521490Y-168030D01*
X521067Y-166912D01*
X521036Y-165824D01*
Y-155785D01*
X521823Y-154364D01*
X523184Y-153246D01*
X523938D01*
X524211Y-153220D01*
G37*
G36*
G01X562623Y-175477D02*
X562986Y-175537D01*
X563255Y-175679D01*
X563420Y-175924D01*
X563435Y-176416D01*
Y-176656D01*
X561980Y-176648D01*
X561987Y-176286D01*
X562004Y-176113D01*
X562059Y-175859D01*
X562163Y-175686D01*
X562271Y-175554D01*
X562467Y-175484D01*
X562623Y-175477D01*
G37*
G36*
G01X559019Y-153287D02*
X560365Y-153330D01*
X561347Y-153966D01*
X562134Y-154888D01*
X562602Y-156354D01*
X562571Y-158048D01*
X562691Y-166559D01*
X561951Y-168176D01*
X560847Y-169295D01*
X559729Y-169612D01*
X557915D01*
X556796Y-168810D01*
X556117Y-167452D01*
X555949Y-165985D01*
X555966Y-156462D01*
X556057Y-155236D01*
X556736Y-154345D01*
X557569Y-153740D01*
X558596Y-153301D01*
X558867Y-153287D01*
X559019D01*
G37*
%LPD*%
G75*
G54D10*
X15900Y24800D03*
X15000Y190000D03*
X280000Y37500D03*
G54D11*
X28500Y172400D03*
Y176500D03*
X43600Y107050D03*
Y111150D03*
Y126850D03*
Y130950D03*
X40200Y164450D03*
X50400Y152250D03*
Y148150D03*
X44300Y164450D03*
X51450Y169450D03*
X55550D03*
X85200Y115850D03*
Y119950D03*
X99500Y97650D03*
Y101750D03*
X122450Y94700D03*
X115300Y89700D03*
X111200D03*
X115000Y123300D03*
Y119200D03*
X121000Y118950D03*
Y123050D03*
X112500Y129200D03*
Y133300D03*
X116250D03*
Y129200D03*
X126550Y94700D03*
X125500Y118950D03*
Y123050D03*
X130000Y118950D03*
Y123050D03*
X126270Y129080D03*
Y133180D03*
X130020Y129080D03*
Y133180D03*
X129000Y179550D03*
Y175450D03*
X163950Y46950D03*
X168050D03*
X171450D03*
X175550D03*
X178950D03*
X183050D03*
X213900Y30050D03*
X218000D03*
X229000Y67750D03*
X224900D03*
X229000Y71500D03*
X224900D03*
X222050Y86250D03*
X217950D03*
Y78750D03*
X222050D03*
X217950Y82500D03*
X222050D03*
X217950Y93750D03*
X222050D03*
Y90000D03*
X217950D03*
X234900Y67750D03*
X239000D03*
Y71500D03*
X234900D03*
Y75250D03*
X239000D03*
X234900Y79000D03*
X239000D03*
X243200Y94800D03*
Y90700D03*
X256000Y36150D03*
Y40250D03*
X246950Y69800D03*
Y65700D03*
X250700Y69800D03*
Y65700D03*
X267450Y71050D03*
Y66950D03*
X259900Y85750D03*
X264000D03*
X271200Y74450D03*
Y78550D03*
G54D20*
X95500Y142319D03*
Y144681D03*
X98500Y142319D03*
Y144681D03*
X183226Y163929D03*
Y161567D03*
X226000Y142319D03*
Y144681D03*
X226250Y169931D03*
Y167569D03*
G54D30*
X159290Y54860D03*
Y93442D03*
G54D12*
X27250Y184450D03*
X89750Y94000D03*
X86000D03*
X89500Y153000D03*
X123300Y177800D03*
X121300Y175300D03*
X117300Y180300D03*
X119300Y177800D03*
X121300Y180300D03*
X117300Y175300D03*
X123300Y182800D03*
X119300D03*
X134500Y83000D03*
X128000Y85000D03*
X134369Y75401D03*
X129000Y172500D03*
X125300Y185300D03*
X144500Y118500D03*
X138500Y177000D03*
X168000Y118000D03*
X194500Y94000D03*
X226590Y80060D03*
X227250Y183200D03*
X234450Y61500D03*
G54D21*
X96300Y166600D03*
Y163800D03*
X90700Y165200D03*
Y162400D03*
X96300Y161000D03*
X90700Y159600D03*
X96300Y158200D03*
Y172200D03*
Y169400D03*
X90700Y170800D03*
Y168000D03*
Y173600D03*
X159152Y137405D03*
X151952Y135805D03*
X159152Y134605D03*
Y131805D03*
X151952Y127405D03*
X159152Y140205D03*
X151952Y133005D03*
Y130205D03*
X159152Y143005D03*
X151952Y149805D03*
Y152605D03*
X159152Y150605D03*
Y147405D03*
Y153405D03*
X151952Y143805D03*
Y147005D03*
Y141005D03*
X159152Y161805D03*
Y159005D03*
X151952Y158205D03*
X159152Y156205D03*
Y164605D03*
X151952Y155405D03*
Y165805D03*
Y162605D03*
X159152Y175805D03*
X151952Y174205D03*
X159152Y170205D03*
Y178605D03*
X151952Y168605D03*
Y177005D03*
X159152Y167405D03*
X151952Y171405D03*
X159233Y173005D03*
X166752Y147405D03*
Y144605D03*
Y153405D03*
Y150605D03*
X165552Y166205D03*
X166752Y161805D03*
Y159005D03*
Y156205D03*
G54D40*
X257450Y96500D03*
G54D22*
X94100Y166600D03*
Y163800D03*
X88500Y165200D03*
Y162400D03*
X94100Y161000D03*
X88500Y159600D03*
X94100Y158200D03*
Y172200D03*
Y169400D03*
X88500Y170800D03*
Y168000D03*
Y173600D03*
X149752Y135805D03*
Y127405D03*
Y133005D03*
Y130205D03*
Y149805D03*
Y152605D03*
Y143805D03*
Y147005D03*
Y141005D03*
Y158205D03*
Y155405D03*
Y165805D03*
Y162605D03*
Y174205D03*
Y168605D03*
Y177005D03*
Y171405D03*
X156952Y137405D03*
Y134605D03*
Y131805D03*
Y140205D03*
Y143005D03*
Y150605D03*
Y147405D03*
Y153405D03*
X163352Y166205D03*
X156952Y161805D03*
Y159005D03*
Y156205D03*
Y164605D03*
Y175805D03*
Y170205D03*
Y178605D03*
Y167405D03*
X157033Y173005D03*
X164552Y147405D03*
Y144605D03*
Y153405D03*
Y150605D03*
Y161805D03*
Y159005D03*
Y156205D03*
G54D13*
X44850Y176950D03*
Y169450D03*
X34650D03*
Y173200D03*
Y176950D03*
X105650Y94700D03*
Y98450D03*
Y102200D03*
X115850Y94700D03*
Y102200D03*
G54D31*
X178450Y111500D03*
Y106500D03*
Y101500D03*
Y116500D03*
X205450Y101500D03*
Y106500D03*
Y111500D03*
Y116500D03*
G54D32*
X190659Y148768D03*
Y145618D03*
Y142468D03*
Y164516D03*
Y161366D03*
Y167665D03*
X203258Y148768D03*
Y145618D03*
Y142468D03*
X200108Y148768D03*
Y145618D03*
Y142468D03*
X196959Y148768D03*
Y145618D03*
Y142468D03*
X193809Y148768D03*
Y145618D03*
Y142468D03*
X203258Y164516D03*
Y161366D03*
X200108Y164516D03*
Y161366D03*
X196959Y164516D03*
Y161366D03*
X193809Y164516D03*
Y161366D03*
X203258Y167665D03*
X200108D03*
X196959D03*
X193809D03*
X215856Y148768D03*
Y145618D03*
Y142468D03*
X212707Y148768D03*
Y145618D03*
Y142468D03*
X209557Y148768D03*
Y145618D03*
Y142468D03*
X206407Y148768D03*
Y145618D03*
Y142468D03*
X215856Y164516D03*
Y161366D03*
X212707Y164516D03*
Y161366D03*
X209557Y164516D03*
Y161366D03*
X206407Y164516D03*
Y161366D03*
X215856Y167665D03*
X212707D03*
X209557D03*
X206407D03*
X219006Y148768D03*
Y145618D03*
Y142468D03*
Y164516D03*
Y161366D03*
Y167665D03*
G54D23*
G01X404000Y-115000D02*
X-46000D01*
Y-190000D01*
X404100D01*
Y-115000D01*
G01X404000Y-165000D02*
X-46000D01*
G01Y-140000D02*
X404000D01*
G01X101600Y-165000D02*
Y-190000D01*
G01X139100Y-165000D02*
Y-190000D01*
G01X179000Y-165000D02*
Y-140000D01*
G01X221600Y-190000D02*
Y-165000D01*
G01X319000D02*
Y-190000D01*
X107174Y152472D03*
X108749D03*
X110324D03*
X107174Y150897D03*
X108749D03*
X110324D03*
X107174Y149322D03*
X108749D03*
X110324D03*
X107174Y147747D03*
X108749D03*
X110324D03*
X107174Y146172D03*
X108749D03*
X110324D03*
X107174Y144598D03*
X108749D03*
X110324D03*
X107174Y143023D03*
X108749D03*
X110324D03*
X107174Y165070D03*
X108749D03*
X110324D03*
X107174Y163495D03*
X108749D03*
X110324D03*
X107174Y161920D03*
X108749D03*
X110324D03*
X107174Y160346D03*
X108749D03*
X110324D03*
X107174Y158771D03*
X108749D03*
X110324D03*
X107174Y157196D03*
X108749D03*
X110324D03*
X107174Y155621D03*
X108749D03*
X110324D03*
X107174Y154046D03*
X108749D03*
X110324D03*
X111899Y152472D03*
Y150897D03*
Y149322D03*
Y147747D03*
X113473D03*
X115048D03*
X116623D03*
X118198D03*
X119773D03*
X121347D03*
X122922D03*
X111899Y146172D03*
X113473D03*
X115048D03*
X116623D03*
X118198D03*
X119773D03*
X121347D03*
X122922D03*
X111899Y144598D03*
X113473D03*
X115048D03*
X116623D03*
X118198D03*
X119773D03*
X121347D03*
X122922D03*
X111899Y143023D03*
X113473D03*
X115048D03*
X116623D03*
X118198D03*
X119773D03*
X121347D03*
X122922D03*
X111899Y165070D03*
X113473D03*
X115048D03*
X116623D03*
X118198D03*
X119773D03*
X121347D03*
X122922D03*
X111899Y163495D03*
X113473D03*
X115048D03*
X116623D03*
X118198D03*
X119773D03*
X121347D03*
X122922D03*
X111899Y161920D03*
X113473D03*
X115048D03*
X116623D03*
X118198D03*
X119773D03*
X121347D03*
X122922D03*
X111899Y160346D03*
X113473D03*
X115048D03*
X116623D03*
X118198D03*
X119773D03*
X121347D03*
X122922D03*
X111899Y158771D03*
Y157196D03*
Y155621D03*
Y154046D03*
X124497Y152472D03*
X126072D03*
X127647D03*
X129221D03*
X124497Y150897D03*
X126072D03*
X127647D03*
X129221D03*
X124497Y149322D03*
X126072D03*
X127647D03*
X129221D03*
X124497Y147747D03*
X126072D03*
X127647D03*
X129221D03*
X124497Y146172D03*
X126072D03*
X127647D03*
X129221D03*
X124497Y144598D03*
X126072D03*
X127647D03*
X129221D03*
X124497Y143023D03*
X126072D03*
X127647D03*
X129221D03*
X124497Y165070D03*
X126072D03*
X127647D03*
X129221D03*
X124497Y163495D03*
X126072D03*
X127647D03*
X129221D03*
X124497Y161920D03*
X126072D03*
X127647D03*
X129221D03*
X124497Y160346D03*
X126072D03*
X127647D03*
X129221D03*
X124497Y158771D03*
X126072D03*
X127647D03*
X129221D03*
X124497Y157196D03*
X126072D03*
X127647D03*
X129221D03*
X124497Y155621D03*
X126072D03*
X127647D03*
X129221D03*
X124497Y154046D03*
X126072D03*
X127647D03*
X129221D03*
G54D41*
X260700Y69500D03*
Y78500D03*
G54D14*
X57248Y104978D03*
Y106946D03*
Y108915D03*
Y110884D03*
Y112852D03*
Y114820D03*
Y116789D03*
Y118758D03*
Y120726D03*
Y122694D03*
Y124663D03*
Y126632D03*
Y128600D03*
Y130568D03*
Y132537D03*
Y134506D03*
Y136474D03*
Y138442D03*
Y140411D03*
Y142380D03*
Y144348D03*
Y146316D03*
Y148285D03*
Y150254D03*
Y152222D03*
X75752Y104978D03*
Y106946D03*
Y108915D03*
Y110884D03*
Y112852D03*
Y114820D03*
Y116789D03*
Y118758D03*
Y120726D03*
Y122694D03*
Y124663D03*
Y126632D03*
Y128600D03*
Y130568D03*
Y132537D03*
Y134506D03*
Y136474D03*
Y138442D03*
Y140411D03*
Y142380D03*
Y144348D03*
Y146316D03*
Y148285D03*
Y150254D03*
Y152222D03*
G54D42*
X267450Y78156D03*
Y74844D03*
G54D15*
X53116Y176950D03*
X61384D03*
X124116Y102200D03*
X132384D03*
G54D33*
X204335Y38050D03*
X213665Y41790D03*
Y34310D03*
G54D24*
X105000Y173900D03*
X110600D03*
X106400Y179500D03*
X107800Y173900D03*
X102200D03*
X99400D03*
X100800Y179500D03*
X103600D03*
X109200D03*
X112200D03*
X113400Y173900D03*
G54D43*
G01X-40600Y-174200D02*
X-37500D01*
X-36900Y-173500D01*
Y-172300D01*
X-37500Y-171700D01*
X-36900Y-171100D01*
Y-169800D01*
X-37500Y-169200D01*
X-40600D01*
Y-174200D01*
G01Y-171700D02*
X-37500D01*
G01X-40600D02*
X-37500D01*
G01X-40600Y-174200D02*
X-37500D01*
X-36900Y-173500D01*
Y-172300D01*
X-37500Y-171700D01*
X-36900Y-171100D01*
Y-169800D01*
X-37500Y-169200D01*
X-40600D01*
Y-174200D01*
G01X-37500Y-146700D02*
X-40600D01*
G01Y-149200D02*
X-37500D01*
X-36900Y-148500D01*
Y-147300D01*
X-37500Y-146700D01*
X-36900Y-146100D01*
Y-144800D01*
X-37500Y-144200D01*
X-40600D01*
Y-149200D01*
G01D02*
X-37500D01*
X-36900Y-148500D01*
Y-147300D01*
X-37500Y-146700D01*
X-36900Y-146100D01*
Y-144800D01*
X-37500Y-144200D01*
X-40600D01*
Y-149200D01*
G01X-37500Y-146700D02*
X-40600D01*
G01Y-123500D02*
X-40000Y-124200D01*
X-37500D01*
X-36900Y-123500D01*
Y-122900D01*
G01Y-120400D02*
Y-119800D01*
X-37500Y-119200D01*
X-40000D01*
X-40600Y-119800D01*
Y-123500D01*
G01X-36900Y-120400D02*
Y-119800D01*
X-37500Y-119200D01*
X-40000D01*
X-40600Y-119800D01*
Y-123500D01*
G01D02*
X-40000Y-124200D01*
X-37500D01*
X-36900Y-123500D01*
Y-122900D01*
G01X-30600Y-174200D02*
Y-170400D01*
X-29300Y-169200D01*
X-28100D01*
X-26900Y-170400D01*
Y-174200D01*
G01X-25600D02*
Y-169200D01*
X-22500D01*
X-21900Y-169800D01*
Y-171100D01*
X-22500Y-171700D01*
X-25600D01*
G01X-24300D02*
X-21900Y-174200D01*
G01X-26900Y-172300D02*
X-30600D01*
G01X-35600Y-173500D02*
X-35000Y-174200D01*
X-32500D01*
X-31900Y-173500D01*
Y-169800D01*
X-32500Y-169200D01*
X-35000D01*
X-35600Y-169800D01*
Y-173500D01*
G01D02*
X-35000Y-174200D01*
X-32500D01*
X-31900Y-173500D01*
Y-169800D01*
X-32500Y-169200D01*
X-35000D01*
X-35600Y-169800D01*
Y-173500D01*
G01X-26900Y-172300D02*
X-30600D01*
G01X-24300Y-171700D02*
X-21900Y-174200D01*
G01X-25600D02*
Y-169200D01*
X-22500D01*
X-21900Y-169800D01*
Y-171100D01*
X-22500Y-171700D01*
X-25600D01*
G01X-30600Y-174200D02*
Y-170400D01*
X-29300Y-169200D01*
X-28100D01*
X-26900Y-170400D01*
Y-174200D01*
G01X-21900Y-149200D02*
X-24300Y-146700D01*
G01X-25600D02*
X-22500D01*
X-21900Y-146100D01*
Y-144800D01*
X-22500Y-144200D01*
X-25600D01*
Y-149200D01*
G01X-26900D02*
Y-145400D01*
X-28100Y-144200D01*
X-29300D01*
X-30600Y-145400D01*
Y-149200D01*
G01Y-147300D02*
X-26900D01*
G01X-35600Y-148500D02*
X-35000Y-149200D01*
X-32500D01*
X-31900Y-148500D01*
Y-144800D01*
X-32500Y-144200D01*
X-35000D01*
X-35600Y-144800D01*
Y-148500D01*
G01D02*
X-35000Y-149200D01*
X-32500D01*
X-31900Y-148500D01*
Y-144800D01*
X-32500Y-144200D01*
X-35000D01*
X-35600Y-144800D01*
Y-148500D01*
G01X-30600Y-147300D02*
X-26900D01*
G01Y-149200D02*
Y-145400D01*
X-28100Y-144200D01*
X-29300D01*
X-30600Y-145400D01*
Y-149200D01*
G01X-25600Y-146700D02*
X-22500D01*
X-21900Y-146100D01*
Y-144800D01*
X-22500Y-144200D01*
X-25600D01*
Y-149200D01*
G01X-21900D02*
X-24300Y-146700D01*
G01X-30600Y-123500D02*
X-30000Y-124200D01*
X-27500D01*
X-26900Y-123500D01*
Y-122300D01*
X-27500Y-121700D01*
X-30000D01*
X-30600Y-121100D01*
Y-119800D01*
X-30000Y-119200D01*
X-27500D01*
X-26900Y-119800D01*
G01X-25500Y-119200D02*
X-23600D01*
Y-124400D01*
G01X-21700Y-119200D02*
X-23600D01*
G01X-35600D02*
Y-122900D01*
X-34300Y-124200D01*
X-33100D01*
X-31900Y-122900D01*
Y-119200D01*
G01X-35600D02*
Y-122900D01*
X-34300Y-124200D01*
X-33100D01*
X-31900Y-122900D01*
Y-119200D01*
G01X-21700D02*
X-23600D01*
G01X-25500D02*
X-23600D01*
Y-124400D01*
G01X-30600Y-123500D02*
X-30000Y-124200D01*
X-27500D01*
X-26900Y-123500D01*
Y-122300D01*
X-27500Y-121700D01*
X-30000D01*
X-30600Y-121100D01*
Y-119800D01*
X-30000Y-119200D01*
X-27500D01*
X-26900Y-119800D01*
G01X-10600Y-174200D02*
Y-169200D01*
G01Y-169800D02*
X-6900Y-173500D01*
G01X-20600Y-174200D02*
X-18100D01*
X-16900Y-172900D01*
Y-170400D01*
X-18100Y-169200D01*
X-20600D01*
Y-174200D01*
G01D02*
X-18100D01*
X-16900Y-172900D01*
Y-170400D01*
X-18100Y-169200D01*
X-20600D01*
Y-174200D01*
G01X-10600Y-169800D02*
X-6900Y-173500D01*
G01X-10600Y-174200D02*
Y-169200D01*
G01X-6900Y-148500D02*
X-10600Y-144800D01*
G01Y-144200D02*
Y-149200D01*
G01X-20600D02*
X-18100D01*
X-16900Y-147900D01*
Y-145400D01*
X-18100Y-144200D01*
X-20600D01*
Y-149200D01*
G01D02*
X-18100D01*
X-16900Y-147900D01*
Y-145400D01*
X-18100Y-144200D01*
X-20600D01*
Y-149200D01*
G01X-10600Y-144200D02*
Y-149200D01*
G01X-6900Y-148500D02*
X-10600Y-144800D01*
G01Y-121700D02*
X-8100D01*
G01X-6900Y-124200D02*
X-10600D01*
Y-119200D01*
X-6900D01*
G01X-20600Y-123500D02*
X-20000Y-124200D01*
X-17500D01*
X-16900Y-123500D01*
Y-119800D01*
X-17500Y-119200D01*
X-20000D01*
X-20600Y-119800D01*
Y-123500D01*
G01X-15600Y-124200D02*
Y-119200D01*
X-13700Y-121700D01*
X-11900Y-119200D01*
Y-124200D01*
G01X-15600D02*
Y-119200D01*
X-13700Y-121700D01*
X-11900Y-119200D01*
Y-124200D01*
G01X-20600Y-123500D02*
X-20000Y-124200D01*
X-17500D01*
X-16900Y-123500D01*
Y-119800D01*
X-17500Y-119200D01*
X-20000D01*
X-20600Y-119800D01*
Y-123500D01*
G01X-6900Y-124200D02*
X-10600D01*
Y-119200D01*
X-6900D01*
G01X-10600Y-121700D02*
X-8100D01*
G01X1300Y-174200D02*
X1900D01*
Y-173500D01*
X1300D01*
Y-174200D01*
G01X-6900D02*
Y-169200D01*
G01X-5600Y-173500D02*
X-5000Y-174200D01*
X-2500D01*
X-1900Y-173500D01*
Y-169800D01*
X-2500Y-169200D01*
X-5000D01*
X-5600Y-169800D01*
Y-173500D01*
G01D02*
X-5000Y-174200D01*
X-2500D01*
X-1900Y-173500D01*
Y-169800D01*
X-2500Y-169200D01*
X-5000D01*
X-5600Y-169800D01*
Y-173500D01*
G01X-6900Y-174200D02*
Y-169200D01*
G01X1300Y-174200D02*
X1900D01*
Y-173500D01*
X1300D01*
Y-174200D01*
G01X3100Y-149200D02*
Y-144200D01*
X1300Y-146700D01*
X-600Y-144200D01*
Y-149200D01*
G01X-1900D02*
Y-145400D01*
X-3100Y-144200D01*
X-4300D01*
X-5600Y-145400D01*
Y-149200D01*
G01X-6900D02*
Y-144200D01*
G01X-5600Y-147300D02*
X-1900D01*
G01X-5600D02*
X-1900D01*
G01X-6900Y-149200D02*
Y-144200D01*
G01X-1900Y-149200D02*
Y-145400D01*
X-3100Y-144200D01*
X-4300D01*
X-5600Y-145400D01*
Y-149200D01*
G01X3100D02*
Y-144200D01*
X1300Y-146700D01*
X-600Y-144200D01*
Y-149200D01*
G01X-5600Y-121700D02*
X-2500D01*
X-1900Y-121100D01*
Y-119800D01*
X-2500Y-119200D01*
X-5600D01*
Y-124200D01*
G01X-4300Y-121700D02*
X-1900Y-124200D01*
G01X-4300Y-121700D02*
X-1900Y-124200D01*
G01X-5600Y-121700D02*
X-2500D01*
X-1900Y-121100D01*
Y-119800D01*
X-2500Y-119200D01*
X-5600D01*
Y-124200D01*
G01X8100Y-144200D02*
X4400D01*
Y-149200D01*
X8100D01*
G01X6900Y-146700D02*
X4400D01*
G01X6900D02*
X4400D01*
G01X8100Y-144200D02*
X4400D01*
Y-149200D01*
X8100D01*
G01X4400Y-124200D02*
Y-119200D01*
G01Y-119800D02*
X8100Y-123500D01*
G01Y-124200D02*
Y-119200D01*
G01X9400Y-122300D02*
X13100D01*
G01Y-124200D02*
Y-120400D01*
X11900Y-119200D01*
X10700D01*
X9400Y-120400D01*
Y-124200D01*
G01X14400D02*
Y-119200D01*
X16300Y-121700D01*
X18100Y-119200D01*
Y-124200D01*
G01X14400D02*
Y-119200D01*
X16300Y-121700D01*
X18100Y-119200D01*
Y-124200D01*
G01X13100D02*
Y-120400D01*
X11900Y-119200D01*
X10700D01*
X9400Y-120400D01*
Y-124200D01*
G01Y-122300D02*
X13100D01*
G01X8100Y-124200D02*
Y-119200D01*
G01X4400Y-119800D02*
X8100Y-123500D01*
G01X4400Y-124200D02*
Y-119200D01*
G01X19400Y-121700D02*
X21900D01*
G01X23100Y-124200D02*
X19400D01*
Y-119200D01*
X23100D01*
G01Y-124200D02*
X19400D01*
Y-119200D01*
X23100D01*
G01X19400Y-121700D02*
X21900D01*
G01X108000Y-171700D02*
X110400Y-174200D01*
G01X106700Y-171700D02*
X109800D01*
X110400Y-171100D01*
Y-169800D01*
X109800Y-169200D01*
X106700D01*
Y-174200D01*
G01Y-171700D02*
X109800D01*
X110400Y-171100D01*
Y-169800D01*
X109800Y-169200D01*
X106700D01*
Y-174200D01*
G01X108000Y-171700D02*
X110400Y-174200D01*
G01X115400D02*
X111700D01*
Y-169200D01*
X115400D01*
G01X111700Y-171700D02*
X114200D01*
G01X116700Y-169200D02*
Y-172300D01*
X118600Y-174200D01*
X120400Y-172300D01*
Y-169200D01*
G01X116700D02*
Y-172300D01*
X118600Y-174200D01*
X120400Y-172300D01*
Y-169200D01*
G01X111700Y-171700D02*
X114200D01*
G01X115400Y-174200D02*
X111700D01*
Y-169200D01*
X115400D01*
G01X146800Y-174200D02*
X149300D01*
X150500Y-172900D01*
Y-170400D01*
X149300Y-169200D01*
X146800D01*
Y-174200D01*
G01D02*
X149300D01*
X150500Y-172900D01*
Y-170400D01*
X149300Y-169200D01*
X146800D01*
Y-174200D01*
G01X160300Y-169200D02*
X158400D01*
G01X165500Y-174200D02*
X161800D01*
Y-169200D01*
X165500D01*
G01X161800Y-171700D02*
X164300D01*
G01X156500Y-169200D02*
X158400D01*
Y-174200D01*
G01X155500Y-172300D02*
X151800D01*
G01Y-174200D02*
Y-170400D01*
X153100Y-169200D01*
X154300D01*
X155500Y-170400D01*
Y-174200D01*
G01X151800D02*
Y-170400D01*
X153100Y-169200D01*
X154300D01*
X155500Y-170400D01*
Y-174200D01*
G01Y-172300D02*
X151800D01*
G01X156500Y-169200D02*
X158400D01*
Y-174200D01*
G01X161800Y-171700D02*
X164300D01*
G01X165500Y-174200D02*
X161800D01*
Y-169200D01*
X165500D01*
G01X160300D02*
X158400D01*
G01X184400Y-149200D02*
X186900D01*
X188100Y-147900D01*
Y-145400D01*
X186900Y-144200D01*
X184400D01*
Y-149200D01*
G01X189400Y-146700D02*
X191900D01*
G01X193100Y-149200D02*
X189400D01*
Y-144200D01*
X193100D01*
G01Y-149200D02*
X189400D01*
Y-144200D01*
X193100D01*
G01X189400Y-146700D02*
X191900D01*
G01X184400Y-149200D02*
X186900D01*
X188100Y-147900D01*
Y-145400D01*
X186900Y-144200D01*
X184400D01*
Y-149200D01*
G01X194400Y-148500D02*
X195000Y-149200D01*
X197500D01*
X198100Y-148500D01*
Y-147300D01*
X197500Y-146700D01*
X195000D01*
X194400Y-146100D01*
Y-144800D01*
X195000Y-144200D01*
X197500D01*
X198100Y-144800D01*
G01X203100Y-145400D02*
Y-144800D01*
X202500Y-144200D01*
X200000D01*
X199400Y-144800D01*
Y-148500D01*
X200000Y-149200D01*
X202500D01*
X203100Y-148500D01*
Y-147900D01*
G01Y-145400D02*
Y-144800D01*
X202500Y-144200D01*
X200000D01*
X199400Y-144800D01*
Y-148500D01*
X200000Y-149200D01*
X202500D01*
X203100Y-148500D01*
Y-147900D01*
G01X194400Y-148500D02*
X195000Y-149200D01*
X197500D01*
X198100Y-148500D01*
Y-147300D01*
X197500Y-146700D01*
X195000D01*
X194400Y-146100D01*
Y-144800D01*
X195000Y-144200D01*
X197500D01*
X198100Y-144800D01*
G01X209400Y-149200D02*
X213100D01*
G01X214400D02*
Y-144200D01*
X217500D01*
X218100Y-144800D01*
Y-146100D01*
X217500Y-146700D01*
X214400D01*
G01X213100Y-144200D02*
X209400D01*
G01X211300D02*
Y-149200D01*
G01X204400Y-146700D02*
X207500D01*
X208100Y-146100D01*
Y-144800D01*
X207500Y-144200D01*
X204400D01*
Y-149200D01*
G01X205700Y-146700D02*
X208100Y-149200D01*
G01X205700Y-146700D02*
X208100Y-149200D01*
G01X204400Y-146700D02*
X207500D01*
X208100Y-146100D01*
Y-144800D01*
X207500Y-144200D01*
X204400D01*
Y-149200D01*
G01X211300Y-144200D02*
Y-149200D01*
G01X213100Y-144200D02*
X209400D01*
G01X214400Y-149200D02*
Y-144200D01*
X217500D01*
X218100Y-144800D01*
Y-146100D01*
X217500Y-146700D01*
X214400D01*
G01X209400Y-149200D02*
X213100D01*
G01X225889Y-174285D02*
Y-169285D01*
X228989D01*
X229589Y-169885D01*
Y-171185D01*
X228989Y-171785D01*
X225889D01*
G01Y-174285D02*
Y-169285D01*
X228989D01*
X229589Y-169885D01*
Y-171185D01*
X228989Y-171785D01*
X225889D01*
G01X219400Y-144200D02*
X221300D01*
Y-149200D01*
G01X224400D02*
X228100D01*
G01X229400Y-148500D02*
X230000Y-149200D01*
X232500D01*
X233100Y-148500D01*
Y-144800D01*
X232500Y-144200D01*
X230000D01*
X229400Y-144800D01*
Y-148500D01*
G01X226300Y-149200D02*
Y-144200D01*
G01X228100D02*
X224400D01*
G01X223200D02*
X221300D01*
G01X223200D02*
X221300D01*
G01X228100D02*
X224400D01*
G01X226300Y-149200D02*
Y-144200D01*
G01X229400Y-148500D02*
X230000Y-149200D01*
X232500D01*
X233100Y-148500D01*
Y-144800D01*
X232500Y-144200D01*
X230000D01*
X229400Y-144800D01*
Y-148500D01*
G01X224400Y-149200D02*
X228100D01*
G01X219400Y-144200D02*
X221300D01*
Y-149200D01*
G01X231400Y-171800D02*
X234500D01*
X235100Y-171200D01*
Y-169900D01*
X234500Y-169300D01*
X231400D01*
Y-174300D01*
G01X232700Y-171800D02*
X235100Y-174300D01*
G01X245500Y-172800D02*
X241700D01*
G01X245500Y-170900D02*
X241700D01*
G01X243000Y-170000D02*
Y-173800D01*
G01X240200Y-169300D02*
Y-173000D01*
X239000Y-174300D01*
X237700D01*
X236500Y-173000D01*
G01X240200Y-169300D02*
Y-173000D01*
X239000Y-174300D01*
X237700D01*
X236500Y-173000D01*
G01X243000Y-170000D02*
Y-173800D01*
G01X245500Y-170900D02*
X241700D01*
G01X245500Y-172800D02*
X241700D01*
G01X232700Y-171800D02*
X235100Y-174300D01*
G01X231400Y-171800D02*
X234500D01*
X235100Y-171200D01*
Y-169900D01*
X234500Y-169300D01*
X231400D01*
Y-174300D01*
G01X238100Y-149200D02*
Y-144200D01*
G01X234400D02*
Y-149200D01*
G01Y-144800D02*
X238100Y-148500D01*
G01X234400Y-144800D02*
X238100Y-148500D01*
G01X234400Y-144200D02*
Y-149200D01*
G01X238100D02*
Y-144200D01*
G01X244200Y-170000D02*
Y-173800D01*
G01Y-170000D02*
Y-173800D01*
G01X329400Y-169200D02*
Y-174200D01*
G01Y-171700D02*
X333100D01*
G01Y-174200D02*
Y-169200D01*
G01X324400Y-173500D02*
X325000Y-174200D01*
X327500D01*
X328100Y-173500D01*
Y-172300D01*
X327500Y-171700D01*
X325000D01*
X324400Y-171100D01*
Y-169800D01*
X325000Y-169200D01*
X327500D01*
X328100Y-169800D01*
G01X324400Y-173500D02*
X325000Y-174200D01*
X327500D01*
X328100Y-173500D01*
Y-172300D01*
X327500Y-171700D01*
X325000D01*
X324400Y-171100D01*
Y-169800D01*
X325000Y-169200D01*
X327500D01*
X328100Y-169800D01*
G01X333100Y-174200D02*
Y-169200D01*
G01X329400Y-171700D02*
X333100D01*
G01X329400Y-169200D02*
Y-174200D01*
G01X369400D02*
Y-169200D01*
X373100D01*
G01X371900Y-171700D02*
X369400D01*
G01X364400Y-173500D02*
X365000Y-174200D01*
X367500D01*
X368100Y-173500D01*
Y-169800D01*
X367500Y-169200D01*
X365000D01*
X364400Y-169800D01*
Y-173500D01*
G01D02*
X365000Y-174200D01*
X367500D01*
X368100Y-173500D01*
Y-169800D01*
X367500Y-169200D01*
X365000D01*
X364400Y-169800D01*
Y-173500D01*
G01X371900Y-171700D02*
X369400D01*
G01Y-174200D02*
Y-169200D01*
X373100D01*
G54D34*
X227459Y30069D03*
X224900D03*
X222341D03*
Y38731D03*
X224900D03*
X227459D03*
G54D16*
X54150Y184450D03*
X60350D03*
X125150Y109700D03*
X131350D03*
X231350Y84000D03*
Y89000D03*
Y94000D03*
X237550Y84000D03*
Y89000D03*
Y94000D03*
X271300Y92750D03*
X265100D03*
X271300Y97750D03*
X265100D03*
X271300Y102750D03*
X265100D03*
X271300Y107750D03*
X265100D03*
G54D25*
X105000Y176100D03*
X110600D03*
X107800D03*
X102200D03*
X99400D03*
X106400Y181700D03*
X100800D03*
X103600D03*
X109200D03*
X113400Y176100D03*
X112200Y181700D03*
G54D44*
G01X14713Y-160300D02*
Y-155300D01*
G01Y-156550D02*
X15087Y-155925D01*
X15647Y-155425D01*
X16393Y-155300D01*
X17047Y-155425D01*
X17607Y-155925D01*
X17887Y-156800D01*
Y-160300D01*
G01X21840D02*
Y-152800D01*
G01X25760D02*
Y-160300D01*
G01Y-156550D02*
X21840D01*
G01X29247Y-160300D02*
Y-152800D01*
X31113D01*
X31860Y-153175D01*
X32420Y-153675D01*
X32887Y-154425D01*
X33260Y-155300D01*
X33353Y-156550D01*
X33260Y-157800D01*
X32887Y-158675D01*
X32420Y-159425D01*
X31860Y-159925D01*
X31113Y-160300D01*
X29247D01*
G01X48167D02*
X44433D01*
Y-152800D01*
X48167D01*
G01X46673Y-156425D02*
X44433D01*
G01X51467Y-152800D02*
X53800Y-160300D01*
X56133Y-152800D01*
G01X58873Y-160300D02*
Y-152800D01*
X61300Y-159050D01*
X63727Y-152800D01*
Y-160300D01*
G01X20900Y-175233D02*
X21500Y-174434D01*
X22200Y-174033D01*
X23000Y-173900D01*
X24000Y-174167D01*
X24700Y-174833D01*
X24900Y-175633D01*
X24800Y-176434D01*
X24400Y-177100D01*
X22400Y-178433D01*
X21500Y-179367D01*
X20900Y-180700D01*
X20700Y-181900D01*
X24900D01*
G01X28600Y-180700D02*
X29200Y-181367D01*
X29900Y-181767D01*
X30800Y-181900D01*
X31700Y-181633D01*
X32400Y-181100D01*
X32900Y-180167D01*
X33000Y-179100D01*
X32800Y-178033D01*
X32300Y-177367D01*
X31600Y-176833D01*
X30900Y-176700D01*
X30200Y-176833D01*
X29300Y-177367D01*
X29600Y-173900D01*
X32300D01*
G01X38800Y-181900D02*
Y-173900D01*
X37600Y-175500D01*
G01Y-181900D02*
X40000D01*
G01X44600Y-180700D02*
X45200Y-181367D01*
X45900Y-181767D01*
X46800Y-181900D01*
X47700Y-181633D01*
X48400Y-181100D01*
X48900Y-180167D01*
X49000Y-179100D01*
X48800Y-178033D01*
X48300Y-177367D01*
X47600Y-176833D01*
X46900Y-176700D01*
X46200Y-176833D01*
X45300Y-177367D01*
X45600Y-173900D01*
X48300D01*
G01X52900Y-175233D02*
X53500Y-174434D01*
X54200Y-174033D01*
X55000Y-173900D01*
X56000Y-174167D01*
X56700Y-174833D01*
X56900Y-175633D01*
X56800Y-176434D01*
X56400Y-177100D01*
X54400Y-178433D01*
X53500Y-179367D01*
X52900Y-180700D01*
X52700Y-181900D01*
X56900D01*
G01X62800D02*
Y-173900D01*
X61600Y-175500D01*
G01Y-181900D02*
X64000D01*
G01X70800Y-173900D02*
X70000Y-174167D01*
X69400Y-174833D01*
X69000Y-175633D01*
X68700Y-176700D01*
X68600Y-177900D01*
X68700Y-179100D01*
X69000Y-180167D01*
X69400Y-180967D01*
X70000Y-181633D01*
X70800Y-181900D01*
X71600Y-181633D01*
X72200Y-180967D01*
X72600Y-180167D01*
X72900Y-179100D01*
X73000Y-177900D01*
X72900Y-176700D01*
X72600Y-175633D01*
X72200Y-174833D01*
X71600Y-174167D01*
X70800Y-173900D01*
G01X83250Y-122500D02*
Y-131900D01*
G01X80605Y-122500D02*
X85895D01*
G01X94750Y-131900D02*
X90150D01*
Y-122500D01*
X94750D01*
G01X92910Y-127043D02*
X90150D01*
G01X99235Y-131900D02*
X104065Y-122500D01*
G01X99235D02*
X104065Y-131900D01*
G01X107975D02*
X110850Y-122500D01*
X113725Y-131900D01*
G01X112690Y-128610D02*
X109010D01*
G01X117635Y-130647D02*
X118555Y-131430D01*
X119590Y-131900D01*
X120510D01*
X121430Y-131430D01*
X122120Y-130647D01*
X122465Y-129550D01*
X122235Y-128454D01*
X121660Y-127513D01*
X120625Y-126887D01*
X119245Y-126573D01*
X118440Y-125947D01*
X118095Y-124850D01*
X118325Y-123753D01*
X118900Y-122970D01*
X119705Y-122500D01*
X120510D01*
X121315Y-122813D01*
X122005Y-123597D01*
G01X137070Y-122500D02*
X139830D01*
G01X138450D02*
Y-131900D01*
G01X137070D02*
X139830D01*
G01X145005D02*
Y-122500D01*
X150295Y-131900D01*
Y-122500D01*
G01X154435Y-130647D02*
X155355Y-131430D01*
X156390Y-131900D01*
X157310D01*
X158230Y-131430D01*
X158920Y-130647D01*
X159265Y-129550D01*
X159035Y-128454D01*
X158460Y-127513D01*
X157425Y-126887D01*
X156045Y-126573D01*
X155240Y-125947D01*
X154895Y-124850D01*
X155125Y-123753D01*
X155700Y-122970D01*
X156505Y-122500D01*
X157310D01*
X158115Y-122813D01*
X158805Y-123597D01*
G01X166050Y-122500D02*
Y-131900D01*
G01X163405Y-122500D02*
X168695D01*
G01X172950Y-131900D02*
Y-122500D01*
X175825D01*
X176745Y-122970D01*
X177320Y-123597D01*
X177550Y-124850D01*
X177320Y-126103D01*
X176630Y-126887D01*
X175825Y-127357D01*
X172950D01*
G01X175825D02*
X177550Y-131900D01*
G01X181920Y-122500D02*
Y-129237D01*
X182380Y-130647D01*
X183300Y-131587D01*
X184450Y-131900D01*
X185600Y-131587D01*
X186520Y-130647D01*
X186980Y-129237D01*
Y-122500D01*
G01X190660Y-131900D02*
Y-122500D01*
X193650Y-130333D01*
X196640Y-122500D01*
Y-131900D01*
G01X205150D02*
X200550D01*
Y-122500D01*
X205150D01*
G01X203310Y-127043D02*
X200550D01*
G01X209405Y-131900D02*
Y-122500D01*
X214695Y-131900D01*
Y-122500D01*
G01X221250D02*
Y-131900D01*
G01X218605Y-122500D02*
X223895D01*
G01X228035Y-130647D02*
X228955Y-131430D01*
X229990Y-131900D01*
X230910D01*
X231830Y-131430D01*
X232520Y-130647D01*
X232865Y-129550D01*
X232635Y-128454D01*
X232060Y-127513D01*
X231025Y-126887D01*
X229645Y-126573D01*
X228840Y-125947D01*
X228495Y-124850D01*
X228725Y-123753D01*
X229300Y-122970D01*
X230105Y-122500D01*
X230910D01*
X231715Y-122813D01*
X232405Y-123597D01*
G01X121200Y-185200D02*
X117200D01*
Y-177200D01*
X121200D01*
G01X119600Y-181067D02*
X117200D01*
G01X125300Y-178533D02*
X125900Y-177734D01*
X126600Y-177333D01*
X127400Y-177200D01*
X128400Y-177467D01*
X129100Y-178133D01*
X129300Y-178933D01*
X129200Y-179734D01*
X128800Y-180400D01*
X126800Y-181733D01*
X125900Y-182667D01*
X125300Y-184000D01*
X125100Y-185200D01*
X129300D01*
G01X148150Y-185400D02*
Y-179100D01*
X147210Y-180360D01*
G01Y-185400D02*
X149090D01*
G01X152962Y-182775D02*
X153510Y-182040D01*
X153980Y-181620D01*
X154607Y-181410D01*
X155155Y-181620D01*
X155547Y-182040D01*
X155860Y-182670D01*
X155938Y-183405D01*
X155860Y-184035D01*
X155547Y-184665D01*
X155077Y-185190D01*
X154528Y-185400D01*
X153902Y-185190D01*
X153353Y-184560D01*
X153040Y-183615D01*
X152962Y-182565D01*
X153118Y-181200D01*
X153353Y-180465D01*
X153745Y-179730D01*
X154293Y-179205D01*
X154842Y-179100D01*
X155390Y-179310D01*
X155782Y-179835D01*
G01X159732Y-183300D02*
X161768D01*
G01X165013Y-185400D02*
Y-179100D01*
X167050Y-184350D01*
X169087Y-179100D01*
Y-185400D01*
G01X171392D02*
X173350Y-179100D01*
X175308Y-185400D01*
G01X174603Y-183195D02*
X172097D01*
G01X178083Y-185400D02*
Y-179100D01*
X180042D01*
X180668Y-179415D01*
X181060Y-179835D01*
X181217Y-180675D01*
X181060Y-181515D01*
X180590Y-182040D01*
X180042Y-182355D01*
X178083D01*
G01X180042D02*
X181217Y-185400D01*
G01X184932Y-183300D02*
X186968D01*
G01X190762Y-180150D02*
X191232Y-179520D01*
X191780Y-179205D01*
X192407Y-179100D01*
X193190Y-179310D01*
X193738Y-179835D01*
X193895Y-180465D01*
X193817Y-181095D01*
X193503Y-181620D01*
X191937Y-182670D01*
X191232Y-183405D01*
X190762Y-184455D01*
X190605Y-185400D01*
X193895D01*
G01X198550Y-179100D02*
X197923Y-179310D01*
X197453Y-179835D01*
X197140Y-180465D01*
X196905Y-181305D01*
X196827Y-182250D01*
X196905Y-183195D01*
X197140Y-184035D01*
X197453Y-184665D01*
X197923Y-185190D01*
X198550Y-185400D01*
X199177Y-185190D01*
X199647Y-184665D01*
X199960Y-184035D01*
X200195Y-183195D01*
X200273Y-182250D01*
X200195Y-181305D01*
X199960Y-180465D01*
X199647Y-179835D01*
X199177Y-179310D01*
X198550Y-179100D01*
G01X204850Y-185400D02*
Y-179100D01*
X203910Y-180360D01*
G01Y-185400D02*
X205790D01*
G01X210993D02*
X211150Y-184035D01*
X211385Y-182880D01*
X211698Y-181830D01*
X212090Y-180675D01*
X212717Y-179100D01*
X209583D01*
G01X228650Y-177100D02*
Y-183400D01*
G01X226848Y-177100D02*
X230452D01*
G01X234010D02*
X235890D01*
G01X234950D02*
Y-183400D01*
G01X234010D02*
X235890D01*
G01X239527D02*
Y-177100D01*
X241093D01*
X241720Y-177415D01*
X242190Y-177835D01*
X242582Y-178465D01*
X242895Y-179200D01*
X242973Y-180250D01*
X242895Y-181300D01*
X242582Y-182035D01*
X242190Y-182665D01*
X241720Y-183085D01*
X241093Y-183400D01*
X239527D01*
G01X245983Y-177100D02*
Y-183400D01*
X249117D01*
G01X252283D02*
Y-177100D01*
X254163D01*
X254790Y-177415D01*
X255260Y-178150D01*
X255417Y-178990D01*
X255260Y-179830D01*
X254868Y-180460D01*
X254163Y-180775D01*
X252283D01*
G01X259132Y-181300D02*
X261168D01*
G01X266450Y-183400D02*
Y-177100D01*
X265510Y-178360D01*
G01Y-183400D02*
X267390D01*
G01X272750D02*
Y-177100D01*
X271810Y-178360D01*
G01Y-183400D02*
X273690D01*
G01X279050D02*
Y-177100D01*
X278110Y-178360D01*
G01Y-183400D02*
X279990D01*
G01X283862Y-180775D02*
X284410Y-180040D01*
X284880Y-179620D01*
X285507Y-179410D01*
X286055Y-179620D01*
X286447Y-180040D01*
X286760Y-180670D01*
X286838Y-181405D01*
X286760Y-182035D01*
X286447Y-182665D01*
X285977Y-183190D01*
X285428Y-183400D01*
X284802Y-183190D01*
X284253Y-182560D01*
X283940Y-181615D01*
X283862Y-180565D01*
X284018Y-179200D01*
X284253Y-178465D01*
X284645Y-177730D01*
X285193Y-177205D01*
X285742Y-177100D01*
X286290Y-177310D01*
X286682Y-177835D01*
G01X291650Y-177100D02*
X291023Y-177310D01*
X290553Y-177835D01*
X290240Y-178465D01*
X290005Y-179305D01*
X289927Y-180250D01*
X290005Y-181195D01*
X290240Y-182035D01*
X290553Y-182665D01*
X291023Y-183190D01*
X291650Y-183400D01*
X292277Y-183190D01*
X292747Y-182665D01*
X293060Y-182035D01*
X293295Y-181195D01*
X293373Y-180250D01*
X293295Y-179305D01*
X293060Y-178465D01*
X292747Y-177835D01*
X292277Y-177310D01*
X291650Y-177100D01*
G01X296618Y-182665D02*
X297167Y-183190D01*
X297793Y-183400D01*
X298420Y-183190D01*
X298968Y-182560D01*
X299360Y-181615D01*
X299517Y-180670D01*
Y-179515D01*
X299360Y-178570D01*
X298968Y-177730D01*
X298498Y-177310D01*
X297950Y-177100D01*
X297323Y-177310D01*
X296853Y-177730D01*
X296540Y-178360D01*
X296383Y-179200D01*
X296540Y-179935D01*
X296932Y-180670D01*
X297402Y-181090D01*
X297950Y-181195D01*
X298577Y-180985D01*
X299047Y-180460D01*
X299517Y-179515D01*
G01X303232Y-181300D02*
X305268D01*
G01X310550Y-177100D02*
X309923Y-177310D01*
X309453Y-177835D01*
X309140Y-178465D01*
X308905Y-179305D01*
X308827Y-180250D01*
X308905Y-181195D01*
X309140Y-182035D01*
X309453Y-182665D01*
X309923Y-183190D01*
X310550Y-183400D01*
X311177Y-183190D01*
X311647Y-182665D01*
X311960Y-182035D01*
X312195Y-181195D01*
X312273Y-180250D01*
X312195Y-179305D01*
X311960Y-178465D01*
X311647Y-177835D01*
X311177Y-177310D01*
X310550Y-177100D01*
G01X316850Y-183400D02*
Y-177100D01*
X315910Y-178360D01*
G01Y-183400D02*
X317790D01*
G01X233505Y-157960D02*
X234132Y-158485D01*
X234837Y-158800D01*
X235463D01*
X236090Y-158485D01*
X236560Y-157960D01*
X236795Y-157225D01*
X236638Y-156490D01*
X236247Y-155860D01*
X235542Y-155440D01*
X234602Y-155230D01*
X234053Y-154810D01*
X233818Y-154075D01*
X233975Y-153340D01*
X234367Y-152815D01*
X234915Y-152500D01*
X235463D01*
X236012Y-152710D01*
X236482Y-153235D01*
G01X241450Y-158800D02*
X240823Y-158695D01*
X240275Y-158275D01*
X239805Y-157645D01*
X239492Y-156910D01*
X239335Y-156070D01*
Y-155230D01*
X239492Y-154390D01*
X239805Y-153655D01*
X240275Y-153025D01*
X240823Y-152605D01*
X241450Y-152500D01*
X242077Y-152605D01*
X242625Y-153025D01*
X243095Y-153655D01*
X243408Y-154390D01*
X243565Y-155230D01*
Y-156070D01*
X243408Y-156910D01*
X243095Y-157645D01*
X242625Y-158275D01*
X242077Y-158695D01*
X241450Y-158800D01*
G01X246183Y-152500D02*
Y-158800D01*
X249317D01*
G01X252327D02*
Y-152500D01*
X253893D01*
X254520Y-152815D01*
X254990Y-153235D01*
X255382Y-153865D01*
X255695Y-154600D01*
X255773Y-155650D01*
X255695Y-156700D01*
X255382Y-157435D01*
X254990Y-158065D01*
X254520Y-158485D01*
X253893Y-158800D01*
X252327D01*
G01X261917D02*
X258783D01*
Y-152500D01*
X261917D01*
G01X260663Y-155545D02*
X258783D01*
G01X265083Y-158800D02*
Y-152500D01*
X267042D01*
X267668Y-152815D01*
X268060Y-153235D01*
X268217Y-154075D01*
X268060Y-154915D01*
X267590Y-155440D01*
X267042Y-155755D01*
X265083D01*
G01X267042D02*
X268217Y-158800D01*
G01X271383D02*
Y-152500D01*
X273263D01*
X273890Y-152815D01*
X274360Y-153550D01*
X274517Y-154390D01*
X274360Y-155230D01*
X273968Y-155860D01*
X273263Y-156175D01*
X271383D01*
G01X277292Y-158800D02*
X279250Y-152500D01*
X281208Y-158800D01*
G01X280503Y-156595D02*
X277997D01*
G01X283905Y-157960D02*
X284532Y-158485D01*
X285237Y-158800D01*
X285863D01*
X286490Y-158485D01*
X286960Y-157960D01*
X287195Y-157225D01*
X287038Y-156490D01*
X286647Y-155860D01*
X285942Y-155440D01*
X285002Y-155230D01*
X284453Y-154810D01*
X284218Y-154075D01*
X284375Y-153340D01*
X284767Y-152815D01*
X285315Y-152500D01*
X285863D01*
X286412Y-152710D01*
X286882Y-153235D01*
G01X291850Y-152500D02*
Y-158800D01*
G01X290048Y-152500D02*
X293652D01*
G01X299717Y-158800D02*
X296583D01*
Y-152500D01*
X299717D01*
G01X298463Y-155545D02*
X296583D01*
G01X309732Y-156700D02*
X311768D01*
G01X321783Y-158800D02*
Y-152500D01*
X323663D01*
X324290Y-152815D01*
X324760Y-153550D01*
X324917Y-154390D01*
X324760Y-155230D01*
X324368Y-155860D01*
X323663Y-156175D01*
X321783D01*
G01X328083Y-158800D02*
Y-152500D01*
X330042D01*
X330668Y-152815D01*
X331060Y-153235D01*
X331217Y-154075D01*
X331060Y-154915D01*
X330590Y-155440D01*
X330042Y-155755D01*
X328083D01*
G01X330042D02*
X331217Y-158800D01*
G01X335010Y-152500D02*
X336890D01*
G01X335950D02*
Y-158800D01*
G01X335010D02*
X336890D01*
G01X340213D02*
Y-152500D01*
X342250Y-157750D01*
X344287Y-152500D01*
Y-158800D01*
G01X346592D02*
X348550Y-152500D01*
X350508Y-158800D01*
G01X349803Y-156595D02*
X347297D01*
G01X353283Y-158800D02*
Y-152500D01*
X355242D01*
X355868Y-152815D01*
X356260Y-153235D01*
X356417Y-154075D01*
X356260Y-154915D01*
X355790Y-155440D01*
X355242Y-155755D01*
X353283D01*
G01X355242D02*
X356417Y-158800D01*
G01X361150D02*
Y-155965D01*
X359583Y-152500D01*
G01X362717D02*
X361150Y-155965D01*
G01X372105Y-157960D02*
X372732Y-158485D01*
X373437Y-158800D01*
X374063D01*
X374690Y-158485D01*
X375160Y-157960D01*
X375395Y-157225D01*
X375238Y-156490D01*
X374847Y-155860D01*
X374142Y-155440D01*
X373202Y-155230D01*
X372653Y-154810D01*
X372418Y-154075D01*
X372575Y-153340D01*
X372967Y-152815D01*
X373515Y-152500D01*
X374063D01*
X374612Y-152710D01*
X375082Y-153235D01*
G01X379110Y-152500D02*
X380990D01*
G01X380050D02*
Y-158800D01*
G01X379110D02*
X380990D01*
G01X384627D02*
Y-152500D01*
X386193D01*
X386820Y-152815D01*
X387290Y-153235D01*
X387682Y-153865D01*
X387995Y-154600D01*
X388073Y-155650D01*
X387995Y-156700D01*
X387682Y-157435D01*
X387290Y-158065D01*
X386820Y-158485D01*
X386193Y-158800D01*
X384627D01*
G01X394217D02*
X391083D01*
Y-152500D01*
X394217D01*
G01X392963Y-155545D02*
X391083D01*
G01X347350Y-184100D02*
Y-177800D01*
X346410Y-179060D01*
G01Y-184100D02*
X348290D01*
G01X353650D02*
Y-177800D01*
X352710Y-179060D01*
G01Y-184100D02*
X354590D01*
G01X382150Y-181900D02*
Y-175600D01*
X381210Y-176860D01*
G01Y-181900D02*
X383090D01*
G01X386727Y-180640D02*
X387197Y-181375D01*
X387823Y-181795D01*
X388528Y-181900D01*
X389155Y-181795D01*
X389782Y-181270D01*
X390173Y-180640D01*
X390252Y-180010D01*
X390095Y-179275D01*
X389547Y-178750D01*
X388998Y-178540D01*
X388293D01*
G01X388998D02*
X389468Y-178225D01*
X389860Y-177700D01*
X390017Y-177070D01*
X389860Y-176440D01*
X389468Y-175915D01*
X388763Y-175600D01*
X388058Y-175705D01*
X387353Y-176125D01*
G01X603983Y-193300D02*
Y-187000D01*
X605863D01*
X606490Y-187315D01*
X606960Y-188050D01*
X607117Y-188890D01*
X606960Y-189730D01*
X606568Y-190360D01*
X605863Y-190675D01*
X603983D01*
G01X610518Y-193300D02*
Y-187000D01*
G01Y-190045D02*
X610910Y-189520D01*
X611302Y-189205D01*
X611928Y-189100D01*
X612398Y-189205D01*
X612947Y-189625D01*
X613182Y-190255D01*
Y-193300D01*
G01X618150Y-189100D02*
Y-193300D01*
G01Y-187420D02*
X617993Y-187315D01*
Y-187105D01*
X618150Y-187000D01*
X618307Y-187105D01*
Y-187315D01*
X618150Y-187420D01*
G01X624450Y-193300D02*
Y-187000D01*
G01X630750Y-189100D02*
Y-193300D01*
G01Y-187420D02*
X630593Y-187315D01*
Y-187105D01*
X630750Y-187000D01*
X630907Y-187105D01*
Y-187315D01*
X630750Y-187420D01*
G01X635640Y-195400D02*
Y-189100D01*
G01Y-190045D02*
X636032Y-189520D01*
X636423Y-189205D01*
X637050Y-189100D01*
X637598Y-189205D01*
X638147Y-189730D01*
X638382Y-190465D01*
X638460Y-191200D01*
X638382Y-191935D01*
X638147Y-192670D01*
X637677Y-193090D01*
X637050Y-193300D01*
X636502Y-193195D01*
X635953Y-192880D01*
X635640Y-192460D01*
G01X641940Y-195400D02*
Y-189100D01*
G01Y-190045D02*
X642332Y-189520D01*
X642723Y-189205D01*
X643350Y-189100D01*
X643898Y-189205D01*
X644447Y-189730D01*
X644682Y-190465D01*
X644760Y-191200D01*
X644682Y-191935D01*
X644447Y-192670D01*
X643977Y-193090D01*
X643350Y-193300D01*
X642802Y-193195D01*
X642253Y-192880D01*
X641940Y-192460D01*
G01X648475Y-190465D02*
X650982D01*
X650747Y-189730D01*
X650355Y-189310D01*
X649807Y-189100D01*
X649258Y-189205D01*
X648788Y-189520D01*
X648475Y-190255D01*
X648318Y-190885D01*
Y-191515D01*
X648475Y-192145D01*
X648867Y-192775D01*
X649337Y-193195D01*
X649885Y-193300D01*
X650433Y-193090D01*
X650982Y-192460D01*
G01X660527Y-193300D02*
Y-187000D01*
X662093D01*
X662720Y-187315D01*
X663190Y-187735D01*
X663582Y-188365D01*
X663895Y-189100D01*
X663973Y-190150D01*
X663895Y-191200D01*
X663582Y-191935D01*
X663190Y-192565D01*
X662720Y-192985D01*
X662093Y-193300D01*
X660527D01*
G01X668550D02*
X668080Y-193195D01*
X667610Y-192775D01*
X667297Y-192040D01*
X667140Y-191200D01*
X667297Y-190360D01*
X667610Y-189625D01*
X668080Y-189205D01*
X668550Y-189100D01*
X669020Y-189205D01*
X669490Y-189625D01*
X669803Y-190360D01*
X669882Y-191200D01*
X669803Y-192040D01*
X669490Y-192775D01*
X669020Y-193195D01*
X668550Y-193300D01*
G01X674850D02*
Y-187000D01*
G01X681150Y-193300D02*
Y-187000D01*
G01X687450Y-193300D02*
X686980Y-193195D01*
X686510Y-192775D01*
X686197Y-192040D01*
X686040Y-191200D01*
X686197Y-190360D01*
X686510Y-189625D01*
X686980Y-189205D01*
X687450Y-189100D01*
X687920Y-189205D01*
X688390Y-189625D01*
X688703Y-190360D01*
X688782Y-191200D01*
X688703Y-192040D01*
X688390Y-192775D01*
X687920Y-193195D01*
X687450Y-193300D01*
G01X594866Y-180800D02*
X592333D01*
Y-175800D01*
X594866D01*
G01X593853Y-178217D02*
X592333D01*
G01X597242Y-180800D02*
Y-175800D01*
X600154Y-180800D01*
Y-175800D01*
G01X604176Y-178300D02*
X605443D01*
Y-179800D01*
X605063Y-180300D01*
X604620Y-180633D01*
X603986Y-180800D01*
X603353Y-180633D01*
X602910Y-180300D01*
X602530Y-179800D01*
X602277Y-179217D01*
X602150Y-178550D01*
Y-177967D01*
X602277Y-177467D01*
X602530Y-176883D01*
X602910Y-176383D01*
X603290Y-176050D01*
X603796Y-175800D01*
X604240D01*
X604746Y-175967D01*
X605126Y-176300D01*
G01X608135Y-175800D02*
X609654D01*
G01X608895D02*
Y-180800D01*
G01X608135D02*
X609654D01*
G01X612537D02*
Y-175800D01*
X615450Y-180800D01*
Y-175800D01*
G01X620358Y-180800D02*
X617825D01*
Y-175800D01*
X620358D01*
G01X619345Y-178217D02*
X617825D01*
G01X625456Y-180800D02*
X622924D01*
Y-175800D01*
X625456D01*
G01X624443Y-178217D02*
X622924D01*
G01X628022Y-180800D02*
Y-175800D01*
X629605D01*
X630112Y-176050D01*
X630428Y-176383D01*
X630555Y-177050D01*
X630428Y-177717D01*
X630048Y-178133D01*
X629605Y-178383D01*
X628022D01*
G01X629605D02*
X630555Y-180800D01*
G01X634387Y-180967D02*
X634260Y-180883D01*
Y-180717D01*
X634387Y-180633D01*
X634514Y-180717D01*
Y-180883D01*
X634387Y-180967D01*
G01Y-178717D02*
X634260Y-178633D01*
Y-178467D01*
X634387Y-178383D01*
X634514Y-178467D01*
Y-178633D01*
X634387Y-178717D01*
G01X604218Y-165800D02*
Y-161600D01*
G01Y-162650D02*
X604532Y-162125D01*
X605002Y-161705D01*
X605628Y-161600D01*
X606177Y-161705D01*
X606647Y-162125D01*
X606882Y-162860D01*
Y-165800D01*
G01X610205D02*
Y-159500D01*
G01X613495D02*
Y-165800D01*
G01Y-162650D02*
X610205D01*
G01X616427Y-165800D02*
Y-159500D01*
X617993D01*
X618620Y-159815D01*
X619090Y-160235D01*
X619482Y-160865D01*
X619795Y-161600D01*
X619873Y-162650D01*
X619795Y-163700D01*
X619482Y-164435D01*
X619090Y-165065D01*
X618620Y-165485D01*
X617993Y-165800D01*
X616427D01*
G01X632317D02*
X629183D01*
Y-159500D01*
X632317D01*
G01X631063Y-162545D02*
X629183D01*
G01X635092Y-159500D02*
X637050Y-165800D01*
X639008Y-159500D01*
G01X641313Y-165800D02*
Y-159500D01*
X643350Y-164750D01*
X645387Y-159500D01*
Y-165800D01*
G01X594106Y-150633D02*
X594360Y-150383D01*
X594549Y-149967D01*
X594676Y-149383D01*
X594549Y-148883D01*
X594296Y-148550D01*
X593853Y-148300D01*
X592143D01*
Y-153300D01*
X594233D01*
X594676Y-152967D01*
X594929Y-152467D01*
X595056Y-151883D01*
X594929Y-151300D01*
X594549Y-150800D01*
X594106Y-150633D01*
X592143D01*
G01X598698Y-153300D02*
X598191Y-153217D01*
X597748Y-152883D01*
X597368Y-152383D01*
X597115Y-151800D01*
X596988Y-151133D01*
Y-150467D01*
X597115Y-149800D01*
X597368Y-149217D01*
X597748Y-148717D01*
X598191Y-148383D01*
X598698Y-148300D01*
X599204Y-148383D01*
X599648Y-148717D01*
X600028Y-149217D01*
X600281Y-149800D01*
X600408Y-150467D01*
Y-151133D01*
X600281Y-151800D01*
X600028Y-152383D01*
X599648Y-152883D01*
X599204Y-153217D01*
X598698Y-153300D01*
G01X602213D02*
X603796Y-148300D01*
X605380Y-153300D01*
G01X604810Y-151550D02*
X602783D01*
G01X607628Y-153300D02*
Y-148300D01*
X609211D01*
X609718Y-148550D01*
X610035Y-148883D01*
X610161Y-149550D01*
X610035Y-150217D01*
X609655Y-150633D01*
X609211Y-150883D01*
X607628D01*
G01X609211D02*
X610161Y-153300D01*
G01X612600D02*
Y-148300D01*
X613866D01*
X614373Y-148550D01*
X614753Y-148883D01*
X615070Y-149383D01*
X615323Y-149967D01*
X615386Y-150800D01*
X615323Y-151633D01*
X615070Y-152217D01*
X614753Y-152717D01*
X614373Y-153050D01*
X613866Y-153300D01*
X612600D01*
G01X622734D02*
Y-148300D01*
X625646Y-153300D01*
Y-148300D01*
G01X627705Y-153300D02*
X629288Y-148300D01*
X630872Y-153300D01*
G01X630302Y-151550D02*
X628275D01*
G01X632740Y-153300D02*
Y-148300D01*
X634387Y-152467D01*
X636033Y-148300D01*
Y-153300D01*
G01X640752D02*
X638219D01*
Y-148300D01*
X640752D01*
G01X639739Y-150717D02*
X638219D01*
G01X644584Y-153467D02*
X644457Y-153383D01*
Y-153217D01*
X644584Y-153133D01*
X644710Y-153217D01*
Y-153383D01*
X644584Y-153467D01*
G01Y-151217D02*
X644457Y-151133D01*
Y-150967D01*
X644584Y-150883D01*
X644710Y-150967D01*
Y-151133D01*
X644584Y-151217D01*
G01X605550Y-133000D02*
Y-139300D01*
G01X603748Y-133000D02*
X607352D01*
G01X613417Y-139300D02*
X610283D01*
Y-133000D01*
X613417D01*
G01X612163Y-136045D02*
X610283D01*
G01X616505Y-139300D02*
X619795Y-133000D01*
G01X616505D02*
X619795Y-139300D01*
G01X622492D02*
X624450Y-133000D01*
X626408Y-139300D01*
G01X625703Y-137095D02*
X623197D01*
G01X629105Y-138460D02*
X629732Y-138985D01*
X630437Y-139300D01*
X631063D01*
X631690Y-138985D01*
X632160Y-138460D01*
X632395Y-137725D01*
X632238Y-136990D01*
X631847Y-136360D01*
X631142Y-135940D01*
X630202Y-135730D01*
X629653Y-135310D01*
X629418Y-134575D01*
X629575Y-133840D01*
X629967Y-133315D01*
X630515Y-133000D01*
X631063D01*
X631612Y-133210D01*
X632082Y-133735D01*
G01X642410Y-133000D02*
X644290D01*
G01X643350D02*
Y-139300D01*
G01X642410D02*
X644290D01*
G01X647848D02*
Y-133000D01*
X651452Y-139300D01*
Y-133000D01*
G01X654305Y-138460D02*
X654932Y-138985D01*
X655637Y-139300D01*
X656263D01*
X656890Y-138985D01*
X657360Y-138460D01*
X657595Y-137725D01*
X657438Y-136990D01*
X657047Y-136360D01*
X656342Y-135940D01*
X655402Y-135730D01*
X654853Y-135310D01*
X654618Y-134575D01*
X654775Y-133840D01*
X655167Y-133315D01*
X655715Y-133000D01*
X656263D01*
X656812Y-133210D01*
X657282Y-133735D01*
G01X662250Y-133000D02*
Y-139300D01*
G01X660448Y-133000D02*
X664052D01*
G01X666983Y-139300D02*
Y-133000D01*
X668942D01*
X669568Y-133315D01*
X669960Y-133735D01*
X670117Y-134575D01*
X669960Y-135415D01*
X669490Y-135940D01*
X668942Y-136255D01*
X666983D01*
G01X668942D02*
X670117Y-139300D01*
G01X673127Y-133000D02*
Y-137515D01*
X673440Y-138460D01*
X674067Y-139090D01*
X674850Y-139300D01*
X675633Y-139090D01*
X676260Y-138460D01*
X676573Y-137515D01*
Y-133000D01*
G01X679113Y-139300D02*
Y-133000D01*
X681150Y-138250D01*
X683187Y-133000D01*
Y-139300D01*
G01X689017D02*
X685883D01*
Y-133000D01*
X689017D01*
G01X687763Y-136045D02*
X685883D01*
G01X691948Y-139300D02*
Y-133000D01*
X695552Y-139300D01*
Y-133000D01*
G01X700050D02*
Y-139300D01*
G01X698248Y-133000D02*
X701852D01*
G01X704705Y-138460D02*
X705332Y-138985D01*
X706037Y-139300D01*
X706663D01*
X707290Y-138985D01*
X707760Y-138460D01*
X707995Y-137725D01*
X707838Y-136990D01*
X707447Y-136360D01*
X706742Y-135940D01*
X705802Y-135730D01*
X705253Y-135310D01*
X705018Y-134575D01*
X705175Y-133840D01*
X705567Y-133315D01*
X706115Y-133000D01*
X706663D01*
X707212Y-133210D01*
X707682Y-133735D01*
G01X594993Y-122217D02*
X594613Y-121967D01*
X594170Y-121800D01*
X593663D01*
X593093Y-122050D01*
X592650Y-122467D01*
X592333Y-122967D01*
X592080Y-123800D01*
X592016Y-124550D01*
X592143Y-125300D01*
X592333Y-125800D01*
X592713Y-126300D01*
X593156Y-126633D01*
X593600Y-126800D01*
X594043D01*
X594486Y-126633D01*
X594866Y-126383D01*
X595183Y-126050D01*
G01X597305Y-121800D02*
Y-125383D01*
X597558Y-126134D01*
X598065Y-126633D01*
X598698Y-126800D01*
X599331Y-126633D01*
X599838Y-126134D01*
X600091Y-125383D01*
Y-121800D01*
G01X602467Y-126134D02*
X602973Y-126550D01*
X603543Y-126800D01*
X604050D01*
X604556Y-126550D01*
X604936Y-126134D01*
X605126Y-125550D01*
X605000Y-124967D01*
X604683Y-124467D01*
X604113Y-124133D01*
X603353Y-123967D01*
X602910Y-123633D01*
X602720Y-123050D01*
X602847Y-122467D01*
X603163Y-122050D01*
X603606Y-121800D01*
X604050D01*
X604493Y-121967D01*
X604873Y-122383D01*
G01X608895Y-121800D02*
Y-126800D01*
G01X607438Y-121800D02*
X610351D01*
G01X613993Y-126800D02*
X613487Y-126717D01*
X613043Y-126383D01*
X612664Y-125883D01*
X612410Y-125300D01*
X612284Y-124633D01*
Y-123967D01*
X612410Y-123300D01*
X612664Y-122717D01*
X613043Y-122217D01*
X613487Y-121883D01*
X613993Y-121800D01*
X614500Y-121883D01*
X614943Y-122217D01*
X615323Y-122717D01*
X615576Y-123300D01*
X615703Y-123967D01*
Y-124633D01*
X615576Y-125300D01*
X615323Y-125883D01*
X614943Y-126383D01*
X614500Y-126717D01*
X613993Y-126800D01*
G01X617445D02*
Y-121800D01*
X619092Y-125967D01*
X620738Y-121800D01*
Y-126800D01*
G01X625456D02*
X622924D01*
Y-121800D01*
X625456D01*
G01X624443Y-124217D02*
X622924D01*
G01X628022Y-126800D02*
Y-121800D01*
X629605D01*
X630112Y-122050D01*
X630428Y-122383D01*
X630555Y-123050D01*
X630428Y-123717D01*
X630048Y-124133D01*
X629605Y-124383D01*
X628022D01*
G01X629605D02*
X630555Y-126800D01*
G01X634387Y-126967D02*
X634260Y-126883D01*
Y-126717D01*
X634387Y-126633D01*
X634514Y-126717D01*
Y-126883D01*
X634387Y-126967D01*
G01Y-124717D02*
X634260Y-124633D01*
Y-124467D01*
X634387Y-124383D01*
X634514Y-124467D01*
Y-124633D01*
X634387Y-124717D01*
G01X705833Y-180800D02*
Y-175800D01*
X707353D01*
X707860Y-176050D01*
X708239Y-176633D01*
X708366Y-177300D01*
X708239Y-177967D01*
X707923Y-178467D01*
X707353Y-178717D01*
X705833D01*
G01X713591Y-176217D02*
X713211Y-175967D01*
X712768Y-175800D01*
X712261D01*
X711691Y-176050D01*
X711248Y-176467D01*
X710932Y-176967D01*
X710678Y-177800D01*
X710615Y-178550D01*
X710742Y-179300D01*
X710932Y-179800D01*
X711312Y-180300D01*
X711755Y-180633D01*
X712198Y-180800D01*
X712641D01*
X713085Y-180633D01*
X713464Y-180383D01*
X713781Y-180050D01*
G01X717803Y-178133D02*
X718056Y-177883D01*
X718246Y-177467D01*
X718373Y-176883D01*
X718246Y-176383D01*
X717993Y-176050D01*
X717550Y-175800D01*
X715840D01*
Y-180800D01*
X717930D01*
X718373Y-180467D01*
X718626Y-179967D01*
X718753Y-179383D01*
X718626Y-178800D01*
X718246Y-178300D01*
X717803Y-178133D01*
X715840D01*
G01X726100Y-180800D02*
Y-175800D01*
X727366D01*
X727873Y-176050D01*
X728253Y-176383D01*
X728570Y-176883D01*
X728823Y-177467D01*
X728886Y-178300D01*
X728823Y-179133D01*
X728570Y-179717D01*
X728253Y-180217D01*
X727873Y-180550D01*
X727366Y-180800D01*
X726100D01*
G01X733858D02*
X731325D01*
Y-175800D01*
X733858D01*
G01X732845Y-178217D02*
X731325D01*
G01X736360Y-180134D02*
X736867Y-180550D01*
X737437Y-180800D01*
X737943D01*
X738450Y-180550D01*
X738830Y-180134D01*
X739020Y-179550D01*
X738893Y-178967D01*
X738576Y-178467D01*
X738007Y-178133D01*
X737247Y-177967D01*
X736804Y-177633D01*
X736614Y-177050D01*
X736740Y-176467D01*
X737057Y-176050D01*
X737500Y-175800D01*
X737943D01*
X738386Y-175967D01*
X738766Y-176383D01*
G01X742028Y-175800D02*
X743548D01*
G01X742788D02*
Y-180800D01*
G01X742028D02*
X743548D01*
G01X748267Y-178300D02*
X749533D01*
Y-179800D01*
X749153Y-180300D01*
X748710Y-180633D01*
X748077Y-180800D01*
X747444Y-180633D01*
X747000Y-180300D01*
X746620Y-179800D01*
X746367Y-179217D01*
X746240Y-178550D01*
Y-177967D01*
X746367Y-177467D01*
X746620Y-176883D01*
X747000Y-176383D01*
X747380Y-176050D01*
X747887Y-175800D01*
X748330D01*
X748837Y-175967D01*
X749216Y-176300D01*
G01X751529Y-180800D02*
Y-175800D01*
X754442Y-180800D01*
Y-175800D01*
G01X759350Y-180800D02*
X756817D01*
Y-175800D01*
X759350D01*
G01X758337Y-178217D02*
X756817D01*
G01X761916Y-180800D02*
Y-175800D01*
X763499D01*
X764005Y-176050D01*
X764322Y-176383D01*
X764448Y-177050D01*
X764322Y-177717D01*
X763942Y-178133D01*
X763499Y-178383D01*
X761916D01*
G01X763499D02*
X764448Y-180800D01*
G01X768280Y-180967D02*
X768154Y-180883D01*
Y-180717D01*
X768280Y-180633D01*
X768407Y-180717D01*
Y-180883D01*
X768280Y-180967D01*
G01Y-178717D02*
X768154Y-178633D01*
Y-178467D01*
X768280Y-178383D01*
X768407Y-178467D01*
Y-178633D01*
X768280Y-178717D01*
G01X717483Y-187000D02*
Y-193300D01*
X720617D01*
G01X723705Y-195190D02*
X724175Y-195400D01*
X724802Y-195190D01*
X725193Y-194770D01*
X725507Y-194245D01*
X725977Y-192565D01*
X726995Y-189100D01*
G01X724488D02*
X725977Y-192565D01*
G01X730318Y-193300D02*
Y-189100D01*
G01Y-190150D02*
X730632Y-189625D01*
X731102Y-189205D01*
X731728Y-189100D01*
X732277Y-189205D01*
X732747Y-189625D01*
X732982Y-190360D01*
Y-193300D01*
G01X736618D02*
Y-189100D01*
G01Y-190150D02*
X736932Y-189625D01*
X737402Y-189205D01*
X738028Y-189100D01*
X738577Y-189205D01*
X739047Y-189625D01*
X739282Y-190360D01*
Y-193300D01*
G01X748200Y-187000D02*
X749297Y-193300D01*
X750550Y-187000D01*
X751803Y-193300D01*
X752900Y-187000D01*
G01X756850Y-189100D02*
Y-193300D01*
G01Y-187420D02*
X756693Y-187315D01*
Y-187105D01*
X756850Y-187000D01*
X757007Y-187105D01*
Y-187315D01*
X756850Y-187420D01*
G01X763150Y-187000D02*
Y-193300D01*
G01X762053Y-189100D02*
X764247D01*
G01X769450Y-187000D02*
Y-193300D01*
G01X768353Y-189100D02*
X770547D01*
G01X774575Y-190465D02*
X777082D01*
X776847Y-189730D01*
X776455Y-189310D01*
X775907Y-189100D01*
X775358Y-189205D01*
X774888Y-189520D01*
X774575Y-190255D01*
X774418Y-190885D01*
Y-191515D01*
X774575Y-192145D01*
X774967Y-192775D01*
X775437Y-193195D01*
X775985Y-193300D01*
X776533Y-193090D01*
X777082Y-192460D01*
G01X780953Y-193300D02*
Y-189100D01*
G01Y-189940D02*
X781345Y-189520D01*
X781737Y-189205D01*
X782285Y-189100D01*
X782677Y-189205D01*
X783147Y-189520D01*
G01X799106Y-177133D02*
X799360Y-176883D01*
X799549Y-176467D01*
X799676Y-175883D01*
X799549Y-175383D01*
X799296Y-175050D01*
X798853Y-174800D01*
X797143D01*
Y-179800D01*
X799233D01*
X799676Y-179467D01*
X799929Y-178967D01*
X800056Y-178383D01*
X799929Y-177800D01*
X799549Y-177300D01*
X799106Y-177133D01*
X797143D01*
G01X803698Y-179800D02*
X803191Y-179717D01*
X802748Y-179383D01*
X802368Y-178883D01*
X802115Y-178300D01*
X801988Y-177633D01*
Y-176967D01*
X802115Y-176300D01*
X802368Y-175717D01*
X802748Y-175217D01*
X803191Y-174883D01*
X803698Y-174800D01*
X804204Y-174883D01*
X804648Y-175217D01*
X805028Y-175717D01*
X805281Y-176300D01*
X805408Y-176967D01*
Y-177633D01*
X805281Y-178300D01*
X805028Y-178883D01*
X804648Y-179383D01*
X804204Y-179717D01*
X803698Y-179800D01*
G01X807213D02*
X808796Y-174800D01*
X810380Y-179800D01*
G01X809810Y-178050D02*
X807783D01*
G01X812628Y-179800D02*
Y-174800D01*
X814211D01*
X814718Y-175050D01*
X815035Y-175383D01*
X815161Y-176050D01*
X815035Y-176717D01*
X814655Y-177133D01*
X814211Y-177383D01*
X812628D01*
G01X814211D02*
X815161Y-179800D01*
G01X817600D02*
Y-174800D01*
X818866D01*
X819373Y-175050D01*
X819753Y-175383D01*
X820070Y-175883D01*
X820323Y-176467D01*
X820386Y-177300D01*
X820323Y-178133D01*
X820070Y-178717D01*
X819753Y-179217D01*
X819373Y-179550D01*
X818866Y-179800D01*
X817600D01*
G01X827924D02*
Y-174800D01*
X829507D01*
X830013Y-175050D01*
X830330Y-175383D01*
X830456Y-176050D01*
X830330Y-176717D01*
X829950Y-177133D01*
X829507Y-177383D01*
X827924D01*
G01X829507D02*
X830456Y-179800D01*
G01X835555D02*
X833022D01*
Y-174800D01*
X835555D01*
G01X834542Y-177217D02*
X833022D01*
G01X837804Y-174800D02*
X839387Y-179800D01*
X840970Y-174800D01*
G01X844485Y-179967D02*
X844358Y-179883D01*
Y-179717D01*
X844485Y-179633D01*
X844612Y-179717D01*
Y-179883D01*
X844485Y-179967D01*
G01Y-177717D02*
X844358Y-177633D01*
Y-177467D01*
X844485Y-177383D01*
X844612Y-177467D01*
Y-177633D01*
X844485Y-177717D01*
G01X797333Y-148300D02*
Y-153300D01*
X799866D01*
G01X802115D02*
X803698Y-148300D01*
X805281Y-153300D01*
G01X804711Y-151550D02*
X802685D01*
G01X808796Y-153300D02*
Y-151050D01*
X807530Y-148300D01*
G01X810063D02*
X808796Y-151050D01*
G01X815161Y-153300D02*
X812628D01*
Y-148300D01*
X815161D01*
G01X814148Y-150717D02*
X812628D01*
G01X817727Y-153300D02*
Y-148300D01*
X819310D01*
X819816Y-148550D01*
X820133Y-148883D01*
X820260Y-149550D01*
X820133Y-150217D01*
X819753Y-150633D01*
X819310Y-150883D01*
X817727D01*
G01X819310D02*
X820260Y-153300D01*
G01X827797D02*
Y-148300D01*
X829063D01*
X829570Y-148550D01*
X829950Y-148883D01*
X830267Y-149383D01*
X830520Y-149967D01*
X830583Y-150800D01*
X830520Y-151633D01*
X830267Y-152217D01*
X829950Y-152717D01*
X829570Y-153050D01*
X829063Y-153300D01*
X827797D01*
G01X835555D02*
X833022D01*
Y-148300D01*
X835555D01*
G01X834542Y-150717D02*
X833022D01*
G01X838057Y-152634D02*
X838564Y-153050D01*
X839134Y-153300D01*
X839640D01*
X840147Y-153050D01*
X840527Y-152634D01*
X840717Y-152050D01*
X840590Y-151467D01*
X840273Y-150967D01*
X839703Y-150633D01*
X838944Y-150467D01*
X838500Y-150133D01*
X838310Y-149550D01*
X838437Y-148967D01*
X838754Y-148550D01*
X839197Y-148300D01*
X839640D01*
X840083Y-148467D01*
X840463Y-148883D01*
G01X845878Y-148717D02*
X845498Y-148467D01*
X845055Y-148300D01*
X844549D01*
X843979Y-148550D01*
X843535Y-148967D01*
X843219Y-149467D01*
X842965Y-150300D01*
X842902Y-151050D01*
X843029Y-151800D01*
X843219Y-152300D01*
X843599Y-152800D01*
X844042Y-153133D01*
X844485Y-153300D01*
X844928D01*
X845372Y-153133D01*
X845752Y-152883D01*
X846068Y-152550D01*
G01X848317Y-153300D02*
Y-148300D01*
X849900D01*
X850407Y-148550D01*
X850723Y-148883D01*
X850850Y-149550D01*
X850723Y-150217D01*
X850344Y-150633D01*
X849900Y-150883D01*
X848317D01*
G01X849900D02*
X850850Y-153300D01*
G01X853922Y-148300D02*
X855442D01*
G01X854682D02*
Y-153300D01*
G01X853922D02*
X855442D01*
G01X858514D02*
Y-148300D01*
X860034D01*
X860540Y-148550D01*
X860920Y-149133D01*
X861047Y-149800D01*
X860920Y-150467D01*
X860604Y-150967D01*
X860034Y-151217D01*
X858514D01*
G01X864879Y-148300D02*
Y-153300D01*
G01X863423Y-148300D02*
X866335D01*
G01X869217D02*
X870737D01*
G01X869977D02*
Y-153300D01*
G01X869217D02*
X870737D01*
G01X875076D02*
X874569Y-153217D01*
X874126Y-152883D01*
X873746Y-152383D01*
X873492Y-151800D01*
X873366Y-151133D01*
Y-150467D01*
X873492Y-149800D01*
X873746Y-149217D01*
X874126Y-148717D01*
X874569Y-148383D01*
X875076Y-148300D01*
X875582Y-148383D01*
X876025Y-148717D01*
X876405Y-149217D01*
X876659Y-149800D01*
X876785Y-150467D01*
Y-151133D01*
X876659Y-151800D01*
X876405Y-152383D01*
X876025Y-152883D01*
X875582Y-153217D01*
X875076Y-153300D01*
G01X878718D02*
Y-148300D01*
X881630Y-153300D01*
Y-148300D01*
G01X885272Y-153467D02*
X885146Y-153383D01*
Y-153217D01*
X885272Y-153133D01*
X885399Y-153217D01*
Y-153383D01*
X885272Y-153467D01*
G01Y-151217D02*
X885146Y-151133D01*
Y-150967D01*
X885272Y-150883D01*
X885399Y-150967D01*
Y-151133D01*
X885272Y-151217D01*
G01X816905Y-165800D02*
X820195Y-159500D01*
G01X816905D02*
X820195Y-165800D01*
G01X828242Y-192800D02*
X830200Y-186500D01*
X832158Y-192800D01*
G01X831453Y-190595D02*
X828947D01*
G01X828905Y-162860D02*
X829532Y-163385D01*
X830237Y-163700D01*
X830863D01*
X831490Y-163385D01*
X831960Y-162860D01*
X832195Y-162125D01*
X832038Y-161390D01*
X831647Y-160760D01*
X830942Y-160340D01*
X830002Y-160130D01*
X829453Y-159710D01*
X829218Y-158975D01*
X829375Y-158240D01*
X829767Y-157715D01*
X830315Y-157400D01*
X830863D01*
X831412Y-157610D01*
X831882Y-158135D01*
G01X836850Y-163700D02*
X836223Y-163595D01*
X835675Y-163175D01*
X835205Y-162545D01*
X834892Y-161810D01*
X834735Y-160970D01*
Y-160130D01*
X834892Y-159290D01*
X835205Y-158555D01*
X835675Y-157925D01*
X836223Y-157505D01*
X836850Y-157400D01*
X837477Y-157505D01*
X838025Y-157925D01*
X838495Y-158555D01*
X838808Y-159290D01*
X838965Y-160130D01*
Y-160970D01*
X838808Y-161810D01*
X838495Y-162545D01*
X838025Y-163175D01*
X837477Y-163595D01*
X836850Y-163700D01*
G01X841583Y-157400D02*
Y-163700D01*
X844717D01*
G01X847727D02*
Y-157400D01*
X849293D01*
X849920Y-157715D01*
X850390Y-158135D01*
X850782Y-158765D01*
X851095Y-159500D01*
X851173Y-160550D01*
X851095Y-161600D01*
X850782Y-162335D01*
X850390Y-162965D01*
X849920Y-163385D01*
X849293Y-163700D01*
X847727D01*
G01X857317D02*
X854183D01*
Y-157400D01*
X857317D01*
G01X856063Y-160445D02*
X854183D01*
G01X860483Y-163700D02*
Y-157400D01*
X862442D01*
X863068Y-157715D01*
X863460Y-158135D01*
X863617Y-158975D01*
X863460Y-159815D01*
X862990Y-160340D01*
X862442Y-160655D01*
X860483D01*
G01X862442D02*
X863617Y-163700D01*
G01X866783D02*
Y-157400D01*
X868663D01*
X869290Y-157715D01*
X869760Y-158450D01*
X869917Y-159290D01*
X869760Y-160130D01*
X869368Y-160760D01*
X868663Y-161075D01*
X866783D01*
G01X872692Y-163700D02*
X874650Y-157400D01*
X876608Y-163700D01*
G01X875903Y-161495D02*
X873397D01*
G01X879305Y-162860D02*
X879932Y-163385D01*
X880637Y-163700D01*
X881263D01*
X881890Y-163385D01*
X882360Y-162860D01*
X882595Y-162125D01*
X882438Y-161390D01*
X882047Y-160760D01*
X881342Y-160340D01*
X880402Y-160130D01*
X879853Y-159710D01*
X879618Y-158975D01*
X879775Y-158240D01*
X880167Y-157715D01*
X880715Y-157400D01*
X881263D01*
X881812Y-157610D01*
X882282Y-158135D01*
G01X887250Y-157400D02*
Y-163700D01*
G01X885448Y-157400D02*
X889052D01*
G01X895117Y-163700D02*
X891983D01*
Y-157400D01*
X895117D01*
G01X893863Y-160445D02*
X891983D01*
G01X906150Y-157400D02*
Y-163700D01*
G01X904348Y-157400D02*
X907952D01*
G01X912450Y-163700D02*
X911823Y-163595D01*
X911275Y-163175D01*
X910805Y-162545D01*
X910492Y-161810D01*
X910335Y-160970D01*
Y-160130D01*
X910492Y-159290D01*
X910805Y-158555D01*
X911275Y-157925D01*
X911823Y-157505D01*
X912450Y-157400D01*
X913077Y-157505D01*
X913625Y-157925D01*
X914095Y-158555D01*
X914408Y-159290D01*
X914565Y-160130D01*
Y-160970D01*
X914408Y-161810D01*
X914095Y-162545D01*
X913625Y-163175D01*
X913077Y-163595D01*
X912450Y-163700D01*
G01X917183D02*
Y-157400D01*
X919063D01*
X919690Y-157715D01*
X920160Y-158450D01*
X920317Y-159290D01*
X920160Y-160130D01*
X919768Y-160760D01*
X919063Y-161075D01*
X917183D01*
G01X871333Y-179800D02*
Y-174800D01*
X872916D01*
X873423Y-175050D01*
X873739Y-175383D01*
X873866Y-176050D01*
X873739Y-176717D01*
X873359Y-177133D01*
X872916Y-177383D01*
X871333D01*
G01X872916D02*
X873866Y-179800D01*
G01X878964D02*
X876432D01*
Y-174800D01*
X878964D01*
G01X877951Y-177217D02*
X876432D01*
G01X881530Y-174800D02*
Y-179800D01*
X884063D01*
G01X889161D02*
X886628D01*
Y-174800D01*
X889161D01*
G01X888148Y-177217D02*
X886628D01*
G01X891410Y-179800D02*
X892993Y-174800D01*
X894576Y-179800D01*
G01X894006Y-178050D02*
X891980D01*
G01X896762Y-179134D02*
X897268Y-179550D01*
X897838Y-179800D01*
X898345D01*
X898852Y-179550D01*
X899231Y-179134D01*
X899421Y-178550D01*
X899295Y-177967D01*
X898978Y-177467D01*
X898408Y-177133D01*
X897648Y-176967D01*
X897205Y-176633D01*
X897015Y-176050D01*
X897142Y-175467D01*
X897458Y-175050D01*
X897902Y-174800D01*
X898345D01*
X898788Y-174967D01*
X899168Y-175383D01*
G01X904456Y-179800D02*
X901924D01*
Y-174800D01*
X904456D01*
G01X903443Y-177217D02*
X901924D01*
G01X911994Y-179800D02*
Y-174800D01*
X913260D01*
X913767Y-175050D01*
X914147Y-175383D01*
X914463Y-175883D01*
X914717Y-176467D01*
X914780Y-177300D01*
X914717Y-178133D01*
X914463Y-178717D01*
X914147Y-179217D01*
X913767Y-179550D01*
X913260Y-179800D01*
X911994D01*
G01X916902D02*
X918485Y-174800D01*
X920068Y-179800D01*
G01X919498Y-178050D02*
X917472D01*
G01X923584Y-174800D02*
Y-179800D01*
G01X922127Y-174800D02*
X925040D01*
G01X929948Y-179800D02*
X927416D01*
Y-174800D01*
X929948D01*
G01X928935Y-177217D02*
X927416D01*
G01X933780Y-179967D02*
X933654Y-179883D01*
Y-179717D01*
X933780Y-179633D01*
X933907Y-179717D01*
Y-179883D01*
X933780Y-179967D01*
G01Y-177717D02*
X933654Y-177633D01*
Y-177467D01*
X933780Y-177383D01*
X933907Y-177467D01*
Y-177633D01*
X933780Y-177717D01*
G01X871207Y-124800D02*
Y-119800D01*
G01X873613D02*
X871207Y-122883D01*
G01X873993Y-124800D02*
X872283Y-121467D01*
G01X876368Y-124134D02*
X876875Y-124550D01*
X877445Y-124800D01*
X877951D01*
X878458Y-124550D01*
X878838Y-124134D01*
X879028Y-123550D01*
X878901Y-122967D01*
X878584Y-122467D01*
X878015Y-122133D01*
X877255Y-121967D01*
X876812Y-121633D01*
X876622Y-121050D01*
X876748Y-120467D01*
X877065Y-120050D01*
X877508Y-119800D01*
X877951D01*
X878394Y-119967D01*
X878775Y-120383D01*
G01X882037Y-119800D02*
X883556D01*
G01X882796D02*
Y-124800D01*
G01X882037D02*
X883556D01*
G01X886502D02*
Y-119800D01*
X887768D01*
X888275Y-120050D01*
X888655Y-120383D01*
X888971Y-120883D01*
X889225Y-121467D01*
X889288Y-122300D01*
X889225Y-123133D01*
X888971Y-123717D01*
X888655Y-124217D01*
X888275Y-124550D01*
X887768Y-124800D01*
X886502D01*
G01X892993Y-124967D02*
X892866Y-124883D01*
Y-124717D01*
X892993Y-124633D01*
X893120Y-124717D01*
Y-124883D01*
X892993Y-124967D01*
G01Y-122717D02*
X892866Y-122633D01*
Y-122467D01*
X892993Y-122383D01*
X893120Y-122467D01*
Y-122633D01*
X892993Y-122717D01*
G01X884663Y-192800D02*
Y-186500D01*
X886700Y-191750D01*
X888737Y-186500D01*
Y-192800D01*
G01X891042D02*
X893000Y-186500D01*
X894958Y-192800D01*
G01X894253Y-190595D02*
X891747D01*
G01X897733Y-192800D02*
Y-186500D01*
X899692D01*
X900318Y-186815D01*
X900710Y-187235D01*
X900867Y-188075D01*
X900710Y-188915D01*
X900240Y-189440D01*
X899692Y-189755D01*
X897733D01*
G01X899692D02*
X900867Y-192800D01*
G01X904582Y-190700D02*
X906618D01*
G01X911900Y-192800D02*
Y-186500D01*
X910960Y-187760D01*
G01Y-192800D02*
X912840D01*
G01X916712Y-190175D02*
X917260Y-189440D01*
X917730Y-189020D01*
X918357Y-188810D01*
X918905Y-189020D01*
X919297Y-189440D01*
X919610Y-190070D01*
X919688Y-190805D01*
X919610Y-191435D01*
X919297Y-192065D01*
X918827Y-192590D01*
X918278Y-192800D01*
X917652Y-192590D01*
X917103Y-191960D01*
X916790Y-191015D01*
X916712Y-189965D01*
X916868Y-188600D01*
X917103Y-187865D01*
X917495Y-187130D01*
X918043Y-186605D01*
X918592Y-186500D01*
X919140Y-186710D01*
X919532Y-187235D01*
G01X923482Y-190700D02*
X925518D01*
G01X929312Y-187550D02*
X929782Y-186920D01*
X930330Y-186605D01*
X930957Y-186500D01*
X931740Y-186710D01*
X932288Y-187235D01*
X932445Y-187865D01*
X932367Y-188495D01*
X932053Y-189020D01*
X930487Y-190070D01*
X929782Y-190805D01*
X929312Y-191855D01*
X929155Y-192800D01*
X932445D01*
G01X937100Y-186500D02*
X936473Y-186710D01*
X936003Y-187235D01*
X935690Y-187865D01*
X935455Y-188705D01*
X935377Y-189650D01*
X935455Y-190595D01*
X935690Y-191435D01*
X936003Y-192065D01*
X936473Y-192590D01*
X937100Y-192800D01*
X937727Y-192590D01*
X938197Y-192065D01*
X938510Y-191435D01*
X938745Y-190595D01*
X938823Y-189650D01*
X938745Y-188705D01*
X938510Y-187865D01*
X938197Y-187235D01*
X937727Y-186710D01*
X937100Y-186500D01*
G01X943400Y-192800D02*
Y-186500D01*
X942460Y-187760D01*
G01Y-192800D02*
X944340D01*
G01X949543D02*
X949700Y-191435D01*
X949935Y-190280D01*
X950248Y-189230D01*
X950640Y-188075D01*
X951267Y-186500D01*
X948133D01*
G01X905600Y-137800D02*
Y-131500D01*
X904660Y-132760D01*
G01Y-137800D02*
X906540D01*
G01X911743D02*
X911900Y-136435D01*
X912135Y-135280D01*
X912448Y-134230D01*
X912840Y-133075D01*
X913467Y-131500D01*
X910333D01*
G01X918043Y-137800D02*
X918200Y-136435D01*
X918435Y-135280D01*
X918748Y-134230D01*
X919140Y-133075D01*
X919767Y-131500D01*
X916633D01*
G01X925440Y-137800D02*
Y-131500D01*
X922542Y-136015D01*
X926458D01*
G01X929077Y-136855D02*
X929547Y-137380D01*
X930095Y-137695D01*
X930800Y-137800D01*
X931505Y-137590D01*
X932053Y-137170D01*
X932445Y-136435D01*
X932523Y-135595D01*
X932367Y-134755D01*
X931975Y-134230D01*
X931427Y-133810D01*
X930878Y-133705D01*
X930330Y-133810D01*
X929625Y-134230D01*
X929860Y-131500D01*
X931975D01*
G01X973770Y-179134D02*
X974276Y-179550D01*
X974846Y-179800D01*
X975353D01*
X975860Y-179550D01*
X976239Y-179134D01*
X976429Y-178550D01*
X976303Y-177967D01*
X975986Y-177467D01*
X975416Y-177133D01*
X974656Y-176967D01*
X974213Y-176633D01*
X974023Y-176050D01*
X974150Y-175467D01*
X974466Y-175050D01*
X974910Y-174800D01*
X975353D01*
X975796Y-174967D01*
X976176Y-175383D01*
G01X978868Y-179800D02*
Y-174800D01*
G01X981528D02*
Y-179800D01*
G01Y-177300D02*
X978868D01*
G01X986563Y-179800D02*
X984030D01*
Y-174800D01*
X986563D01*
G01X985550Y-177217D02*
X984030D01*
G01X991661Y-179800D02*
X989128D01*
Y-174800D01*
X991661D01*
G01X990648Y-177217D02*
X989128D01*
G01X995493Y-174800D02*
Y-179800D01*
G01X994037Y-174800D02*
X996950D01*
G01X1004234Y-179800D02*
Y-174800D01*
X1007146Y-179800D01*
Y-174800D01*
G01X1009395D02*
Y-178383D01*
X1009649Y-179134D01*
X1010155Y-179633D01*
X1010788Y-179800D01*
X1011422Y-179633D01*
X1011928Y-179134D01*
X1012181Y-178383D01*
Y-174800D01*
G01X1014240Y-179800D02*
Y-174800D01*
X1015887Y-178967D01*
X1017533Y-174800D01*
Y-179800D01*
G01X1021492Y-177133D02*
X1021745Y-176883D01*
X1021935Y-176467D01*
X1022062Y-175883D01*
X1021935Y-175383D01*
X1021682Y-175050D01*
X1021239Y-174800D01*
X1019529D01*
Y-179800D01*
X1021618D01*
X1022062Y-179467D01*
X1022315Y-178967D01*
X1022442Y-178383D01*
X1022315Y-177800D01*
X1021935Y-177300D01*
X1021492Y-177133D01*
X1019529D01*
G01X1027350Y-179800D02*
X1024817D01*
Y-174800D01*
X1027350D01*
G01X1026337Y-177217D02*
X1024817D01*
G01X1029916Y-179800D02*
Y-174800D01*
X1031499D01*
X1032005Y-175050D01*
X1032322Y-175383D01*
X1032448Y-176050D01*
X1032322Y-176717D01*
X1031942Y-177133D01*
X1031499Y-177383D01*
X1029916D01*
G01X1031499D02*
X1032448Y-179800D01*
G01X1036280Y-179967D02*
X1036154Y-179883D01*
Y-179717D01*
X1036280Y-179633D01*
X1036407Y-179717D01*
Y-179883D01*
X1036280Y-179967D01*
G01Y-177717D02*
X1036154Y-177633D01*
Y-177467D01*
X1036280Y-177383D01*
X1036407Y-177467D01*
Y-177633D01*
X1036280Y-177717D01*
G01X973333Y-123800D02*
X973650Y-124300D01*
X974030Y-124633D01*
X974473Y-124800D01*
X974980Y-124633D01*
X975359Y-124300D01*
X975739Y-123800D01*
X975866Y-123133D01*
Y-119800D01*
G01X979698Y-124800D02*
X979191Y-124717D01*
X978748Y-124383D01*
X978368Y-123883D01*
X978115Y-123300D01*
X977988Y-122633D01*
Y-121967D01*
X978115Y-121300D01*
X978368Y-120717D01*
X978748Y-120217D01*
X979191Y-119883D01*
X979698Y-119800D01*
X980204Y-119883D01*
X980648Y-120217D01*
X981028Y-120717D01*
X981281Y-121300D01*
X981408Y-121967D01*
Y-122633D01*
X981281Y-123300D01*
X981028Y-123883D01*
X980648Y-124383D01*
X980204Y-124717D01*
X979698Y-124800D01*
G01X985303Y-122133D02*
X985556Y-121883D01*
X985746Y-121467D01*
X985873Y-120883D01*
X985746Y-120383D01*
X985493Y-120050D01*
X985050Y-119800D01*
X983340D01*
Y-124800D01*
X985430D01*
X985873Y-124467D01*
X986126Y-123967D01*
X986253Y-123383D01*
X986126Y-122800D01*
X985746Y-122300D01*
X985303Y-122133D01*
X983340D01*
G01X993537Y-124800D02*
Y-119800D01*
X996450Y-124800D01*
Y-119800D01*
G01X998699D02*
Y-123383D01*
X998952Y-124134D01*
X999458Y-124633D01*
X1000092Y-124800D01*
X1000725Y-124633D01*
X1001231Y-124134D01*
X1001485Y-123383D01*
Y-119800D01*
G01X1003544Y-124800D02*
Y-119800D01*
X1005190Y-123967D01*
X1006836Y-119800D01*
Y-124800D01*
G01X1010795Y-122133D02*
X1011048Y-121883D01*
X1011238Y-121467D01*
X1011365Y-120883D01*
X1011238Y-120383D01*
X1010985Y-120050D01*
X1010542Y-119800D01*
X1008832D01*
Y-124800D01*
X1010922D01*
X1011365Y-124467D01*
X1011618Y-123967D01*
X1011745Y-123383D01*
X1011618Y-122800D01*
X1011238Y-122300D01*
X1010795Y-122133D01*
X1008832D01*
G01X1016653Y-124800D02*
X1014120D01*
Y-119800D01*
X1016653D01*
G01X1015640Y-122217D02*
X1014120D01*
G01X1019219Y-124800D02*
Y-119800D01*
X1020802D01*
X1021308Y-120050D01*
X1021625Y-120383D01*
X1021752Y-121050D01*
X1021625Y-121717D01*
X1021245Y-122133D01*
X1020802Y-122383D01*
X1019219D01*
G01X1020802D02*
X1021752Y-124800D01*
G01X1025583Y-124967D02*
X1025457Y-124883D01*
Y-124717D01*
X1025583Y-124633D01*
X1025710Y-124717D01*
Y-124883D01*
X1025583Y-124967D01*
G01Y-122717D02*
X1025457Y-122633D01*
Y-122467D01*
X1025583Y-122383D01*
X1025710Y-122467D01*
Y-122633D01*
X1025583Y-122717D01*
G01X989905Y-192800D02*
X993195Y-186500D01*
G01X989905D02*
X993195Y-192800D01*
G01X996205D02*
X999495Y-186500D01*
G01X996205D02*
X999495Y-192800D01*
G01X997950Y-137800D02*
Y-131500D01*
X997010Y-132760D01*
G01Y-137800D02*
X998890D01*
G01X1002527Y-136540D02*
X1002997Y-137275D01*
X1003623Y-137695D01*
X1004328Y-137800D01*
X1004955Y-137695D01*
X1005582Y-137170D01*
X1005973Y-136540D01*
X1006052Y-135910D01*
X1005895Y-135175D01*
X1005347Y-134650D01*
X1004798Y-134440D01*
X1004093D01*
G01X1004798D02*
X1005268Y-134125D01*
X1005660Y-133600D01*
X1005817Y-132970D01*
X1005660Y-132340D01*
X1005268Y-131815D01*
X1004563Y-131500D01*
X1003858Y-131605D01*
X1003153Y-132025D01*
G01X1010550Y-137800D02*
Y-131500D01*
X1009610Y-132760D01*
G01Y-137800D02*
X1011490D01*
G01X1016850D02*
X1017398Y-137695D01*
X1018025Y-137380D01*
X1018417Y-136855D01*
X1018573Y-136120D01*
X1018417Y-135385D01*
X1017947Y-134755D01*
X1017242Y-134440D01*
X1016458D01*
X1015988Y-134230D01*
X1015597Y-133705D01*
X1015440Y-132970D01*
X1015675Y-132235D01*
X1016223Y-131710D01*
X1016850Y-131500D01*
X1017477Y-131710D01*
X1018025Y-132235D01*
X1018260Y-132970D01*
X1018103Y-133705D01*
X1017712Y-134230D01*
X1017242Y-134440D01*
X1016458D01*
X1015753Y-134755D01*
X1015283Y-135385D01*
X1015127Y-136120D01*
X1015283Y-136855D01*
X1015675Y-137380D01*
X1016302Y-137695D01*
X1016850Y-137800D01*
G01X1023150D02*
X1023698Y-137695D01*
X1024325Y-137380D01*
X1024717Y-136855D01*
X1024873Y-136120D01*
X1024717Y-135385D01*
X1024247Y-134755D01*
X1023542Y-134440D01*
X1022758D01*
X1022288Y-134230D01*
X1021897Y-133705D01*
X1021740Y-132970D01*
X1021975Y-132235D01*
X1022523Y-131710D01*
X1023150Y-131500D01*
X1023777Y-131710D01*
X1024325Y-132235D01*
X1024560Y-132970D01*
X1024403Y-133705D01*
X1024012Y-134230D01*
X1023542Y-134440D01*
X1022758D01*
X1022053Y-134755D01*
X1021583Y-135385D01*
X1021427Y-136120D01*
X1021583Y-136855D01*
X1021975Y-137380D01*
X1022602Y-137695D01*
X1023150Y-137800D01*
G01X1029450D02*
Y-131500D01*
X1028510Y-132760D01*
G01Y-137800D02*
X1030390D01*
G01X1010550Y-192800D02*
X1010080Y-192695D01*
X1009610Y-192275D01*
X1009297Y-191540D01*
X1009140Y-190700D01*
X1009297Y-189860D01*
X1009610Y-189125D01*
X1010080Y-188705D01*
X1010550Y-188600D01*
X1011020Y-188705D01*
X1011490Y-189125D01*
X1011803Y-189860D01*
X1011882Y-190700D01*
X1011803Y-191540D01*
X1011490Y-192275D01*
X1011020Y-192695D01*
X1010550Y-192800D01*
G01X1016380D02*
Y-187445D01*
X1016537Y-186920D01*
X1016850Y-186605D01*
X1017320Y-186500D01*
X1017790Y-186710D01*
X1018025Y-187235D01*
G01X1017085Y-189020D02*
X1015518D01*
G01X1027905Y-192800D02*
X1031195Y-186500D01*
G01X1027905D02*
X1031195Y-192800D01*
G01X1034205D02*
X1037495Y-186500D01*
G01X1034205D02*
X1037495Y-192800D01*
G54D35*
X242250Y35600D03*
Y45800D03*
X246000D03*
Y35600D03*
X249750D03*
Y45800D03*
G54D26*
X123750Y32000D03*
Y45500D03*
X136250Y32000D03*
Y45500D03*
G54D17*
X71000Y47650D03*
Y36250D03*
Y60000D03*
Y71400D03*
G54D45*
G01X468200Y-196800D02*
X1058200D01*
Y-114300D01*
X428200D01*
Y-196800D01*
X588200D01*
Y-114300D01*
G01Y-116800D02*
Y-196800D01*
G01Y-141800D02*
X1058200D01*
Y-169300D01*
X588200D01*
G01X701700D02*
Y-196800D01*
G01X793200D02*
Y-141800D01*
G01X866950Y-196800D02*
Y-169300D01*
G01X867200Y-114300D02*
Y-141800D01*
G01X969450Y-169300D02*
Y-196800D01*
G01X969200Y-114300D02*
Y-141800D01*
G54D18*
X66500Y96907D03*
Y160293D03*
G54D27*
X149720Y36441D03*
Y41559D03*
X156251D03*
Y39000D03*
Y36441D03*
X170449Y35641D03*
Y38200D03*
Y40759D03*
X176980D03*
Y35641D03*
X187149Y35441D03*
Y38000D03*
Y40559D03*
X193680D03*
Y35441D03*
G54D36*
X243200Y63400D03*
Y69600D03*
X254450Y63400D03*
Y69600D03*
G54D28*
X146888Y73167D03*
Y71198D03*
Y69230D03*
Y67261D03*
Y65293D03*
Y83009D03*
Y81041D03*
Y79072D03*
Y77104D03*
Y75135D03*
G54D19*
X89750Y64650D03*
X94750D03*
Y84250D03*
X89750D03*
X99750Y64650D03*
X104750D03*
Y84250D03*
X99750D03*
G54D37*
X234050Y130700D03*
X245450D03*
X234050Y145700D03*
X245450D03*
X234050Y160700D03*
X245450D03*
X234050Y175700D03*
X245450D03*
X257800Y130700D03*
Y145700D03*
Y160700D03*
Y175700D03*
X269200Y130700D03*
Y145700D03*
Y160700D03*
Y175700D03*
G54D29*
X149670Y138605D03*
X152033D03*
X188070Y175405D03*
X190433D03*
X192470Y135005D03*
X194833D03*
X202833D03*
X200470D03*
X200870Y175405D03*
X203233D03*
X194470D03*
X196833D03*
X210433Y135005D03*
X208070D03*
X208833Y175405D03*
X206470D03*
G54D38*
X254174Y84974D03*
Y83400D03*
Y81825D03*
Y80250D03*
Y78675D03*
Y77100D03*
Y75526D03*
X252600Y84974D03*
Y83400D03*
Y81825D03*
Y80250D03*
Y78675D03*
Y77100D03*
Y75526D03*
X251025Y84974D03*
Y83400D03*
Y81825D03*
Y80250D03*
Y78675D03*
Y77100D03*
Y75526D03*
X249450Y84974D03*
Y83400D03*
Y81825D03*
Y80250D03*
Y78675D03*
Y77100D03*
Y75526D03*
X247875Y84974D03*
Y83400D03*
Y81825D03*
Y80250D03*
Y78675D03*
Y77100D03*
Y75526D03*
X246300Y84974D03*
Y83400D03*
Y81825D03*
Y80250D03*
Y78675D03*
Y77100D03*
Y75526D03*
X244726Y84974D03*
Y83400D03*
Y81825D03*
Y80250D03*
Y78675D03*
Y77100D03*
Y75526D03*
G54D39*
X248950Y96500D03*
M02*
