G04 ================== begin FILE IDENTIFICATION RECORD ==================*
G04 Layout Name:  R:/nHD EVM Rev2/LAYOUT/03-16-17/nHD EVM Rev2 031617.brd*
G04 Film Name:    PLACE_BOTH*
G04 File Format:  Gerber RS274X*
G04 File Origin:  Cadence Allegro 16.6-2015-S082*
G04 Origin Date:  Thu Mar 16 08:39:42 2017*
G04 *
G04 Layer:  BOARD GEOMETRY/DAUGHTER*
G04 Layer:  BOARD GEOMETRY/DXF_ASTRO*
G04 Layer:  BOARD GEOMETRY/TOP_ROOM*
G04 Layer:  ROUTE KEEPIN/ALL*
G04 Layer:  PIN/BOTTOM*
G04 Layer:  PIN/TOP*
G04 Layer:  PACKAGE GEOMETRY/ASSEMBLY_TOP*
G04 Layer:  PACKAGE GEOMETRY/ASSEMBLY_BOTTOM*
G04 Layer:  PACKAGE GEOMETRY/PLACE_BOUND_TOP*
G04 Layer:  PACKAGE GEOMETRY/PLACE_BOUND_BOTTOM*
G04 Layer:  DRAWING FORMAT/TITLE_TOP*
G04 Layer:  BOARD GEOMETRY/OUTLINE*
G04 *
G04 Offset:    (0.000 0.000)*
G04 Mirror:    No*
G04 Mode:      Positive*
G04 Rotation:  0*
G04 FullContactRelief:  No*
G04 UndefLineWidth:     0.000*
G04 ================== end FILE IDENTIFICATION RECORD ====================*
%FSLAX25Y25*MOIN*%
%IR0*IPPOS*OFA0.00000B0.00000*MIA0B0*SFA1.00000B1.00000*%
%ADD11O,.07X.15*%
%ADD14O,.15X.07*%
%ADD18O,.07X.18*%
%ADD27R,.115X.062*%
%ADD51R,.062X.115*%
%ADD52C,.009*%
%AMMACRO39*
4,1,8,-.0065,.005,
-.0065,-.0015,
-.002,-.007,
.002,-.007,
.0065,-.0015,
.0065,.005,
.0045,.007,
-.0045,.007,
-.0065,.005,
0.0*
%
%ADD39MACRO39*%
%AMMACRO33*
4,1,8,.005,.0065,
-.0015,.0065,
-.007,.002,
-.007,-.002,
-.0015,-.0065,
.005,-.0065,
.007,-.0045,
.007,.0045,
.005,.0065,
0.0*
%
%ADD33MACRO33*%
%AMMACRO48*
4,1,8,-.005,.0065,
.0015,.0065,
.007,.002,
.007,-.002,
.0015,-.0065,
-.005,-.0065,
-.007,-.0045,
-.007,.0045,
-.005,.0065,
0.0*
%
%ADD48MACRO48*%
%AMMACRO53*
4,1,8,.0225,-.065,
-.0225,-.065,
-.0225,.065,
.0225,.065,
.0225,.04,
.0025,.04,
.0025,-.04,
.0225,-.04,
.0225,-.065,
0.0*
%
%ADD53MACRO53*%
%ADD24R,.047244X.009449*%
%ADD26R,.04X.03*%
%ADD35R,.03X.04*%
%ADD32R,.012X.014*%
%ADD37R,.014X.012*%
%ADD15R,.05X.06*%
%ADD41R,.05X.017*%
%ADD44R,.08X.025*%
%ADD36C,.01*%
%ADD31R,.025X.08*%
%ADD17C,.02*%
%ADD40R,.064X.062*%
%ADD20C,.04*%
%ADD23C,.032*%
%ADD10C,.05*%
%ADD13C,.06*%
%ADD45C,.016*%
%ADD21C,.07*%
%ADD19R,.039X.027*%
%ADD50R,.027X.039*%
%AMMACRO38*
4,1,8,.0065,-.005,
.0065,.0015,
.002,.007,
-.002,.007,
-.0065,.0015,
-.0065,-.005,
-.0045,-.007,
.0045,-.007,
.0065,-.005,
0.0*
%
%ADD38MACRO38*%
%AMMACRO34*
4,1,8,-.005,-.0065,
.0015,-.0065,
.007,-.002,
.007,.002,
.0015,.0065,
-.005,.0065,
-.007,.0045,
-.007,-.0045,
-.005,-.0065,
0.0*
%
%ADD34MACRO34*%
%ADD16R,.02X.02*%
%AMMACRO47*
4,1,8,.005,-.0065,
-.0015,-.0065,
-.007,-.002,
-.007,.002,
-.0015,.0065,
.005,.0065,
.007,.0045,
.007,-.0045,
.005,-.0065,
0.0*
%
%ADD47MACRO47*%
%ADD12R,.06X.06*%
%ADD22R,.07X.07*%
%ADD29C,.023622*%
%ADD42R,.055118X.011811*%
%ADD46R,.041339X.023622*%
%ADD30R,.047244X.055118*%
%ADD25R,.035433X.059055*%
%AMMACRO54*
4,1,8,-.0225,.065,
.0225,.065,
.0225,-.065,
-.0225,-.065,
-.0225,-.04,
-.0025,-.04,
-.0025,.04,
-.0225,.04,
-.0225,.065,
0.0*
%
%ADD54MACRO54*%
%ADD49R,.015748X.035433*%
%ADD28R,.07874X.059055*%
%ADD43R,.086614X.062992*%
%ADD55R,.025591X.019689*%
%ADD56C,.003*%
%ADD57C,.004*%
%ADD58C,.005*%
%ADD59C,.006*%
%ADD60C,.007*%
%ADD61C,.008*%
%ADD62C,.005512*%
%ADD63C,.006059*%
%ADD64C,.00598*%
%ADD65C,.015748*%
G75*
%LPD*%
G75*
G36*
G01X45500Y34200D02*
X-12500D01*
Y72200D01*
X45500D01*
Y34200D01*
G37*
G36*
G01X22400Y24800D02*
G03I-6500J0D01*
G37*
G36*
G01X17500Y27800D02*
G03I-6500J0D01*
G37*
G36*
G01X21500Y190000D02*
G03I-6500J0D01*
G37*
G36*
G01X253700Y2500D02*
Y22500D01*
X23700D01*
Y2500D01*
X253700D01*
G37*
G36*
G01X27100Y171450D02*
X29900D01*
Y177450D01*
X27100D01*
Y171450D01*
G37*
G36*
G01X253700Y192500D02*
Y212500D01*
X23700D01*
Y192500D01*
X253700D01*
G37*
G36*
G01X28750Y184450D02*
G03I-1500J0D01*
G37*
G36*
G01X42200Y106100D02*
X45000D01*
Y112100D01*
X42200D01*
Y106100D01*
G37*
G36*
G01X50100Y114800D02*
G02I-3600J0D01*
G37*
G36*
G01X45000Y131900D02*
X42200D01*
Y125900D01*
X45000D01*
Y131900D01*
G37*
G36*
G01X50100Y122700D02*
G02I-3600J0D01*
G37*
G36*
G01X45250Y163050D02*
Y165850D01*
X39250D01*
Y163050D01*
X45250D01*
G37*
G36*
G01X58350Y28200D02*
G02I-3600J0D01*
G37*
G36*
G01D02*
G02I-3600J0D01*
G37*
G36*
G01X55378Y162458D02*
X77622D01*
Y94742D01*
X55378D01*
Y162458D01*
G37*
G36*
G01X54900Y104650D02*
Y107450D01*
X60900D01*
Y104650D01*
X54900D01*
G37*
G36*
G01Y107500D02*
Y110300D01*
X60900D01*
Y107500D01*
X54900D01*
G37*
G36*
G01Y110350D02*
Y113150D01*
X60900D01*
Y110350D01*
X54900D01*
G37*
G36*
G01Y113400D02*
Y116200D01*
X60900D01*
Y113400D01*
X54900D01*
G37*
G36*
G01Y121300D02*
Y124100D01*
X60900D01*
Y121300D01*
X54900D01*
G37*
G36*
G01X50500Y170850D02*
Y168050D01*
X56500D01*
Y170850D01*
X50500D01*
G37*
G36*
G01X51250Y172450D02*
Y181450D01*
X63250D01*
Y172450D01*
X51250D01*
G37*
G36*
G01X62550Y186150D02*
X51950D01*
Y182750D01*
X62550D01*
Y186150D01*
G37*
G36*
G01X72100Y176950D02*
G02I-3600J0D01*
G37*
G36*
G01Y109450D02*
Y112250D01*
X78100D01*
Y109450D01*
X72100D01*
G37*
G36*
G01Y105500D02*
Y108300D01*
X78100D01*
Y105500D01*
X72100D01*
G37*
G36*
G01X78100Y120100D02*
Y117300D01*
X72100D01*
Y120100D01*
X78100D01*
G37*
G36*
G01Y126000D02*
Y123200D01*
X72100D01*
Y126000D01*
X78100D01*
G37*
G36*
G01X88800Y124600D02*
G02I-3600J0D01*
G37*
G36*
G01X72100Y133100D02*
Y135900D01*
X78100D01*
Y133100D01*
X72100D01*
G37*
G36*
G01X91150Y61450D02*
X88350D01*
Y67450D01*
X91150D01*
Y61450D01*
G37*
G36*
G01X96150D02*
X93350D01*
Y67450D01*
X96150D01*
Y61450D01*
G37*
G36*
G01Y81450D02*
X93350D01*
Y87450D01*
X96150D01*
Y81450D01*
G37*
G36*
G01X91250Y94000D02*
G03I-1500J0D01*
G37*
G36*
G01X87500D02*
G03I-1500J0D01*
G37*
G36*
G01X83800Y114900D02*
X86600D01*
Y120900D01*
X83800D01*
Y114900D01*
G37*
G36*
G01X89500Y151800D02*
X86700D01*
Y157800D01*
X89500D01*
Y151800D01*
G37*
G36*
G01X95600Y158500D02*
X98400D01*
Y152500D01*
X95600D01*
Y158500D01*
G37*
G36*
G01X96681Y141138D02*
Y145862D01*
X94319D01*
Y141138D01*
X96681D01*
G37*
G36*
G01X91000Y153000D02*
G03I-1500J0D01*
G37*
G36*
G01X93300Y167500D02*
X97100D01*
Y165700D01*
X93300D01*
Y167500D01*
G37*
G36*
G01Y164700D02*
X97100D01*
Y162900D01*
X93300D01*
Y164700D01*
G37*
G36*
G01X87700Y166100D02*
X91500D01*
Y164300D01*
X87700D01*
Y166100D01*
G37*
G36*
G01Y163300D02*
X91500D01*
Y161500D01*
X87700D01*
Y163300D01*
G37*
G36*
G01X93300Y161900D02*
X97100D01*
Y160100D01*
X93300D01*
Y161900D01*
G37*
G36*
G01X87700Y160500D02*
X91500D01*
Y158700D01*
X87700D01*
Y160500D01*
G37*
G36*
G01X93300Y159100D02*
X97100D01*
Y157300D01*
X93300D01*
Y159100D01*
G37*
G36*
G01Y173100D02*
X97100D01*
Y171300D01*
X93300D01*
Y173100D01*
G37*
G36*
G01Y170300D02*
X97100D01*
Y168500D01*
X93300D01*
Y170300D01*
G37*
G36*
G01X87700Y171700D02*
X91500D01*
Y169900D01*
X87700D01*
Y171700D01*
G37*
G36*
G01Y168900D02*
X91500D01*
Y167100D01*
X87700D01*
Y168900D01*
G37*
G36*
G01Y174500D02*
X91500D01*
Y172700D01*
X87700D01*
Y174500D01*
G37*
G36*
G01X101150Y61450D02*
X98350D01*
Y67450D01*
X101150D01*
Y61450D01*
G37*
G36*
G01Y81450D02*
X98350D01*
Y87450D01*
X101150D01*
Y81450D01*
G37*
G36*
G01X106150D02*
X103350D01*
Y87450D01*
X106150D01*
Y81450D01*
G37*
G36*
G01X98100Y96700D02*
X100900D01*
Y102700D01*
X98100D01*
Y96700D01*
G37*
G36*
G01X103500Y151900D02*
Y149100D01*
X97500D01*
Y151900D01*
X103500D01*
G37*
G36*
G01X97500Y143100D02*
Y145900D01*
X103500D01*
Y143100D01*
X97500D01*
G37*
G36*
G01X108200Y152800D02*
Y142200D01*
X104800D01*
Y152800D01*
X108200D01*
G37*
G36*
G01X108888Y143681D02*
X113612D01*
Y141319D01*
X108888D01*
Y143681D01*
G37*
G36*
G01X111681Y149862D02*
Y145138D01*
X109319D01*
Y149862D01*
X111681D01*
G37*
G36*
G01X99681Y141138D02*
Y145862D01*
X97319D01*
Y141138D01*
X99681D01*
G37*
G36*
G01X107181Y165862D02*
Y161138D01*
X104819D01*
Y165862D01*
X107181D01*
G37*
G36*
G01X110181D02*
Y161138D01*
X107819D01*
Y165862D01*
X110181D01*
G37*
G36*
G01X104819Y156138D02*
Y160862D01*
X107181D01*
Y156138D01*
X104819D01*
G37*
G36*
G01X107819D02*
Y160862D01*
X110181D01*
Y156138D01*
X107819D01*
G37*
G36*
G01X105900Y176900D02*
Y173100D01*
X104100D01*
Y176900D01*
X105900D01*
G37*
G36*
G01X111500D02*
Y173100D01*
X109700D01*
Y176900D01*
X111500D01*
G37*
G36*
G01X107300Y182500D02*
Y178700D01*
X105500D01*
Y182500D01*
X107300D01*
G37*
G36*
G01X108700Y176900D02*
Y173100D01*
X106900D01*
Y176900D01*
X108700D01*
G37*
G36*
G01X103100D02*
Y173100D01*
X101300D01*
Y176900D01*
X103100D01*
G37*
G36*
G01X100300D02*
Y173100D01*
X98500D01*
Y176900D01*
X100300D01*
G37*
G36*
G01X101700Y182500D02*
Y178700D01*
X99900D01*
Y182500D01*
X101700D01*
G37*
G36*
G01X104500D02*
Y178700D01*
X102700D01*
Y182500D01*
X104500D01*
G37*
G36*
G01X110100D02*
Y178700D01*
X108300D01*
Y182500D01*
X110100D01*
G37*
G36*
G01X128000Y28750D02*
Y48750D01*
X119500D01*
Y28750D01*
X128000D01*
G37*
G36*
G01X121500Y96100D02*
Y93300D01*
X127500D01*
Y96100D01*
X121500D01*
G37*
G36*
G01X116250Y88300D02*
Y91100D01*
X110250D01*
Y88300D01*
X116250D01*
G37*
G36*
G01X122250Y97700D02*
Y106700D01*
X134250D01*
Y97700D01*
X122250D01*
G37*
G36*
G01X133550Y111400D02*
X122950D01*
Y108000D01*
X133550D01*
Y111400D01*
G37*
G36*
G01X116400Y124250D02*
X113600D01*
Y118250D01*
X116400D01*
Y124250D01*
G37*
G36*
G01X119600Y118000D02*
X122400D01*
Y124000D01*
X119600D01*
Y118000D01*
G37*
G36*
G01X111100Y128250D02*
X113900D01*
Y134250D01*
X111100D01*
Y128250D01*
G37*
G36*
G01X117650Y134250D02*
X114850D01*
Y128250D01*
X117650D01*
Y134250D01*
G37*
G36*
G01X118612Y141319D02*
X113888D01*
Y143681D01*
X118612D01*
Y141319D01*
G37*
G36*
G01X119638Y153181D02*
X124362D01*
Y150819D01*
X119638D01*
Y153181D01*
G37*
G36*
G01Y148181D02*
X124362D01*
Y145819D01*
X119638D01*
Y148181D01*
G37*
G36*
G01Y150681D02*
X124362D01*
Y148319D01*
X119638D01*
Y150681D01*
G37*
G36*
G01Y155681D02*
X124362D01*
Y153319D01*
X119638D01*
Y155681D01*
G37*
G36*
G01X110819Y156138D02*
Y160862D01*
X113181D01*
Y156138D01*
X110819D01*
G37*
G36*
G01X113181Y165862D02*
Y161138D01*
X110819D01*
Y165862D01*
X113181D01*
G37*
G36*
G01X116181D02*
Y161138D01*
X113819D01*
Y165862D01*
X116181D01*
G37*
G36*
G01X119638Y158181D02*
X124362D01*
Y155819D01*
X119638D01*
Y158181D01*
G37*
G36*
G01X113100Y182500D02*
Y178700D01*
X111300D01*
Y182500D01*
X113100D01*
G37*
G36*
G01X114300Y176900D02*
Y173100D01*
X112500D01*
Y176900D01*
X114300D01*
G37*
G36*
G01X124800Y177800D02*
G03I-1500J0D01*
G37*
G36*
G01X122800Y175300D02*
G03I-1500J0D01*
G37*
G36*
G01X118800Y180300D02*
G03I-1500J0D01*
G37*
G36*
G01X120800Y177800D02*
G03I-1500J0D01*
G37*
G36*
G01X122800Y180300D02*
G03I-1500J0D01*
G37*
G36*
G01X118800Y175300D02*
G03I-1500J0D01*
G37*
G36*
G01X124800Y182800D02*
G03I-1500J0D01*
G37*
G36*
G01X120800D02*
G03I-1500J0D01*
G37*
G36*
G01X140500Y28750D02*
Y48750D01*
X132000D01*
Y28750D01*
X140500D01*
G37*
G36*
G01X136000Y83000D02*
G03I-1500J0D01*
G37*
G36*
G01X129500Y85000D02*
G03I-1500J0D01*
G37*
G36*
G01X135869Y75401D02*
G03I-1500J0D01*
G37*
G36*
G01X143100Y102200D02*
G02I-3600J0D01*
G37*
G36*
G01X124100Y118000D02*
X126900D01*
Y124000D01*
X124100D01*
Y118000D01*
G37*
G36*
G01X128600D02*
X131400D01*
Y124000D01*
X128600D01*
Y118000D01*
G37*
G36*
G01X124870Y128130D02*
X127670D01*
Y134130D01*
X124870D01*
Y128130D01*
G37*
G36*
G01X128620D02*
X131420D01*
Y134130D01*
X128620D01*
Y128130D01*
G37*
G36*
G01X130362Y150819D02*
X125638D01*
Y153181D01*
X130362D01*
Y150819D01*
G37*
G36*
G01Y148319D02*
X125638D01*
Y150681D01*
X130362D01*
Y148319D01*
G37*
G36*
G01Y145819D02*
X125638D01*
Y148181D01*
X130362D01*
Y145819D01*
G37*
G36*
G01Y153319D02*
X125638D01*
Y155681D01*
X130362D01*
Y153319D01*
G37*
G36*
G01Y155819D02*
X125638D01*
Y158181D01*
X130362D01*
Y155819D01*
G37*
G36*
G01X130400Y180500D02*
X127600D01*
Y174500D01*
X130400D01*
Y180500D01*
G37*
G36*
G01X130500Y172500D02*
G03I-1500J0D01*
G37*
G36*
G01X126800Y185300D02*
G03I-1500J0D01*
G37*
G36*
G01X146200Y44900D02*
X160200D01*
Y33100D01*
X146200D01*
Y44900D01*
G37*
G36*
G01X148660Y54860D02*
Y93442D01*
X168739D01*
Y54860D01*
X148660D01*
G37*
G36*
G01X146000Y118500D02*
G03I-1500J0D01*
G37*
G36*
G01X152752Y134905D02*
X148952D01*
Y136705D01*
X152752D01*
Y134905D01*
G37*
G36*
G01Y126505D02*
X148952D01*
Y128305D01*
X152752D01*
Y126505D01*
G37*
G36*
G01Y132105D02*
X148952D01*
Y133905D01*
X152752D01*
Y132105D01*
G37*
G36*
G01Y129305D02*
X148952D01*
Y131105D01*
X152752D01*
Y129305D01*
G37*
G36*
G01X148489Y137424D02*
X153214D01*
Y139786D01*
X148489D01*
Y137424D01*
G37*
G36*
G01X148952Y150705D02*
X152752D01*
Y148905D01*
X148952D01*
Y150705D01*
G37*
G36*
G01Y153505D02*
X152752D01*
Y151705D01*
X148952D01*
Y153505D01*
G37*
G36*
G01X152752Y142905D02*
X148952D01*
Y144705D01*
X152752D01*
Y142905D01*
G37*
G36*
G01Y146105D02*
X148952D01*
Y147905D01*
X152752D01*
Y146105D01*
G37*
G36*
G01Y140105D02*
X148952D01*
Y141905D01*
X152752D01*
Y140105D01*
G37*
G36*
G01X148952Y159105D02*
X152752D01*
Y157305D01*
X148952D01*
Y159105D01*
G37*
G36*
G01X152752Y154505D02*
X148952D01*
Y156305D01*
X152752D01*
Y154505D01*
G37*
G36*
G01Y164905D02*
X148952D01*
Y166705D01*
X152752D01*
Y164905D01*
G37*
G36*
G01Y161705D02*
X148952D01*
Y163505D01*
X152752D01*
Y161705D01*
G37*
G36*
G01Y173305D02*
X148952D01*
Y175105D01*
X152752D01*
Y173305D01*
G37*
G36*
G01Y167705D02*
X148952D01*
Y169505D01*
X152752D01*
Y167705D01*
G37*
G36*
G01Y176105D02*
X148952D01*
Y177905D01*
X152752D01*
Y176105D01*
G37*
G36*
G01Y170505D02*
X148952D01*
Y172305D01*
X152752D01*
Y170505D01*
G37*
G36*
G01X140000Y177000D02*
G03I-1500J0D01*
G37*
G36*
G01X163000Y48350D02*
Y45550D01*
X169000D01*
Y48350D01*
X163000D01*
G37*
G36*
G01X159952Y136505D02*
X156152D01*
Y138305D01*
X159952D01*
Y136505D01*
G37*
G36*
G01Y133705D02*
X156152D01*
Y135505D01*
X159952D01*
Y133705D01*
G37*
G36*
G01Y130905D02*
X156152D01*
Y132705D01*
X159952D01*
Y130905D01*
G37*
G36*
G01Y139305D02*
X156152D01*
Y141105D01*
X159952D01*
Y139305D01*
G37*
G36*
G01X156152Y143905D02*
X159952D01*
Y142105D01*
X156152D01*
Y143905D01*
G37*
G36*
G01Y151505D02*
X159952D01*
Y149705D01*
X156152D01*
Y151505D01*
G37*
G36*
G01Y148305D02*
X159952D01*
Y146505D01*
X156152D01*
Y148305D01*
G37*
G36*
G01X159952Y152505D02*
X156152D01*
Y154305D01*
X159952D01*
Y152505D01*
G37*
G36*
G01X162552Y167105D02*
X166352D01*
Y165305D01*
X162552D01*
Y167105D01*
G37*
G36*
G01X156152Y162705D02*
X159952D01*
Y160905D01*
X156152D01*
Y162705D01*
G37*
G36*
G01Y159905D02*
X159952D01*
Y158105D01*
X156152D01*
Y159905D01*
G37*
G36*
G01Y157105D02*
X159952D01*
Y155305D01*
X156152D01*
Y157105D01*
G37*
G36*
G01Y165505D02*
X159952D01*
Y163705D01*
X156152D01*
Y165505D01*
G37*
G36*
G01X159952Y174905D02*
X156152D01*
Y176705D01*
X159952D01*
Y174905D01*
G37*
G36*
G01Y169305D02*
X156152D01*
Y171105D01*
X159952D01*
Y169305D01*
G37*
G36*
G01Y177705D02*
X156152D01*
Y179505D01*
X159952D01*
Y177705D01*
G37*
G36*
G01Y166505D02*
X156152D01*
Y168305D01*
X159952D01*
Y166505D01*
G37*
G36*
G01X160033Y172105D02*
X156233D01*
Y173905D01*
X160033D01*
Y172105D01*
G37*
G36*
G01X180500Y32300D02*
X166500D01*
Y44100D01*
X180500D01*
Y32300D01*
G37*
G36*
G01X179250Y32650D02*
Y29850D01*
X173250D01*
Y32650D01*
X179250D01*
G37*
G36*
G01X170500Y48350D02*
Y45550D01*
X176500D01*
Y48350D01*
X170500D01*
G37*
G36*
G01X174450Y119600D02*
Y98400D01*
X209450D01*
Y119600D01*
X174450D01*
G37*
G36*
G01X169500Y118000D02*
G03I-1500J0D01*
G37*
G36*
G01X163752Y148305D02*
X167552D01*
Y146505D01*
X163752D01*
Y148305D01*
G37*
G36*
G01Y145505D02*
X167552D01*
Y143705D01*
X163752D01*
Y145505D01*
G37*
G36*
G01Y154305D02*
X167552D01*
Y152505D01*
X163752D01*
Y154305D01*
G37*
G36*
G01Y151505D02*
X167552D01*
Y149705D01*
X163752D01*
Y151505D01*
G37*
G36*
G01Y162705D02*
X167552D01*
Y160905D01*
X163752D01*
Y162705D01*
G37*
G36*
G01Y159905D02*
X167552D01*
Y158105D01*
X163752D01*
Y159905D01*
G37*
G36*
G01Y157105D02*
X167552D01*
Y155305D01*
X163752D01*
Y157105D01*
G37*
G36*
G01X197200Y32100D02*
X183200D01*
Y43900D01*
X197200D01*
Y32100D01*
G37*
G36*
G01X178000Y48350D02*
Y45550D01*
X184000D01*
Y48350D01*
X178000D01*
G37*
G36*
G01X182045Y165110D02*
Y160386D01*
X184407D01*
Y165110D01*
X182045D01*
G37*
G36*
G01X186889Y174224D02*
X191614D01*
Y176586D01*
X186889D01*
Y174224D01*
G37*
G36*
G01X215693Y32050D02*
Y44050D01*
X202307D01*
Y32050D01*
X215693D01*
G37*
G36*
G01X202250Y36650D02*
Y39450D01*
X208250D01*
Y36650D01*
X202250D01*
G37*
G36*
G01X203600Y65000D02*
G02I-3600J0D01*
G37*
G36*
G01Y72500D02*
G02I-3600J0D01*
G37*
G36*
G01Y87500D02*
G02I-3600J0D01*
G37*
G36*
G01Y80000D02*
G02I-3600J0D01*
G37*
G36*
G01X196000Y94000D02*
G03I-1500J0D01*
G37*
G36*
G01X202700Y120100D02*
Y122900D01*
X208700D01*
Y120100D01*
X202700D01*
G37*
G36*
G01X191289Y133823D02*
X196014D01*
Y136186D01*
X191289D01*
Y133823D01*
G37*
G36*
G01X204014Y136186D02*
X199289D01*
Y133823D01*
X204014D01*
Y136186D01*
G37*
G36*
G01X199689Y174224D02*
X204414D01*
Y176586D01*
X199689D01*
Y174224D01*
G37*
G36*
G01X193289D02*
X198014D01*
Y176586D01*
X193289D01*
Y174224D01*
G37*
G36*
G01X218950Y28650D02*
Y31450D01*
X212950D01*
Y28650D01*
X218950D01*
G37*
G36*
G01X211614Y136186D02*
X206889D01*
Y133823D01*
X211614D01*
Y136186D01*
G37*
G36*
G01X207600Y158100D02*
X211400D01*
Y159900D01*
X207600D01*
Y158100D01*
G37*
G36*
G01X210014Y176586D02*
X205289D01*
Y174224D01*
X210014D01*
Y176586D01*
G37*
G36*
G01X237100Y35700D02*
G02I-3600J0D01*
G37*
G36*
G01X220668Y31644D02*
X229132D01*
Y37156D01*
X220668D01*
Y31644D01*
G37*
G36*
G01X229950Y66350D02*
Y69150D01*
X223950D01*
Y66350D01*
X229950D01*
G37*
G36*
G01Y70100D02*
Y72900D01*
X223950D01*
Y70100D01*
X229950D01*
G37*
G36*
G01X223000Y84850D02*
Y87650D01*
X217000D01*
Y84850D01*
X223000D01*
G37*
G36*
G01X217000Y80150D02*
Y77350D01*
X223000D01*
Y80150D01*
X217000D01*
G37*
G36*
G01X239750Y85700D02*
X229150D01*
Y82300D01*
X239750D01*
Y85700D01*
G37*
G36*
G01X228090Y80060D02*
G03I-1500J0D01*
G37*
G36*
G01X217000Y95150D02*
Y92350D01*
X223000D01*
Y95150D01*
X217000D01*
G37*
G36*
G01X239750Y90700D02*
X229150D01*
Y87300D01*
X239750D01*
Y90700D01*
G37*
G36*
G01Y95700D02*
X229150D01*
Y92300D01*
X239750D01*
Y95700D01*
G37*
G36*
G01X221100Y110500D02*
X223900D01*
Y104500D01*
X221100D01*
Y110500D01*
G37*
G36*
G01X227181Y141138D02*
Y145862D01*
X224819D01*
Y141138D01*
X227181D01*
G37*
G36*
G01X225069Y171112D02*
Y166388D01*
X227431D01*
Y171112D01*
X225069D01*
G37*
G36*
G01X228750Y183200D02*
G03I-1500J0D01*
G37*
G36*
G01X233950Y69150D02*
Y66350D01*
X239950D01*
Y69150D01*
X233950D01*
G37*
G36*
G01X239950Y70100D02*
Y72900D01*
X233950D01*
Y70100D01*
X239950D01*
G37*
G36*
G01X241500Y71800D02*
Y61200D01*
X244900D01*
Y71800D01*
X241500D01*
G37*
G36*
G01X235950Y61500D02*
G03I-1500J0D01*
G37*
G36*
G01X233950Y76650D02*
Y73850D01*
X239950D01*
Y76650D01*
X233950D01*
G37*
G36*
G01Y77600D02*
Y80400D01*
X239950D01*
Y77600D01*
X233950D01*
G37*
G36*
G01Y80400D02*
Y77600D01*
X239950D01*
Y80400D01*
X233950D01*
G37*
G36*
G01X254600Y35200D02*
X257400D01*
Y41200D01*
X254600D01*
Y35200D01*
G37*
G36*
G01X248350Y70750D02*
X245550D01*
Y64750D01*
X248350D01*
Y70750D01*
G37*
G36*
G01X252100D02*
X249300D01*
Y64750D01*
X252100D01*
Y70750D01*
G37*
G36*
G01X252750Y71800D02*
Y61200D01*
X256150D01*
Y71800D01*
X252750D01*
G37*
G36*
G01X274600Y48200D02*
G02I-3600J0D01*
G37*
G36*
G01D02*
G02I-3600J0D01*
G37*
G36*
G01X268850Y72000D02*
X266050D01*
Y66000D01*
X268850D01*
Y72000D01*
G37*
G36*
G01X263700Y66500D02*
Y81500D01*
X257700D01*
Y66500D01*
X263700D01*
G37*
G36*
G01X269800Y73500D02*
X272600D01*
Y79500D01*
X269800D01*
Y73500D01*
G37*
G36*
G01X263700Y81650D02*
Y78850D01*
X257700D01*
Y81650D01*
X263700D01*
G37*
G36*
G01X262900Y91050D02*
X273500D01*
Y94450D01*
X262900D01*
Y91050D01*
G37*
G36*
G01Y96050D02*
X273500D01*
Y99450D01*
X262900D01*
Y96050D01*
G37*
G36*
G01Y101050D02*
X273500D01*
Y104450D01*
X262900D01*
Y101050D01*
G37*
G36*
G01Y106050D02*
X273500D01*
Y109450D01*
X262900D01*
Y106050D01*
G37*
G36*
G01X281900Y175100D02*
G03I-6500J0D01*
G37*
G36*
G01X286500Y37500D02*
G03I-6500J0D01*
G37*
G36*
G01X283200Y37800D02*
G03I-6500J0D01*
G37*
G36*
G01X32150Y56200D02*
Y41200D01*
X26150D01*
Y56200D01*
X32150D01*
G37*
G36*
G01X49500Y114800D02*
G03I-3000J0D01*
G37*
G36*
G01Y122700D02*
G03I-3000J0D01*
G37*
G36*
G01X71850Y100900D02*
X61250D01*
Y104300D01*
X71850D01*
Y100900D01*
G37*
G36*
G01X71500Y176950D02*
G03I-3000J0D01*
G37*
G36*
G01X88200Y124600D02*
G03I-3000J0D01*
G37*
G36*
G01X74300Y149300D02*
X71500D01*
Y155300D01*
X74300D01*
Y149300D01*
G37*
G36*
G01Y143100D02*
X71500D01*
Y149100D01*
X74300D01*
Y143100D01*
G37*
G36*
G01X125150Y29500D02*
X122350D01*
Y35500D01*
X125150D01*
Y29500D01*
G37*
G36*
G01X134850Y48000D02*
X137650D01*
Y42000D01*
X134850D01*
Y48000D01*
G37*
G36*
G01X142500Y102200D02*
G03I-3000J0D01*
G37*
G36*
G01X181200Y112900D02*
Y110100D01*
X175200D01*
Y112900D01*
X181200D01*
G37*
G36*
G01X175200Y115100D02*
Y117900D01*
X181200D01*
Y115100D01*
X175200D01*
G37*
G36*
G01X203000Y65000D02*
G03I-3000J0D01*
G37*
G36*
G01Y72500D02*
G03I-3000J0D01*
G37*
G36*
G01Y87500D02*
G03I-3000J0D01*
G37*
G36*
G01Y80000D02*
G03I-3000J0D01*
G37*
G36*
G01X202700Y105100D02*
Y107900D01*
X208700D01*
Y105100D01*
X202700D01*
G37*
G36*
G01X236500Y35700D02*
G03I-3000J0D01*
G37*
G36*
G01X33750Y179200D02*
X45750D01*
Y167200D01*
X33750D01*
Y179200D01*
G37*
G36*
G01X61000Y58200D02*
Y38200D01*
X51000D01*
Y58200D01*
X61000D01*
G37*
G36*
G01X48900Y153250D02*
X51900D01*
Y147150D01*
X48900D01*
Y153250D01*
G37*
G36*
G01X76700Y34450D02*
X65300D01*
Y49450D01*
X76700D01*
Y34450D01*
G37*
G36*
G01X65300Y73200D02*
X76700D01*
Y58200D01*
X65300D01*
Y73200D01*
G37*
G36*
G01X89750Y49450D02*
Y29450D01*
X79750D01*
Y49450D01*
X89750D01*
G37*
G36*
G01X74802Y145118D02*
Y159878D01*
X86594D01*
Y145118D01*
X74802D01*
G37*
G36*
G01X101000Y49450D02*
Y29450D01*
X91000D01*
Y49450D01*
X101000D01*
G37*
G36*
G01X87350Y60550D02*
Y88350D01*
X107150D01*
Y60550D01*
X87350D01*
G37*
G36*
G01X91250Y87500D02*
Y81400D01*
X88250D01*
Y87500D01*
X91250D01*
G37*
G36*
G01X104750Y104450D02*
X116750D01*
Y92450D01*
X104750D01*
Y104450D01*
G37*
G36*
G01X132174Y168023D02*
Y140070D01*
X104221D01*
Y168023D01*
X132174D01*
G37*
G36*
G01X147650Y38000D02*
X153750D01*
Y35000D01*
X147650D01*
Y38000D01*
G37*
G36*
G01X179300Y33500D02*
X173200D01*
Y36500D01*
X179300D01*
Y33500D01*
G37*
G36*
G01X195750Y39000D02*
X189650D01*
Y42000D01*
X195750D01*
Y39000D01*
G37*
G36*
G01X222746Y139122D02*
X186919D01*
Y171012D01*
X222746D01*
Y139122D01*
G37*
G36*
G01X208750Y115000D02*
X202650D01*
Y118000D01*
X208750D01*
Y115000D01*
G37*
G36*
G01X216950Y81000D02*
Y84000D01*
X223050D01*
Y81000D01*
X216950D01*
G37*
G36*
G01X223050Y91500D02*
Y88500D01*
X216950D01*
Y91500D01*
X223050D01*
G37*
G36*
G01X240000Y34700D02*
Y46700D01*
X252000D01*
Y34700D01*
X240000D01*
G37*
G36*
G01X243151Y86549D02*
X255749D01*
Y73951D01*
X243151D01*
Y86549D01*
G37*
G36*
G01X241700Y95800D02*
X244700D01*
Y89700D01*
X241700D01*
Y95800D01*
G37*
G36*
G01X247250Y136400D02*
Y125000D01*
X232250D01*
Y136400D01*
X247250D01*
G37*
G36*
G01Y151400D02*
Y140000D01*
X232250D01*
Y151400D01*
X247250D01*
G37*
G36*
G01Y166400D02*
Y155000D01*
X232250D01*
Y166400D01*
X247250D01*
G37*
G36*
G01Y181400D02*
Y170000D01*
X232250D01*
Y181400D01*
X247250D01*
G37*
G36*
G01X260700Y104000D02*
Y89000D01*
X245700D01*
Y104000D01*
X260700D01*
G37*
G36*
G01X256000Y125000D02*
Y136400D01*
X271000D01*
Y125000D01*
X256000D01*
G37*
G36*
G01Y140000D02*
Y151400D01*
X271000D01*
Y140000D01*
X256000D01*
G37*
G36*
G01Y155000D02*
Y166400D01*
X271000D01*
Y155000D01*
X256000D01*
G37*
G36*
G01Y170000D02*
Y181400D01*
X271000D01*
Y170000D01*
X256000D01*
G37*
G36*
G01X258900Y84250D02*
Y87250D01*
X265000D01*
Y84250D01*
X258900D01*
G37*
G36*
G01X257650Y78000D02*
X263750D01*
Y75000D01*
X257650D01*
Y78000D01*
G37*
G36*
G01X258900Y87250D02*
X265000D01*
Y84250D01*
X258900D01*
Y87250D01*
G37*
G36*
G01X265442Y79295D02*
X269458D01*
Y73705D01*
X265442D01*
Y79295D01*
G37*
G54D10*
X8716Y12511D03*
D03*
X8700Y202500D03*
D03*
X15900Y24800D03*
X11000Y27800D03*
X15000Y190000D03*
X155747Y108180D03*
D03*
X268700Y25000D03*
D03*
X275400Y175100D03*
X268700Y190000D03*
D03*
X280000Y37500D03*
X276700Y37800D03*
G54D20*
X54750Y28200D03*
D03*
X271000Y48200D03*
D03*
G54D11*
X17400Y53200D03*
D03*
G54D30*
X77354Y148169D03*
X84046D03*
Y156831D03*
X77354D03*
G54D12*
X28700Y7500D03*
D03*
Y197500D03*
D03*
G54D21*
X56000Y43200D03*
D03*
X84750Y34450D03*
D03*
X96000D03*
D03*
G54D22*
X56000Y53200D03*
D03*
X84750Y44450D03*
D03*
X96000D03*
D03*
G54D13*
X28700Y17500D03*
D03*
Y207500D03*
D03*
X38700Y7500D03*
D03*
Y17500D03*
D03*
Y207500D03*
D03*
Y197500D03*
D03*
X58700Y7500D03*
D03*
X48700D03*
D03*
X58700Y17500D03*
D03*
X48700D03*
D03*
X58700Y207500D03*
D03*
Y197500D03*
D03*
X48700Y207500D03*
D03*
Y197500D03*
D03*
X68700Y7500D03*
D03*
Y17500D03*
D03*
Y207500D03*
D03*
Y197500D03*
D03*
X78700Y7500D03*
D03*
Y17500D03*
D03*
Y207500D03*
D03*
Y197500D03*
D03*
X98700Y7500D03*
D03*
X88700D03*
D03*
X98700Y17500D03*
D03*
X88700D03*
D03*
X98700Y207500D03*
D03*
Y197500D03*
D03*
X88700Y207500D03*
D03*
Y197500D03*
D03*
X108700Y7500D03*
D03*
Y17500D03*
D03*
Y207500D03*
D03*
Y197500D03*
D03*
X118700Y7500D03*
D03*
Y17500D03*
D03*
Y207500D03*
D03*
Y197500D03*
D03*
X138700Y7500D03*
D03*
X128700D03*
D03*
X138700Y17500D03*
D03*
X128700D03*
D03*
X138700Y207500D03*
D03*
Y197500D03*
D03*
X128700Y207500D03*
D03*
Y197500D03*
D03*
X148700Y7500D03*
D03*
Y17500D03*
D03*
Y207500D03*
D03*
Y197500D03*
D03*
X158700Y7500D03*
D03*
Y17500D03*
D03*
Y207500D03*
D03*
Y197500D03*
D03*
X178700Y7500D03*
D03*
X168700D03*
D03*
X178700Y17500D03*
D03*
X168700D03*
D03*
X178700Y207500D03*
D03*
Y197500D03*
D03*
X168700Y207500D03*
D03*
Y197500D03*
D03*
X188700Y7500D03*
D03*
Y17500D03*
D03*
Y207500D03*
D03*
Y197500D03*
D03*
X198700Y7500D03*
D03*
Y17500D03*
D03*
Y207500D03*
D03*
Y197500D03*
D03*
X218700Y7500D03*
D03*
X208700D03*
D03*
X218700Y17500D03*
D03*
X208700D03*
D03*
X218700Y207500D03*
D03*
Y197500D03*
D03*
X208700Y207500D03*
D03*
Y197500D03*
D03*
X228700Y7500D03*
D03*
Y17500D03*
D03*
Y207500D03*
D03*
Y197500D03*
D03*
X238700Y7500D03*
D03*
Y17500D03*
D03*
Y207500D03*
D03*
Y197500D03*
D03*
X248700Y7500D03*
D03*
Y17500D03*
D03*
Y207500D03*
D03*
Y197500D03*
D03*
G54D40*
X123750Y32000D03*
Y45500D03*
X136250Y32000D03*
Y45500D03*
G54D31*
X89750Y64650D03*
X94750D03*
Y84250D03*
X89750D03*
X99750Y64650D03*
X104750D03*
Y84250D03*
X99750D03*
G54D50*
X242250Y35600D03*
Y45800D03*
X246000D03*
Y35600D03*
X249750D03*
Y45800D03*
G54D23*
X46500Y114800D03*
D03*
Y122700D03*
D03*
X68500Y176950D03*
D03*
X85200Y124600D03*
D03*
X139500Y102200D03*
D03*
X200000Y65000D03*
D03*
Y72500D03*
D03*
Y87500D03*
D03*
Y80000D03*
D03*
X233500Y35700D03*
D03*
G54D41*
X149720Y36441D03*
Y41559D03*
X156251D03*
Y39000D03*
Y36441D03*
X170449Y35641D03*
Y38200D03*
Y40759D03*
X176980D03*
Y35641D03*
X187149Y35441D03*
Y38000D03*
Y40559D03*
X193680D03*
Y35441D03*
G54D32*
X95500Y142319D03*
Y144681D03*
X110500Y148681D03*
Y146319D03*
X98500Y142319D03*
Y144681D03*
X106000Y164681D03*
Y162319D03*
X109000Y164681D03*
Y162319D03*
X106000Y157319D03*
Y159681D03*
X109000Y157319D03*
Y159681D03*
X112000Y157319D03*
Y159681D03*
Y164681D03*
Y162319D03*
X115000Y164681D03*
Y162319D03*
X183226Y163929D03*
Y161567D03*
X226000Y142319D03*
Y144681D03*
X226250Y169931D03*
Y167569D03*
G54D14*
X29200Y34700D03*
D03*
G54D60*
G01X14713Y-160300D02*
Y-155300D01*
G01Y-156550D02*
X15087Y-155925D01*
X15647Y-155425D01*
X16393Y-155300D01*
X17047Y-155425D01*
X17607Y-155925D01*
X17887Y-156800D01*
Y-160300D01*
G01X21840D02*
Y-152800D01*
G01X25760D02*
Y-160300D01*
G01Y-156550D02*
X21840D01*
G01X29247Y-160300D02*
Y-152800D01*
X31113D01*
X31860Y-153175D01*
X32420Y-153675D01*
X32887Y-154425D01*
X33260Y-155300D01*
X33353Y-156550D01*
X33260Y-157800D01*
X32887Y-158675D01*
X32420Y-159425D01*
X31860Y-159925D01*
X31113Y-160300D01*
X29247D01*
G01X48167D02*
X44433D01*
Y-152800D01*
X48167D01*
G01X46673Y-156425D02*
X44433D01*
G01X51467Y-152800D02*
X53800Y-160300D01*
X56133Y-152800D01*
G01X58873Y-160300D02*
Y-152800D01*
X61300Y-159050D01*
X63727Y-152800D01*
Y-160300D01*
G01X13750Y383300D02*
X18750D01*
X17750Y384060D01*
G01X13750D02*
Y382540D01*
G01X14500Y379593D02*
X14083Y379213D01*
X13833Y378770D01*
X13750Y378200D01*
X13917Y377630D01*
X14250Y377187D01*
X14833Y376870D01*
X15500Y376807D01*
X16167Y376933D01*
X16583Y377250D01*
X16917Y377693D01*
X17000Y378137D01*
X16917Y378580D01*
X16583Y379150D01*
X18750Y378960D01*
Y377250D01*
G01X17417Y458603D02*
X17917Y458223D01*
X18167Y457780D01*
X18250Y457273D01*
X18083Y456640D01*
X17667Y456197D01*
X17167Y456070D01*
X16666Y456133D01*
X16250Y456387D01*
X15417Y457653D01*
X14833Y458223D01*
X14000Y458603D01*
X13250Y458730D01*
Y456070D01*
G01X14000Y453693D02*
X13583Y453313D01*
X13333Y452870D01*
X13250Y452300D01*
X13417Y451730D01*
X13750Y451287D01*
X14333Y450970D01*
X15000Y450907D01*
X15667Y451033D01*
X16083Y451350D01*
X16417Y451793D01*
X16500Y452237D01*
X16417Y452680D01*
X16083Y453250D01*
X18250Y453060D01*
Y451350D01*
G01X20900Y-175233D02*
X21500Y-174434D01*
X22200Y-174033D01*
X23000Y-173900D01*
X24000Y-174167D01*
X24700Y-174833D01*
X24900Y-175633D01*
X24800Y-176434D01*
X24400Y-177100D01*
X22400Y-178433D01*
X21500Y-179367D01*
X20900Y-180700D01*
X20700Y-181900D01*
X24900D01*
G01X28600Y-180700D02*
X29200Y-181367D01*
X29900Y-181767D01*
X30800Y-181900D01*
X31700Y-181633D01*
X32400Y-181100D01*
X32900Y-180167D01*
X33000Y-179100D01*
X32800Y-178033D01*
X32300Y-177367D01*
X31600Y-176833D01*
X30900Y-176700D01*
X30200Y-176833D01*
X29300Y-177367D01*
X29600Y-173900D01*
X32300D01*
G01X38800Y-181900D02*
Y-173900D01*
X37600Y-175500D01*
G01Y-181900D02*
X40000D01*
G01X44600Y-180700D02*
X45200Y-181367D01*
X45900Y-181767D01*
X46800Y-181900D01*
X47700Y-181633D01*
X48400Y-181100D01*
X48900Y-180167D01*
X49000Y-179100D01*
X48800Y-178033D01*
X48300Y-177367D01*
X47600Y-176833D01*
X46900Y-176700D01*
X46200Y-176833D01*
X45300Y-177367D01*
X45600Y-173900D01*
X48300D01*
G01X52900Y-175233D02*
X53500Y-174434D01*
X54200Y-174033D01*
X55000Y-173900D01*
X56000Y-174167D01*
X56700Y-174833D01*
X56900Y-175633D01*
X56800Y-176434D01*
X56400Y-177100D01*
X54400Y-178433D01*
X53500Y-179367D01*
X52900Y-180700D01*
X52700Y-181900D01*
X56900D01*
G01X62800D02*
Y-173900D01*
X61600Y-175500D01*
G01Y-181900D02*
X64000D01*
G01X70800Y-173900D02*
X70000Y-174167D01*
X69400Y-174833D01*
X69000Y-175633D01*
X68700Y-176700D01*
X68600Y-177900D01*
X68700Y-179100D01*
X69000Y-180167D01*
X69400Y-180967D01*
X70000Y-181633D01*
X70800Y-181900D01*
X71600Y-181633D01*
X72200Y-180967D01*
X72600Y-180167D01*
X72900Y-179100D01*
X73000Y-177900D01*
X72900Y-176700D01*
X72600Y-175633D01*
X72200Y-174833D01*
X71600Y-174167D01*
X70800Y-173900D01*
G01X21350Y383300D02*
X26350D01*
X25350Y384060D01*
G01X21350D02*
Y382540D01*
G01Y377440D02*
X26350D01*
X22767Y379783D01*
Y376617D01*
G01X33917Y384103D02*
X34417Y383723D01*
X34667Y383280D01*
X34750Y382773D01*
X34583Y382140D01*
X34167Y381697D01*
X33667Y381570D01*
X33167Y381633D01*
X32750Y381887D01*
X31917Y383153D01*
X31333Y383723D01*
X30500Y384103D01*
X29750Y384230D01*
Y381570D01*
G01X24817Y458603D02*
X25317Y458223D01*
X25567Y457780D01*
X25650Y457273D01*
X25483Y456640D01*
X25067Y456197D01*
X24567Y456070D01*
X24066Y456133D01*
X23650Y456387D01*
X22817Y457653D01*
X22233Y458223D01*
X21400Y458603D01*
X20650Y458730D01*
Y456070D01*
G01X22733Y453503D02*
X23317Y453060D01*
X23650Y452680D01*
X23817Y452173D01*
X23650Y451730D01*
X23317Y451413D01*
X22817Y451160D01*
X22233Y451097D01*
X21733Y451160D01*
X21233Y451413D01*
X20817Y451793D01*
X20650Y452237D01*
X20817Y452743D01*
X21316Y453187D01*
X22067Y453440D01*
X22900Y453503D01*
X23983Y453377D01*
X24567Y453187D01*
X25150Y452870D01*
X25567Y452427D01*
X25650Y451983D01*
X25483Y451540D01*
X25067Y451223D01*
G01X28950Y458300D02*
X33950D01*
X32950Y459060D01*
G01X28950D02*
Y457540D01*
G01X33117Y454403D02*
X33617Y454023D01*
X33867Y453580D01*
X33950Y453073D01*
X33783Y452440D01*
X33367Y451997D01*
X32867Y451870D01*
X32367Y451933D01*
X31950Y452187D01*
X31117Y453453D01*
X30533Y454023D01*
X29700Y454403D01*
X28950Y454530D01*
Y451870D01*
G01X37250Y382900D02*
X42250D01*
X41250Y383660D01*
G01X37250D02*
Y382140D01*
G01X36450Y458300D02*
X41450D01*
X40450Y459060D01*
G01X36450D02*
Y457540D01*
G01X37450Y454593D02*
X36867Y454213D01*
X36533Y453707D01*
X36450Y453137D01*
X36533Y452630D01*
X36950Y452123D01*
X37450Y451807D01*
X37950Y451743D01*
X38533Y451870D01*
X38950Y452313D01*
X39117Y452757D01*
Y453327D01*
G01Y452757D02*
X39367Y452377D01*
X39783Y452060D01*
X40283Y451933D01*
X40783Y452060D01*
X41200Y452377D01*
X41450Y452947D01*
X41367Y453517D01*
X41033Y454087D01*
G01X48324Y388943D02*
X51990Y386157D01*
G01X52657Y387550D02*
X47657D01*
G01X48324Y386157D02*
X51990Y388943D01*
G01X50157Y389450D02*
Y385650D01*
G01X83250Y-122500D02*
Y-131900D01*
G01X80605Y-122500D02*
X85895D01*
G01X94750Y-131900D02*
X90150D01*
Y-122500D01*
X94750D01*
G01X92910Y-127043D02*
X90150D01*
G01X99235Y-131900D02*
X104065Y-122500D01*
G01X99235D02*
X104065Y-131900D01*
G01X107975D02*
X110850Y-122500D01*
X113725Y-131900D01*
G01X112690Y-128610D02*
X109010D01*
G01X117635Y-130647D02*
X118555Y-131430D01*
X119590Y-131900D01*
X120510D01*
X121430Y-131430D01*
X122120Y-130647D01*
X122465Y-129550D01*
X122235Y-128454D01*
X121660Y-127513D01*
X120625Y-126887D01*
X119245Y-126573D01*
X118440Y-125947D01*
X118095Y-124850D01*
X118325Y-123753D01*
X118900Y-122970D01*
X119705Y-122500D01*
X120510D01*
X121315Y-122813D01*
X122005Y-123597D01*
G01X137070Y-122500D02*
X139830D01*
G01X138450D02*
Y-131900D01*
G01X137070D02*
X139830D01*
G01X145005D02*
Y-122500D01*
X150295Y-131900D01*
Y-122500D01*
G01X154435Y-130647D02*
X155355Y-131430D01*
X156390Y-131900D01*
X157310D01*
X158230Y-131430D01*
X158920Y-130647D01*
X159265Y-129550D01*
X159035Y-128454D01*
X158460Y-127513D01*
X157425Y-126887D01*
X156045Y-126573D01*
X155240Y-125947D01*
X154895Y-124850D01*
X155125Y-123753D01*
X155700Y-122970D01*
X156505Y-122500D01*
X157310D01*
X158115Y-122813D01*
X158805Y-123597D01*
G01X166050Y-122500D02*
Y-131900D01*
G01X163405Y-122500D02*
X168695D01*
G01X172950Y-131900D02*
Y-122500D01*
X175825D01*
X176745Y-122970D01*
X177320Y-123597D01*
X177550Y-124850D01*
X177320Y-126103D01*
X176630Y-126887D01*
X175825Y-127357D01*
X172950D01*
G01X175825D02*
X177550Y-131900D01*
G01X181920Y-122500D02*
Y-129237D01*
X182380Y-130647D01*
X183300Y-131587D01*
X184450Y-131900D01*
X185600Y-131587D01*
X186520Y-130647D01*
X186980Y-129237D01*
Y-122500D01*
G01X190660Y-131900D02*
Y-122500D01*
X193650Y-130333D01*
X196640Y-122500D01*
Y-131900D01*
G01X205150D02*
X200550D01*
Y-122500D01*
X205150D01*
G01X203310Y-127043D02*
X200550D01*
G01X209405Y-131900D02*
Y-122500D01*
X214695Y-131900D01*
Y-122500D01*
G01X221250D02*
Y-131900D01*
G01X218605Y-122500D02*
X223895D01*
G01X228035Y-130647D02*
X228955Y-131430D01*
X229990Y-131900D01*
X230910D01*
X231830Y-131430D01*
X232520Y-130647D01*
X232865Y-129550D01*
X232635Y-128454D01*
X232060Y-127513D01*
X231025Y-126887D01*
X229645Y-126573D01*
X228840Y-125947D01*
X228495Y-124850D01*
X228725Y-123753D01*
X229300Y-122970D01*
X230105Y-122500D01*
X230910D01*
X231715Y-122813D01*
X232405Y-123597D01*
G01X72935Y155977D02*
X76601Y153191D01*
G01X77268Y154584D02*
X72268D01*
G01X72935Y153191D02*
X76601Y155977D01*
G01X74768Y156484D02*
Y152685D01*
G01X121200Y-185200D02*
X117200D01*
Y-177200D01*
X121200D01*
G01X119600Y-181067D02*
X117200D01*
G01X125300Y-178533D02*
X125900Y-177734D01*
X126600Y-177333D01*
X127400Y-177200D01*
X128400Y-177467D01*
X129100Y-178133D01*
X129300Y-178933D01*
X129200Y-179734D01*
X128800Y-180400D01*
X126800Y-181733D01*
X125900Y-182667D01*
X125300Y-184000D01*
X125100Y-185200D01*
X129300D01*
G01X148150Y-185400D02*
Y-179100D01*
X147210Y-180360D01*
G01Y-185400D02*
X149090D01*
G01X152962Y-182775D02*
X153510Y-182040D01*
X153980Y-181620D01*
X154607Y-181410D01*
X155155Y-181620D01*
X155547Y-182040D01*
X155860Y-182670D01*
X155938Y-183405D01*
X155860Y-184035D01*
X155547Y-184665D01*
X155077Y-185190D01*
X154528Y-185400D01*
X153902Y-185190D01*
X153353Y-184560D01*
X153040Y-183615D01*
X152962Y-182565D01*
X153118Y-181200D01*
X153353Y-180465D01*
X153745Y-179730D01*
X154293Y-179205D01*
X154842Y-179100D01*
X155390Y-179310D01*
X155782Y-179835D01*
G01X159732Y-183300D02*
X161768D01*
G01X165013Y-185400D02*
Y-179100D01*
X167050Y-184350D01*
X169087Y-179100D01*
Y-185400D01*
G01X171392D02*
X173350Y-179100D01*
X175308Y-185400D01*
G01X174603Y-183195D02*
X172097D01*
G01X178083Y-185400D02*
Y-179100D01*
X180042D01*
X180668Y-179415D01*
X181060Y-179835D01*
X181217Y-180675D01*
X181060Y-181515D01*
X180590Y-182040D01*
X180042Y-182355D01*
X178083D01*
G01X180042D02*
X181217Y-185400D01*
G01X184932Y-183300D02*
X186968D01*
G01X190762Y-180150D02*
X191232Y-179520D01*
X191780Y-179205D01*
X192407Y-179100D01*
X193190Y-179310D01*
X193738Y-179835D01*
X193895Y-180465D01*
X193817Y-181095D01*
X193503Y-181620D01*
X191937Y-182670D01*
X191232Y-183405D01*
X190762Y-184455D01*
X190605Y-185400D01*
X193895D01*
G01X198550Y-179100D02*
X197923Y-179310D01*
X197453Y-179835D01*
X197140Y-180465D01*
X196905Y-181305D01*
X196827Y-182250D01*
X196905Y-183195D01*
X197140Y-184035D01*
X197453Y-184665D01*
X197923Y-185190D01*
X198550Y-185400D01*
X199177Y-185190D01*
X199647Y-184665D01*
X199960Y-184035D01*
X200195Y-183195D01*
X200273Y-182250D01*
X200195Y-181305D01*
X199960Y-180465D01*
X199647Y-179835D01*
X199177Y-179310D01*
X198550Y-179100D01*
G01X204850Y-185400D02*
Y-179100D01*
X203910Y-180360D01*
G01Y-185400D02*
X205790D01*
G01X210993D02*
X211150Y-184035D01*
X211385Y-182880D01*
X211698Y-181830D01*
X212090Y-180675D01*
X212717Y-179100D01*
X209583D01*
G01X153551Y63900D02*
X149884Y66686D01*
G01X149218Y65293D02*
X154218D01*
G01X153551Y66686D02*
X149884Y63900D01*
G01X151718Y63393D02*
Y67192D01*
G01X181750Y436150D02*
X184850D01*
X184230Y435690D01*
G01X181750D02*
Y436610D01*
G01X181715Y492307D02*
X181457Y492537D01*
X181302Y492805D01*
X181250Y493150D01*
X181353Y493495D01*
X181560Y493763D01*
X181922Y493955D01*
X182335Y493993D01*
X182748Y493917D01*
X183007Y493725D01*
X183213Y493457D01*
X183265Y493188D01*
X183213Y492920D01*
X183007Y492575D01*
X184350Y492690D01*
Y493725D01*
G01X181612Y495598D02*
X181353Y495867D01*
X181250Y496173D01*
X181353Y496480D01*
X181663Y496748D01*
X182128Y496940D01*
X182593Y497017D01*
X183162D01*
X183627Y496940D01*
X184040Y496748D01*
X184247Y496518D01*
X184350Y496250D01*
X184247Y495943D01*
X184040Y495713D01*
X183730Y495560D01*
X183317Y495483D01*
X182955Y495560D01*
X182593Y495752D01*
X182387Y495982D01*
X182335Y496250D01*
X182438Y496557D01*
X182697Y496787D01*
X183162Y497017D01*
G01X228650Y-177100D02*
Y-183400D01*
G01X226848Y-177100D02*
X230452D01*
G01X234010D02*
X235890D01*
G01X234950D02*
Y-183400D01*
G01X234010D02*
X235890D01*
G01X239527D02*
Y-177100D01*
X241093D01*
X241720Y-177415D01*
X242190Y-177835D01*
X242582Y-178465D01*
X242895Y-179200D01*
X242973Y-180250D01*
X242895Y-181300D01*
X242582Y-182035D01*
X242190Y-182665D01*
X241720Y-183085D01*
X241093Y-183400D01*
X239527D01*
G01X245983Y-177100D02*
Y-183400D01*
X249117D01*
G01X252283D02*
Y-177100D01*
X254163D01*
X254790Y-177415D01*
X255260Y-178150D01*
X255417Y-178990D01*
X255260Y-179830D01*
X254868Y-180460D01*
X254163Y-180775D01*
X252283D01*
G01X259132Y-181300D02*
X261168D01*
G01X266450Y-183400D02*
Y-177100D01*
X265510Y-178360D01*
G01Y-183400D02*
X267390D01*
G01X272750D02*
Y-177100D01*
X271810Y-178360D01*
G01Y-183400D02*
X273690D01*
G01X279050D02*
Y-177100D01*
X278110Y-178360D01*
G01Y-183400D02*
X279990D01*
G01X283862Y-180775D02*
X284410Y-180040D01*
X284880Y-179620D01*
X285507Y-179410D01*
X286055Y-179620D01*
X286447Y-180040D01*
X286760Y-180670D01*
X286838Y-181405D01*
X286760Y-182035D01*
X286447Y-182665D01*
X285977Y-183190D01*
X285428Y-183400D01*
X284802Y-183190D01*
X284253Y-182560D01*
X283940Y-181615D01*
X283862Y-180565D01*
X284018Y-179200D01*
X284253Y-178465D01*
X284645Y-177730D01*
X285193Y-177205D01*
X285742Y-177100D01*
X286290Y-177310D01*
X286682Y-177835D01*
G01X291650Y-177100D02*
X291023Y-177310D01*
X290553Y-177835D01*
X290240Y-178465D01*
X290005Y-179305D01*
X289927Y-180250D01*
X290005Y-181195D01*
X290240Y-182035D01*
X290553Y-182665D01*
X291023Y-183190D01*
X291650Y-183400D01*
X292277Y-183190D01*
X292747Y-182665D01*
X293060Y-182035D01*
X293295Y-181195D01*
X293373Y-180250D01*
X293295Y-179305D01*
X293060Y-178465D01*
X292747Y-177835D01*
X292277Y-177310D01*
X291650Y-177100D01*
G01X296618Y-182665D02*
X297167Y-183190D01*
X297793Y-183400D01*
X298420Y-183190D01*
X298968Y-182560D01*
X299360Y-181615D01*
X299517Y-180670D01*
Y-179515D01*
X299360Y-178570D01*
X298968Y-177730D01*
X298498Y-177310D01*
X297950Y-177100D01*
X297323Y-177310D01*
X296853Y-177730D01*
X296540Y-178360D01*
X296383Y-179200D01*
X296540Y-179935D01*
X296932Y-180670D01*
X297402Y-181090D01*
X297950Y-181195D01*
X298577Y-180985D01*
X299047Y-180460D01*
X299517Y-179515D01*
G01X303232Y-181300D02*
X305268D01*
G01X310550Y-177100D02*
X309923Y-177310D01*
X309453Y-177835D01*
X309140Y-178465D01*
X308905Y-179305D01*
X308827Y-180250D01*
X308905Y-181195D01*
X309140Y-182035D01*
X309453Y-182665D01*
X309923Y-183190D01*
X310550Y-183400D01*
X311177Y-183190D01*
X311647Y-182665D01*
X311960Y-182035D01*
X312195Y-181195D01*
X312273Y-180250D01*
X312195Y-179305D01*
X311960Y-178465D01*
X311647Y-177835D01*
X311177Y-177310D01*
X310550Y-177100D01*
G01X316850Y-183400D02*
Y-177100D01*
X315910Y-178360D01*
G01Y-183400D02*
X317790D01*
G01X222833Y434922D02*
X223143Y435152D01*
X223298Y435420D01*
X223350Y435727D01*
X223247Y436110D01*
X222988Y436378D01*
X222678Y436455D01*
X222368Y436417D01*
X222110Y436263D01*
X221593Y435497D01*
X221232Y435152D01*
X220715Y434922D01*
X220250Y434845D01*
Y436455D01*
G01X220542Y492922D02*
X220903Y493190D01*
X221110Y493420D01*
X221213Y493727D01*
X221110Y493995D01*
X220903Y494187D01*
X220593Y494340D01*
X220232Y494378D01*
X219922Y494340D01*
X219612Y494187D01*
X219353Y493957D01*
X219250Y493688D01*
X219353Y493382D01*
X219663Y493113D01*
X220128Y492960D01*
X220645Y492922D01*
X221317Y492998D01*
X221678Y493113D01*
X222040Y493305D01*
X222298Y493573D01*
X222350Y493842D01*
X222247Y494110D01*
X221988Y494302D01*
G01X222350Y496750D02*
X222247Y496443D01*
X221988Y496213D01*
X221678Y496060D01*
X221265Y495945D01*
X220800Y495907D01*
X220335Y495945D01*
X219922Y496060D01*
X219612Y496213D01*
X219353Y496443D01*
X219250Y496750D01*
X219353Y497057D01*
X219612Y497287D01*
X219922Y497440D01*
X220335Y497555D01*
X220800Y497593D01*
X221265Y497555D01*
X221678Y497440D01*
X221988Y497287D01*
X222247Y497057D01*
X222350Y496750D01*
G01X382150Y-181900D02*
Y-175600D01*
X381210Y-176860D01*
G01Y-181900D02*
X383090D01*
G01X386727Y-180640D02*
X387197Y-181375D01*
X387823Y-181795D01*
X388528Y-181900D01*
X389155Y-181795D01*
X389782Y-181270D01*
X390173Y-180640D01*
X390252Y-180010D01*
X390095Y-179275D01*
X389547Y-178750D01*
X388998Y-178540D01*
X388293D01*
G01X388998D02*
X389468Y-178225D01*
X389860Y-177700D01*
X390017Y-177070D01*
X389860Y-176440D01*
X389468Y-175915D01*
X388763Y-175600D01*
X388058Y-175705D01*
X387353Y-176125D01*
G54D42*
X146888Y73167D03*
Y71198D03*
Y69230D03*
Y67261D03*
Y65293D03*
Y83009D03*
Y81041D03*
Y79072D03*
Y77104D03*
Y75135D03*
G54D15*
X29150Y44200D03*
Y53200D03*
X260700Y69500D03*
Y78500D03*
G54D24*
X57248Y104978D03*
Y106946D03*
Y108915D03*
Y110884D03*
Y112852D03*
Y114820D03*
Y116789D03*
Y118758D03*
Y120726D03*
Y122694D03*
Y124663D03*
Y126632D03*
Y128600D03*
Y130568D03*
Y132537D03*
Y134506D03*
Y136474D03*
Y138442D03*
Y140411D03*
Y142380D03*
Y144348D03*
Y146316D03*
Y148285D03*
Y150254D03*
Y152222D03*
X75752Y104978D03*
Y106946D03*
Y108915D03*
Y110884D03*
Y112852D03*
Y114820D03*
Y116789D03*
Y118758D03*
Y120726D03*
Y122694D03*
Y124663D03*
Y126632D03*
Y128600D03*
Y130568D03*
Y132537D03*
Y134506D03*
Y136474D03*
Y138442D03*
Y140411D03*
Y142380D03*
Y144348D03*
Y146316D03*
Y148285D03*
Y150254D03*
Y152222D03*
G54D33*
X96300Y166600D03*
Y163800D03*
X90700Y165200D03*
Y162400D03*
X96300Y161000D03*
X90700Y159600D03*
X96300Y158200D03*
Y172200D03*
Y169400D03*
X90700Y170800D03*
Y168000D03*
Y173600D03*
X159152Y137405D03*
X151952Y135805D03*
X159152Y134605D03*
Y131805D03*
X151952Y127405D03*
X159152Y140205D03*
X151952Y133005D03*
Y130205D03*
X159152Y143005D03*
X151952Y149805D03*
Y152605D03*
X159152Y150605D03*
Y147405D03*
Y153405D03*
X151952Y143805D03*
Y147005D03*
Y141005D03*
X159152Y161805D03*
Y159005D03*
X151952Y158205D03*
X159152Y156205D03*
Y164605D03*
X151952Y155405D03*
Y165805D03*
Y162605D03*
X159152Y175805D03*
X151952Y174205D03*
X159152Y170205D03*
Y178605D03*
X151952Y168605D03*
Y177005D03*
X159152Y167405D03*
X151952Y171405D03*
X159233Y173005D03*
X166752Y147405D03*
Y144605D03*
Y153405D03*
Y150605D03*
X165552Y166205D03*
X166752Y161805D03*
Y159005D03*
Y156205D03*
G54D51*
X234050Y130700D03*
X245450D03*
X234050Y145700D03*
X245450D03*
X234050Y160700D03*
X245450D03*
X234050Y175700D03*
X245450D03*
X257800Y130700D03*
Y145700D03*
Y160700D03*
Y175700D03*
X269200Y130700D03*
Y145700D03*
Y160700D03*
Y175700D03*
G54D61*
G01X-3050Y495300D02*
Y340200D01*
G01D02*
X46950D01*
G01Y495300D02*
X-3050D01*
G01X46950Y340200D02*
X47000Y375600D01*
G01D02*
X46950Y467000D01*
Y495300D01*
G01X189341Y559830D02*
Y567623D01*
G03X183841I-2750J-345D01*
G01D02*
Y559830D01*
G03X189341I2750J620D01*
G01X183250Y604200D02*
Y611993D01*
G03X177750I-2750J-345D01*
G01D02*
Y604200D01*
G03X183250I2750J620D01*
G01X188500Y597950D02*
X196293D01*
G03Y603450I-345J2750D01*
G01D02*
X188500D01*
G03Y597950I620J-2750D01*
G01X183750Y638200D02*
Y645993D01*
G03X178250I-2750J-345D01*
G01D02*
Y638200D01*
G03X183750I2750J620D01*
G01X194383Y659497D02*
X182517D01*
G01D02*
X178017Y663997D01*
G01X193371Y669930D02*
G03X183529I-4921J0D01*
G03X193371I4921J0D01*
G01X178017Y663997D02*
Y675863D01*
G01D02*
X182517Y680363D01*
G01D02*
X194383D01*
G01X188691Y739930D02*
Y725930D01*
G01D02*
X195691D01*
G01Y739930D02*
X188691D01*
G01X186200Y769730D02*
Y760730D01*
G01D02*
X205200D01*
G01Y769730D02*
X186200D01*
G01X201841Y567623D02*
Y559830D01*
G03X207341I2750J620D01*
G01X199691Y557430D02*
Y577630D01*
G01X190691D02*
Y557430D01*
G01D02*
X199691D01*
G01X207341Y559830D02*
Y567623D01*
G03X201841I-2750J-345D01*
G01X199691Y577630D02*
X190691D01*
G01X199491Y576780D02*
X190791D01*
G01X212500Y604950D02*
X204707D01*
G03Y599450I345J-2750D01*
G01X198883Y663997D02*
X194383Y659497D01*
G01X193200Y650930D02*
Y658723D01*
G02X198700I2750J-345D01*
G01D02*
Y650930D01*
G02X193200I-2750J620D01*
G01X199700Y649180D02*
Y660680D01*
G01X205200Y649180D02*
X199700D01*
G01X198883Y675863D02*
Y663997D01*
G01X199700Y660680D02*
X205200D01*
G01X194383Y680363D02*
X198883Y675863D01*
G01X197149Y688702D02*
G03X194705I-1222J0D01*
G03X197149I1222J0D01*
G01X195691Y725930D02*
Y739930D01*
G01X196691Y740430D02*
Y721430D01*
G01D02*
X205691D01*
G01X195300Y747780D02*
X203093D01*
G03Y753280I-345J2750D01*
G01D02*
X195300D01*
G03Y747780I620J-2750D01*
G01X205691Y740430D02*
X196691D01*
G01X205050Y759780D02*
X193550D01*
G01D02*
Y754280D01*
G01D02*
X205050D01*
G01X191441Y788723D02*
Y780930D01*
G03X196941I2750J620D01*
G01X205191Y777430D02*
X191191D01*
G01D02*
Y770430D01*
G01D02*
X205191D01*
G01X196941Y780930D02*
Y788723D01*
G03X191441I-2750J-345D01*
G01Y801723D02*
Y793930D01*
G03X196941I2750J620D01*
G01D02*
Y801723D01*
G03X191441I-2750J-345D01*
G01X190441Y815180D02*
X201941D01*
G01D02*
Y820680D01*
G01X190441D02*
Y815180D01*
G01X201941Y820680D02*
X190441D01*
G01X208691Y577630D02*
Y557430D01*
G01D02*
X217691D01*
G01Y577630D02*
X208691D01*
G01X217491Y576780D02*
X208791D01*
G01X204707Y599450D02*
X212500D01*
G03Y604950I-620J2750D01*
G01X223124Y619497D02*
X211258D01*
G01D02*
X206758Y623997D01*
G01X222112Y629930D02*
G03X212270I-4921J0D01*
G03X222112I4921J0D01*
G01X206758Y623997D02*
Y635863D01*
G01D02*
X211258Y640363D01*
G01D02*
X223124D01*
G01X208500Y646950D02*
X216293D01*
G03Y652450I-345J2750D01*
G01D02*
X208500D01*
G03Y646950I620J-2750D01*
G01X223124Y659497D02*
X211258D01*
G01D02*
X206758Y663997D01*
G01X211700Y658930D02*
Y651137D01*
G02X206200I-2750J345D01*
G01D02*
Y658930D01*
G02X211700I2750J-620D01*
G01X205200Y660680D02*
Y649180D01*
G01X222112Y669930D02*
G03X212270I-4921J0D01*
G03X222112I4921J0D01*
G01X206758Y663997D02*
Y675863D01*
G01D02*
X211258Y680363D01*
G01D02*
X223124D01*
G01Y699497D02*
X211258D01*
G01D02*
X206758Y703997D01*
G01X222112Y709930D02*
G03X212270I-4921J0D01*
G03X222112I4921J0D01*
G01X206758Y703997D02*
Y715863D01*
G01D02*
X211258Y720363D01*
G01D02*
X223124D01*
G01X222691Y724930D02*
X208691D01*
G01D02*
Y731930D01*
G01X205691Y721430D02*
Y740430D01*
G01X208691Y731930D02*
X222691D01*
G01X222341Y733180D02*
X210841D01*
G01D02*
Y738680D01*
G01D02*
X222341D01*
G01X211441Y739680D02*
Y728180D01*
G01D02*
X216941D01*
G01D02*
Y739680D01*
G01D02*
X211441D01*
G01X210281Y744711D02*
X214257D01*
G01D02*
X214710Y745617D01*
G01D02*
X215163Y744711D01*
G01D02*
X232919D01*
G01X210281Y767349D02*
Y744711D01*
G01X215377Y742110D02*
G03X214063I-657J0D01*
G03X215377I657J0D01*
G01X205200Y760730D02*
Y769730D01*
G01X205050Y754280D02*
Y759780D01*
G01X232919Y767349D02*
X210281D01*
G01X205191Y770430D02*
Y777430D01*
G01X215441Y773380D02*
Y784880D01*
G01X209941D02*
Y773380D01*
G01D02*
X215441D01*
G01Y784880D02*
X209941D01*
G01X225341Y559830D02*
Y567623D01*
G03X219841I-2750J-345D01*
G01D02*
Y559830D01*
G03X225341I2750J620D01*
G01X226691Y577630D02*
Y557430D01*
G01D02*
X235691D01*
G01X217691D02*
Y577630D01*
G01X235691D02*
X226691D01*
G01X235491Y576780D02*
X226791D01*
G01X227624Y623997D02*
X223124Y619497D01*
G01X221681Y610430D02*
Y618223D01*
G02X227181I2750J-345D01*
G01D02*
Y610430D01*
G02X221681I-2750J620D01*
G01X228181Y608680D02*
Y620180D01*
G01D02*
X233681D01*
G01Y608680D02*
X228181D01*
G01X227624Y635863D02*
Y623997D01*
G01X223124Y640363D02*
X227624Y635863D01*
G01X225890Y648702D02*
G03X223446I-1222J0D01*
G03X225890I1222J0D01*
G01X227624Y663997D02*
X223124Y659497D01*
G01X221441Y649930D02*
Y657723D01*
G02X226941I2750J-345D01*
G01D02*
Y649930D01*
G02X221441I-2750J620D01*
G01X227941Y648180D02*
Y659680D01*
G01D02*
X233441D01*
G01Y648180D02*
X227941D01*
G01X227624Y675863D02*
Y663997D01*
G01X223124Y680363D02*
X227624Y675863D01*
G01Y703997D02*
X223124Y699497D01*
G01X225890Y688702D02*
G03X223446I-1222J0D01*
G03X225890I1222J0D01*
G01X221700Y689930D02*
Y697723D01*
G02X227200I2750J-345D01*
G01D02*
Y689930D01*
G02X221700I-2750J620D01*
G01X228200Y688180D02*
Y699680D01*
G01D02*
X233700D01*
G01Y688180D02*
X228200D01*
G01X227624Y715863D02*
Y703997D01*
G01X223124Y720363D02*
X227624Y715863D01*
G01X222691Y731930D02*
Y724930D01*
G01X225890Y728702D02*
G03X223446I-1222J0D01*
G03X225890I1222J0D01*
G01X222341Y738680D02*
Y733180D01*
G01X229691Y791930D02*
Y777930D01*
G01D02*
X236691D01*
G01X225041Y773380D02*
Y784880D01*
G01X219541D02*
Y773380D01*
G01D02*
X225041D01*
G01X236691Y791930D02*
X229691D01*
G01X225691Y793430D02*
X244691D01*
G01X225691Y802430D02*
Y793430D01*
G01X225041Y784880D02*
X219541D01*
G01X244691Y802430D02*
X225691D01*
G01X243341Y559830D02*
Y567623D01*
G03X237841I-2750J-345D01*
G01D02*
Y559830D01*
G03X243341I2750J620D01*
G01X235691Y557430D02*
Y577630D01*
G01X240181Y618430D02*
Y610637D01*
G02X234681I-2750J345D01*
G01D02*
Y618430D01*
G02X240181I2750J-620D01*
G01X233681Y620180D02*
Y608680D01*
G01X251864Y659497D02*
X239998D01*
G01D02*
X235498Y663997D01*
G01X239941Y657930D02*
Y650137D01*
G02X234441I-2750J345D01*
G01D02*
Y657930D01*
G02X239941I2750J-620D01*
G01X233441Y659680D02*
Y648180D01*
G01X250852Y669930D02*
G03X241010I-4921J0D01*
G03X250852I4921J0D01*
G01X235498Y663997D02*
Y675863D01*
G01D02*
X239998Y680363D01*
G01D02*
X251864D01*
G01X240200Y697930D02*
Y690137D01*
G02X234700I-2750J345D01*
G01D02*
Y697930D01*
G02X240200I2750J-620D01*
G01X233700Y699680D02*
Y688180D01*
G01X232919Y744711D02*
Y767349D01*
G01X240000Y750680D02*
X247793D01*
G03Y756180I-345J2750D01*
G01D02*
X240000D01*
G03Y750680I620J-2750D01*
G01Y743880D02*
X247793D01*
G03Y749380I-345J2750D01*
G01D02*
X240000D01*
G03Y743880I620J-2750D01*
G01X237441Y775680D02*
Y764180D01*
G01D02*
X242941D01*
G01D02*
Y775680D01*
G01X236691Y777930D02*
Y791930D01*
G01X237991Y777330D02*
X256991D01*
G01X237991Y786330D02*
Y777330D01*
G01X242941Y775680D02*
X237441D01*
G01X256991Y786330D02*
X237991D01*
G01X234191Y804180D02*
X241984D01*
G03Y809680I-345J2750D01*
G01D02*
X234191D01*
G03Y804180I620J-2750D01*
G01X253691Y557430D02*
Y577630D01*
G01X244691D02*
Y557430D01*
G01D02*
X253691D01*
G01Y577630D02*
X244691D01*
G01X253491Y576780D02*
X244791D01*
G01X256364Y663997D02*
X251864Y659497D01*
G01X250681Y649430D02*
Y657223D01*
G02X256181I2750J-345D01*
G01D02*
Y649430D01*
G02X250681I-2750J620D01*
G01X256364Y675863D02*
Y663997D01*
G01X251864Y680363D02*
X256364Y675863D01*
G01X254630Y688702D02*
G03X252186I-1222J0D01*
G03X254630I1222J0D01*
G01X260941Y688930D02*
Y696723D01*
G03X255441I-2750J-345D01*
G01D02*
Y688930D01*
G03X260941I2750J620D01*
G01X256441Y759680D02*
Y748180D01*
G01D02*
X261941D01*
G01X255691Y775930D02*
Y761930D01*
G01D02*
X262691D01*
G01X244691Y776430D02*
Y757430D01*
G01D02*
X253691D01*
G01D02*
Y776430D01*
G01X261941Y759680D02*
X256441D01*
G01X262691Y775930D02*
X255691D01*
G01X256991Y777330D02*
Y786330D01*
G01X253691Y776430D02*
X244691D01*
G01Y793430D02*
Y802430D01*
G01X258191Y568930D02*
Y588930D01*
G01X328191Y568930D02*
X258191D01*
G01X274191Y591180D02*
X266398D01*
G02Y596680I345J2750D01*
G01X258191Y588930D02*
X328191D01*
G01X266398Y596680D02*
X274191D01*
G02Y591180I-620J-2750D01*
G01X260191Y646180D02*
X267984D01*
G03Y651680I-345J2750D01*
G01D02*
X260191D01*
G03Y646180I620J-2750D01*
G01Y660180D02*
X267984D01*
G03Y665680I-345J2750D01*
G01D02*
X260191D01*
G03Y660180I620J-2750D01*
G01X269181Y657430D02*
Y649637D01*
G02X263681I-2750J345D01*
G01D02*
Y657430D01*
G02X269181I2750J-620D01*
G01X257181Y647680D02*
Y659180D01*
G01D02*
X262681D01*
G01D02*
Y647680D01*
G01D02*
X257181D01*
G01X258441Y653180D02*
X269941D01*
G01D02*
Y658680D01*
G01D02*
X258441D01*
G01D02*
Y653180D01*
G01X262191Y699980D02*
X269984D01*
G03Y705480I-345J2750D01*
G01D02*
X262191D01*
G03Y699980I620J-2750D01*
G01X269441Y696930D02*
Y689137D01*
G03X274941I2750J345D01*
G01D02*
Y696930D01*
G03X269441I-2750J-620D01*
G01X262441Y698680D02*
Y687180D01*
G01D02*
X267941D01*
G01D02*
Y698680D01*
G01D02*
X262441D01*
G01X262191Y706980D02*
X269984D01*
G03Y712480I-345J2750D01*
G01D02*
X262191D01*
G03Y706980I620J-2750D01*
G01X272254Y726776D02*
X266939D01*
G01D02*
Y770084D01*
G01X262191Y713980D02*
X269984D01*
G03Y719480I-345J2750D01*
G01D02*
X262191D01*
G03Y713980I620J-2750D01*
G01X272648Y727564D02*
G02X266939Y735044I3621J8683D01*
G01D02*
Y761816D01*
G02X272648Y769493I9319J-969D01*
G01Y728942D02*
G02X268711Y734847I4074J6981D01*
G01D02*
Y761816D01*
G02X272648Y767918I7762J-687D01*
G01X261941Y748180D02*
Y759680D01*
G01X262691Y761930D02*
Y775930D01*
G01X266939Y770084D02*
X272254D01*
G01X273441Y621180D02*
Y632680D01*
G01D02*
X278941D01*
G01D02*
Y621180D01*
G01D02*
X273441D01*
G01X292191Y651680D02*
X284398D01*
G03Y646180I345J-2750D01*
G01X293941Y658680D02*
X282441D01*
G01D02*
Y653180D01*
G01D02*
X293941D01*
G01X292191Y665680D02*
X284398D01*
G03Y660180I345J-2750D01*
G01X276441Y696723D02*
Y688930D01*
G03X281941I2750J620D01*
G01X288941D02*
Y696723D01*
G03X283441I-2750J-345D01*
G01D02*
Y688930D01*
G03X288941I2750J620D01*
G01X281941D02*
Y696723D01*
G03X276441I-2750J-345D01*
G01X276191Y706980D02*
X283984D01*
G03Y712480I-345J2750D01*
G01D02*
X276191D01*
G03Y706980I620J-2750D01*
G01X285443Y726776D02*
X280128D01*
G01X276191Y713980D02*
X283984D01*
G03Y719480I-345J2750D01*
G01D02*
X276191D01*
G03Y713980I620J-2750D01*
G01X285443Y761225D02*
Y735241D01*
G02X279734Y727564I-9042J763D01*
G01X283671Y761028D02*
Y735832D01*
G02X279734Y728942I-7710J-164D01*
G01X276191Y750399D02*
Y746461D01*
G01X274222Y748430D02*
X278160D01*
G01X279734Y769493D02*
G02X285443Y761225I-4252J-9041D01*
G01X279734Y767918D02*
G02X283671Y761028I-3825J-6755D01*
G01X280128Y770084D02*
X285443D01*
G01X280691Y814430D02*
Y795430D01*
G01D02*
X289691D01*
G01Y814430D02*
X280691D01*
G01X300641Y567130D02*
Y559337D01*
G02X295141I-2750J345D01*
G01D02*
Y567130D01*
G02X300641I2750J-620D01*
G01X296641Y642680D02*
Y631180D01*
G01D02*
X302141D01*
G01X284398Y646180D02*
X292191D01*
G03Y651680I-620J2750D01*
G01X302141Y642680D02*
X296641D01*
G01X284398Y660180D02*
X292191D01*
G03Y665680I-620J2750D01*
G01X293941Y653180D02*
Y658680D01*
G01X285443Y770084D02*
Y726776D01*
G01X291941Y735680D02*
Y747180D01*
G01X286441D02*
Y735680D01*
G01D02*
X291941D01*
G01X292941Y751930D02*
Y744137D01*
G03X298441I2750J345D01*
G01D02*
Y751930D01*
G03X292941I-2750J-620D01*
G01X286441Y759680D02*
Y748180D01*
G01D02*
X291941D01*
G01D02*
Y759680D01*
G01Y747180D02*
X286441D01*
G01X291941Y759680D02*
X286441D01*
G01X296941Y803930D02*
Y811723D01*
G03X291441I-2750J-345D01*
G01D02*
Y803930D01*
G03X296941I2750J620D01*
G01X289691Y795430D02*
Y814430D01*
G01X310441Y559930D02*
Y567723D01*
G02X315941I2750J-345D01*
G01D02*
Y559930D01*
G02X310441I-2750J620D01*
G01X315041Y616180D02*
X309541D01*
G01D02*
Y627680D01*
G01X302141Y631180D02*
Y642680D01*
G01X309541Y627680D02*
X315041D01*
G01X305441Y653930D02*
Y646137D01*
G03X310941I2750J345D01*
G01X298441Y653930D02*
Y646137D01*
G03X303941I2750J345D01*
G01D02*
Y653930D01*
G03X298441I-2750J-620D01*
G01Y669930D02*
Y662137D01*
G03X303941I2750J345D01*
G01X310941Y646137D02*
Y653930D01*
G03X305441I-2750J-620D01*
G01Y669930D02*
Y662137D01*
G03X310941I2750J345D01*
G01X303941D02*
Y669930D01*
G03X298441I-2750J-620D01*
G01X310941Y662137D02*
Y669930D01*
G03X305441I-2750J-620D01*
G01X310491Y679930D02*
X301491D01*
G01D02*
Y698930D01*
G01D02*
X310491D01*
G01X308700Y730800D02*
Y749800D01*
G01X317700Y730800D02*
X308700D01*
G01X298450Y729250D02*
Y740750D01*
G01X303950D02*
Y729250D01*
G01D02*
X298450D01*
G01X308700Y749800D02*
X317700D01*
G01X298450Y740750D02*
X303950D01*
G01X310141Y761580D02*
X298641D01*
G01D02*
Y756080D01*
G01D02*
X310141D01*
G01D02*
Y761580D01*
G01X362392Y800669D02*
X299400D01*
G01D02*
Y854452D01*
G01D02*
X362392D01*
G01X320441Y559930D02*
Y567723D01*
G02X325941I2750J-345D01*
G01D02*
Y559930D01*
G02X320441I-2750J620D01*
G01X315041Y627680D02*
Y616180D01*
G01X312441Y653930D02*
Y646137D01*
G03X317941I2750J345D01*
G01D02*
Y653930D01*
G03X312441I-2750J-620D01*
G01X319441D02*
Y646137D01*
G03X324941I2750J345D01*
G01X312441Y669930D02*
Y662137D01*
G03X317941I2750J345D01*
G01X319441Y669930D02*
Y662137D01*
G03X324941I2750J345D01*
G01Y646137D02*
Y653930D01*
G03X319441I-2750J-620D01*
G01X317941Y662137D02*
Y669930D01*
G03X312441I-2750J-620D01*
G01X324941Y662137D02*
Y669930D01*
G03X319441I-2750J-620D01*
G01X310491Y698930D02*
Y679930D01*
G01X328250Y722050D02*
X316750D01*
G01D02*
Y727550D01*
G01X317700Y749800D02*
Y730800D01*
G01X316750Y727550D02*
X328250D01*
G01X314565Y797189D02*
G03X311661I-1452J0D01*
G03X314565I1452J0D01*
G01X317750Y825700D02*
Y817907D01*
G02X312250I-2750J345D01*
G01D02*
Y825700D01*
G02X317750I2750J-620D01*
G01X319250Y815950D02*
Y827450D01*
G01X324750Y815950D02*
X319250D01*
G01Y827450D02*
X324750D01*
G01X340941Y565180D02*
X329441D01*
G01D02*
Y570680D01*
G01Y563680D02*
X340941D01*
G01Y558180D02*
X329441D01*
G01D02*
Y563680D01*
G01X328191Y588930D02*
Y568930D01*
G01X329441Y570680D02*
X340941D01*
G01X326441Y653930D02*
Y646137D01*
G03X331941I2750J345D01*
G01D02*
Y653930D01*
G03X326441I-2750J-620D01*
G01X333441D02*
Y646137D01*
G03X338941I2750J345D01*
G01X326441Y669930D02*
Y662137D01*
G03X331941I2750J345D01*
G01X333441Y669930D02*
Y662137D01*
G03X338941I2750J345D01*
G01Y646137D02*
Y653930D01*
G03X333441I-2750J-620D01*
G01X331941Y662137D02*
Y669930D01*
G03X326441I-2750J-620D01*
G01X338941Y662137D02*
Y669930D01*
G03X333441I-2750J-620D01*
G01X343400Y681800D02*
X334400D01*
G01D02*
Y700800D01*
G01D02*
X343400D01*
G01X339050Y716650D02*
X333550D01*
G01D02*
Y728150D01*
G01X328250Y727550D02*
Y722050D01*
G01X333550Y728150D02*
X339050D01*
G01X335250Y758700D02*
Y750907D01*
G03X340750I2750J345D01*
G01X342341Y748180D02*
X330841D01*
G01D02*
Y753680D01*
G01D02*
X342341D01*
G01X340750Y750907D02*
Y758700D01*
G03X335250I-2750J-620D01*
G01X324750Y827450D02*
Y815950D01*
G01X340941Y570680D02*
Y565180D01*
G01Y563680D02*
Y558180D01*
G01X340441Y653930D02*
Y646137D01*
G03X345941I2750J345D01*
G01D02*
Y653930D01*
G03X340441I-2750J-620D01*
G01X347441D02*
Y646137D01*
G03X352941I2750J345D01*
G01X347441Y669930D02*
Y662137D01*
G03X352941I2750J345D01*
G01X340441Y669930D02*
Y662137D01*
G03X345941I2750J345D01*
G01X352941Y646137D02*
Y653930D01*
G03X347441I-2750J-620D01*
G01X352941Y662137D02*
Y669930D01*
G03X347441I-2750J-620D01*
G01X345941Y662137D02*
Y669930D01*
G03X340441I-2750J-620D01*
G01X343400Y700800D02*
Y681800D01*
G01X343191Y727030D02*
Y746030D01*
G01X352191Y727030D02*
X343191D01*
G01X339050Y728150D02*
Y716650D01*
G01X345250Y755700D02*
Y747907D01*
G03X350750I2750J345D01*
G01X343191Y746030D02*
X352191D01*
G01X342341Y753680D02*
Y748180D01*
G01X355100Y761200D02*
X348700D01*
G01X350750Y747907D02*
Y755700D01*
G03X345250I-2750J-620D01*
G01X354941Y810930D02*
Y803137D01*
G02X349441I-2750J345D01*
G01D02*
Y810930D01*
G02X354941I2750J-620D01*
G01X359191Y799280D02*
X351398D01*
G03Y793780I345J-2750D01*
G01X338900Y807200D02*
X345300D01*
G01X361441Y653930D02*
Y646137D01*
G03X366941I2750J345D01*
G01X354441Y653930D02*
Y646137D01*
G03X359941I2750J345D01*
G01D02*
Y653930D01*
G03X354441I-2750J-620D01*
G01X366941Y646137D02*
Y653930D01*
G03X361441I-2750J-620D01*
G01Y669930D02*
Y662137D01*
G03X366941I2750J345D01*
G01X354441Y669930D02*
Y662137D01*
G03X359941I2750J345D01*
G01X366941D02*
Y669930D01*
G03X361441I-2750J-620D01*
G01X359941Y662137D02*
Y669930D01*
G03X354441I-2750J-620D01*
G01X372091Y711980D02*
X364298D01*
G03Y706480I345J-2750D01*
G01X363791Y713080D02*
X371584D01*
G03Y718580I-345J2750D01*
G01D02*
X363791D01*
G03Y713080I620J-2750D01*
G01X352191Y746030D02*
Y727030D01*
G01X362250Y740450D02*
Y728950D01*
G01D02*
X367750D01*
G01X352250Y755700D02*
Y747907D01*
G03X357750I2750J345D01*
G01D02*
Y755700D01*
G03X352250I-2750J-620D01*
G01X367750Y740450D02*
X362250D01*
G01X368884Y762580D02*
X361091D01*
G02Y768080I620J2750D01*
G01X363000Y753950D02*
X370793D01*
G03Y759450I-345J2750D01*
G01D02*
X363000D01*
G03Y753950I620J-2750D01*
G01X371000Y770700D02*
X352000D01*
G01D02*
Y783200D01*
G01X361091Y775280D02*
X368884D01*
G02Y769780I-345J-2750D01*
G01D02*
X361091D01*
G02Y775280I620J2750D01*
G01X368884Y776680D02*
X361091D01*
G02Y782180I620J2750D01*
G01Y768080D02*
X368884D01*
G02Y762580I-345J-2750D01*
G01X352000Y783200D02*
X371000D01*
G01X361091Y782180D02*
X368884D01*
G02Y776680I-345J-2750D01*
G01X351398Y793780D02*
X359191D01*
G03Y799280I-620J2750D01*
G01X362392Y854452D02*
Y800669D01*
G01X373391Y676180D02*
X381184D01*
G03Y681680I-345J2750D01*
G01D02*
X373391D01*
G03Y676180I620J-2750D01*
G01Y683180D02*
X381184D01*
G03Y688680I-345J2750D01*
G01D02*
X373391D01*
G03Y683180I620J-2750D01*
G01Y697180D02*
X381184D01*
G03Y702680I-345J2750D01*
G01D02*
X373391D01*
G03Y697180I620J-2750D01*
G01Y690180D02*
X381184D01*
G03Y695680I-345J2750D01*
G01D02*
X373391D01*
G03Y690180I620J-2750D01*
G01X376441Y717130D02*
Y709337D01*
G03X381941I2750J345D01*
G01X364298Y706480D02*
X372091D01*
G03Y711980I-620J2750D01*
G01X381941Y709337D02*
Y717130D01*
G03X376441I-2750J-620D01*
G01X376250Y738700D02*
Y730907D01*
G03X381750I2750J345D01*
G01D02*
Y738700D01*
G03X376250I-2750J-620D01*
G01X374750Y730700D02*
Y738493D01*
G03X369250I-2750J-345D01*
G01D02*
Y730700D01*
G03X374750I2750J620D01*
G01X367750Y728950D02*
Y740450D01*
G01X371000Y783200D02*
Y779200D01*
G01D02*
X368500D01*
G01D02*
Y774700D01*
G01D02*
X371000D01*
G01D02*
Y770700D01*
G01X389591Y676180D02*
X397384D01*
G03Y681680I-345J2750D01*
G01D02*
X389591D01*
G03Y676180I620J-2750D01*
G01Y683180D02*
X397384D01*
G03Y688680I-345J2750D01*
G01D02*
X389591D01*
G03Y683180I620J-2750D01*
G01Y690180D02*
X397384D01*
G03Y695680I-345J2750D01*
G01D02*
X389591D01*
G03Y690180I620J-2750D01*
G01Y697180D02*
X397384D01*
G03Y702680I-345J2750D01*
G01D02*
X389591D01*
G03Y697180I620J-2750D01*
G01X382441Y717130D02*
Y709337D01*
G03X387941I2750J345D01*
G01D02*
Y717130D01*
G03X382441I-2750J-620D01*
G01X387191Y739430D02*
X401191D01*
G01X387191Y746430D02*
Y739430D01*
G01Y730430D02*
X401191D01*
G01Y737430D02*
X387191D01*
G01D02*
Y730430D01*
G01X401191Y746430D02*
X387191D01*
G01Y748430D02*
X401191D01*
G01X387191Y755430D02*
Y748430D01*
G01X401191Y755430D02*
X387191D01*
G01X388250Y783450D02*
Y771950D01*
G01D02*
X393750D01*
G01X388250Y799700D02*
Y791907D01*
G03X393750I2750J345D01*
G01Y783450D02*
X388250D01*
G01X393750Y791907D02*
Y799700D01*
G03X388250I-2750J-620D01*
G01X395591Y711430D02*
X409591D01*
G01X395591Y718430D02*
Y711430D01*
G01X409591Y718430D02*
X395591D01*
G01Y720430D02*
X409591D01*
G01X395591Y727430D02*
Y720430D01*
G01X401191Y739430D02*
Y746430D01*
G01X409591Y727430D02*
X395591D01*
G01X401191Y730430D02*
Y737430D01*
G01X402691Y728430D02*
X421691D01*
G01Y737430D02*
X402691D01*
G01D02*
Y728430D01*
G01X401191Y748430D02*
Y755430D01*
G01X396250Y758700D02*
Y766493D01*
G02X401750I2750J-345D01*
G01D02*
Y758700D01*
G02X396250I-2750J620D01*
G01X399250Y766700D02*
Y758907D01*
G03X404750I2750J345D01*
G01D02*
Y766700D01*
G03X399250I-2750J-620D01*
G01X392250Y768450D02*
Y756950D01*
G01D02*
X397750D01*
G01D02*
Y768450D01*
G01X398000Y773700D02*
X395500D01*
G01D02*
Y780700D01*
G01X398000Y773700D02*
X395500D01*
G01D02*
Y780700D01*
G01X397750Y768450D02*
X392250D01*
G01X393750Y771950D02*
Y783450D01*
G01X401500Y785700D02*
X400500D01*
G01X401500D02*
X400500D01*
G01X401250Y814493D02*
Y806700D01*
G03X406750I2750J620D01*
G01D02*
Y814493D01*
G03X401250I-2750J-345D01*
G01X402551Y820239D02*
X405551D01*
G01X401250Y834450D02*
Y823950D01*
G01D02*
X402250Y822950D01*
G01D02*
X405750D01*
G01X406750Y834450D02*
X401250D01*
G01X415750Y712200D02*
Y704407D01*
G03X421250I2750J345D01*
G01D02*
Y712200D01*
G03X415750I-2750J-620D01*
G01X409591Y711430D02*
Y718430D01*
G01Y720430D02*
Y727430D01*
G01X411841Y726680D02*
Y715180D01*
G01D02*
X417341D01*
G01Y726680D02*
X411841D01*
G01X404000Y773700D02*
X406500D01*
G01D02*
Y780700D01*
G01X404000Y773700D02*
X406500D01*
G01D02*
Y780700D01*
G01X407500Y785200D02*
Y776200D01*
G01D02*
X426500D01*
G01Y785200D02*
X407500D01*
G01X415465Y799500D02*
X447841D01*
G01X415465Y853700D02*
Y799500D01*
G01X404051Y818239D02*
Y822239D01*
G01X405750Y822950D02*
X406750Y823950D01*
G01D02*
Y834450D01*
G01X447841Y853700D02*
X415465D01*
G01X426191Y682430D02*
X440191D01*
G01X426191Y689430D02*
Y682430D01*
G01Y691430D02*
X440191D01*
G01Y698430D02*
X426191D01*
G01D02*
Y691430D01*
G01X440191Y689430D02*
X426191D01*
G01Y700430D02*
X440191D01*
G01Y707430D02*
X426191D01*
G01D02*
Y700430D01*
G01X417341Y715180D02*
Y726680D01*
G01X427441Y720880D02*
X438941D01*
G01Y726380D02*
X427441D01*
G01D02*
Y720880D01*
G01X421691Y728430D02*
Y737430D01*
G01X423500Y728200D02*
X442500D01*
G01Y737200D02*
X423500D01*
G01D02*
Y728200D01*
G01X422250Y759700D02*
Y767493D01*
G02X427750I2750J-345D01*
G01D02*
Y759700D01*
G02X422250I-2750J620D01*
G01X426250Y767700D02*
Y759907D01*
G03X431750I2750J345D01*
G01X419250Y769450D02*
Y757950D01*
G01D02*
X424750D01*
G01D02*
Y769450D01*
G01X431750Y759907D02*
Y767700D01*
G03X426250I-2750J-620D01*
G01X426500Y776200D02*
Y785200D01*
G01X428500Y776200D02*
X447500D01*
G01X428500Y785200D02*
Y776200D01*
G01X424750Y769450D02*
X419250D01*
G01X447500Y785200D02*
X428500D01*
G01X425641Y853700D02*
Y847500D01*
G01D02*
X442441D01*
G01X440191Y682430D02*
Y689430D01*
G01Y691430D02*
Y698430D01*
G01Y700430D02*
Y707430D01*
G01X438941Y720880D02*
Y726380D01*
G01X442500Y728200D02*
Y737200D01*
G01X442441Y847500D02*
Y853700D01*
G01X447500Y776200D02*
Y785200D01*
G01X447841Y799500D02*
Y853700D01*
G54D43*
X159290Y54860D03*
Y93442D03*
G54D25*
X53116Y176950D03*
X61384D03*
X124116Y102200D03*
X132384D03*
G54D16*
X28500Y172400D03*
Y176500D03*
X43600Y107050D03*
Y111150D03*
Y126850D03*
Y130950D03*
X40200Y164450D03*
X55850Y106050D03*
Y108900D03*
Y111750D03*
Y114800D03*
Y122700D03*
X50400Y152250D03*
Y148150D03*
X44300Y164450D03*
X51450Y169450D03*
X55550D03*
X59950Y106050D03*
Y108900D03*
Y111750D03*
Y114800D03*
Y122700D03*
X73050Y110850D03*
X77150D03*
X73050Y106900D03*
X77150D03*
Y118700D03*
X73050D03*
X77150Y124600D03*
X73050D03*
Y134500D03*
X77150D03*
X72900Y150250D03*
Y144050D03*
Y148150D03*
Y154350D03*
X89750Y62400D03*
Y66500D03*
X94750Y62400D03*
Y66500D03*
Y82400D03*
Y86500D03*
X89750D03*
Y82400D03*
X85200Y115850D03*
Y119950D03*
X88100Y152750D03*
X97000Y153450D03*
X88100Y156850D03*
X97000Y157550D03*
X99750Y62400D03*
Y66500D03*
Y82400D03*
Y86500D03*
X104750Y82400D03*
Y86500D03*
X99500Y97650D03*
Y101750D03*
X102550Y150500D03*
X98450D03*
Y144500D03*
X102550D03*
X123750Y30450D03*
Y34550D03*
X122450Y94700D03*
X115300Y89700D03*
X111200D03*
X115000Y123300D03*
Y119200D03*
X121000Y118950D03*
Y123050D03*
X112500Y129200D03*
Y133300D03*
X116250D03*
Y129200D03*
X136250Y47050D03*
Y42950D03*
X126550Y94700D03*
X125500Y118950D03*
Y123050D03*
X130000Y118950D03*
Y123050D03*
X126270Y129080D03*
Y133180D03*
X130020Y129080D03*
Y133180D03*
X129000Y179550D03*
Y175450D03*
X148650Y36500D03*
X163950Y46950D03*
X152750Y36500D03*
X174200Y31250D03*
X168050Y46950D03*
X171450D03*
X175550D03*
X174200Y35000D03*
X176150Y111500D03*
Y116500D03*
X178300Y31250D03*
X178950Y46950D03*
X183050D03*
X190650Y40500D03*
X178300Y35000D03*
X180250Y111500D03*
Y116500D03*
X203200Y38050D03*
X194750Y40500D03*
X203650Y106500D03*
Y121500D03*
Y116500D03*
X213900Y30050D03*
X207300Y38050D03*
X207750Y106500D03*
Y121500D03*
Y116500D03*
X218000Y30050D03*
X229000Y67750D03*
X224900D03*
X229000Y71500D03*
X224900D03*
X222050Y86250D03*
X217950D03*
Y78750D03*
X222050D03*
X217950Y82500D03*
X222050D03*
X217950Y93750D03*
X222050D03*
Y90000D03*
X217950D03*
X222500Y109550D03*
Y105450D03*
X234900Y67750D03*
X239000D03*
Y71500D03*
X234900D03*
Y75250D03*
X239000D03*
X234900Y79000D03*
X239000D03*
X234900D03*
X239000D03*
X243200Y94800D03*
Y90700D03*
X256000Y36150D03*
Y40250D03*
X246950Y69800D03*
Y65700D03*
X250700Y69800D03*
Y65700D03*
X267450Y71050D03*
Y66950D03*
X262750Y80250D03*
X258650D03*
X259900Y85750D03*
X264000D03*
X258650Y76500D03*
X262750D03*
X259900Y85750D03*
X264000D03*
X271200Y74450D03*
Y78550D03*
G54D34*
X94100Y166600D03*
Y163800D03*
X88500Y165200D03*
Y162400D03*
X94100Y161000D03*
X88500Y159600D03*
X94100Y158200D03*
Y172200D03*
Y169400D03*
X88500Y170800D03*
Y168000D03*
Y173600D03*
X149752Y135805D03*
Y127405D03*
Y133005D03*
Y130205D03*
Y149805D03*
Y152605D03*
Y143805D03*
Y147005D03*
Y141005D03*
Y158205D03*
Y155405D03*
Y165805D03*
Y162605D03*
Y174205D03*
Y168605D03*
Y177005D03*
Y171405D03*
X156952Y137405D03*
Y134605D03*
Y131805D03*
Y140205D03*
Y143005D03*
Y150605D03*
Y147405D03*
Y153405D03*
X163352Y166205D03*
X156952Y161805D03*
Y159005D03*
Y156205D03*
Y164605D03*
Y175805D03*
Y170205D03*
Y178605D03*
Y167405D03*
X157033Y173005D03*
X164552Y147405D03*
Y144605D03*
Y153405D03*
Y150605D03*
Y161805D03*
Y159005D03*
Y156205D03*
G54D52*
X254174Y84974D03*
Y83400D03*
Y81825D03*
Y80250D03*
Y78675D03*
Y77100D03*
Y75526D03*
X252600Y84974D03*
Y83400D03*
Y81825D03*
Y80250D03*
Y78675D03*
Y77100D03*
Y75526D03*
X251025Y84974D03*
Y83400D03*
Y81825D03*
Y80250D03*
Y78675D03*
Y77100D03*
Y75526D03*
X249450Y84974D03*
Y83400D03*
Y81825D03*
Y80250D03*
Y78675D03*
Y77100D03*
Y75526D03*
X247875Y84974D03*
Y83400D03*
Y81825D03*
Y80250D03*
Y78675D03*
Y77100D03*
Y75526D03*
X246300Y84974D03*
Y83400D03*
Y81825D03*
Y80250D03*
Y78675D03*
Y77100D03*
Y75526D03*
X244726Y84974D03*
Y83400D03*
Y81825D03*
Y80250D03*
Y78675D03*
Y77100D03*
Y75526D03*
G54D62*
G01X254291Y633230D02*
X251291D01*
G01D02*
Y626230D01*
G01D02*
X254291D01*
G01D02*
Y633230D01*
G01X255291Y626230D02*
X258291D01*
G01Y633230D02*
X255291D01*
G01D02*
Y626230D01*
G01Y634230D02*
X258291D01*
G01Y641230D02*
X255291D01*
G01D02*
Y634230D01*
G01X254291Y641230D02*
X251291D01*
G01D02*
Y634230D01*
G01D02*
X254291D01*
G01D02*
Y641230D01*
G01X258291Y626230D02*
Y633230D01*
G01Y634230D02*
Y641230D01*
G01X342951Y778896D02*
X341951D01*
G01D02*
Y786896D01*
G01D02*
X346451D01*
G01X355451Y778896D02*
X356451D01*
G01D02*
Y786896D01*
G01D02*
X351951D01*
G01X369900Y607800D02*
Y604800D01*
G01D02*
X376900D01*
G01D02*
Y607800D01*
G01D02*
X369900D01*
G54D17*
G01X198413Y597280D02*
G03X197369I-522J0D01*
G03X198413I522J0D01*
G01X216413D02*
G03X215369I-522J0D01*
G03X216413I522J0D01*
G01X234413D02*
G03X233369I-522J0D01*
G03X234413I522J0D01*
G01X252413D02*
G03X251369I-522J0D01*
G03X252413I522J0D01*
G01X249013Y648080D02*
G03X247969I-522J0D01*
G03X249013I522J0D01*
X27250Y184450D03*
X89750Y94000D03*
X86000D03*
X89500Y153000D03*
X123300Y177800D03*
X121300Y175300D03*
X117300Y180300D03*
X119300Y177800D03*
X121300Y180300D03*
X117300Y175300D03*
X123300Y182800D03*
X119300D03*
X134500Y83000D03*
X128000Y85000D03*
X134369Y75401D03*
X129000Y172500D03*
X125300Y185300D03*
X144500Y118500D03*
X138500Y177000D03*
X168000Y118000D03*
X194500Y94000D03*
X226590Y80060D03*
X227250Y183200D03*
X234450Y61500D03*
G54D44*
X178450Y111500D03*
Y106500D03*
Y101500D03*
Y116500D03*
X205450Y101500D03*
Y106500D03*
Y111500D03*
Y116500D03*
G54D35*
X106500Y144400D03*
Y150600D03*
X243200Y63400D03*
Y69600D03*
X254450Y63400D03*
Y69600D03*
G54D26*
X54150Y184450D03*
X63450Y102600D03*
X69650D03*
X60350Y184450D03*
X125150Y109700D03*
X131350D03*
X231350Y84000D03*
Y89000D03*
Y94000D03*
X237550Y84000D03*
Y89000D03*
Y94000D03*
X271300Y92750D03*
X265100D03*
X271300Y97750D03*
X265100D03*
X271300Y102750D03*
X265100D03*
X271300Y107750D03*
X265100D03*
G54D53*
X248950Y96500D03*
G54D63*
G01X307721Y712275D02*
X307390Y712605D01*
G01D02*
X301156D01*
G01D02*
X300670Y712119D01*
G01D02*
Y709785D01*
G01D02*
X301000Y709455D01*
G01D02*
X307360D01*
G01D02*
X307721Y709816D01*
G01D02*
Y712275D01*
G01Y704775D02*
X307390Y705105D01*
G01D02*
X301156D01*
G01D02*
X300670Y704619D01*
G01D02*
Y702285D01*
G01D02*
X301000Y701955D01*
G01D02*
X307360D01*
G01D02*
X307721Y702316D01*
G01D02*
Y704775D01*
G01X300970Y713685D02*
X301300Y713355D01*
G01D02*
X307660D01*
G01D02*
X308021Y713716D01*
G01Y716175D02*
X307690Y716505D01*
G01D02*
X301456D01*
G01D02*
X300970Y716019D01*
G01D02*
Y713685D01*
G01X308021Y713716D02*
Y716175D01*
G01X308321Y723975D02*
X307990Y724305D01*
G01D02*
X301756D01*
G01D02*
X301270Y723819D01*
G01D02*
Y721485D01*
G01D02*
X301600Y721155D01*
G01D02*
X307960D01*
G01D02*
X308321Y721516D01*
G01D02*
Y723975D01*
G01X301270Y728019D02*
Y725685D01*
G01D02*
X301600Y725355D01*
G01D02*
X307960D01*
G01D02*
X308321Y725716D01*
G01D02*
Y728175D01*
G01X307545Y730470D02*
X307875Y730801D01*
G01D02*
Y737035D01*
G01D02*
X307389Y737521D01*
G01D02*
X305055D01*
G01D02*
X304725Y737191D01*
G01D02*
Y730831D01*
G01D02*
X305086Y730470D01*
G01D02*
X307545D01*
G01X308321Y728175D02*
X307990Y728505D01*
G01D02*
X301756D01*
G01D02*
X301270Y728019D01*
G01X308921Y751585D02*
X308590Y751255D01*
G01D02*
X302356D01*
G01D02*
X301870Y751741D01*
G01D02*
Y754075D01*
G01X308921Y754044D02*
Y751585D01*
G01X301870Y754075D02*
X302200Y754405D01*
G01D02*
X308560D01*
G01D02*
X308921Y754044D01*
G01X311946Y696460D02*
X311616Y696129D01*
G01D02*
Y689895D01*
G01D02*
X312102Y689409D01*
G01D02*
X314436D01*
G01D02*
X314766Y689739D01*
G01D02*
Y696099D01*
G01D02*
X314405Y696460D01*
G01D02*
X311946D01*
G01X319946D02*
X319616Y696129D01*
G01D02*
Y689895D01*
G01D02*
X320102Y689409D01*
G01D02*
X322436D01*
G01D02*
X322766Y689739D01*
G01D02*
Y696099D01*
G01D02*
X322405Y696460D01*
G01D02*
X319946D01*
G01X318436Y689400D02*
X318766Y689731D01*
G01D02*
Y695965D01*
G01D02*
X318280Y696451D01*
G01D02*
X315946D01*
G01D02*
X315616Y696121D01*
G01D02*
Y689761D01*
G01D02*
X315977Y689400D01*
G01D02*
X318436D01*
G01X321445Y732370D02*
X321775Y732701D01*
G01D02*
Y738935D01*
G01D02*
X321289Y739421D01*
G01D02*
X318955D01*
G01D02*
X318625Y739091D01*
G01D02*
Y732731D01*
G01D02*
X318986Y732370D01*
G01D02*
X321445D01*
G01X325280Y739451D02*
X322946D01*
G01D02*
X322616Y739121D01*
G01D02*
Y732761D01*
G01D02*
X322977Y732400D01*
G01D02*
X325436D01*
G01X329436Y689400D02*
X329766Y689731D01*
G01D02*
Y695965D01*
G01D02*
X329280Y696451D01*
G01D02*
X326946D01*
G01D02*
X326616Y696121D01*
G01D02*
Y689761D01*
G01D02*
X326977Y689400D01*
G01D02*
X329436D01*
G01X330946Y696460D02*
X330616Y696129D01*
G01D02*
Y689895D01*
G01D02*
X331102Y689409D01*
G01D02*
X333436D01*
G01D02*
X333766Y689739D01*
G01D02*
Y696099D01*
G01D02*
X333405Y696460D01*
G01D02*
X330946D01*
G01X329616Y727129D02*
Y720895D01*
G01D02*
X330102Y720409D01*
G01D02*
X332436D01*
G01D02*
X332766Y720739D01*
G01D02*
Y727099D01*
G01D02*
X332405Y727460D01*
G01X335436Y732400D02*
X335766Y732731D01*
G01D02*
Y738965D01*
G01D02*
X335280Y739451D01*
G01D02*
X332946D01*
G01D02*
X332616Y739121D01*
G01D02*
Y732761D01*
G01D02*
X332977Y732400D01*
G01D02*
X335436D01*
G01X339280Y739451D02*
X336946D01*
G01D02*
X336616Y739121D01*
G01D02*
Y732761D01*
G01D02*
X336977Y732400D01*
G01D02*
X339436D01*
G01X331436D02*
X331766Y732731D01*
G01D02*
Y738965D01*
G01D02*
X331280Y739451D01*
G01D02*
X328946D01*
G01D02*
X328616Y739121D01*
G01D02*
Y732761D01*
G01D02*
X328977Y732400D01*
G01D02*
X331436D01*
G01X329946Y727460D02*
X329616Y727129D01*
G01X332405Y727460D02*
X329946D01*
G01X325436Y732400D02*
X325766Y732731D01*
G01D02*
Y738965D01*
G01D02*
X325280Y739451D01*
G01X340690Y747105D02*
X334456D01*
G01D02*
X333970Y746619D01*
G01D02*
Y744285D01*
G01D02*
X334300Y743955D01*
G01D02*
X340660D01*
G01X344470Y689955D02*
X344801Y689625D01*
G01D02*
X351035D01*
G01X351191Y692775D02*
X344831D01*
G01D02*
X344470Y692414D01*
G01D02*
Y689955D01*
G01X342961Y705885D02*
X343292Y705555D01*
G01D02*
X349526D01*
G01D02*
X350012Y706041D01*
G01D02*
Y708375D01*
G01D02*
X349682Y708705D01*
G01D02*
X343322D01*
G01D02*
X342961Y708344D01*
G01D02*
Y705885D01*
G01Y709785D02*
X343292Y709455D01*
G01D02*
X349526D01*
G01D02*
X350012Y709941D01*
G01D02*
Y712275D01*
G01D02*
X349682Y712605D01*
G01D02*
X343322D01*
G01D02*
X342961Y712244D01*
G01D02*
Y709785D01*
G01X343861Y720585D02*
X344192Y720255D01*
G01D02*
X350426D01*
G01D02*
X350912Y720741D01*
G01X350582Y723405D02*
X344222D01*
G01D02*
X343861Y723044D01*
G01D02*
Y720585D01*
G01X339436Y732400D02*
X339766Y732731D01*
G01D02*
Y738965D01*
G01D02*
X339280Y739451D01*
G01X341021Y746775D02*
X340690Y747105D01*
G01X340660Y743955D02*
X341021Y744316D01*
G01D02*
Y746775D01*
G01X351035Y689625D02*
X351521Y690111D01*
G01D02*
Y692445D01*
G01D02*
X351191Y692775D01*
G01X350912Y720741D02*
Y723075D01*
G01D02*
X350582Y723405D01*
G54D54*
X257450Y96500D03*
G54D45*
X190659Y148768D03*
Y145618D03*
Y142468D03*
Y164516D03*
Y161366D03*
Y167665D03*
X203258Y148768D03*
Y145618D03*
Y142468D03*
X200108Y148768D03*
Y145618D03*
Y142468D03*
X196959Y148768D03*
Y145618D03*
Y142468D03*
X193809Y148768D03*
Y145618D03*
Y142468D03*
X203258Y164516D03*
Y161366D03*
X200108Y164516D03*
Y161366D03*
X196959Y164516D03*
Y161366D03*
X193809Y164516D03*
Y161366D03*
X203258Y167665D03*
X200108D03*
X196959D03*
X193809D03*
X215856Y148768D03*
Y145618D03*
Y142468D03*
X212707Y148768D03*
Y145618D03*
Y142468D03*
X209557Y148768D03*
Y145618D03*
Y142468D03*
X206407Y148768D03*
Y145618D03*
Y142468D03*
X215856Y164516D03*
Y161366D03*
X212707Y164516D03*
Y161366D03*
X209557Y164516D03*
Y161366D03*
X206407Y164516D03*
Y161366D03*
X215856Y167665D03*
X212707D03*
X209557D03*
X206407D03*
X219006Y148768D03*
Y145618D03*
Y142468D03*
Y164516D03*
Y161366D03*
Y167665D03*
G54D36*
G01X404000Y-115000D02*
X-46000D01*
Y-190000D01*
X404100D01*
Y-115000D01*
G01X404000Y-165000D02*
X-46000D01*
G01Y-140000D02*
X404000D01*
G01X101600Y-165000D02*
Y-190000D01*
G01X139100Y-165000D02*
Y-190000D01*
G01X179000Y-165000D02*
Y-140000D01*
G01X185000Y606200D02*
X205000D01*
G01X185000Y646200D02*
Y606200D01*
G01X187500Y633700D02*
Y618700D01*
G01D02*
X192500D01*
G01X187500Y619700D02*
X192000D01*
G01X187500Y620200D02*
X192000D01*
G01X187500Y619200D02*
X192000D01*
G01X192500Y633700D02*
X187500D01*
G01Y626200D02*
X192000D01*
G01X187500Y625700D02*
X192000D01*
G01X187500Y625200D02*
X192000D01*
G01X187500Y624700D02*
X192000D01*
G01X187500Y624200D02*
X192000D01*
G01X187500Y623700D02*
X192000D01*
G01X187500Y623200D02*
X192000D01*
G01X187500Y622700D02*
X192000D01*
G01X187500Y622200D02*
X192000D01*
G01X187500Y621200D02*
X192000D01*
G01X187500Y621700D02*
X192000D01*
G01X187500Y620700D02*
X192000D01*
G01X205000Y646200D02*
X185000D01*
G01X192500Y618700D02*
Y633700D01*
G01X197500D02*
Y618700D01*
G01D02*
X202500D01*
G01D02*
Y633700D01*
G01X197500Y620200D02*
X202000D01*
G01X197500Y619200D02*
X202000D01*
G01X197500Y619700D02*
X202000D01*
G01X202500Y633700D02*
X197500D01*
G01Y626200D02*
X202000D01*
G01X197500Y625700D02*
X202000D01*
G01X197500Y625200D02*
X202000D01*
G01X197500Y624700D02*
X202000D01*
G01X197500Y624200D02*
X202000D01*
G01X197500Y623200D02*
X202000D01*
G01X197500Y623700D02*
X202000D01*
G01X197500Y622700D02*
X202000D01*
G01X197500Y622200D02*
X202000D01*
G01X197500Y621700D02*
X202000D01*
G01X197500Y621200D02*
X202000D01*
G01X197500Y620700D02*
X202000D01*
G01X205000Y606200D02*
Y646200D01*
G01X221600Y-190000D02*
Y-165000D01*
G01X274691Y644430D02*
X266691D01*
G01D02*
Y635430D01*
G01D02*
X274691D01*
G01X266691Y676430D02*
Y667430D01*
G01D02*
X274691D01*
G01Y676430D02*
X266691D01*
G01X277691Y644430D02*
X285691D01*
G01Y635430D02*
X277691D01*
G01X285691Y667430D02*
X277691D01*
G01X279422Y666280D02*
G03X279148I-137J0D01*
G03X279422I137J0D01*
G01X277691Y676430D02*
X285691D01*
G01Y644430D02*
Y635430D01*
G01Y676430D02*
Y667430D01*
G01X309681Y730448D02*
Y698952D01*
G01D02*
X341177D01*
G01Y730448D02*
X309681D01*
G01X319000Y-165000D02*
Y-190000D01*
G01X352091Y557430D02*
X344091D01*
G01D02*
Y566430D01*
G01D02*
X352091D01*
G01X341177Y698952D02*
Y730448D01*
G01X355091Y557430D02*
X363091D01*
G01D02*
Y566430D01*
G01D02*
X355091D01*
G01X373091D02*
X365091D01*
G01D02*
Y557430D01*
G01D02*
X373091D01*
G01X376091Y566430D02*
X384091D01*
G01Y557430D02*
X376091D01*
G01X384091Y566430D02*
Y557430D01*
X107174Y152472D03*
X108749D03*
X110324D03*
X107174Y150897D03*
X108749D03*
X110324D03*
X107174Y149322D03*
X108749D03*
X110324D03*
X107174Y147747D03*
X108749D03*
X110324D03*
X107174Y146172D03*
X108749D03*
X110324D03*
X107174Y144598D03*
X108749D03*
X110324D03*
X107174Y143023D03*
X108749D03*
X110324D03*
X107174Y165070D03*
X108749D03*
X110324D03*
X107174Y163495D03*
X108749D03*
X110324D03*
X107174Y161920D03*
X108749D03*
X110324D03*
X107174Y160346D03*
X108749D03*
X110324D03*
X107174Y158771D03*
X108749D03*
X110324D03*
X107174Y157196D03*
X108749D03*
X110324D03*
X107174Y155621D03*
X108749D03*
X110324D03*
X107174Y154046D03*
X108749D03*
X110324D03*
X111899Y152472D03*
Y150897D03*
Y149322D03*
Y147747D03*
X113473D03*
X115048D03*
X116623D03*
X118198D03*
X119773D03*
X121347D03*
X122922D03*
X111899Y146172D03*
X113473D03*
X115048D03*
X116623D03*
X118198D03*
X119773D03*
X121347D03*
X122922D03*
X111899Y144598D03*
X113473D03*
X115048D03*
X116623D03*
X118198D03*
X119773D03*
X121347D03*
X122922D03*
X111899Y143023D03*
X113473D03*
X115048D03*
X116623D03*
X118198D03*
X119773D03*
X121347D03*
X122922D03*
X111899Y165070D03*
X113473D03*
X115048D03*
X116623D03*
X118198D03*
X119773D03*
X121347D03*
X122922D03*
X111899Y163495D03*
X113473D03*
X115048D03*
X116623D03*
X118198D03*
X119773D03*
X121347D03*
X122922D03*
X111899Y161920D03*
X113473D03*
X115048D03*
X116623D03*
X118198D03*
X119773D03*
X121347D03*
X122922D03*
X111899Y160346D03*
X113473D03*
X115048D03*
X116623D03*
X118198D03*
X119773D03*
X121347D03*
X122922D03*
X111899Y158771D03*
Y157196D03*
Y155621D03*
Y154046D03*
X124497Y152472D03*
X126072D03*
X127647D03*
X129221D03*
X124497Y150897D03*
X126072D03*
X127647D03*
X129221D03*
X124497Y149322D03*
X126072D03*
X127647D03*
X129221D03*
X124497Y147747D03*
X126072D03*
X127647D03*
X129221D03*
X124497Y146172D03*
X126072D03*
X127647D03*
X129221D03*
X124497Y144598D03*
X126072D03*
X127647D03*
X129221D03*
X124497Y143023D03*
X126072D03*
X127647D03*
X129221D03*
X124497Y165070D03*
X126072D03*
X127647D03*
X129221D03*
X124497Y163495D03*
X126072D03*
X127647D03*
X129221D03*
X124497Y161920D03*
X126072D03*
X127647D03*
X129221D03*
X124497Y160346D03*
X126072D03*
X127647D03*
X129221D03*
X124497Y158771D03*
X126072D03*
X127647D03*
X129221D03*
X124497Y157196D03*
X126072D03*
X127647D03*
X129221D03*
X124497Y155621D03*
X126072D03*
X127647D03*
X129221D03*
X124497Y154046D03*
X126072D03*
X127647D03*
X129221D03*
G54D27*
X71000Y47650D03*
Y36250D03*
Y60000D03*
Y71400D03*
G54D18*
X41000Y53200D03*
D03*
G54D64*
G01X399850Y788810D02*
Y802590D01*
G01X406150Y788810D02*
X399850D01*
G01Y802590D02*
X406150D01*
G01X412837Y792018D02*
X414991Y793230D01*
G01D02*
Y790685D01*
G01D02*
X412837Y792018D01*
G01X406150Y802590D02*
Y788810D01*
G54D55*
X267450Y78156D03*
Y74844D03*
G54D28*
X66500Y96907D03*
Y160293D03*
G54D46*
X204335Y38050D03*
X213665Y41790D03*
Y34310D03*
G54D19*
X44850Y176950D03*
Y169450D03*
X34650D03*
Y173200D03*
Y176950D03*
X105650Y94700D03*
Y98450D03*
Y102200D03*
X115850Y94700D03*
Y102200D03*
G54D37*
X110069Y142500D03*
X112431D03*
X117431D03*
X115069D03*
X120819Y152000D03*
X123181D03*
X120819Y147000D03*
X123181D03*
X120819Y149500D03*
X123181D03*
X120819Y154500D03*
X123181D03*
X120819Y157000D03*
X123181D03*
X129181Y152000D03*
X126819D03*
X129181Y149500D03*
X126819D03*
X129181Y147000D03*
X126819D03*
X129181Y154500D03*
X126819D03*
X129181Y157000D03*
X126819D03*
X149670Y138605D03*
X152033D03*
X188070Y175405D03*
X190433D03*
X192470Y135005D03*
X194833D03*
X202833D03*
X200470D03*
X200870Y175405D03*
X203233D03*
X194470D03*
X196833D03*
X210433Y135005D03*
X208070D03*
X208833Y175405D03*
X206470D03*
G54D65*
G01X315343Y630430D02*
G03X314239I-552J0D01*
G03X315343I552J0D01*
G54D56*
G01X216250Y434500D02*
Y422000D01*
X188250D01*
Y434500D01*
G01X216250Y494500D02*
Y507000D01*
X188250D01*
Y494500D01*
G01X208250Y422000D02*
X216250Y430000D01*
G01X208250Y507000D02*
X216250Y499000D01*
G54D29*
X72799Y99466D03*
D03*
Y157734D03*
D03*
G54D47*
X210600Y159000D03*
G54D38*
X105000Y173900D03*
X110600D03*
X106400Y179500D03*
X107800Y173900D03*
X102200D03*
X99400D03*
X100800Y179500D03*
X103600D03*
X109200D03*
X112200D03*
X113400Y173900D03*
G54D57*
G01X21610Y2060D02*
Y4560D01*
X21290Y4060D01*
G01Y2060D02*
X21930D01*
G01X28083Y26013D02*
X28243Y26263D01*
X28430Y26388D01*
X28643Y26430D01*
X28910Y26347D01*
X29097Y26138D01*
X29150Y25888D01*
X29123Y25638D01*
X29017Y25430D01*
X28483Y25013D01*
X28243Y24722D01*
X28083Y24305D01*
X28030Y23930D01*
X29150D01*
G01X21610Y191600D02*
Y194100D01*
X21290Y193600D01*
G01Y191600D02*
X21930D01*
G01X21453Y212423D02*
X21613Y212673D01*
X21800Y212798D01*
X22013Y212840D01*
X22280Y212757D01*
X22467Y212548D01*
X22520Y212298D01*
X22493Y212048D01*
X22387Y211840D01*
X21853Y211423D01*
X21613Y211132D01*
X21453Y210715D01*
X21400Y210340D01*
X22520D01*
G01X32647Y181757D02*
X34480Y180583D01*
G01X34813Y181170D02*
X32313D01*
G01X32647Y180583D02*
X34480Y181757D01*
G01X33563Y181970D02*
Y180370D01*
G01X104397Y105767D02*
X106230Y104593D01*
G01X106563Y105180D02*
X104063D01*
G01X104397Y104593D02*
X106230Y105767D01*
G01X105313Y105980D02*
Y104380D01*
G01X102500Y136700D02*
Y139200D01*
X102180Y138700D01*
G01Y136700D02*
X102820D01*
G01X104113Y137075D02*
X104273Y136867D01*
X104460Y136742D01*
X104700Y136700D01*
X104940Y136783D01*
X105127Y136950D01*
X105260Y137242D01*
X105287Y137575D01*
X105233Y137908D01*
X105100Y138117D01*
X104913Y138283D01*
X104727Y138325D01*
X104540Y138283D01*
X104300Y138117D01*
X104380Y139200D01*
X105100D01*
G01X131040Y137920D02*
Y140420D01*
X130720Y139920D01*
G01Y137920D02*
X131360D01*
G01X133023Y142830D02*
X133690Y145330D01*
X134357Y142830D01*
G01X134117Y143705D02*
X133263D01*
G01X132867Y165100D02*
Y167600D01*
X133533D01*
X133747Y167475D01*
X133880Y167308D01*
X133933Y166975D01*
X133880Y166642D01*
X133720Y166433D01*
X133533Y166308D01*
X132867D01*
G01X133533D02*
X133933Y165100D01*
G01X185580Y140420D02*
Y142920D01*
X185260Y142420D01*
G01Y140420D02*
X185900D01*
G01X188803Y135870D02*
X189470Y138370D01*
X190137Y135870D01*
G01X189897Y136745D02*
X189043D01*
G01X184447Y168592D02*
X184633Y168383D01*
X184847Y168300D01*
X185060Y168383D01*
X185247Y168633D01*
X185380Y169008D01*
X185433Y169383D01*
Y169842D01*
X185380Y170217D01*
X185247Y170550D01*
X185087Y170717D01*
X184900Y170800D01*
X184687Y170717D01*
X184527Y170550D01*
X184420Y170300D01*
X184367Y169967D01*
X184420Y169675D01*
X184553Y169383D01*
X184713Y169217D01*
X184900Y169175D01*
X185113Y169258D01*
X185273Y169467D01*
X185433Y169842D01*
G01X220413Y135900D02*
Y138400D01*
G01X221427D02*
X220413Y136858D01*
G01X221587Y135900D02*
X220867Y137567D01*
G01X241323Y30607D02*
X242497Y32440D01*
G01X241910Y32773D02*
Y30273D01*
G01X242497Y30607D02*
X241323Y32440D01*
G01X241110Y31523D02*
X242710D01*
G01X242288Y86408D02*
X242822D01*
Y85658D01*
X242662Y85408D01*
X242475Y85241D01*
X242208Y85158D01*
X241942Y85241D01*
X241755Y85408D01*
X241595Y85658D01*
X241488Y85949D01*
X241435Y86283D01*
Y86574D01*
X241488Y86824D01*
X241595Y87116D01*
X241755Y87366D01*
X241915Y87533D01*
X242128Y87658D01*
X242315D01*
X242528Y87574D01*
X242688Y87408D01*
G01X256440Y6040D02*
Y8540D01*
X255453Y6748D01*
X256787D01*
G01X257733Y6415D02*
X257893Y6207D01*
X258080Y6082D01*
X258320Y6040D01*
X258560Y6123D01*
X258747Y6290D01*
X258880Y6582D01*
X258907Y6915D01*
X258853Y7248D01*
X258720Y7457D01*
X258533Y7623D01*
X258347Y7665D01*
X258160Y7623D01*
X257920Y7457D01*
X258000Y8540D01*
X258720D01*
G01X249860Y24070D02*
Y26570D01*
X248873Y24778D01*
X250207D01*
G01X251233Y25112D02*
X251420Y25403D01*
X251580Y25570D01*
X251793Y25653D01*
X251980Y25570D01*
X252113Y25403D01*
X252220Y25153D01*
X252247Y24862D01*
X252220Y24612D01*
X252113Y24362D01*
X251953Y24153D01*
X251767Y24070D01*
X251553Y24153D01*
X251367Y24403D01*
X251260Y24778D01*
X251233Y25195D01*
X251287Y25737D01*
X251367Y26028D01*
X251500Y26320D01*
X251687Y26528D01*
X251873Y26570D01*
X252060Y26487D01*
X252193Y26278D01*
G01X254710Y86218D02*
X255377Y88718D01*
X256044Y86218D01*
G01X255804Y87093D02*
X254950D01*
G01X257557Y84882D02*
Y87382D01*
X257237Y86882D01*
G01Y84882D02*
X257877D01*
G01X256933Y75299D02*
X256987Y75841D01*
X257067Y76299D01*
X257173Y76716D01*
X257307Y77174D01*
X257520Y77799D01*
X256453D01*
G01X252380Y188420D02*
Y190920D01*
X251393Y189128D01*
X252727D01*
G01X253673Y188795D02*
X253833Y188587D01*
X254020Y188462D01*
X254260Y188420D01*
X254500Y188503D01*
X254687Y188670D01*
X254820Y188962D01*
X254847Y189295D01*
X254793Y189628D01*
X254660Y189837D01*
X254473Y190003D01*
X254287Y190045D01*
X254100Y190003D01*
X253860Y189837D01*
X253940Y190920D01*
X254660D01*
G01X256530Y205920D02*
Y208420D01*
X255543Y206628D01*
X256877D01*
G01X257903Y206962D02*
X258090Y207253D01*
X258250Y207420D01*
X258463Y207503D01*
X258650Y207420D01*
X258783Y207253D01*
X258890Y207003D01*
X258917Y206712D01*
X258890Y206462D01*
X258783Y206212D01*
X258623Y206003D01*
X258437Y205920D01*
X258223Y206003D01*
X258037Y206253D01*
X257930Y206628D01*
X257903Y207045D01*
X257957Y207587D01*
X258037Y207878D01*
X258170Y208170D01*
X258357Y208378D01*
X258543Y208420D01*
X258730Y208337D01*
X258863Y208128D01*
G54D48*
X208400Y159000D03*
G54D39*
X105000Y176100D03*
X110600D03*
X107800D03*
X102200D03*
X99400D03*
X106400Y181700D03*
X100800D03*
X103600D03*
X109200D03*
X113400Y176100D03*
X112200Y181700D03*
G54D58*
G01X-40600Y-174200D02*
X-37500D01*
X-36900Y-173500D01*
Y-172300D01*
X-37500Y-171700D01*
X-36900Y-171100D01*
Y-169800D01*
X-37500Y-169200D01*
X-40600D01*
Y-174200D01*
G01Y-171700D02*
X-37500D01*
G01X-40600D02*
X-37500D01*
G01X-40600Y-174200D02*
X-37500D01*
X-36900Y-173500D01*
Y-172300D01*
X-37500Y-171700D01*
X-36900Y-171100D01*
Y-169800D01*
X-37500Y-169200D01*
X-40600D01*
Y-174200D01*
G01X-37500Y-146700D02*
X-40600D01*
G01Y-149200D02*
X-37500D01*
X-36900Y-148500D01*
Y-147300D01*
X-37500Y-146700D01*
X-36900Y-146100D01*
Y-144800D01*
X-37500Y-144200D01*
X-40600D01*
Y-149200D01*
G01D02*
X-37500D01*
X-36900Y-148500D01*
Y-147300D01*
X-37500Y-146700D01*
X-36900Y-146100D01*
Y-144800D01*
X-37500Y-144200D01*
X-40600D01*
Y-149200D01*
G01X-37500Y-146700D02*
X-40600D01*
G01Y-123500D02*
X-40000Y-124200D01*
X-37500D01*
X-36900Y-123500D01*
Y-122900D01*
G01Y-120400D02*
Y-119800D01*
X-37500Y-119200D01*
X-40000D01*
X-40600Y-119800D01*
Y-123500D01*
G01X-36900Y-120400D02*
Y-119800D01*
X-37500Y-119200D01*
X-40000D01*
X-40600Y-119800D01*
Y-123500D01*
G01D02*
X-40000Y-124200D01*
X-37500D01*
X-36900Y-123500D01*
Y-122900D01*
G01X-30600Y-174200D02*
Y-170400D01*
X-29300Y-169200D01*
X-28100D01*
X-26900Y-170400D01*
Y-174200D01*
G01X-25600D02*
Y-169200D01*
X-22500D01*
X-21900Y-169800D01*
Y-171100D01*
X-22500Y-171700D01*
X-25600D01*
G01X-24300D02*
X-21900Y-174200D01*
G01X-26900Y-172300D02*
X-30600D01*
G01X-35600Y-173500D02*
X-35000Y-174200D01*
X-32500D01*
X-31900Y-173500D01*
Y-169800D01*
X-32500Y-169200D01*
X-35000D01*
X-35600Y-169800D01*
Y-173500D01*
G01D02*
X-35000Y-174200D01*
X-32500D01*
X-31900Y-173500D01*
Y-169800D01*
X-32500Y-169200D01*
X-35000D01*
X-35600Y-169800D01*
Y-173500D01*
G01X-26900Y-172300D02*
X-30600D01*
G01X-24300Y-171700D02*
X-21900Y-174200D01*
G01X-25600D02*
Y-169200D01*
X-22500D01*
X-21900Y-169800D01*
Y-171100D01*
X-22500Y-171700D01*
X-25600D01*
G01X-30600Y-174200D02*
Y-170400D01*
X-29300Y-169200D01*
X-28100D01*
X-26900Y-170400D01*
Y-174200D01*
G01X-21900Y-149200D02*
X-24300Y-146700D01*
G01X-25600D02*
X-22500D01*
X-21900Y-146100D01*
Y-144800D01*
X-22500Y-144200D01*
X-25600D01*
Y-149200D01*
G01X-26900D02*
Y-145400D01*
X-28100Y-144200D01*
X-29300D01*
X-30600Y-145400D01*
Y-149200D01*
G01Y-147300D02*
X-26900D01*
G01X-35600Y-148500D02*
X-35000Y-149200D01*
X-32500D01*
X-31900Y-148500D01*
Y-144800D01*
X-32500Y-144200D01*
X-35000D01*
X-35600Y-144800D01*
Y-148500D01*
G01D02*
X-35000Y-149200D01*
X-32500D01*
X-31900Y-148500D01*
Y-144800D01*
X-32500Y-144200D01*
X-35000D01*
X-35600Y-144800D01*
Y-148500D01*
G01X-30600Y-147300D02*
X-26900D01*
G01Y-149200D02*
Y-145400D01*
X-28100Y-144200D01*
X-29300D01*
X-30600Y-145400D01*
Y-149200D01*
G01X-25600Y-146700D02*
X-22500D01*
X-21900Y-146100D01*
Y-144800D01*
X-22500Y-144200D01*
X-25600D01*
Y-149200D01*
G01X-21900D02*
X-24300Y-146700D01*
G01X-30600Y-123500D02*
X-30000Y-124200D01*
X-27500D01*
X-26900Y-123500D01*
Y-122300D01*
X-27500Y-121700D01*
X-30000D01*
X-30600Y-121100D01*
Y-119800D01*
X-30000Y-119200D01*
X-27500D01*
X-26900Y-119800D01*
G01X-25500Y-119200D02*
X-23600D01*
Y-124400D01*
G01X-21700Y-119200D02*
X-23600D01*
G01X-35600D02*
Y-122900D01*
X-34300Y-124200D01*
X-33100D01*
X-31900Y-122900D01*
Y-119200D01*
G01X-35600D02*
Y-122900D01*
X-34300Y-124200D01*
X-33100D01*
X-31900Y-122900D01*
Y-119200D01*
G01X-21700D02*
X-23600D01*
G01X-25500D02*
X-23600D01*
Y-124400D01*
G01X-30600Y-123500D02*
X-30000Y-124200D01*
X-27500D01*
X-26900Y-123500D01*
Y-122300D01*
X-27500Y-121700D01*
X-30000D01*
X-30600Y-121100D01*
Y-119800D01*
X-30000Y-119200D01*
X-27500D01*
X-26900Y-119800D01*
G01X-10600Y-174200D02*
Y-169200D01*
G01Y-169800D02*
X-6900Y-173500D01*
G01X-20600Y-174200D02*
X-18100D01*
X-16900Y-172900D01*
Y-170400D01*
X-18100Y-169200D01*
X-20600D01*
Y-174200D01*
G01D02*
X-18100D01*
X-16900Y-172900D01*
Y-170400D01*
X-18100Y-169200D01*
X-20600D01*
Y-174200D01*
G01X-10600Y-169800D02*
X-6900Y-173500D01*
G01X-10600Y-174200D02*
Y-169200D01*
G01X-6900Y-148500D02*
X-10600Y-144800D01*
G01Y-144200D02*
Y-149200D01*
G01X-20600D02*
X-18100D01*
X-16900Y-147900D01*
Y-145400D01*
X-18100Y-144200D01*
X-20600D01*
Y-149200D01*
G01D02*
X-18100D01*
X-16900Y-147900D01*
Y-145400D01*
X-18100Y-144200D01*
X-20600D01*
Y-149200D01*
G01X-10600Y-144200D02*
Y-149200D01*
G01X-6900Y-148500D02*
X-10600Y-144800D01*
G01Y-121700D02*
X-8100D01*
G01X-6900Y-124200D02*
X-10600D01*
Y-119200D01*
X-6900D01*
G01X-20600Y-123500D02*
X-20000Y-124200D01*
X-17500D01*
X-16900Y-123500D01*
Y-119800D01*
X-17500Y-119200D01*
X-20000D01*
X-20600Y-119800D01*
Y-123500D01*
G01X-15600Y-124200D02*
Y-119200D01*
X-13700Y-121700D01*
X-11900Y-119200D01*
Y-124200D01*
G01X-15600D02*
Y-119200D01*
X-13700Y-121700D01*
X-11900Y-119200D01*
Y-124200D01*
G01X-20600Y-123500D02*
X-20000Y-124200D01*
X-17500D01*
X-16900Y-123500D01*
Y-119800D01*
X-17500Y-119200D01*
X-20000D01*
X-20600Y-119800D01*
Y-123500D01*
G01X-6900Y-124200D02*
X-10600D01*
Y-119200D01*
X-6900D01*
G01X-10600Y-121700D02*
X-8100D01*
G01X1300Y-174200D02*
X1900D01*
Y-173500D01*
X1300D01*
Y-174200D01*
G01X-6900D02*
Y-169200D01*
G01X-5600Y-173500D02*
X-5000Y-174200D01*
X-2500D01*
X-1900Y-173500D01*
Y-169800D01*
X-2500Y-169200D01*
X-5000D01*
X-5600Y-169800D01*
Y-173500D01*
G01D02*
X-5000Y-174200D01*
X-2500D01*
X-1900Y-173500D01*
Y-169800D01*
X-2500Y-169200D01*
X-5000D01*
X-5600Y-169800D01*
Y-173500D01*
G01X-6900Y-174200D02*
Y-169200D01*
G01X1300Y-174200D02*
X1900D01*
Y-173500D01*
X1300D01*
Y-174200D01*
G01X3100Y-149200D02*
Y-144200D01*
X1300Y-146700D01*
X-600Y-144200D01*
Y-149200D01*
G01X-1900D02*
Y-145400D01*
X-3100Y-144200D01*
X-4300D01*
X-5600Y-145400D01*
Y-149200D01*
G01X-6900D02*
Y-144200D01*
G01X-5600Y-147300D02*
X-1900D01*
G01X-5600D02*
X-1900D01*
G01X-6900Y-149200D02*
Y-144200D01*
G01X-1900Y-149200D02*
Y-145400D01*
X-3100Y-144200D01*
X-4300D01*
X-5600Y-145400D01*
Y-149200D01*
G01X3100D02*
Y-144200D01*
X1300Y-146700D01*
X-600Y-144200D01*
Y-149200D01*
G01X-5600Y-121700D02*
X-2500D01*
X-1900Y-121100D01*
Y-119800D01*
X-2500Y-119200D01*
X-5600D01*
Y-124200D01*
G01X-4300Y-121700D02*
X-1900Y-124200D01*
G01X-4300Y-121700D02*
X-1900Y-124200D01*
G01X-5600Y-121700D02*
X-2500D01*
X-1900Y-121100D01*
Y-119800D01*
X-2500Y-119200D01*
X-5600D01*
Y-124200D01*
G01X8100Y-144200D02*
X4400D01*
Y-149200D01*
X8100D01*
G01X6900Y-146700D02*
X4400D01*
G01X6900D02*
X4400D01*
G01X8100Y-144200D02*
X4400D01*
Y-149200D01*
X8100D01*
G01X4400Y-124200D02*
Y-119200D01*
G01Y-119800D02*
X8100Y-123500D01*
G01Y-124200D02*
Y-119200D01*
G01X9400Y-122300D02*
X13100D01*
G01Y-124200D02*
Y-120400D01*
X11900Y-119200D01*
X10700D01*
X9400Y-120400D01*
Y-124200D01*
G01X14400D02*
Y-119200D01*
X16300Y-121700D01*
X18100Y-119200D01*
Y-124200D01*
G01X14400D02*
Y-119200D01*
X16300Y-121700D01*
X18100Y-119200D01*
Y-124200D01*
G01X13100D02*
Y-120400D01*
X11900Y-119200D01*
X10700D01*
X9400Y-120400D01*
Y-124200D01*
G01Y-122300D02*
X13100D01*
G01X8100Y-124200D02*
Y-119200D01*
G01X4400Y-119800D02*
X8100Y-123500D01*
G01X4400Y-124200D02*
Y-119200D01*
G01X19400Y-121700D02*
X21900D01*
G01X23100Y-124200D02*
X19400D01*
Y-119200D01*
X23100D01*
G01Y-124200D02*
X19400D01*
Y-119200D01*
X23100D01*
G01X19400Y-121700D02*
X21900D01*
G01X108000Y-171700D02*
X110400Y-174200D01*
G01X106700Y-171700D02*
X109800D01*
X110400Y-171100D01*
Y-169800D01*
X109800Y-169200D01*
X106700D01*
Y-174200D01*
G01Y-171700D02*
X109800D01*
X110400Y-171100D01*
Y-169800D01*
X109800Y-169200D01*
X106700D01*
Y-174200D01*
G01X108000Y-171700D02*
X110400Y-174200D01*
G01X115400D02*
X111700D01*
Y-169200D01*
X115400D01*
G01X111700Y-171700D02*
X114200D01*
G01X116700Y-169200D02*
Y-172300D01*
X118600Y-174200D01*
X120400Y-172300D01*
Y-169200D01*
G01X116700D02*
Y-172300D01*
X118600Y-174200D01*
X120400Y-172300D01*
Y-169200D01*
G01X111700Y-171700D02*
X114200D01*
G01X115400Y-174200D02*
X111700D01*
Y-169200D01*
X115400D01*
G01X146800Y-174200D02*
X149300D01*
X150500Y-172900D01*
Y-170400D01*
X149300Y-169200D01*
X146800D01*
Y-174200D01*
G01D02*
X149300D01*
X150500Y-172900D01*
Y-170400D01*
X149300Y-169200D01*
X146800D01*
Y-174200D01*
G01X160300Y-169200D02*
X158400D01*
G01X165500Y-174200D02*
X161800D01*
Y-169200D01*
X165500D01*
G01X161800Y-171700D02*
X164300D01*
G01X156500Y-169200D02*
X158400D01*
Y-174200D01*
G01X155500Y-172300D02*
X151800D01*
G01Y-174200D02*
Y-170400D01*
X153100Y-169200D01*
X154300D01*
X155500Y-170400D01*
Y-174200D01*
G01X151800D02*
Y-170400D01*
X153100Y-169200D01*
X154300D01*
X155500Y-170400D01*
Y-174200D01*
G01Y-172300D02*
X151800D01*
G01X156500Y-169200D02*
X158400D01*
Y-174200D01*
G01X161800Y-171700D02*
X164300D01*
G01X165500Y-174200D02*
X161800D01*
Y-169200D01*
X165500D01*
G01X160300D02*
X158400D01*
G01X184400Y-149200D02*
X186900D01*
X188100Y-147900D01*
Y-145400D01*
X186900Y-144200D01*
X184400D01*
Y-149200D01*
G01X189400Y-146700D02*
X191900D01*
G01X193100Y-149200D02*
X189400D01*
Y-144200D01*
X193100D01*
G01Y-149200D02*
X189400D01*
Y-144200D01*
X193100D01*
G01X189400Y-146700D02*
X191900D01*
G01X184400Y-149200D02*
X186900D01*
X188100Y-147900D01*
Y-145400D01*
X186900Y-144200D01*
X184400D01*
Y-149200D01*
G01X194400Y-148500D02*
X195000Y-149200D01*
X197500D01*
X198100Y-148500D01*
Y-147300D01*
X197500Y-146700D01*
X195000D01*
X194400Y-146100D01*
Y-144800D01*
X195000Y-144200D01*
X197500D01*
X198100Y-144800D01*
G01X203100Y-145400D02*
Y-144800D01*
X202500Y-144200D01*
X200000D01*
X199400Y-144800D01*
Y-148500D01*
X200000Y-149200D01*
X202500D01*
X203100Y-148500D01*
Y-147900D01*
G01Y-145400D02*
Y-144800D01*
X202500Y-144200D01*
X200000D01*
X199400Y-144800D01*
Y-148500D01*
X200000Y-149200D01*
X202500D01*
X203100Y-148500D01*
Y-147900D01*
G01X194400Y-148500D02*
X195000Y-149200D01*
X197500D01*
X198100Y-148500D01*
Y-147300D01*
X197500Y-146700D01*
X195000D01*
X194400Y-146100D01*
Y-144800D01*
X195000Y-144200D01*
X197500D01*
X198100Y-144800D01*
G01X199915Y579450D02*
X190467D01*
G01D02*
Y594410D01*
G01X199915D02*
Y579450D01*
G01X190467Y594410D02*
X199915D01*
G01X209400Y-149200D02*
X213100D01*
G01X214400D02*
Y-144200D01*
X217500D01*
X218100Y-144800D01*
Y-146100D01*
X217500Y-146700D01*
X214400D01*
G01X213100Y-144200D02*
X209400D01*
G01X211300D02*
Y-149200D01*
G01X204400Y-146700D02*
X207500D01*
X208100Y-146100D01*
Y-144800D01*
X207500Y-144200D01*
X204400D01*
Y-149200D01*
G01X205700Y-146700D02*
X208100Y-149200D01*
G01X205700Y-146700D02*
X208100Y-149200D01*
G01X204400Y-146700D02*
X207500D01*
X208100Y-146100D01*
Y-144800D01*
X207500Y-144200D01*
X204400D01*
Y-149200D01*
G01X211300Y-144200D02*
Y-149200D01*
G01X213100Y-144200D02*
X209400D01*
G01X214400Y-149200D02*
Y-144200D01*
X217500D01*
X218100Y-144800D01*
Y-146100D01*
X217500Y-146700D01*
X214400D01*
G01X209400Y-149200D02*
X213100D01*
G01X217915Y579450D02*
X208467D01*
G01D02*
Y594410D01*
G01D02*
X217915D01*
G01X225889Y-174285D02*
Y-169285D01*
X228989D01*
X229589Y-169885D01*
Y-171185D01*
X228989Y-171785D01*
X225889D01*
G01Y-174285D02*
Y-169285D01*
X228989D01*
X229589Y-169885D01*
Y-171185D01*
X228989Y-171785D01*
X225889D01*
G01X219400Y-144200D02*
X221300D01*
Y-149200D01*
G01X224400D02*
X228100D01*
G01X229400Y-148500D02*
X230000Y-149200D01*
X232500D01*
X233100Y-148500D01*
Y-144800D01*
X232500Y-144200D01*
X230000D01*
X229400Y-144800D01*
Y-148500D01*
G01X226300Y-149200D02*
Y-144200D01*
G01X228100D02*
X224400D01*
G01X223200D02*
X221300D01*
G01X223200D02*
X221300D01*
G01X228100D02*
X224400D01*
G01X226300Y-149200D02*
Y-144200D01*
G01X229400Y-148500D02*
X230000Y-149200D01*
X232500D01*
X233100Y-148500D01*
Y-144800D01*
X232500Y-144200D01*
X230000D01*
X229400Y-144800D01*
Y-148500D01*
G01X224400Y-149200D02*
X228100D01*
G01X219400Y-144200D02*
X221300D01*
Y-149200D01*
G01X235915Y579450D02*
X226467D01*
G01D02*
Y594410D01*
G01X217915D02*
Y579450D01*
G01X226467Y594410D02*
X235915D01*
G01X231400Y-171800D02*
X234500D01*
X235100Y-171200D01*
Y-169900D01*
X234500Y-169300D01*
X231400D01*
Y-174300D01*
G01X232700Y-171800D02*
X235100Y-174300D01*
G01X245500Y-172800D02*
X241700D01*
G01X245500Y-170900D02*
X241700D01*
G01X243000Y-170000D02*
Y-173800D01*
G01X240200Y-169300D02*
Y-173000D01*
X239000Y-174300D01*
X237700D01*
X236500Y-173000D01*
G01X240200Y-169300D02*
Y-173000D01*
X239000Y-174300D01*
X237700D01*
X236500Y-173000D01*
G01X243000Y-170000D02*
Y-173800D01*
G01X245500Y-170900D02*
X241700D01*
G01X245500Y-172800D02*
X241700D01*
G01X232700Y-171800D02*
X235100Y-174300D01*
G01X231400Y-171800D02*
X234500D01*
X235100Y-171200D01*
Y-169900D01*
X234500Y-169300D01*
X231400D01*
Y-174300D01*
G01X238100Y-149200D02*
Y-144200D01*
G01X234400D02*
Y-149200D01*
G01Y-144800D02*
X238100Y-148500D01*
G01X234400Y-144800D02*
X238100Y-148500D01*
G01X234400Y-144200D02*
Y-149200D01*
G01X238100D02*
Y-144200D01*
G01X235915Y594410D02*
Y579450D01*
G01X250515Y630250D02*
X241067D01*
G01D02*
Y645210D01*
G01D02*
X250515D01*
G01X244200Y-170000D02*
Y-173800D01*
G01Y-170000D02*
Y-173800D01*
G01X253915Y579450D02*
X244467D01*
G01D02*
Y594410D01*
G01X253915D02*
Y579450D01*
G01X259391Y589930D02*
X255391D01*
G01D02*
Y593930D01*
G01X254791Y603530D02*
X258791D01*
G01Y599530D02*
X254791D01*
G01D02*
Y603530D01*
G01X255391Y593930D02*
X259391D01*
G01X244467Y594410D02*
X253915D01*
G01X250515Y645210D02*
Y630250D01*
G01X264791Y593930D02*
Y589930D01*
G01D02*
X260791D01*
G01D02*
Y593930D01*
G01X259391D02*
Y589930D01*
G01X260791Y598730D02*
X264791D01*
G01D02*
Y594730D01*
G01D02*
X260791D01*
G01D02*
Y598730D01*
G01Y593930D02*
X264791D01*
G01X258791Y603530D02*
Y599530D01*
G01X260791Y603530D02*
X264791D01*
G01D02*
Y599530D01*
G01D02*
X260791D01*
G01D02*
Y603530D01*
G01X264791Y621530D02*
Y617530D01*
G01D02*
X260791D01*
G01D02*
Y621530D01*
G01Y616730D02*
X264791D01*
G01D02*
Y612730D01*
G01D02*
X260791D01*
G01D02*
Y616730D01*
G01Y611930D02*
X264791D01*
G01D02*
Y607930D01*
G01D02*
X260791D01*
G01D02*
Y611930D01*
G01Y626330D02*
X264791D01*
G01D02*
Y622330D01*
G01D02*
X260791D01*
G01D02*
Y626330D01*
G01Y621530D02*
X264791D01*
G01X280915Y647662D02*
X271467D01*
G01D02*
Y664198D01*
G01X280915D02*
Y647662D01*
G01X271467Y664198D02*
X280915D01*
G01X329400Y-169200D02*
Y-174200D01*
G01Y-171700D02*
X333100D01*
G01Y-174200D02*
Y-169200D01*
G01X324400Y-173500D02*
X325000Y-174200D01*
X327500D01*
X328100Y-173500D01*
Y-172300D01*
X327500Y-171700D01*
X325000D01*
X324400Y-171100D01*
Y-169800D01*
X325000Y-169200D01*
X327500D01*
X328100Y-169800D01*
G01X324400Y-173500D02*
X325000Y-174200D01*
X327500D01*
X328100Y-173500D01*
Y-172300D01*
X327500Y-171700D01*
X325000D01*
X324400Y-171100D01*
Y-169800D01*
X325000Y-169200D01*
X327500D01*
X328100Y-169800D01*
G01X333100Y-174200D02*
Y-169200D01*
G01X329400Y-171700D02*
X333100D01*
G01X329400Y-169200D02*
Y-174200D01*
G01X333991Y587930D02*
X337991D01*
G01Y583930D02*
X333991D01*
G01D02*
Y587930D01*
G01X336891Y593330D02*
X340891D01*
G01Y589330D02*
X336891D01*
G01D02*
Y593330D01*
G01X336391Y602330D02*
X340391D01*
G01Y598330D02*
X336391D01*
G01D02*
Y602330D01*
G01X334091Y607130D02*
Y603130D01*
G01D02*
X330091D01*
G01D02*
Y607130D01*
G01Y602330D02*
X334091D01*
G01D02*
Y598330D01*
G01D02*
X330091D01*
G01D02*
Y602330D01*
G01X336991Y598130D02*
X340991D01*
G01Y594130D02*
X336991D01*
G01D02*
Y598130D01*
G01X330091Y607130D02*
X334091D01*
G01X361492Y571206D02*
X349150D01*
G01D02*
Y600694D01*
G01X339091Y577430D02*
X343091D01*
G01D02*
Y573430D01*
G01D02*
X339091D01*
G01D02*
Y577430D01*
G01X343091Y582830D02*
Y578830D01*
G01D02*
X339091D01*
G01D02*
Y582830D01*
G01X360114Y571186D02*
X349287Y582013D01*
G01X360114Y571186D02*
X349091Y582210D01*
G01X337991Y587930D02*
Y583930D01*
G01X339091Y582830D02*
X343091D01*
G01X339191Y587930D02*
X343191D01*
G01D02*
Y583930D01*
G01D02*
X339191D01*
G01D02*
Y587930D01*
G01X340891Y593330D02*
Y589330D01*
G01X349150Y600694D02*
X361295D01*
G01X340391Y602330D02*
Y598330D01*
G01X342991Y602330D02*
X346991D01*
G01D02*
Y598330D01*
G01D02*
X342991D01*
G01D02*
Y602330D01*
G01X340991Y598130D02*
Y594130D01*
G01X348391Y611330D02*
X352391D01*
G01Y607330D02*
X348391D01*
G01D02*
Y611330D01*
G01X346991Y607330D02*
X342991D01*
G01D02*
Y611330D01*
G01D02*
X346991D01*
G01D02*
Y607330D01*
G01X351630Y597761D02*
Y578076D01*
G01D02*
X355567Y574139D01*
G01D02*
X361472D01*
G01Y597761D02*
X351630D01*
G01X359191Y611330D02*
X363191D01*
G01D02*
Y607330D01*
G01D02*
X359191D01*
G01D02*
Y611330D01*
G01X353791D02*
X357791D01*
G01D02*
Y607330D01*
G01D02*
X353791D01*
G01D02*
Y611330D01*
G01X352391D02*
Y607330D01*
G01X369400Y-174200D02*
Y-169200D01*
X373100D01*
G01X371900Y-171700D02*
X369400D01*
G01X364400Y-173500D02*
X365000Y-174200D01*
X367500D01*
X368100Y-173500D01*
Y-169800D01*
X367500Y-169200D01*
X365000D01*
X364400Y-169800D01*
Y-173500D01*
G01D02*
X365000Y-174200D01*
X367500D01*
X368100Y-173500D01*
Y-169800D01*
X367500Y-169200D01*
X365000D01*
X364400Y-169800D01*
Y-173500D01*
G01X371900Y-171700D02*
X369400D01*
G01Y-174200D02*
Y-169200D01*
X373100D01*
G01X364591Y611330D02*
X368591D01*
G01D02*
Y607330D01*
G01D02*
X364591D01*
G01D02*
Y611330D01*
G01X391391Y606130D02*
X387391D01*
G01D02*
Y610130D01*
G01X386591D02*
Y606130D01*
G01D02*
X382591D01*
G01D02*
Y610130D01*
G01X381791D02*
Y606130D01*
G01D02*
X377791D01*
G01D02*
Y610130D01*
G01X387391D02*
X391391D01*
G01X382591D02*
X386591D01*
G01X377791D02*
X381791D01*
G01X403991Y606130D02*
X399991D01*
G01D02*
Y610130D01*
G01X399191D02*
Y606130D01*
G01D02*
X395191D01*
G01D02*
Y610130D01*
G01X391391D02*
Y606130D01*
G01X399991Y610130D02*
X403991D01*
G01X395191D02*
X399191D01*
G01X403991D02*
Y606130D01*
G01X420500Y574139D02*
X426433D01*
G01D02*
X430370Y578076D01*
G01D02*
Y597761D01*
G01X421504Y571554D02*
X432724Y582774D01*
G01X420547Y571206D02*
X432700D01*
G01X430370Y597761D02*
X420700D01*
G01X420547Y600694D02*
X432800D01*
G01X424300D02*
X432850D01*
G01D02*
Y571206D01*
G54D49*
X227459Y30069D03*
X224900D03*
X222341D03*
Y38731D03*
X224900D03*
X227459D03*
G54D59*
G01X26650Y49700D02*
Y47700D01*
G01X31650Y49700D02*
Y47700D01*
G01X57950Y182950D02*
X56550D01*
G01X57950Y185950D02*
X56550D01*
G01X67250Y104100D02*
X65850D01*
G01X67250Y101100D02*
X65850D01*
G01X105000Y148200D02*
Y146800D01*
G01X108000Y148200D02*
Y146800D01*
G01X128950Y108200D02*
X127550D01*
G01X128950Y111200D02*
X127550D01*
G01X184884Y434378D02*
X180884D01*
X181684Y433778D01*
G01X184884D02*
Y434978D01*
G01X183684Y492578D02*
X184017Y492878D01*
X184217Y493228D01*
X184284Y493678D01*
X184150Y494128D01*
X183884Y494478D01*
X183417Y494728D01*
X182884Y494778D01*
X182350Y494678D01*
X182017Y494428D01*
X181750Y494078D01*
X181684Y493728D01*
X181750Y493378D01*
X182017Y492928D01*
X180284Y493078D01*
Y494428D01*
G01X183817Y496628D02*
X184150Y496978D01*
X184284Y497378D01*
X184150Y497778D01*
X183750Y498128D01*
X183150Y498378D01*
X182550Y498478D01*
X181817D01*
X181217Y498378D01*
X180684Y498128D01*
X180417Y497828D01*
X180284Y497478D01*
X180417Y497078D01*
X180684Y496778D01*
X181084Y496578D01*
X181617Y496478D01*
X182084Y496578D01*
X182550Y496828D01*
X182817Y497128D01*
X182884Y497478D01*
X182750Y497878D01*
X182417Y498178D01*
X181817Y498478D01*
G01X178191Y772930D02*
X188191D01*
G01D02*
Y812930D01*
G01X178191D02*
Y772930D01*
G01Y782930D02*
X188191D01*
G01X178191Y812930D02*
X188191D01*
G01D02*
Y842930D01*
G01X178191D02*
Y812930D01*
G01X188191D02*
X178191D01*
G01Y822930D02*
X188191D01*
G01Y842930D02*
X178191D01*
G01X194991Y577130D02*
Y584730D01*
G01X191391D02*
Y577130D01*
G01D02*
X194991D01*
G01Y584730D02*
X191391D01*
G01X193891Y580930D02*
X192591D01*
G01X194191Y823930D02*
X232191D01*
G01X194191Y841930D02*
Y823930D01*
G01X232191Y841930D02*
X194191D01*
G01X223393Y26287D02*
X220459Y28340D01*
G01X219926Y27313D02*
X223926D01*
G01X223393Y28340D02*
X220459Y26287D01*
G01X221926Y25913D02*
Y28713D01*
G01X219850Y431928D02*
X219450Y432228D01*
X219250Y432578D01*
X219184Y432978D01*
X219317Y433478D01*
X219650Y433828D01*
X220050Y433928D01*
X220450Y433878D01*
X220784Y433678D01*
X221450Y432678D01*
X221917Y432228D01*
X222584Y431928D01*
X223184Y431828D01*
Y433928D01*
G01X221317Y492228D02*
X220850Y492578D01*
X220584Y492878D01*
X220450Y493278D01*
X220584Y493628D01*
X220850Y493878D01*
X221250Y494078D01*
X221717Y494128D01*
X222117Y494078D01*
X222517Y493878D01*
X222850Y493578D01*
X222984Y493228D01*
X222850Y492828D01*
X222450Y492478D01*
X221850Y492278D01*
X221184Y492228D01*
X220317Y492328D01*
X219850Y492478D01*
X219384Y492728D01*
X219050Y493078D01*
X218984Y493428D01*
X219117Y493778D01*
X219450Y494028D01*
G01X218984Y496978D02*
X219117Y496578D01*
X219450Y496278D01*
X219850Y496078D01*
X220384Y495928D01*
X220984Y495878D01*
X221584Y495928D01*
X222117Y496078D01*
X222517Y496278D01*
X222850Y496578D01*
X222984Y496978D01*
X222850Y497378D01*
X222517Y497678D01*
X222117Y497878D01*
X221584Y498028D01*
X220984Y498078D01*
X220384Y498028D01*
X219850Y497878D01*
X219450Y497678D01*
X219117Y497378D01*
X218984Y496978D01*
G01X228691Y832930D02*
G03X217691I-5500J0D01*
G03X228691I5500J0D01*
G01X241700Y67200D02*
Y65800D01*
G01X235150Y82500D02*
X233750D01*
G01X235150Y85500D02*
X233750D01*
G01X235150Y87500D02*
X233750D01*
G01X235150Y90500D02*
X233750D01*
G01X235150Y92500D02*
X233750D01*
G01X235150Y95500D02*
X233750D01*
G01X243000Y597700D02*
Y617700D01*
G01X253000Y597700D02*
X243000D01*
G01Y617700D02*
X253000D01*
G01X241991Y629530D02*
X249591D01*
G01Y625930D02*
X241991D01*
G01D02*
Y629530D01*
G01X232191Y823930D02*
Y841930D01*
G01X255950Y67200D02*
Y65800D01*
G01X252950Y67200D02*
Y65800D01*
G01X244700Y67200D02*
Y65800D01*
G01X254991Y583030D02*
Y590630D01*
G01D02*
X251391D01*
G01D02*
Y583030D01*
G01D02*
X254991D01*
G01X253891Y586830D02*
X252591D01*
G01X253000Y617700D02*
Y597700D01*
G01X249591Y629530D02*
Y625930D01*
G01X245791Y628430D02*
Y627130D01*
G01X252230Y848647D02*
Y787623D01*
G01D02*
X279002D01*
G01X257348Y848647D02*
X252230D01*
G01X258200Y73000D02*
Y75000D01*
G01X263200Y73000D02*
Y75000D01*
G01X267500Y94250D02*
X268900D01*
G01X267500Y91250D02*
X268900D01*
G01X267500Y99250D02*
X268900D01*
G01X267500Y96250D02*
X268900D01*
G01X267500Y104250D02*
X268900D01*
G01X267500Y101250D02*
X268900D01*
G01X267500Y109250D02*
X268900D01*
G01X267500Y106250D02*
X268900D01*
G01X316494Y597725D02*
X266888D01*
G01D02*
Y622135D01*
G01D02*
X316494D01*
G01X277034Y854552D02*
X257348D01*
G01D02*
Y848647D01*
G01X279002Y787623D02*
Y848647D01*
G01D02*
X277034D01*
G01D02*
Y854552D01*
G01X322591Y595730D02*
G03X317591I-2500J0D01*
G03X322591I2500J0D01*
G01X316494Y607961D02*
Y597725D01*
G01X322591Y602730D02*
G03X317591I-2500J0D01*
G03X322591I2500J0D01*
G01X316494Y622135D02*
Y611899D01*
G01D02*
X313541D01*
G01D02*
Y607961D01*
G01D02*
X316494D01*
G01X336891Y558430D02*
X342691D01*
G01Y565430D02*
X336891D01*
G01X334491Y558430D02*
X328691D01*
G01D02*
Y565430D01*
G01D02*
X334491D01*
G01X342691Y558430D02*
Y565430D01*
G01X359000Y752700D02*
X379000D01*
G01Y742700D02*
X359000D01*
G01D02*
Y752700D01*
G01X379000D02*
Y742700D01*
G01X421640Y738450D02*
X402742D01*
G01D02*
Y753410D01*
G01D02*
X421640D01*
G01X406094Y761354D02*
X417906D01*
G01X406094Y768046D02*
Y761354D01*
G01X406882Y758401D02*
X405701Y759582D01*
G01D02*
Y757220D01*
G01D02*
X406882Y758401D01*
G01X406094Y758794D02*
Y758007D01*
G01X406882Y758401D02*
X406094D01*
G01X417906Y768046D02*
X406094D01*
G01X428491Y679830D02*
Y649830D01*
G01D02*
X438491D01*
G01Y669830D02*
X428491D01*
G01X438491Y679830D02*
X428491D01*
G01X442191Y708930D02*
X422191D01*
G01D02*
Y718930D01*
G01D02*
X442191D01*
G01X421640Y753410D02*
Y738450D01*
G01X442449Y738220D02*
X423551D01*
G01D02*
Y753180D01*
G01D02*
X442449D01*
G01X417906Y761354D02*
Y768046D01*
G01X439828Y786913D02*
X419828D01*
G01D02*
Y796913D01*
G01D02*
X439828D01*
G01X438491Y649830D02*
Y679830D01*
G01X442191Y718930D02*
Y708930D01*
G01X442449Y753180D02*
Y738220D01*
G01X433094Y761354D02*
X444906D01*
G01X433094Y768046D02*
Y761354D01*
G01X433882Y758401D02*
X432701Y759582D01*
G01D02*
Y757220D01*
G01D02*
X433882Y758401D01*
G01X433094Y758794D02*
Y758007D01*
G01X433882Y758401D02*
X433094D01*
G01X444906Y768046D02*
X433094D01*
G01X439828Y796913D02*
Y786913D01*
G01X444906Y761354D02*
Y768046D01*
M02*
